<svg width="552" height="425" viewBox="0 0 552 425" fill="none" xmlns="http://www.w3.org/2000/svg">
<g clip-path="url(#clip0_192_766)">
<path d="M490.958 303.456H291.414C287.846 303.456 284.942 300.552 284.942 296.984V6.32992C284.942 2.7618 287.846 -0.141724 291.414 -0.141724H490.958C494.526 -0.141724 497.429 2.76069 497.429 6.32992V296.983C497.429 300.553 494.526 303.456 490.958 303.456ZM291.414 0.134276C287.997 0.134276 285.218 2.91415 285.218 6.32992V296.983C285.218 300.4 287.998 303.179 291.414 303.179H490.958C494.374 303.179 497.153 300.399 497.153 296.983V6.32992C497.153 2.91415 494.373 0.134276 490.958 0.134276H291.414Z" fill="#F0F0F0"/>
<path d="M260.853 303.456H61.3095C57.7414 303.456 54.8379 300.552 54.8379 296.984V6.32992C54.8379 2.7618 57.7403 -0.141724 61.3095 -0.141724H260.853C264.421 -0.141724 267.325 2.76069 267.325 6.32992V296.983C267.326 300.553 264.422 303.456 260.853 303.456ZM61.3095 0.134276C57.8938 0.134276 55.1139 2.91415 55.1139 6.32992V296.983C55.1139 300.4 57.8938 303.179 61.3095 303.179H260.853C264.27 303.179 267.049 300.399 267.049 296.983V6.32992C267.049 2.91415 264.269 0.134276 260.853 0.134276H61.3095Z" fill="#F0F0F0"/>
<path d="M552 370.876H0V371.152H552V370.876Z" fill="#F0F0F0"/>
<path d="M96.0075 342.705C96.0075 342.705 85.5736 345.017 87.1236 337.737C88.6736 330.457 88.5599 327.773 84.3194 324.464C80.079 321.155 75.8109 319.52 79.0578 314.281C82.3046 309.041 76.1432 304.969 72.9593 302.148C69.7742 299.327 73.37 297.201 74.2134 291.87C75.0569 286.538 69.3216 287.34 68.8712 280.624C68.4207 273.91 75.2424 266.061 69.3768 256.819C69.3768 256.819 77.2549 260.905 79.8427 268.081C82.4305 275.257 80.3417 280.801 84.9951 283.528C89.6484 286.256 92.5619 290.973 90.981 295.815C89.4001 300.657 91.6467 303.225 95.461 306.757C99.2753 310.289 98.2596 311.692 97.786 316.01C97.3113 320.327 98.2641 319.306 102.631 325.205C107 331.102 107.112 340.77 96.0075 342.705Z" fill="#F0F0F0"/>
<path d="M97.4942 342.383C97.4721 342.348 97.4544 342.312 97.4412 342.27L76.5612 278.898C76.4718 278.626 76.6198 278.332 76.8913 278.242C76.8947 278.241 76.898 278.24 76.9013 278.238C77.1706 278.155 77.4599 278.302 77.5493 278.573L98.4282 341.945C98.4458 341.996 98.4525 342.047 98.4547 342.099L97.4942 342.383Z" fill="#E0E0E0"/>
<path d="M114.837 342.573C114.837 342.573 125.215 344.873 123.674 337.631C122.132 330.389 122.246 327.72 126.464 324.429C130.682 321.138 134.927 319.512 131.697 314.3C128.467 309.088 134.596 305.036 137.763 302.232C140.931 299.426 137.355 297.311 136.516 292.009C135.677 286.706 141.381 287.502 141.829 280.823C142.278 274.143 135.491 266.336 141.326 257.143C141.326 257.143 133.49 261.207 130.916 268.346C128.342 275.484 130.421 280.998 125.792 283.711C121.163 286.425 118.265 291.117 119.838 295.933C121.411 300.75 119.175 303.304 115.381 306.817C111.587 310.33 112.597 311.725 113.068 316.02C113.541 320.314 112.592 319.3 108.248 325.166C103.903 331.033 103.792 340.649 114.837 342.573Z" fill="#F0F0F0"/>
<path d="M112.403 341.971C112.404 341.919 112.412 341.868 112.43 341.817L133.197 278.782C133.285 278.513 133.573 278.367 133.841 278.449C133.844 278.45 133.847 278.452 133.851 278.453C134.12 278.542 134.268 278.835 134.179 279.104L113.41 342.141C113.397 342.182 113.379 342.217 113.357 342.253L112.403 341.971Z" fill="#E0E0E0"/>
<path d="M103.311 341.255C103.311 341.255 91.3665 340.266 95.4457 332.984C99.5239 325.701 100.293 322.787 96.85 317.836C93.4066 312.883 89.3781 309.715 94.5968 305.182C99.8154 300.649 94.5681 294.24 92.094 290.161C89.6199 286.082 94.1761 284.998 96.85 279.569C99.5239 274.138 93.1152 273.092 94.8628 265.75C96.6105 258.408 106.523 252.268 103.311 240.42C103.311 240.42 110.392 247.411 110.78 255.958C111.169 264.504 107.091 269.748 111.169 274.214C115.247 278.681 116.802 284.702 113.499 289.364C110.197 294.025 111.752 297.521 114.665 302.571C117.579 307.62 116.024 308.786 114.082 313.253C112.14 317.72 113.499 316.944 116.219 324.712C118.938 332.479 115.845 342.87 103.311 341.255Z" fill="#F5F5F5"/>
<path d="M105.011 341.403C104.999 341.357 104.991 341.313 104.991 341.265L103.674 266.453C103.668 266.133 103.925 265.867 104.245 265.862C104.248 265.862 104.252 265.862 104.256 265.862C104.573 265.862 104.832 266.115 104.839 266.435L106.156 341.243C106.158 341.303 106.148 341.361 106.133 341.418L105.011 341.403Z" fill="#E0E0E0"/>
<path d="M135.833 335.476H77.4174C75.7371 335.476 74.5757 337.155 75.1685 338.727L76.033 341.02L76.5784 342.472L78.146 346.635L78.6947 348.087L80.3055 352.362L80.8508 353.813L87.2772 370.875H125.974L132.399 353.813L132.944 352.362L134.555 348.087L135.104 346.635L136.671 342.472L137.217 341.02L138.081 338.727C138.673 337.155 137.511 335.476 135.833 335.476Z" fill="#E6E6E6"/>
<path d="M86.3933 134.126H121.248C122.162 134.126 122.904 133.384 122.904 132.47V124.601C122.904 123.687 122.162 122.945 121.248 122.945H86.3933C85.4781 122.945 84.7373 123.687 84.7373 124.601V132.47C84.7373 133.384 85.4792 134.126 86.3933 134.126Z" fill="#F5F5F5"/>
<path d="M65.5749 148.384H100.429C101.343 148.384 102.085 147.642 102.085 146.728V138.86C102.085 137.946 101.343 137.204 100.429 137.204H65.5749C64.6608 137.204 63.9189 137.946 63.9189 138.86V146.728C63.9189 147.643 64.6608 148.384 65.5749 148.384Z" fill="#F5F5F5"/>
<path d="M346.874 22.8546H312.019C311.105 22.8546 310.363 22.1127 310.363 21.1986V13.3304C310.363 12.4163 311.105 11.6744 312.019 11.6744H346.874C347.788 11.6744 348.53 12.4163 348.53 13.3304V21.1986C348.53 22.1127 347.788 22.8546 346.874 22.8546Z" fill="#F5F5F5"/>
<path d="M367.692 37.1139H332.838C331.924 37.1139 331.182 36.372 331.182 35.4579V27.5897C331.182 26.6755 331.924 25.9337 332.838 25.9337H367.692C368.606 25.9337 369.348 26.6755 369.348 27.5897V35.4579C369.348 36.372 368.606 37.1139 367.692 37.1139Z" fill="#F5F5F5"/>
<path d="M354.151 196.647H319.297C318.381 196.647 317.641 195.905 317.641 194.991V187.123C317.641 186.208 318.381 185.467 319.297 185.467H354.151C355.065 185.467 355.807 186.208 355.807 187.123V194.991C355.807 195.905 355.065 196.647 354.151 196.647Z" fill="#F5F5F5"/>
<path d="M395.788 196.647H360.933C360.019 196.647 359.277 195.905 359.277 194.991V187.123C359.277 186.208 360.019 185.467 360.933 185.467H395.788C396.702 185.467 397.444 186.208 397.444 187.123V194.991C397.444 195.905 396.702 196.647 395.788 196.647Z" fill="#F5F5F5"/>
<path d="M374.969 210.906H340.115C339.2 210.906 338.459 210.164 338.459 209.25V201.381C338.459 200.467 339.2 199.725 340.115 199.725H374.969C375.883 199.725 376.625 200.467 376.625 201.381V209.25C376.625 210.165 375.883 210.906 374.969 210.906Z" fill="#F5F5F5"/>
<path d="M482.878 23.8239H395.639V111.063H482.878V23.8239Z" fill="#E6E6E6"/>
<path d="M478.462 106.647V28.2398L400.056 28.2398V106.647L478.462 106.647Z" fill="#FAFAFA"/>
<path d="M434.002 88.8407C434.002 88.8407 448.399 59.323 478.46 58.7313V106.647H439.257L434.002 88.8407Z" fill="#F0F0F0"/>
<path d="M400.055 80.5529C400.055 80.5529 413.001 73.7666 426.16 78.7479C442.683 85.0042 452.265 106.647 452.265 106.647H400.055V80.5529Z" fill="#F5F5F5"/>
<path d="M440.785 53.0965C440.785 60.7362 434.592 66.9296 426.952 66.9296C419.313 66.9296 413.119 60.7362 413.119 53.0965C413.119 45.4568 419.313 39.2634 426.952 39.2634C434.592 39.2623 440.785 45.4557 440.785 53.0965Z" fill="white"/>
<path d="M258.739 24.3936H182.202V172.566H258.739V24.3936Z" fill="#E6E6E6"/>
<path d="M254.322 168.15L254.322 28.8096L186.617 28.8096L186.617 168.15H254.322Z" fill="#FAFAFA"/>
<path d="M210.062 85.819C217.701 85.819 223.895 79.6257 223.895 71.9859C223.895 64.3461 217.701 58.1528 210.062 58.1528C202.422 58.1528 196.229 64.3461 196.229 71.9859C196.229 79.6257 202.422 85.819 210.062 85.819Z" fill="white"/>
<path d="M199.274 168.15C199.274 168.15 216.41 85.7583 254.322 78.3604V168.15H220.47H199.274Z" fill="#F0F0F0"/>
<path d="M186.618 119.253C186.618 119.253 195.341 110.842 209.16 115.87C235.128 125.318 249.622 168.15 249.622 168.15H186.618V119.253Z" fill="#F5F5F5"/>
<path d="M279.986 424.64C401.24 424.64 499.536 421.948 499.536 418.627C499.536 415.305 401.24 412.613 279.986 412.613C158.732 412.613 60.4355 415.305 60.4355 418.627C60.4355 421.948 158.732 424.64 279.986 424.64Z" fill="#F5F5F5"/>
<path d="M473.098 224.272H371.839V414.248H473.098V224.272Z" fill="#288DD5"/>
<path d="M371.841 282.247H366.132V287.956H371.841V282.247Z" fill="#263238"/>
<path d="M371.841 234.431H366.132V240.139H371.841V234.431Z" fill="#263238"/>
<path opacity="0.2" d="M460.148 287.95H371.839V288.933H460.148V287.95Z" fill="black"/>
<path d="M460.148 224.272H459.165V414.248H460.148V224.272Z" fill="#263238"/>
<path d="M473.099 224.276H460.151V194.199C460.151 187.048 465.948 181.251 473.099 181.251V224.276Z" fill="#288DD5"/>
<path opacity="0.5" d="M473.099 224.276H460.151V194.199C460.151 187.048 465.948 181.251 473.099 181.251V224.276Z" fill="white"/>
<path d="M411.353 220.986H382.689V224.276H411.353V220.986Z" fill="#263238"/>
<path d="M452.204 220.986H423.541V224.276H452.204V220.986Z" fill="#263238"/>
<path d="M397.071 414.248H384.897V418.626H397.071V414.248Z" fill="#263238"/>
<path d="M456.687 414.248H444.514V418.627H456.687V414.248Z" fill="#263238"/>
<path d="M126.424 223.532H183.778C185.145 223.532 186.114 222.195 185.686 220.896L173.228 182.956C172.957 182.131 172.187 181.573 171.318 181.573H113.964C112.596 181.573 111.628 182.91 112.055 184.21L124.514 222.15C124.785 222.974 125.555 223.532 126.424 223.532Z" fill="#263238"/>
<path opacity="0.3" d="M150.231 204.526C150.635 207.134 149.183 209.248 146.989 209.248C144.796 209.248 142.689 207.134 142.285 204.526C141.881 201.918 143.333 199.803 145.527 199.803C147.721 199.804 149.827 201.918 150.231 204.526Z" fill="white"/>
<path d="M204.202 222.686L205.419 226.336C205.788 227.446 204.963 228.592 203.792 228.592H127.824C127.086 228.592 126.431 228.119 126.198 227.42L124.62 222.686H204.202Z" fill="#263238"/>
<g opacity="0.3">
<path opacity="0.4" d="M204.202 222.686L205.419 226.336C205.788 227.446 204.963 228.592 203.792 228.592H127.824C127.086 228.592 126.431 228.119 126.198 227.42L124.62 222.686H204.202Z" fill="white"/>
</g>
<path d="M232.337 228.592H91.9795V240.139H232.337V228.592Z" fill="#288DD5"/>
<path d="M165.063 240.139H159.252V414.248H165.063V240.139Z" fill="#263238"/>
<path d="M202.757 418.578H121.558L121.566 418.563C124.422 413.933 129.473 411.115 134.914 411.115H189.402C194.847 411.115 199.903 413.94 202.757 418.578Z" fill="#288DD5"/>
<path d="M175.471 82.7808H73.7705V93.3671H175.471V82.7808Z" fill="#288DD5"/>
<path d="M81.8896 93.366L86.543 103.871H93.411V93.366H81.8896Z" fill="#288DD5"/>
<path d="M81.8896 93.366L86.543 103.871H93.411V93.366H81.8896Z" fill="#288DD5"/>
<path opacity="0.3" d="M81.8896 93.366L86.543 103.871H93.411V93.366H81.8896Z" fill="black"/>
<path d="M167.353 93.366L162.699 103.871H155.83V93.366H167.353Z" fill="#288DD5"/>
<path opacity="0.3" d="M167.353 93.366L162.699 103.871H155.83V93.366H167.353Z" fill="black"/>
<path d="M105.296 56.414V36.6635C105.296 36.3996 105.083 36.1865 104.819 36.1865C104.555 36.1865 104.342 36.3996 104.342 36.6635V56.414H105.296Z" fill="#288DD5"/>
<g opacity="0.3">
<path d="M105.296 56.414V36.6635C105.296 36.3996 105.083 36.1865 104.819 36.1865C104.555 36.1865 104.342 36.3996 104.342 36.6635V56.414H105.296Z" fill="black"/>
</g>
<path d="M96.823 79.1122L97.3065 80.9029L97.4081 81.2849L97.81 82.772H111.829L112.23 81.2849L112.332 80.9029L112.816 79.1122L112.918 78.7314L117.715 60.9492L117.818 60.5684L118.3 58.7766L118.403 58.3957L118.938 56.414H90.7002L91.2356 58.3957L91.3383 58.7766L91.8208 60.5684L91.9234 60.9492L96.7203 78.7314L96.823 79.1122Z" fill="#263238"/>
<path d="M103.114 43.4696C103.688 43.6087 104.247 43.3691 104.559 42.9319C104.667 42.7829 104.748 42.6118 104.786 42.423C104.808 42.328 104.818 42.2298 104.818 42.1271C104.818 41.8047 104.706 41.4934 104.5 41.2472C102.676 39.0392 93.4448 28.3613 89.1182 32.8281C83.8885 38.2211 98.0683 42.2419 103.114 43.4696Z" fill="#288DD5"/>
<g opacity="0.3">
<path d="M94.9485 37.2452L104.559 42.9319C104.667 42.7829 104.748 42.6118 104.786 42.423L95.2322 36.7683C95.0975 36.6899 94.9297 36.7341 94.8513 36.8666C94.773 36.999 94.8171 37.1668 94.9485 37.2452Z" fill="black"/>
</g>
<path d="M104.818 47.4109C104.818 47.5135 104.828 47.6118 104.85 47.7067C104.892 47.8955 104.971 48.0666 105.078 48.2157C105.39 48.6528 105.951 48.8924 106.525 48.7533C111.568 47.5257 125.748 43.5071 120.518 38.1119C116.194 33.6473 106.962 44.3241 105.136 46.531C104.931 46.7772 104.818 47.0907 104.818 47.4109Z" fill="#288DD5"/>
<path opacity="0.3" d="M104.851 47.7067C104.893 47.8955 104.971 48.0666 105.078 48.2157L114.691 42.529C114.82 42.4528 114.864 42.2817 114.787 42.1503C114.71 42.0189 114.539 41.9748 114.408 42.052L104.851 47.7067Z" fill="black"/>
<path d="M103.767 36.585C103.805 36.9052 103.952 37.2011 104.185 37.4241C104.258 37.4925 104.336 37.5533 104.42 37.6051C104.584 37.7056 104.765 37.7663 104.948 37.7906C105.481 37.8635 106.039 37.6239 106.335 37.1139C108.926 32.6184 115.794 19.5779 108.281 19.642C102.062 19.6938 103.427 33.7411 103.767 36.585Z" fill="#288DD5"/>
<g opacity="0.3">
<path d="M104.419 37.604C104.582 37.7045 104.763 37.7652 104.947 37.7895L107.457 26.9085C107.491 26.7617 107.399 26.6126 107.25 26.5762C107.101 26.5442 106.952 26.6347 106.917 26.7859L104.419 37.604Z" fill="black"/>
</g>
<path d="M103.114 54.8088C103.688 54.9479 104.247 54.7083 104.559 54.2711C104.667 54.1221 104.748 53.951 104.786 53.7622C104.808 53.6673 104.818 53.569 104.818 53.4663C104.818 53.1462 104.706 52.8326 104.5 52.5864C102.676 50.3795 93.4448 39.7028 89.1182 44.1673C83.8885 49.5626 98.0683 53.5811 103.114 54.8088Z" fill="#288DD5"/>
<g opacity="0.3">
<path d="M94.9485 48.5867L104.559 54.2712C104.667 54.1221 104.748 53.951 104.786 53.7622L95.2322 48.1075C95.0975 48.0291 94.9297 48.0733 94.8513 48.2058C94.773 48.3372 94.8171 48.5083 94.9485 48.5867Z" fill="black"/>
</g>
<path d="M124.51 75.0605H123.493V73.5414H161.966C163.24 73.5414 164.399 74.057 165.233 74.8949C166.068 75.7296 166.587 76.8832 166.587 78.1617C166.587 80.7141 164.52 82.7808 161.968 82.7808H123.494V81.4659H124.511L124.51 75.0605Z" fill="#288DD5"/>
<path d="M124.246 75.0605V81.4637H159.549C161.272 81.4637 162.668 80.0297 162.668 78.2633C162.668 77.3778 162.318 76.5785 161.755 75.9978C161.188 75.4193 160.411 75.0605 159.549 75.0605H124.246Z" fill="white"/>
<path d="M124.246 76.6823V77.6616H158.636C158.904 77.6616 159.124 77.4419 159.124 77.1736V77.1703C159.124 76.902 158.904 76.6823 158.636 76.6823H124.246Z" fill="#E6E6E6"/>
<path d="M124.246 79.0923V80.0716H158.636C158.904 80.0716 159.124 79.8519 159.124 79.5836V79.5803C159.124 79.312 158.904 79.0923 158.636 79.0923H124.246Z" fill="#E6E6E6"/>
<path d="M124.51 65.8223H123.493V64.3032H161.966C163.24 64.3032 164.399 64.8187 165.233 65.6556C166.068 66.4902 166.587 67.6439 166.587 68.9223C166.587 71.4748 164.52 73.5414 161.968 73.5414H123.494V72.2266H124.511L124.51 65.8223Z" fill="#288DD5"/>
<g opacity="0.3">
<path d="M124.51 65.8223H123.493V64.3032H161.966C163.24 64.3032 164.399 64.8187 165.233 65.6556C166.068 66.4902 166.587 67.6439 166.587 68.9223C166.587 71.4748 164.52 73.5414 161.968 73.5414H123.494V72.2266H124.511L124.51 65.8223Z" fill="black"/>
</g>
<path d="M124.246 65.8223V72.2255H159.549C161.272 72.2255 162.668 70.7914 162.668 69.0261C162.668 68.1396 162.318 67.3414 161.755 66.7596C161.188 66.1811 160.411 65.8223 159.549 65.8223H124.246Z" fill="white"/>
<path d="M124.246 67.4429V68.4222H158.636C158.904 68.4222 159.124 68.2025 159.124 67.9342V67.9309C159.124 67.6626 158.904 67.4429 158.636 67.4429H124.246Z" fill="#E6E6E6"/>
<path d="M124.246 69.8541V70.8333H158.636C158.904 70.8333 159.124 70.6136 159.124 70.3454V70.342C159.124 70.0738 158.904 69.8541 158.636 69.8541H124.246Z" fill="#E6E6E6"/>
<path d="M357.541 61.4096C357.541 71.18 349.625 79.0957 339.855 79.0957C336.874 79.0957 334.07 78.356 331.608 77.0643L324.995 81.5134L327.435 73.9952C324.178 70.7936 322.169 66.3334 322.169 61.4096C322.169 51.6502 330.085 43.7346 339.855 43.7346C349.625 43.7346 357.541 51.6502 357.541 61.4096Z" fill="#288DD5"/>
<g opacity="0.5">
<path d="M357.541 61.4096C357.541 71.18 349.625 79.0957 339.855 79.0957C336.874 79.0957 334.07 78.356 331.608 77.0643L324.995 81.5134L327.435 73.9952C324.178 70.7936 322.169 66.3334 322.169 61.4096C322.169 51.6502 330.085 43.7346 339.855 43.7346C349.625 43.7346 357.541 51.6502 357.541 61.4096Z" fill="white"/>
</g>
<path d="M339.855 63.622C341.075 63.622 342.063 62.6334 342.063 61.414C342.063 60.1946 341.075 59.206 339.855 59.206C338.636 59.206 337.647 60.1946 337.647 61.414C337.647 62.6334 338.636 63.622 339.855 63.622Z" fill="white"/>
<path d="M332.405 63.622C333.625 63.622 334.613 62.6334 334.613 61.414C334.613 60.1946 333.625 59.206 332.405 59.206C331.186 59.206 330.197 60.1946 330.197 61.414C330.197 62.6334 331.186 63.622 332.405 63.622Z" fill="white"/>
<path d="M347.304 63.622C348.523 63.622 349.512 62.6334 349.512 61.414C349.512 60.1946 348.523 59.206 347.304 59.206C346.084 59.206 345.096 60.1946 345.096 61.414C345.096 62.6334 346.084 63.622 347.304 63.622Z" fill="white"/>
<path d="M265.447 110.317L265.281 110.637L257.929 125.066C253.612 123.002 249.417 120.783 245.288 118.409C242.881 117.04 240.496 115.627 238.112 114.159C234.866 112.16 231.686 110.074 228.419 107.678L227.182 106.773L225.902 105.735L225.25 105.194L224.466 104.51C223.947 104.046 223.583 103.66 223.142 103.218C221.585 101.584 220.337 100.05 219.112 98.504C214.298 92.3216 210.192 86.1061 206.118 79.7912C202.099 73.4542 198.257 67.0731 194.581 60.5264L201.349 55.8896L215.524 72.9133C220.227 78.5326 224.974 84.2182 229.777 89.3297C230.958 90.5883 232.183 91.8248 233.276 92.7742C233.519 92.9619 233.817 93.2379 234.005 93.3593L234.292 93.5581L234.756 93.8451L235.727 94.4413L236.809 95.0816C239.724 96.7707 242.936 98.4378 246.127 100.116C251.073 102.71 256.129 105.283 261.097 107.943C262.411 108.65 263.725 109.356 265.016 110.074C265.16 110.162 265.303 110.24 265.447 110.317Z" fill="#288DD5"/>
<path opacity="0.2" d="M265.016 110.074L265.281 110.637L257.928 125.066C253.611 123.002 249.416 120.783 245.287 118.409C247.153 109.93 256.349 108.241 261.096 107.943L265.016 110.074Z" fill="black"/>
<path d="M195.766 62.624C195.766 62.624 188.801 59.2336 185.358 57.7764C182.222 56.4505 178.346 53.3526 178.815 51.34C180.621 43.6065 190.242 49.8772 190.242 49.8772L201.293 55.7428C201.518 58.0789 198.805 61.2573 195.766 62.624Z" fill="#FFB573"/>
<path d="M151.617 44.8385L150.625 44.5515L150.196 46.0331L187.729 56.8766C188.972 57.2354 190.246 57.0598 191.297 56.4769C192.347 55.8973 193.177 54.9181 193.537 53.6717C194.257 51.1821 192.823 48.5822 190.332 47.8635L152.8 37.02L152.429 38.3029L153.421 38.5899L151.617 44.8385Z" fill="#288DD5"/>
<path d="M151.359 44.7646L153.164 38.5181L187.605 48.4685C189.286 48.9542 190.243 50.7471 189.745 52.4694C189.496 53.3338 188.93 54.0139 188.216 54.4223C187.501 54.8275 186.641 54.9578 185.801 54.7149L151.359 44.7646Z" fill="white"/>
<path d="M151.817 43.1837L152.093 42.2287L185.643 51.9218C185.904 51.9969 186.057 52.274 185.982 52.5356L185.981 52.539C185.906 52.8006 185.628 52.953 185.367 52.8779L151.817 43.1837Z" fill="#D6D6D6"/>
<path d="M152.497 40.8311L152.773 39.8761L186.323 49.5692C186.584 49.6443 186.737 49.9214 186.661 50.183L186.66 50.1853C186.584 50.4469 186.308 50.5993 186.047 50.5242L152.497 40.8311Z" fill="#D6D6D6"/>
<path d="M201.292 55.7427C201.292 55.7427 195.544 49.376 193.907 48.8637C192.269 48.3515 183.77 49.2976 184.6 50.4402C185.431 51.5829 191.98 53.2378 191.98 53.2378L195.114 55.7725L201.292 55.7427Z" fill="#FFB573"/>
<path d="M306.017 116.621C305.619 116.455 305.233 116.278 304.836 116.113C302.926 115.329 301.016 114.479 299.117 113.651C298.565 113.408 298.013 113.165 297.461 112.922C296.699 112.591 295.948 112.26 295.198 111.94L288.706 125.762L288.629 125.927C293.729 128.4 298.819 130.641 304.052 132.673C304.692 132.916 305.332 133.17 305.973 133.401C306.558 133.633 307.154 133.843 307.75 134.064C308.181 134.218 308.611 134.373 309.042 134.528C311.956 135.576 314.926 136.548 318.006 137.431C318.028 137.442 318.05 137.442 318.073 137.453C318.161 137.475 318.238 137.497 318.326 137.519L306.017 116.621ZM306.591 102.346C306.712 102.545 306.834 102.743 306.966 102.942C307.088 102.975 307.198 102.986 307.309 102.997C308.942 104.035 313.116 100.215 313.358 97.6981C312.851 97.1571 312.343 96.6162 311.824 96.0862C311.647 95.8986 311.471 95.6998 311.283 95.5121L306.988 98.8573L305.255 100.215C305.277 100.259 305.299 100.304 305.332 100.337C305.752 101.01 306.171 101.684 306.591 102.346Z" fill="#288DD5"/>
<path d="M339.854 132.441C339.854 132.695 339.843 132.949 339.821 133.214L339.766 133.622C339.733 133.832 339.689 134.031 339.633 134.24C339.578 134.439 339.512 134.649 339.446 134.837C339.391 135.002 339.291 135.245 339.148 135.565C338.85 136.15 338.529 136.647 338.066 137.166C337.569 137.718 336.951 138.226 336.332 138.579C335.78 138.888 335.162 139.142 334.544 139.297L333.97 139.429L333.583 139.496C331.674 139.805 330.36 139.749 329.123 139.661C327.909 139.573 326.816 139.418 325.767 139.242C323.67 138.888 321.738 138.436 319.861 137.95C319.342 137.806 318.834 137.674 318.326 137.519L306.017 116.621C308.854 117.846 311.68 119.049 314.506 120.209C316.052 120.838 317.598 121.456 319.132 122.041C318.359 120.838 317.575 119.623 316.803 118.409C313.502 113.298 310.212 108.131 306.966 102.942C307.087 102.975 307.198 102.986 307.308 102.997C308.942 104.035 313.115 100.215 313.358 97.6981C317.653 102.247 321.826 106.883 325.889 111.653C328.262 114.402 330.581 117.217 332.877 120.098C334.036 121.544 335.162 123.013 336.288 124.592C336.862 125.386 337.425 126.192 338.033 127.153C338.331 127.65 338.64 128.135 339.026 128.963C339.137 129.184 339.236 129.416 339.368 129.758C339.49 130.156 339.644 130.476 339.788 131.458C339.832 131.756 339.854 132.066 339.854 132.441Z" fill="#288DD5"/>
<path opacity="0.2" d="M318.891 138.48C318.857 138.436 318.813 138.392 318.78 138.347L318.007 137.431L304.24 121.004L300.586 116.643L297.462 112.922C298.014 113.165 298.566 113.408 299.118 113.651C301.017 114.479 302.927 115.329 304.837 116.113C305.234 116.278 305.62 116.455 306.018 116.621L318.328 137.519L318.891 138.48Z" fill="black"/>
<path d="M313.359 97.6981C313.116 100.215 308.943 104.035 307.309 102.997C307.198 102.986 307.088 102.975 306.966 102.942C306.735 102.909 306.492 102.843 306.249 102.743C305.774 102.578 305.288 102.324 304.814 102.026C303.334 101.098 301.987 99.6853 301.546 98.6254C301.48 98.4819 301.424 98.3495 301.402 98.217C301.071 96.6051 300.905 94.7946 300.574 93.3814C300.497 93.0613 300.596 92.8294 300.784 92.6859C301.049 92.4872 301.513 92.4651 301.987 92.6528H301.998C302.208 92.7301 302.429 92.8515 302.628 93.0171C302.661 93.0282 302.683 93.0502 302.705 93.0834C302.771 93.1275 302.837 93.1827 302.893 93.26C303.224 93.6022 303.5 94.077 303.621 94.6842C304.107 97.124 307.949 96.6162 307.949 96.6162L309.517 92.1229L310.058 90.5552H310.069L311.073 87.6627C311.095 87.6738 311.117 87.7069 311.151 87.74C311.195 87.8173 311.228 87.8946 311.261 87.9608C311.879 89.407 312.928 95.5232 313.325 96.9805C313.381 97.2013 313.403 97.4442 313.359 97.6981Z" fill="#FFB573"/>
<path d="M311.661 96.3534L306.103 102.919C305.774 103.309 305.336 103.227 305.125 102.739L298.783 88.0414C298.572 87.5523 298.668 86.8402 298.997 86.4505L304.554 79.8839C304.883 79.4953 305.322 79.5759 305.533 80.0639L311.876 94.7614C312.087 95.2516 311.99 95.9637 311.661 96.3534Z" fill="#263238"/>
<g opacity="0.3">
<path d="M310.281 94.9657L305.76 100.309C305.59 100.51 305.365 100.468 305.257 100.216L299.682 87.2973C299.573 87.0456 299.622 86.6791 299.792 86.4792L304.315 81.1392C304.486 80.9382 304.713 80.9802 304.822 81.233L310.394 94.1432C310.501 94.396 310.451 94.7647 310.281 94.9657Z" fill="white"/>
</g>
<path d="M311.15 87.7411C310.45 86.2882 309.304 85.5099 308.381 85.5408C307.458 85.5717 307.091 89.6654 307.351 90.6314C307.894 92.6406 309.345 88.8992 309.345 88.8992L310.142 90.7462C310.987 89.7901 311.786 88.9444 311.15 87.7411Z" fill="#FFB573"/>
<path d="M309.648 84.0526C309.528 83.7181 308.086 82.4662 307.164 82.4971C306.242 82.528 305.792 86.3677 306.053 87.3337C306.596 89.343 308.128 85.8554 308.128 85.8554L310.071 87.9641C310.916 87.0091 310.546 85.6832 309.648 84.0526Z" fill="#FFB573"/>
<path d="M308.134 82.0975C308.014 81.7629 307.265 80.1401 306.342 80.171C305.419 80.2019 304.65 83.2268 304.911 84.1928C305.454 86.2021 306.986 82.7146 306.986 82.7146L308.929 84.8232C309.267 84.29 309.031 83.7292 308.134 82.0975Z" fill="#FFB573"/>
<path d="M371.828 167.603L369.465 175.011C361.793 173.101 354.153 171.136 346.502 169.105C342.682 168.078 338.863 167.04 335.021 165.947C331.179 164.843 327.381 163.761 323.362 162.359C322.833 162.161 322.347 161.995 321.795 161.774L320.967 161.443L320.028 161.012C319.377 160.714 318.328 160.118 317.456 159.423L316.573 158.705C316.341 158.495 316.098 158.297 315.866 158.076C314.144 156.442 312.83 154.94 311.439 153.417C310.92 152.832 310.401 152.247 309.883 151.673C309.474 151.198 309.066 150.734 308.668 150.271C307.189 148.57 305.743 146.87 304.296 145.17C304.053 144.883 303.811 144.585 303.568 144.298C298.456 138.215 293.477 132.11 288.531 125.894L301.669 115.815C306.317 122.041 311.031 128.323 315.767 134.472C318.141 137.541 320.525 140.6 322.932 143.514C324.113 144.96 325.372 146.418 326.409 147.588C326.531 147.709 326.63 147.853 326.752 147.996L327.215 148.515L327.226 148.526L327.734 148.813C328.065 149.012 328.485 149.222 328.849 149.42C332.084 151.054 335.683 152.644 339.227 154.19C342.793 155.746 346.392 157.259 350.013 158.771C357.244 161.774 364.542 164.722 371.828 167.603Z" fill="#288DD5"/>
<path opacity="0.2" d="M309.882 151.673C309.474 151.198 309.065 150.734 308.668 150.271C307.189 148.57 305.742 146.87 304.296 145.17L303.854 122.66C304.097 123.322 305.709 130.509 308.259 135.013C311.759 141.185 312.333 148.283 309.882 151.673Z" fill="black"/>
<path d="M369.465 175.011C369.465 175.011 378.827 176.399 382.509 176.355C386.191 176.312 393.847 172.366 392.941 170.976C392.034 169.587 382.471 168.032 382.471 168.032L370.199 166.939C368.761 168.746 367.69 172.251 369.465 175.011Z" fill="#FFB573"/>
<path d="M400.203 170.35L375.301 169.757L375.242 172.226L400.144 172.819L400.203 170.35Z" fill="#263238"/>
<path d="M425.48 179.997L405.078 179.51C400.811 179.408 397.435 175.867 397.536 171.6L397.567 170.308L433.421 171.164L433.39 172.455C433.288 176.722 429.747 180.098 425.48 179.997Z" fill="#263238"/>
<path d="M413.703 168.383C413.703 168.383 405.79 162.042 412.047 156.281C418.303 150.519 418.486 145.977 413.703 141.561C413.703 141.561 420.879 144.828 423.454 151.658C426.031 158.488 413.519 163.74 413.703 168.383Z" fill="#288DD5"/>
<path opacity="0.8" d="M413.703 168.383C413.703 168.383 405.79 162.042 412.047 156.281C418.303 150.519 418.486 145.977 413.703 141.561C413.703 141.561 420.879 144.828 423.454 151.658C426.031 158.488 413.519 163.74 413.703 168.383Z" fill="white"/>
<path d="M370.2 166.939C370.2 166.939 378.364 164.77 379.99 165.228C381.617 165.685 388.125 171.03 386.825 171.527C385.526 172.024 379.231 169.872 379.231 169.872L375.283 170.281L370.2 166.939Z" fill="#FFB573"/>
<path d="M297.267 396.925L299.926 409.635H306.615L307.347 396.925H297.267Z" fill="#FFB573"/>
<path d="M325.738 418.626C325.515 414.485 323.739 413.249 321.497 413.108C319.167 412.961 310.923 410.168 310.923 410.168C310.923 410.168 309.271 407.538 307.754 407.004C306.237 406.469 304.699 408.034 304.699 408.034L300.517 407.521C300.517 407.521 299.322 405.63 298.401 407.287C296.972 409.854 296.895 416.961 296.963 418.626H325.738Z" fill="#288DD5"/>
<path d="M325.229 417.545C323.488 417.537 321.755 417.529 320.013 417.52C312.406 417.484 304.801 417.439 297.195 417.401C296.905 417.402 296.979 416.957 297.268 416.964C297.779 416.969 298.301 416.967 298.814 416.973C298.817 416.956 298.829 416.931 298.84 416.914C300.333 414.528 299.473 412.104 297.488 410.895C297.254 410.762 297.549 410.374 297.774 410.515C299.922 411.824 300.788 414.416 299.276 416.97C300.351 416.981 301.418 416.985 302.494 416.988C310.092 417.025 317.697 417.07 325.304 417.107C325.592 417.105 325.518 417.551 325.229 417.545Z" fill="black"/>
<path d="M309.602 411.957C310.835 410.564 312.583 410.168 313.811 411.219C314.009 411.389 314.295 411.006 314.099 410.838C312.689 409.631 310.655 410.155 309.258 411.734C309.053 411.967 309.399 412.188 309.602 411.957Z" fill="white"/>
<path d="M311.938 412.699C313.171 411.305 314.918 410.909 316.146 411.96C316.345 412.13 316.632 411.747 316.435 411.58C315.025 410.373 312.992 410.897 311.594 412.476C311.389 412.708 311.734 412.929 311.938 412.699Z" fill="white"/>
<path d="M314.352 413.441C315.585 412.047 317.331 411.651 318.56 412.702C318.759 412.872 319.045 412.489 318.849 412.321C317.44 411.115 315.406 411.639 314.008 413.218C313.803 413.45 314.147 413.671 314.352 413.441Z" fill="white"/>
<path d="M227.216 385.391L223.205 398.197L229.709 401.445L236.018 390.303L227.216 385.391Z" fill="#FFB573"/>
<path d="M242.038 418.626C243.862 414.902 242.914 412.956 241.026 411.741C239.062 410.477 233.226 404.019 233.226 404.019C233.226 404.019 233.065 400.917 232.001 399.712C230.936 398.506 228.831 399.122 228.831 399.122L224.556 396.381C224.556 396.381 224.512 393.629 223.205 395.143C221.286 397.368 218.364 403.397 217.612 404.885L242.038 418.626Z" fill="#288DD5"/>
<path d="M242.391 417.103C240.892 416.284 239.401 415.47 237.903 414.651C231.359 411.074 224.822 407.489 218.278 403.912C218.026 403.779 218.298 403.402 218.544 403.543C218.982 403.786 219.434 404.027 219.872 404.27C219.882 404.256 219.905 404.238 219.923 404.228C222.315 402.723 222.697 400.088 221.545 398.049C221.405 397.817 221.84 397.597 221.967 397.832C223.213 400.038 222.758 402.832 220.272 404.483C221.194 404.994 222.112 405.494 223.04 405.998C229.575 409.571 236.113 413.155 242.657 416.733C242.908 416.868 242.637 417.244 242.391 417.103Z" fill="black"/>
<path d="M231.201 404.939C232.957 404.323 234.675 404.829 235.236 406.346C235.326 406.591 235.763 406.396 235.673 406.153C235.03 404.412 232.999 403.879 231.01 404.577C230.717 404.68 230.91 405.041 231.201 404.939Z" fill="white"/>
<path d="M232.876 406.724C234.633 406.108 236.35 406.614 236.911 408.131C237.002 408.376 237.439 408.181 237.348 407.939C236.706 406.198 234.675 405.664 232.685 406.362C232.393 406.465 232.587 406.826 232.876 406.724Z" fill="white"/>
<path d="M234.623 408.549C236.38 407.933 238.097 408.439 238.658 409.956C238.749 410.201 239.186 410.006 239.095 409.763C238.453 408.022 236.422 407.489 234.432 408.187C234.14 408.29 234.334 408.65 234.623 408.549Z" fill="white"/>
<path d="M275.205 230.429C276.134 243.236 278.25 259.806 282.376 281.13C283.574 287.326 284.943 293.926 286.505 300.953C280.209 341.639 297.499 400.416 297.499 400.416L307.829 400.185C307.829 400.185 311.338 334.498 311.283 300.111C311.194 243.767 306.143 190.096 306.143 190.096L278.033 189.986C278.033 189.986 272.892 198.456 275.205 230.429Z" fill="#263238"/>
<path opacity="0.2" d="M275.204 230.429C276.134 243.236 278.25 259.806 282.376 281.13C289.052 258.595 279.97 210.501 279.97 210.501L275.204 230.429Z" fill="black"/>
<path d="M308.932 402.616L309.408 398.193H295.638L296.267 402.616H308.932Z" fill="#263238"/>
<path d="M248.324 188.927L247.723 301.719C240.281 309.782 224.688 387.478 224.688 387.478L236.697 394.034C236.697 394.034 269.523 319.037 274.038 307.455C278.554 295.873 284.826 210.503 284.826 210.503L277.198 192.008L248.324 188.927Z" fill="#263238"/>
<path d="M237.508 396.7L239.644 392.824L223.731 384.684L222.083 388.808L237.508 396.7Z" fill="#263238"/>
<path d="M307.189 193.978C307.189 199.111 269.509 201.54 247.087 194.143C247.462 192.752 248.003 190.324 248.323 188.922C248.489 188.27 248.633 187.597 248.776 186.901C249.24 184.66 249.626 182.209 249.946 179.56C249.957 179.449 249.979 179.317 250.001 179.195C250.531 174.559 250.863 169.359 250.918 163.651C250.929 162.183 250.929 160.67 250.907 159.125C250.885 157.215 250.818 155.261 250.719 153.24C250.333 144.309 249.295 134.472 247.462 124.051C246.204 116.996 251.359 110.427 258.48 109.93C260.401 109.787 262.421 109.699 264.486 109.665C266.561 109.643 268.538 109.599 270.459 109.599C275.957 109.566 280.913 109.699 286.124 110.339C286.522 110.383 286.908 110.438 287.317 110.493C289.271 110.747 291.247 111.067 293.168 111.388C301.459 112.823 305.036 118.56 305.328 128.496C305.653 139.526 314.033 146.418 303.435 153.836C302.066 163.254 307.189 179.515 307.189 193.978Z" fill="#288DD5"/>
<path opacity="0.2" d="M250.917 163.651C250.929 162.183 250.929 160.67 250.906 159.125C250.884 157.215 250.818 155.261 250.719 153.24L259.407 135.665L250.917 163.651Z" fill="black"/>
<path opacity="0.2" d="M261.293 127.245L250.108 144.093C249.936 142.069 249.732 140.002 249.483 137.913V137.87L261.293 127.245Z" fill="black"/>
<path d="M270.455 109.604C275.764 118.933 288.254 124.52 288.254 124.52C289.94 120.339 289.411 113.636 287.315 110.492C286.911 110.435 286.519 110.389 286.127 110.342C280.915 109.696 275.956 109.569 270.455 109.604Z" fill="#FFB573"/>
<path d="M302.683 93.1032C302.683 93.1032 308.965 84.4865 303.506 76.3356C298.046 68.1848 289.193 71.5807 289.193 71.5807L302.683 93.1032Z" fill="#263238"/>
<path d="M287.459 113.268C287.505 113.407 287.564 113.548 287.655 113.693C289.461 116.541 287.498 119.143 284.39 118.919C284.088 118.897 283.792 118.856 283.5 118.798C282.383 118.574 281.35 118.001 280.577 117.164C280.574 117.16 280.57 117.156 280.567 117.153C276.843 113.111 272.838 110.049 272.838 110.049C277.508 107.546 279.215 98.6563 279.648 93.1021L286.898 102.333L288.255 104.349C287.599 105.51 287.013 106.717 286.683 107.913C286.148 109.77 286.202 111.613 287.459 113.268Z" fill="#FFB573"/>
<g opacity="0.2">
<path d="M286.684 107.914C287.014 106.718 287.599 105.512 288.256 104.35L286.899 102.334L282.334 102.438C282.334 102.438 283.531 106.124 286.684 107.914Z" fill="black"/>
</g>
<path d="M278.32 83.2069C277.594 92.3326 277.096 96.18 280.925 101.454C286.684 109.386 297.839 108.239 301.225 99.5053C304.273 91.6426 304.949 78.0402 296.768 73.2201C288.709 68.4696 279.047 74.0813 278.32 83.2069Z" fill="#FFB573"/>
<path d="M280.326 89.1807C275.751 87.9641 277.548 83.239 277.548 83.239L284.287 84.2833C284.287 84.2833 284.902 90.3862 280.326 89.1807Z" fill="#263238"/>
<path d="M298.797 74.067C298.797 74.067 298.679 79.1133 292.49 79.3816C286.3 79.651 286.769 89.12 279.911 87.3536C271.445 85.1732 274.653 77.942 276.694 74.8066C277.991 72.8139 291.843 60.8543 298.797 74.067Z" fill="#263238"/>
<path d="M289.455 70.3796C289.455 70.3796 289.586 59.057 279.683 57.6107C270.584 56.2815 267.08 64.7492 267.403 75.1665C267.794 87.7565 258.624 84.4777 258.624 84.4777C258.624 84.4777 260.884 90.6126 268.591 91.3269C285.353 92.8802 289.455 70.3796 289.455 70.3796Z" fill="#263238"/>
<path d="M277.729 73.5812C277.677 73.5812 277.624 73.5668 277.578 73.5359C277.451 73.452 277.414 73.282 277.498 73.1539C277.538 73.0932 281.526 67.1338 289.206 67.5467C289.359 67.5544 289.475 67.6847 289.467 67.837C289.458 67.9883 289.359 68.1219 289.175 68.0976C281.793 67.7057 277.996 73.3979 277.959 73.4564C277.907 73.537 277.819 73.5812 277.729 73.5812Z" fill="#288DD5"/>
<path d="M297.421 97.2719C297.421 97.2719 292.976 95.2615 291.999 93.3262C291.999 93.3262 291.347 96.7884 293.675 98.0646C296.005 99.3408 297.421 97.2719 297.421 97.2719Z" fill="white"/>
<path d="M293.338 87.2763C293.234 88.0127 293.541 88.6651 294.022 88.7336C294.503 88.8009 294.978 88.2589 295.081 87.5214C295.185 86.785 294.878 86.1326 294.396 86.0652C293.915 85.9979 293.441 86.5399 293.338 87.2763Z" fill="#263238"/>
<path d="M300.823 88.494C300.719 89.2304 301.026 89.8828 301.507 89.9513C301.989 90.0186 302.463 89.4766 302.566 88.7402C302.67 88.0038 302.364 87.3514 301.882 87.284C301.4 87.2145 300.926 87.7576 300.823 88.494Z" fill="#263238"/>
<path d="M301.664 87.294L303.506 87.0323C303.506 87.0323 302.404 88.2865 301.664 87.294Z" fill="#263238"/>
<path d="M298.074 88.3417C298.074 88.3417 299.07 90.4724 300.209 92.3613C300.58 92.9752 300.303 93.7822 299.62 94.0052C298.446 94.3872 297.221 94.4634 297.221 94.4634L298.074 88.3417Z" fill="#ED893E"/>
<path d="M274.222 89.0217C274.788 90.8676 276.052 92.1549 277.337 92.7157C279.269 93.5603 280.578 91.4947 280.329 89.1763C280.104 87.0897 278.827 84.1365 276.75 84.2911C274.702 84.4435 273.575 86.912 274.222 89.0217Z" fill="#FFB573"/>
<path d="M279.048 91.403C279.048 92.0842 278.496 92.6351 277.816 92.6351C277.135 92.6351 276.583 92.0831 276.583 91.403C276.583 90.7218 277.135 90.1699 277.816 90.1699C278.496 90.1699 279.048 90.7218 279.048 91.403Z" fill="white"/>
<path d="M291.32 84.3286C291.435 84.3286 291.551 84.2823 291.636 84.1917C292.974 82.7742 294.558 83.0414 294.577 83.0436C294.812 83.0844 295.042 82.9288 295.085 82.6914C295.128 82.454 294.97 82.2277 294.733 82.1836C294.65 82.1692 292.661 81.8314 291 83.5912C290.836 83.7667 290.844 84.0427 291.018 84.2094C291.104 84.29 291.212 84.3297 291.32 84.3286Z" fill="#263238"/>
<path d="M304.258 85.6534C304.367 85.6622 304.478 85.6324 304.57 85.5585C304.757 85.4072 304.786 85.1323 304.636 84.9435C303.121 83.0612 301.111 83.239 301.026 83.2467C300.785 83.271 300.611 83.4852 300.635 83.7258C300.659 83.9654 300.872 84.1398 301.112 84.1166C301.191 84.1089 302.75 83.9941 303.955 85.4911C304.033 85.5883 304.144 85.6435 304.258 85.6534Z" fill="#263238"/>
<path d="M294.179 86.0762L296.02 85.8146C296.02 85.8146 294.917 87.0698 294.179 86.0762Z" fill="#263238"/>
<path d="M264.936 122.855C261.785 130.675 258.32 138.224 254.595 145.767C252.742 149.538 250.795 153.273 248.743 157.004C246.698 160.756 244.536 164.417 241.972 168.228C241.658 168.701 241.316 169.185 240.959 169.676C240.621 170.154 240.243 170.659 239.837 171.168C239.468 171.653 238.971 172.218 238.501 172.751C238.297 172.999 237.923 173.359 237.635 173.649L237.169 174.104L236.868 174.368C235.383 175.634 233.846 177.001 232.323 178.362L223.065 186.559C216.854 192.021 210.575 197.45 204.094 202.672L198.687 197.469C203.684 190.779 208.915 184.325 214.267 177.956C216.95 174.776 219.656 171.62 222.431 168.483C223.831 166.918 225.223 165.366 226.72 163.767C226.802 163.676 226.928 163.548 226.974 163.489L227.042 163.381C227.1 163.287 227.112 163.299 227.219 163.132C227.398 162.862 227.573 162.639 227.795 162.273C228.004 161.953 228.227 161.616 228.455 161.229C228.68 160.866 228.907 160.487 229.137 160.08C230.984 156.891 232.718 153.245 234.473 149.652C236.211 146.031 237.89 142.331 239.591 138.633C242.958 131.231 246.3 123.698 249.714 116.335L264.936 122.855Z" fill="#288DD5"/>
<path d="M199.779 195.955C199.779 195.955 206.384 199.137 204.034 202.694C201.683 206.251 196.462 207.888 194.6 210.828C192.737 213.768 189.008 221.457 188.178 221.401C187.348 221.347 189.873 209.937 190.737 207.949C191.6 205.961 195.57 201.371 195.57 201.371L199.779 195.955Z" fill="#FFB573"/>
<path d="M190.221 209.523C190.221 209.523 187.684 213.236 187.533 214.876C187.382 216.515 186.786 220.413 186.298 221.384C185.81 222.354 188.07 221.674 188.849 218.51C189.627 215.346 190.221 209.523 190.221 209.523Z" fill="#FFB573"/>
<path d="M203.624 201.131C203.624 201.131 203.406 203.477 201.99 205.558C200.573 207.639 199.267 210.124 198.56 212.043C197.852 213.961 195.973 214.66 195.448 213.8C194.922 212.94 196.716 209.485 197.377 206.641C198.039 203.797 203.624 201.131 203.624 201.131Z" fill="#FFB573"/>
</g>
<defs>
<clipPath id="clip0_192_766">
<rect width="552" height="425" fill="white"/>
</clipPath>
</defs>
</svg>
