<svg aria-hidden="true" style="position: absolute; width: 0; height: 0; overflow: hidden;" version="1.1" xmlns="http://www.w3.org/2000/svg" xmlns:xlink="http://www.w3.org/1999/xlink">
<defs>
<symbol id="icon-LogoHeader" viewBox="0 0 39 32">
<path d="M13.892 10.377l-0.618-0.5c-0.102-0.082-0.232-0.121-0.364-0.109s-0.253 0.075-0.337 0.175l-3.877 4.571c-0.011 0.012-0.018 0.028-0.023 0.043-0.001 0.003-0.002 0.006-0.003 0.009s-0.003 0.004-0.002 0.006l-0.352 1.578c-0.011 0.050 0.008 0.102 0.047 0.133 0.029 0.024 0.066 0.035 0.102 0.032 0.014-0.001 0.028-0.005 0.041-0.011l1.523-0.632c0.002-0.001 0.004-0.002 0.007-0.004s0.006-0.003 0.008-0.005c0.015-0.008 0.028-0.018 0.038-0.030l3.877-4.572c0.085-0.101 0.126-0.227 0.114-0.356s-0.076-0.247-0.179-0.329zM12.188 10.823l0.37 0.299-3.188 3.759-0.37-0.299 3.188-3.759zM8.645 15.951l0.246-1.1 0.815 0.659-1.061 0.441zM9.954 15.355l-0.37-0.299 3.189-3.759 0.37 0.299-3.189 3.759zM13.742 10.889l-0.42 0.495-0.954-0.772 0.42-0.495c0.077-0.091 0.215-0.105 0.308-0.029l0.618 0.5c0.045 0.036 0.073 0.088 0.078 0.144s-0.013 0.112-0.050 0.157z"></path>
<path d="M25.994 15.389v-5.454h0.653v5.454h-0.653z"></path>
<path d="M28.978 17.075c-0.313 0-0.615-0.044-0.907-0.131-0.287-0.087-0.546-0.239-0.776-0.455l0.284-0.517c0.2 0.159 0.413 0.285 0.638 0.378 0.231 0.093 0.471 0.139 0.723 0.139 0.42 0 0.72-0.123 0.899-0.37 0.184-0.242 0.277-0.55 0.277-0.926v-0.486c-0.092 0.139-0.21 0.255-0.354 0.347-0.138 0.087-0.292 0.154-0.461 0.201-0.169 0.041-0.343 0.062-0.523 0.062-0.4 0-0.715-0.080-0.945-0.239s-0.395-0.381-0.492-0.663c-0.097-0.283-0.146-0.609-0.146-0.98v-2.245h0.653v2.060c0 0.185 0.010 0.368 0.031 0.548 0.026 0.175 0.074 0.334 0.146 0.478 0.072 0.139 0.177 0.252 0.315 0.339 0.138 0.082 0.323 0.123 0.553 0.123 0.292 0 0.525-0.072 0.699-0.216 0.179-0.144 0.307-0.337 0.384-0.579 0.082-0.242 0.123-0.509 0.123-0.802v-1.952h0.653v4.065c0 0.293-0.038 0.553-0.115 0.779s-0.192 0.417-0.346 0.571c-0.154 0.154-0.341 0.27-0.561 0.347-0.215 0.082-0.466 0.123-0.753 0.123z"></path>
<path d="M21.814 16.766v-5.531h0.623l0.031 0.609c0.138-0.211 0.325-0.373 0.561-0.486 0.241-0.113 0.5-0.17 0.776-0.17 0.41 0 0.746 0.093 1.007 0.278 0.261 0.18 0.454 0.427 0.576 0.741 0.128 0.314 0.192 0.669 0.192 1.065s-0.064 0.751-0.192 1.065c-0.128 0.314-0.325 0.561-0.592 0.741s-0.607 0.27-1.022 0.27c-0.205 0-0.389-0.021-0.553-0.062-0.164-0.046-0.307-0.111-0.43-0.193-0.123-0.087-0.231-0.188-0.323-0.301v1.975h-0.653zM23.721 14.768c0.297 0 0.533-0.067 0.707-0.201 0.174-0.139 0.3-0.321 0.377-0.548 0.082-0.226 0.123-0.476 0.123-0.748 0-0.278-0.041-0.53-0.123-0.756-0.077-0.226-0.205-0.406-0.384-0.54s-0.418-0.201-0.715-0.201c-0.266 0-0.494 0.069-0.684 0.208-0.184 0.134-0.325 0.316-0.423 0.548-0.097 0.226-0.146 0.476-0.146 0.748 0 0.283 0.046 0.537 0.138 0.764s0.233 0.404 0.423 0.532 0.425 0.193 0.707 0.193z"></path>
<path d="M17.587 16.766v-5.531h0.623l0.031 0.609c0.138-0.211 0.325-0.373 0.561-0.486 0.241-0.113 0.5-0.17 0.776-0.17 0.41 0 0.746 0.093 1.007 0.278 0.261 0.18 0.454 0.427 0.576 0.741 0.128 0.314 0.192 0.669 0.192 1.065s-0.064 0.751-0.192 1.065c-0.128 0.314-0.325 0.561-0.592 0.741s-0.607 0.27-1.022 0.27c-0.205 0-0.389-0.021-0.553-0.062-0.164-0.046-0.307-0.111-0.43-0.193-0.123-0.087-0.231-0.188-0.323-0.301v1.975h-0.653zM19.494 14.768c0.297 0 0.533-0.067 0.707-0.201 0.174-0.139 0.3-0.321 0.377-0.548 0.082-0.226 0.123-0.476 0.123-0.748 0-0.278-0.041-0.53-0.123-0.756-0.077-0.226-0.205-0.406-0.384-0.54s-0.418-0.201-0.715-0.201c-0.266 0-0.494 0.069-0.684 0.208-0.184 0.134-0.325 0.316-0.423 0.548-0.097 0.226-0.146 0.476-0.146 0.748 0 0.283 0.046 0.537 0.138 0.764s0.233 0.404 0.423 0.532c0.19 0.129 0.425 0.193 0.707 0.193z"></path>
<path d="M15.086 15.347c-0.184 0-0.364-0.023-0.538-0.069-0.169-0.051-0.323-0.126-0.461-0.224-0.133-0.103-0.241-0.229-0.323-0.378-0.077-0.154-0.115-0.332-0.115-0.532 0-0.231 0.041-0.427 0.123-0.586 0.087-0.159 0.202-0.285 0.346-0.378s0.31-0.159 0.5-0.201 0.387-0.062 0.592-0.062h1.191c0-0.231-0.033-0.432-0.1-0.602-0.061-0.17-0.164-0.301-0.307-0.393-0.143-0.098-0.333-0.147-0.569-0.147-0.143 0-0.277 0.015-0.4 0.046s-0.228 0.080-0.315 0.147-0.151 0.157-0.192 0.27h-0.699c0.036-0.185 0.105-0.342 0.208-0.471 0.108-0.134 0.236-0.242 0.384-0.324 0.154-0.087 0.318-0.152 0.492-0.193s0.348-0.062 0.523-0.062c0.584 0 0.999 0.172 1.245 0.517s0.369 0.81 0.369 1.396v2.199h-0.546l-0.038-0.517c-0.113 0.154-0.249 0.273-0.407 0.355s-0.323 0.136-0.492 0.162c-0.164 0.031-0.32 0.046-0.469 0.046zM15.147 14.768c0.256 0 0.476-0.041 0.661-0.123 0.19-0.087 0.336-0.213 0.438-0.378s0.154-0.365 0.154-0.602v-0.201h-0.715c-0.169 0-0.336 0.003-0.5 0.008s-0.313 0.026-0.446 0.062c-0.133 0.036-0.241 0.098-0.323 0.185-0.077 0.087-0.115 0.213-0.115 0.378 0 0.154 0.038 0.28 0.115 0.378 0.082 0.098 0.187 0.172 0.315 0.224 0.133 0.046 0.272 0.069 0.415 0.069z"></path>
<path d="M26.117 22.234c-0.43 0-0.787-0.087-1.068-0.262-0.282-0.18-0.492-0.427-0.63-0.741s-0.207-0.671-0.207-1.072c0-0.406 0.072-0.764 0.215-1.072 0.149-0.314 0.364-0.561 0.646-0.741s0.628-0.27 1.038-0.27c0.318 0 0.589 0.062 0.815 0.185 0.231 0.118 0.42 0.278 0.569 0.478s0.256 0.422 0.323 0.663c0.067 0.237 0.095 0.476 0.085 0.717-0.005 0.046-0.010 0.093-0.015 0.139 0 0.046-0.003 0.093-0.008 0.139h-3.005c0.020 0.237 0.079 0.45 0.177 0.64s0.236 0.342 0.415 0.455c0.179 0.108 0.402 0.162 0.669 0.162 0.133 0 0.266-0.015 0.4-0.046 0.138-0.036 0.261-0.095 0.369-0.177 0.113-0.082 0.192-0.193 0.238-0.332h0.669c-0.061 0.262-0.177 0.478-0.346 0.648-0.169 0.165-0.372 0.288-0.607 0.37-0.236 0.077-0.482 0.116-0.738 0.116zM24.887 19.827h2.344c-0.005-0.231-0.056-0.435-0.154-0.609s-0.231-0.311-0.4-0.409c-0.164-0.098-0.361-0.147-0.592-0.147-0.251 0-0.464 0.054-0.638 0.162-0.169 0.108-0.3 0.249-0.392 0.424s-0.149 0.368-0.169 0.579z"></path>
<path d="M11.395 22.187v-4.065h0.63l0.031 0.633c0.102-0.159 0.22-0.288 0.354-0.386 0.138-0.098 0.29-0.17 0.453-0.216 0.169-0.051 0.351-0.077 0.546-0.077 0.036 0 0.069 0 0.1 0 0.036 0 0.072 0 0.108 0v0.617h-0.238c-0.318 0-0.576 0.069-0.776 0.208-0.195 0.134-0.336 0.316-0.423 0.548-0.087 0.226-0.131 0.478-0.131 0.756v1.983h-0.653z"></path>
<path d="M28.269 22.187v-4.065h0.63l0.031 0.633c0.102-0.159 0.22-0.288 0.354-0.386 0.138-0.098 0.29-0.17 0.453-0.216 0.169-0.051 0.351-0.077 0.546-0.077 0.036 0 0.069 0 0.1 0 0.036 0 0.072 0 0.108 0v0.617h-0.238c-0.318 0-0.576 0.069-0.776 0.208-0.195 0.134-0.336 0.316-0.423 0.548-0.087 0.226-0.131 0.478-0.131 0.756v1.983h-0.653z"></path>
<path d="M14.959 22.234c-0.184 0-0.364-0.023-0.538-0.069-0.169-0.051-0.323-0.126-0.461-0.224-0.133-0.103-0.241-0.229-0.323-0.378-0.077-0.154-0.115-0.332-0.115-0.532 0-0.231 0.041-0.427 0.123-0.586 0.087-0.159 0.202-0.285 0.346-0.378s0.31-0.159 0.5-0.201c0.19-0.041 0.387-0.062 0.592-0.062h1.191c0-0.231-0.033-0.432-0.1-0.602-0.061-0.17-0.164-0.301-0.307-0.393-0.143-0.098-0.333-0.147-0.569-0.147-0.143 0-0.277 0.015-0.4 0.046s-0.228 0.080-0.315 0.147c-0.087 0.067-0.151 0.157-0.192 0.27h-0.699c0.036-0.185 0.105-0.342 0.207-0.471 0.108-0.134 0.236-0.242 0.384-0.324 0.154-0.087 0.318-0.152 0.492-0.193s0.348-0.062 0.523-0.062c0.584 0 0.999 0.172 1.245 0.517s0.369 0.81 0.369 1.396v2.199h-0.546l-0.038-0.517c-0.113 0.154-0.248 0.273-0.407 0.355s-0.323 0.136-0.492 0.162c-0.164 0.031-0.32 0.046-0.469 0.046zM15.020 21.655c0.256 0 0.477-0.041 0.661-0.123 0.19-0.087 0.336-0.213 0.438-0.378s0.154-0.365 0.154-0.602v-0.201h-0.715c-0.169 0-0.336 0.003-0.5 0.008s-0.313 0.026-0.446 0.062c-0.133 0.036-0.241 0.098-0.323 0.185-0.077 0.087-0.115 0.213-0.115 0.378 0 0.154 0.038 0.28 0.115 0.378 0.082 0.098 0.187 0.172 0.315 0.224 0.133 0.046 0.272 0.069 0.415 0.069z"></path>
<path d="M19.151 22.234c-0.425 0-0.779-0.087-1.061-0.262-0.277-0.18-0.484-0.427-0.623-0.741-0.133-0.314-0.2-0.669-0.2-1.065 0-0.386 0.069-0.735 0.208-1.049 0.143-0.319 0.359-0.571 0.646-0.756 0.292-0.19 0.661-0.285 1.107-0.285 0.277 0 0.523 0.046 0.738 0.139 0.22 0.093 0.402 0.229 0.546 0.409 0.143 0.175 0.243 0.396 0.3 0.663h-0.669c-0.077-0.226-0.2-0.386-0.369-0.478-0.164-0.098-0.359-0.147-0.584-0.147-0.307 0-0.553 0.072-0.738 0.216s-0.32 0.332-0.407 0.563c-0.082 0.226-0.123 0.468-0.123 0.725 0 0.267 0.044 0.514 0.131 0.741s0.223 0.409 0.407 0.548c0.184 0.134 0.423 0.201 0.715 0.201 0.215 0 0.418-0.046 0.607-0.139 0.195-0.093 0.323-0.257 0.384-0.494h0.676c-0.051 0.278-0.161 0.507-0.331 0.687-0.164 0.18-0.366 0.314-0.607 0.401-0.236 0.082-0.487 0.123-0.753 0.123z"></path>
<path d="M21.16 22.188v-5.454h0.653v3.14h0.707l1.214-1.751h0.738l-1.353 1.936 1.468 2.129h-0.769l-1.222-1.743h-0.784v1.743h-0.653z"></path>
<path d="M10.637 22.187c-0.307 0-0.556-0.046-0.746-0.139-0.184-0.093-0.32-0.237-0.407-0.432-0.082-0.195-0.123-0.442-0.123-0.741v-2.175h-0.661v-0.579h0.661v-1.211h0.653v1.211h1.084v0.579h-1.084v2.106c0 0.278 0.049 0.483 0.146 0.617 0.102 0.129 0.307 0.193 0.615 0.193h0.3v0.571h-0.438z"></path>
</symbol>
</defs>
</svg>
