<svg aria-hidden="true" style="position: absolute; width: 0; height: 0; overflow: hidden;" version="1.1" xmlns="http://www.w3.org/2000/svg" xmlns:xlink="http://www.w3.org/1999/xlink">
<defs>
<symbol id="icon-LogoHeader" viewBox="0 0 39 32">
<path d="M13.892 10.377l-0.618-0.5c-0.102-0.082-0.232-0.121-0.364-0.109s-0.253 0.075-0.337 0.175l-3.877 4.571c-0.011 0.012-0.018 0.028-0.023 0.043-0.001 0.003-0.002 0.006-0.003 0.009s-0.003 0.004-0.002 0.006l-0.352 1.578c-0.011 0.050 0.008 0.102 0.047 0.133 0.029 0.024 0.066 0.035 0.102 0.032 0.014-0.001 0.028-0.005 0.041-0.011l1.523-0.632c0.002-0.001 0.004-0.002 0.007-0.004s0.006-0.003 0.008-0.005c0.015-0.008 0.028-0.018 0.038-0.030l3.877-4.572c0.085-0.101 0.126-0.227 0.114-0.356s-0.076-0.247-0.179-0.329zM12.188 10.823l0.37 0.299-3.188 3.759-0.37-0.299 3.188-3.759zM8.645 15.951l0.246-1.1 0.815 0.659-1.061 0.441zM9.954 15.355l-0.37-0.299 3.189-3.759 0.37 0.299-3.189 3.759zM13.742 10.889l-0.42 0.495-0.954-0.772 0.42-0.495c0.077-0.091 0.215-0.105 0.308-0.029l0.618 0.5c0.045 0.036 0.073 0.088 0.078 0.144s-0.013 0.112-0.050 0.157z"></path>
<path d="M25.994 15.389v-5.454h0.653v5.454h-0.653z"></path>
<path d="M28.978 17.075c-0.313 0-0.615-0.044-0.907-0.131-0.287-0.087-0.546-0.239-0.776-0.455l0.284-0.517c0.2 0.159 0.413 0.285 0.638 0.378 0.231 0.093 0.471 0.139 0.723 0.139 0.42 0 0.72-0.123 0.899-0.37 0.184-0.242 0.277-0.55 0.277-0.926v-0.486c-0.092 0.139-0.21 0.255-0.354 0.347-0.138 0.087-0.292 0.154-0.461 0.201-0.169 0.041-0.343 0.062-0.523 0.062-0.4 0-0.715-0.080-0.945-0.239s-0.395-0.381-0.492-0.663c-0.097-0.283-0.146-0.609-0.146-0.98v-2.245h0.653v2.060c0 0.185 0.010 0.368 0.031 0.548 0.026 0.175 0.074 0.334 0.146 0.478 0.072 0.139 0.177 0.252 0.315 0.339 0.138 0.082 0.323 0.123 0.553 0.123 0.292 0 0.525-0.072 0.699-0.216 0.179-0.144 0.307-0.337 0.384-0.579 0.082-0.242 0.123-0.509 0.123-0.802v-1.952h0.653v4.065c0 0.293-0.038 0.553-0.115 0.779s-0.192 0.417-0.346 0.571c-0.154 0.154-0.341 0.27-0.561 0.347-0.215 0.082-0.466 0.123-0.753 0.123z"></path>
<path d="M21.814 16.766v-5.531h0.623l0.031 0.609c0.138-0.211 0.325-0.373 0.561-0.486 0.241-0.113 0.5-0.17 0.776-0.17 0.41 0 0.746 0.093 1.007 0.278 0.261 0.18 0.454 0.427 0.576 0.741 0.128 0.314 0.192 0.669 0.192 1.065s-0.064 0.751-0.192 1.065c-0.128 0.314-0.325 0.561-0.592 0.741s-0.607 0.27-1.022 0.27c-0.205 0-0.389-0.021-0.553-0.062-0.164-0.046-0.307-0.111-0.43-0.193-0.123-0.087-0.231-0.188-0.323-0.301v1.975h-0.653zM23.721 14.768c0.297 0 0.533-0.067 0.707-0.201 0.174-0.139 0.3-0.321 0.377-0.548 0.082-0.226 0.123-0.476 0.123-0.748 0-0.278-0.041-0.53-0.123-0.756-0.077-0.226-0.205-0.406-0.384-0.54s-0.418-0.201-0.715-0.201c-0.266 0-0.494 0.069-0.684 0.208-0.184 0.134-0.325 0.316-0.423 0.548-0.097 0.226-0.146 0.476-0.146 0.748 0 0.283 0.046 0.537 0.138 0.764s0.233 0.404 0.423 0.532 0.425 0.193 0.707 0.193z"></path>
<path d="M17.587 16.766v-5.531h0.623l0.031 0.609c0.138-0.211 0.325-0.373 0.561-0.486 0.241-0.113 0.5-0.17 0.776-0.17 0.41 0 0.746 0.093 1.007 0.278 0.261 0.18 0.454 0.427 0.576 0.741 0.128 0.314 0.192 0.669 0.192 1.065s-0.064 0.751-0.192 1.065c-0.128 0.314-0.325 0.561-0.592 0.741s-0.607 0.27-1.022 0.27c-0.205 0-0.389-0.021-0.553-0.062-0.164-0.046-0.307-0.111-0.43-0.193-0.123-0.087-0.231-0.188-0.323-0.301v1.975h-0.653zM19.494 14.768c0.297 0 0.533-0.067 0.707-0.201 0.174-0.139 0.3-0.321 0.377-0.548 0.082-0.226 0.123-0.476 0.123-0.748 0-0.278-0.041-0.53-0.123-0.756-0.077-0.226-0.205-0.406-0.384-0.54s-0.418-0.201-0.715-0.201c-0.266 0-0.494 0.069-0.684 0.208-0.184 0.134-0.325 0.316-0.423 0.548-0.097 0.226-0.146 0.476-0.146 0.748 0 0.283 0.046 0.537 0.138 0.764s0.233 0.404 0.423 0.532c0.19 0.129 0.425 0.193 0.707 0.193z"></path>
<path d="M15.086 15.347c-0.184 0-0.364-0.023-0.538-0.069-0.169-0.051-0.323-0.126-0.461-0.224-0.133-0.103-0.241-0.229-0.323-0.378-0.077-0.154-0.115-0.332-0.115-0.532 0-0.231 0.041-0.427 0.123-0.586 0.087-0.159 0.202-0.285 0.346-0.378s0.31-0.159 0.5-0.201 0.387-0.062 0.592-0.062h1.191c0-0.231-0.033-0.432-0.1-0.602-0.061-0.17-0.164-0.301-0.307-0.393-0.143-0.098-0.333-0.147-0.569-0.147-0.143 0-0.277 0.015-0.4 0.046s-0.228 0.080-0.315 0.147-0.151 0.157-0.192 0.27h-0.699c0.036-0.185 0.105-0.342 0.208-0.471 0.108-0.134 0.236-0.242 0.384-0.324 0.154-0.087 0.318-0.152 0.492-0.193s0.348-0.062 0.523-0.062c0.584 0 0.999 0.172 1.245 0.517s0.369 0.81 0.369 1.396v2.199h-0.546l-0.038-0.517c-0.113 0.154-0.249 0.273-0.407 0.355s-0.323 0.136-0.492 0.162c-0.164 0.031-0.32 0.046-0.469 0.046zM15.147 14.768c0.256 0 0.476-0.041 0.661-0.123 0.19-0.087 0.336-0.213 0.438-0.378s0.154-0.365 0.154-0.602v-0.201h-0.715c-0.169 0-0.336 0.003-0.5 0.008s-0.313 0.026-0.446 0.062c-0.133 0.036-0.241 0.098-0.323 0.185-0.077 0.087-0.115 0.213-0.115 0.378 0 0.154 0.038 0.28 0.115 0.378 0.082 0.098 0.187 0.172 0.315 0.224 0.133 0.046 0.272 0.069 0.415 0.069z"></path>
<path d="M26.117 22.234c-0.43 0-0.787-0.087-1.068-0.262-0.282-0.18-0.492-0.427-0.63-0.741s-0.207-0.671-0.207-1.072c0-0.406 0.072-0.764 0.215-1.072 0.149-0.314 0.364-0.561 0.646-0.741s0.628-0.27 1.038-0.27c0.318 0 0.589 0.062 0.815 0.185 0.231 0.118 0.42 0.278 0.569 0.478s0.256 0.422 0.323 0.663c0.067 0.237 0.095 0.476 0.085 0.717-0.005 0.046-0.010 0.093-0.015 0.139 0 0.046-0.003 0.093-0.008 0.139h-3.005c0.020 0.237 0.079 0.45 0.177 0.64s0.236 0.342 0.415 0.455c0.179 0.108 0.402 0.162 0.669 0.162 0.133 0 0.266-0.015 0.4-0.046 0.138-0.036 0.261-0.095 0.369-0.177 0.113-0.082 0.192-0.193 0.238-0.332h0.669c-0.061 0.262-0.177 0.478-0.346 0.648-0.169 0.165-0.372 0.288-0.607 0.37-0.236 0.077-0.482 0.116-0.738 0.116zM24.887 19.827h2.344c-0.005-0.231-0.056-0.435-0.154-0.609s-0.231-0.311-0.4-0.409c-0.164-0.098-0.361-0.147-0.592-0.147-0.251 0-0.464 0.054-0.638 0.162-0.169 0.108-0.3 0.249-0.392 0.424s-0.149 0.368-0.169 0.579z"></path>
<path d="M11.395 22.187v-4.065h0.63l0.031 0.633c0.102-0.159 0.22-0.288 0.354-0.386 0.138-0.098 0.29-0.17 0.453-0.216 0.169-0.051 0.351-0.077 0.546-0.077 0.036 0 0.069 0 0.1 0 0.036 0 0.072 0 0.108 0v0.617h-0.238c-0.318 0-0.576 0.069-0.776 0.208-0.195 0.134-0.336 0.316-0.423 0.548-0.087 0.226-0.131 0.478-0.131 0.756v1.983h-0.653z"></path>
<path d="M28.269 22.187v-4.065h0.63l0.031 0.633c0.102-0.159 0.22-0.288 0.354-0.386 0.138-0.098 0.29-0.17 0.453-0.216 0.169-0.051 0.351-0.077 0.546-0.077 0.036 0 0.069 0 0.1 0 0.036 0 0.072 0 0.108 0v0.617h-0.238c-0.318 0-0.576 0.069-0.776 0.208-0.195 0.134-0.336 0.316-0.423 0.548-0.087 0.226-0.131 0.478-0.131 0.756v1.983h-0.653z"></path>
<path d="M14.959 22.234c-0.184 0-0.364-0.023-0.538-0.069-0.169-0.051-0.323-0.126-0.461-0.224-0.133-0.103-0.241-0.229-0.323-0.378-0.077-0.154-0.115-0.332-0.115-0.532 0-0.231 0.041-0.427 0.123-0.586 0.087-0.159 0.202-0.285 0.346-0.378s0.31-0.159 0.5-0.201c0.19-0.041 0.387-0.062 0.592-0.062h1.191c0-0.231-0.033-0.432-0.1-0.602-0.061-0.17-0.164-0.301-0.307-0.393-0.143-0.098-0.333-0.147-0.569-0.147-0.143 0-0.277 0.015-0.4 0.046s-0.228 0.080-0.315 0.147c-0.087 0.067-0.151 0.157-0.192 0.27h-0.699c0.036-0.185 0.105-0.342 0.207-0.471 0.108-0.134 0.236-0.242 0.384-0.324 0.154-0.087 0.318-0.152 0.492-0.193s0.348-0.062 0.523-0.062c0.584 0 0.999 0.172 1.245 0.517s0.369 0.81 0.369 1.396v2.199h-0.546l-0.038-0.517c-0.113 0.154-0.248 0.273-0.407 0.355s-0.323 0.136-0.492 0.162c-0.164 0.031-0.32 0.046-0.469 0.046zM15.020 21.655c0.256 0 0.477-0.041 0.661-0.123 0.19-0.087 0.336-0.213 0.438-0.378s0.154-0.365 0.154-0.602v-0.201h-0.715c-0.169 0-0.336 0.003-0.5 0.008s-0.313 0.026-0.446 0.062c-0.133 0.036-0.241 0.098-0.323 0.185-0.077 0.087-0.115 0.213-0.115 0.378 0 0.154 0.038 0.28 0.115 0.378 0.082 0.098 0.187 0.172 0.315 0.224 0.133 0.046 0.272 0.069 0.415 0.069z"></path>
<path d="M19.151 22.234c-0.425 0-0.779-0.087-1.061-0.262-0.277-0.18-0.484-0.427-0.623-0.741-0.133-0.314-0.2-0.669-0.2-1.065 0-0.386 0.069-0.735 0.208-1.049 0.143-0.319 0.359-0.571 0.646-0.756 0.292-0.19 0.661-0.285 1.107-0.285 0.277 0 0.523 0.046 0.738 0.139 0.22 0.093 0.402 0.229 0.546 0.409 0.143 0.175 0.243 0.396 0.3 0.663h-0.669c-0.077-0.226-0.2-0.386-0.369-0.478-0.164-0.098-0.359-0.147-0.584-0.147-0.307 0-0.553 0.072-0.738 0.216s-0.32 0.332-0.407 0.563c-0.082 0.226-0.123 0.468-0.123 0.725 0 0.267 0.044 0.514 0.131 0.741s0.223 0.409 0.407 0.548c0.184 0.134 0.423 0.201 0.715 0.201 0.215 0 0.418-0.046 0.607-0.139 0.195-0.093 0.323-0.257 0.384-0.494h0.676c-0.051 0.278-0.161 0.507-0.331 0.687-0.164 0.18-0.366 0.314-0.607 0.401-0.236 0.082-0.487 0.123-0.753 0.123z"></path>
<path d="M21.16 22.188v-5.454h0.653v3.14h0.707l1.214-1.751h0.738l-1.353 1.936 1.468 2.129h-0.769l-1.222-1.743h-0.784v1.743h-0.653z"></path>
<path d="M10.637 22.187c-0.307 0-0.556-0.046-0.746-0.139-0.184-0.093-0.32-0.237-0.407-0.432-0.082-0.195-0.123-0.442-0.123-0.741v-2.175h-0.661v-0.579h0.661v-1.211h0.653v1.211h1.084v0.579h-1.084v2.106c0 0.278 0.049 0.483 0.146 0.617 0.102 0.129 0.307 0.193 0.615 0.193h0.3v0.571h-0.438z"></path>
</symbol>
<symbol id="icon-illustration" viewBox="0 0 32 32">
<path fill="#f0f0f0" style="fill: var(--color1, #f0f0f0)" d="M28.461 22.345h-11.568c-0.207 0-0.375-0.168-0.375-0.375v-16.85c0-0.207 0.168-0.375 0.375-0.375h11.568c0.207 0 0.375 0.168 0.375 0.375v16.849c0 0.207-0.168 0.375-0.375 0.375zM16.894 4.761c-0.198 0-0.359 0.161-0.359 0.359v16.849c0 0.198 0.161 0.359 0.359 0.359h11.568c0.198 0 0.359-0.161 0.359-0.359v-16.849c0-0.198-0.161-0.359-0.359-0.359h-11.568z"></path>
<path fill="#f0f0f0" style="fill: var(--color1, #f0f0f0)" d="M15.122 22.345h-11.568c-0.207 0-0.375-0.168-0.375-0.375v-16.85c0-0.207 0.168-0.375 0.375-0.375h11.568c0.207 0 0.375 0.168 0.375 0.375v16.849c0 0.207-0.168 0.375-0.375 0.375zM3.554 4.761c-0.198 0-0.359 0.161-0.359 0.359v16.849c0 0.198 0.161 0.359 0.359 0.359h11.568c0.198 0 0.359-0.161 0.359-0.359v-16.849c0-0.198-0.161-0.359-0.359-0.359h-11.568z"></path>
<path fill="#f0f0f0" style="fill: var(--color1, #f0f0f0)" d="M32 26.254v0z"></path>
<path fill="#f0f0f0" style="fill: var(--color1, #f0f0f0)" d="M5.566 24.621c0 0-0.605 0.134-0.515-0.288s0.083-0.578-0.163-0.769c-0.246-0.192-0.493-0.287-0.305-0.59s-0.169-0.54-0.354-0.703c-0.185-0.163 0.024-0.287 0.073-0.596s-0.284-0.263-0.31-0.652c-0.026-0.389 0.369-0.844 0.029-1.38 0 0 0.457 0.237 0.607 0.653s0.029 0.737 0.299 0.895c0.27 0.158 0.439 0.432 0.347 0.712s0.039 0.43 0.26 0.634c0.221 0.205 0.162 0.286 0.135 0.536s0.028 0.191 0.281 0.533c0.253 0.342 0.26 0.902-0.384 1.015z"></path>
<path fill="#e0e0e0" style="fill: var(--color2, #e0e0e0)" d="M5.652 24.602c-0.001-0.002-0.002-0.004-0.003-0.007l-1.21-3.674c-0.005-0.016 0.003-0.033 0.019-0.038 0-0 0-0 0.001-0 0.016-0.005 0.032 0.004 0.038 0.019l1.21 3.674c0.001 0.003 0.001 0.006 0.002 0.009l-0.056 0.016z"></path>
<path fill="#f0f0f0" style="fill: var(--color1, #f0f0f0)" d="M6.657 24.613c0 0 0.602 0.133 0.512-0.286s-0.083-0.575 0.162-0.765c0.245-0.191 0.491-0.285 0.303-0.587s0.168-0.537 0.352-0.7c0.184-0.163-0.024-0.285-0.072-0.593s0.282-0.261 0.308-0.648-0.367-0.84-0.029-1.373c0 0-0.454 0.236-0.603 0.649s-0.029 0.734-0.297 0.891c-0.268 0.157-0.436 0.429-0.345 0.709s-0.038 0.427-0.258 0.631c-0.22 0.204-0.161 0.285-0.134 0.534s-0.028 0.19-0.279 0.53c-0.252 0.34-0.258 0.898 0.382 1.009z"></path>
<path fill="#e0e0e0" style="fill: var(--color2, #e0e0e0)" d="M6.516 24.578c0-0.003 0.001-0.006 0.002-0.009l1.204-3.654c0.005-0.016 0.022-0.024 0.037-0.019 0 0 0 0 0.001 0 0.016 0.005 0.024 0.022 0.019 0.038l-1.204 3.654c-0.001 0.002-0.002 0.004-0.003 0.006l-0.055-0.016z"></path>
<path fill="#f5f5f5" style="fill: var(--color3, #f5f5f5)" d="M5.989 24.537c0 0-0.692-0.057-0.456-0.48s0.281-0.591 0.081-0.878c-0.2-0.287-0.433-0.471-0.131-0.734s-0.002-0.634-0.145-0.871c-0.143-0.236 0.121-0.299 0.276-0.614s-0.217-0.375-0.115-0.801 0.676-0.782 0.49-1.468c0 0 0.41 0.405 0.433 0.901s-0.214 0.799 0.022 1.058c0.236 0.259 0.327 0.608 0.135 0.878s-0.101 0.473 0.068 0.766c0.169 0.293 0.079 0.36-0.034 0.619s-0.034 0.214 0.124 0.664c0.158 0.45-0.022 1.053-0.748 0.959z"></path>
<path fill="#e0e0e0" style="fill: var(--color2, #e0e0e0)" d="M6.088 24.545c-0.001-0.003-0.001-0.005-0.001-0.008l-0.076-4.337c-0-0.019 0.015-0.034 0.033-0.034 0 0 0 0 0.001 0 0.018 0 0.033 0.015 0.034 0.033l0.076 4.337c0 0.004-0 0.007-0.001 0.010l-0.065-0.001z"></path>
<path fill="#e6e6e6" style="fill: var(--color4, #e6e6e6)" d="M7.874 24.202h-3.386c-0.097 0-0.165 0.097-0.13 0.188l0.050 0.133 0.032 0.084 0.091 0.241 0.032 0.084 0.093 0.248 0.032 0.084 0.373 0.989h2.243l0.702-1.864c0.034-0.091-0.033-0.188-0.13-0.188z"></path>
<path fill="#f5f5f5" style="fill: var(--color3, #f5f5f5)" d="M5.008 12.529h2.021c0.053 0 0.096-0.043 0.096-0.096v-0.456c0-0.053-0.043-0.096-0.096-0.096h-2.021c-0.053 0-0.096 0.043-0.096 0.096v0.456c0 0.053 0.043 0.096 0.096 0.096z"></path>
<path fill="#f5f5f5" style="fill: var(--color3, #f5f5f5)" d="M3.801 13.356h2.021c0.053 0 0.096-0.043 0.096-0.096v-0.456c0-0.053-0.043-0.096-0.096-0.096h-2.021c-0.053 0-0.096 0.043-0.096 0.096v0.456c0 0.053 0.043 0.096 0.096 0.096z"></path>
<path fill="#f5f5f5" style="fill: var(--color3, #f5f5f5)" d="M20.109 6.079h-2.021c-0.053 0-0.096-0.043-0.096-0.096v-0.456c0-0.053 0.043-0.096 0.096-0.096h2.021c0.053 0 0.096 0.043 0.096 0.096v0.456c0 0.053-0.043 0.096-0.096 0.096z"></path>
<path fill="#f5f5f5" style="fill: var(--color3, #f5f5f5)" d="M21.315 6.905h-2.021c-0.053 0-0.096-0.043-0.096-0.096v-0.456c0-0.053 0.043-0.096 0.096-0.096h2.021c0.053 0 0.096 0.043 0.096 0.096v0.456c0 0.053-0.043 0.096-0.096 0.096z"></path>
<path fill="#f5f5f5" style="fill: var(--color3, #f5f5f5)" d="M20.53 16.153h-2.021c-0.053 0-0.096-0.043-0.096-0.096v-0.456c0-0.053 0.043-0.096 0.096-0.096h2.021c0.053 0 0.096 0.043 0.096 0.096v0.456c0 0.053-0.043 0.096-0.096 0.096z"></path>
<path fill="#f5f5f5" style="fill: var(--color3, #f5f5f5)" d="M22.944 16.153h-2.021c-0.053 0-0.096-0.043-0.096-0.096v-0.456c0-0.053 0.043-0.096 0.096-0.096h2.021c0.053 0 0.096 0.043 0.096 0.096v0.456c0 0.053-0.043 0.096-0.096 0.096z"></path>
<path fill="#f5f5f5" style="fill: var(--color3, #f5f5f5)" d="M21.737 16.98h-2.021c-0.053 0-0.096-0.043-0.096-0.096v-0.456c0-0.053 0.043-0.096 0.096-0.096h2.021c0.053 0 0.096 0.043 0.096 0.096v0.456c0 0.053-0.043 0.096-0.096 0.096z"></path>
<path fill="#e6e6e6" style="fill: var(--color4, #e6e6e6)" d="M27.993 6.135h-5.057v5.057h5.057v-5.057z"></path>
<path fill="#fafafa" style="fill: var(--color5, #fafafa)" d="M27.737 10.936v-4.545h-4.545v4.545h4.545z"></path>
<path fill="#f0f0f0" style="fill: var(--color1, #f0f0f0)" d="M25.16 9.904c0 0 0.835-1.711 2.577-1.745v2.778h-2.273l-0.305-1.032z"></path>
<path fill="#f5f5f5" style="fill: var(--color3, #f5f5f5)" d="M23.192 9.423c0 0 0.75-0.393 1.513-0.105 0.958 0.363 1.513 1.617 1.513 1.617h-3.027v-1.513z"></path>
<path fill="#fff" style="fill: var(--color6, #fff)" d="M25.553 7.832c0 0.443-0.359 0.802-0.802 0.802s-0.802-0.359-0.802-0.802c0-0.443 0.359-0.802 0.802-0.802s0.802 0.359 0.802 0.802z"></path>
<path fill="#e6e6e6" style="fill: var(--color4, #e6e6e6)" d="M14.999 6.168h-4.437v8.59h4.437v-8.59z"></path>
<path fill="#fafafa" style="fill: var(--color5, #fafafa)" d="M14.743 14.501v-8.078h-3.925v8.078h3.925z"></path>
<path fill="#fff" style="fill: var(--color6, #fff)" d="M12.177 9.729c0.443 0 0.802-0.359 0.802-0.802s-0.359-0.802-0.802-0.802c-0.443 0-0.802 0.359-0.802 0.802s0.359 0.802 0.802 0.802z"></path>
<path fill="#f0f0f0" style="fill: var(--color1, #f0f0f0)" d="M11.552 14.501c0 0 0.993-4.776 3.191-5.205v5.205h-3.191z"></path>
<path fill="#f5f5f5" style="fill: var(--color3, #f5f5f5)" d="M10.818 11.667c0 0 0.506-0.488 1.307-0.196 1.505 0.548 2.346 3.031 2.346 3.031h-3.652v-2.835z"></path>
<path fill="#f5f5f5" style="fill: var(--color3, #f5f5f5)" d="M16.231 29.37c7.029 0 12.728-0.156 12.728-0.349s-5.698-0.349-12.728-0.349-12.728 0.156-12.728 0.349c0 0.192 5.698 0.349 12.728 0.349z"></path>
<path fill="#288dd5" style="fill: var(--color7, #288dd5)" d="M27.426 17.755h-5.87v11.013h5.87v-11.013z"></path>
<path fill="#263238" style="fill: var(--color8, #263238)" d="M21.556 21.116h-0.331v0.331h0.331v-0.331z"></path>
<path fill="#263238" style="fill: var(--color8, #263238)" d="M21.556 18.344h-0.331v0.331h0.331v-0.331z"></path>
<path fill="#000" style="fill: var(--color9, #000)" opacity="0.2" d="M26.675 21.446h-5.119v0.057h5.119v-0.057z"></path>
<path fill="#263238" style="fill: var(--color8, #263238)" d="M26.675 17.755h-0.057v11.013h0.057v-11.013z"></path>
<path fill="#288dd5" style="fill: var(--color7, #288dd5)" d="M27.426 17.755h-0.751v-1.744c0-0.415 0.336-0.751 0.751-0.751v2.494z"></path>
<path fill="#fff" style="fill: var(--color6, #fff)" opacity="0.5" d="M27.426 17.755h-0.751v-1.744c0-0.415 0.336-0.751 0.751-0.751v2.494z"></path>
<path fill="#263238" style="fill: var(--color8, #263238)" d="M23.847 17.564h-1.662v0.191h1.662v-0.191z"></path>
<path fill="#263238" style="fill: var(--color8, #263238)" d="M26.215 17.564h-1.662v0.191h1.662v-0.191z"></path>
<path fill="#263238" style="fill: var(--color8, #263238)" d="M23.019 28.768h-0.706v0.254h0.706v-0.254z"></path>
<path fill="#263238" style="fill: var(--color8, #263238)" d="M26.475 28.768h-0.706v0.254h0.706v-0.254z"></path>
<path fill="#263238" style="fill: var(--color8, #263238)" d="M7.329 17.712h3.325c0.079 0 0.135-0.078 0.111-0.153l-0.722-2.199c-0.016-0.048-0.060-0.080-0.111-0.080h-3.325c-0.079 0-0.135 0.078-0.111 0.153l0.722 2.199c0.016 0.048 0.060 0.080 0.111 0.080z"></path>
<path fill="#fff" style="fill: var(--color6, #fff)" opacity="0.3" d="M8.709 16.61c0.023 0.151-0.061 0.274-0.188 0.274s-0.249-0.123-0.273-0.274c-0.023-0.151 0.061-0.274 0.188-0.274s0.249 0.123 0.273 0.274z"></path>
<path fill="#263238" style="fill: var(--color8, #263238)" d="M11.838 17.663l0.071 0.212c0.021 0.064-0.026 0.131-0.094 0.131h-4.404c-0.043 0-0.081-0.027-0.094-0.068l-0.091-0.274h4.613z"></path>
<path fill="#fff" style="fill: var(--color6, #fff)" opacity="0.12" d="M11.838 17.663l0.071 0.212c0.021 0.064-0.026 0.131-0.094 0.131h-4.404c-0.043 0-0.081-0.027-0.094-0.068l-0.091-0.274h4.613z"></path>
<path fill="#288dd5" style="fill: var(--color7, #288dd5)" d="M13.469 18.005h-8.137v0.669h8.137v-0.669z"></path>
<path fill="#263238" style="fill: var(--color8, #263238)" d="M9.569 18.675h-0.337v10.093h0.337v-10.093z"></path>
<path fill="#288dd5" style="fill: var(--color7, #288dd5)" d="M11.754 29.019l-4.707-0.001c0.166-0.268 0.458-0.432 0.774-0.432h3.159c0.316 0 0.609 0.164 0.774 0.433z"></path>
<path fill="#288dd5" style="fill: var(--color7, #288dd5)" d="M10.172 9.553h-5.896v0.614h5.896v-0.614z"></path>
<path fill="#288dd5" style="fill: var(--color7, #288dd5)" d="M4.747 10.166l0.27 0.609h0.398v-0.609h-0.668z"></path>
<path fill="#000" style="fill: var(--color9, #000)" opacity="0.3" d="M4.747 10.166l0.27 0.609h0.398v-0.609h-0.668z"></path>
<path fill="#288dd5" style="fill: var(--color7, #288dd5)" d="M9.702 10.166l-0.27 0.609h-0.398v-0.609h0.668z"></path>
<path fill="#000" style="fill: var(--color9, #000)" opacity="0.3" d="M9.702 10.166l-0.27 0.609h-0.398v-0.609h0.668z"></path>
<path fill="#288dd5" style="fill: var(--color7, #288dd5)" d="M6.104 8.024v-1.145c0-0.015-0.012-0.028-0.028-0.028s-0.028 0.012-0.028 0.028v1.145h0.055z"></path>
<path fill="#000" style="fill: var(--color9, #000)" opacity="0.3" d="M6.104 8.024v-1.145c0-0.015-0.012-0.028-0.028-0.028s-0.028 0.012-0.028 0.028v1.145h0.055z"></path>
<path fill="#263238" style="fill: var(--color8, #263238)" d="M5.613 9.34l0.028 0.104 0.006 0.022 0.023 0.086h0.813l0.023-0.086 0.006-0.022 0.034-0.126 0.349-1.294h-1.637l0.037 0.137 0.028 0.104 0.006 0.022 0.284 1.053z"></path>
<path fill="#288dd5" style="fill: var(--color7, #288dd5)" d="M5.978 7.274c0.033 0.008 0.066-0.006 0.084-0.031 0.006-0.009 0.011-0.019 0.013-0.029 0.001-0.005 0.002-0.011 0.002-0.017 0-0.019-0.007-0.037-0.018-0.051-0.106-0.128-0.641-0.747-0.892-0.488-0.303 0.313 0.519 0.546 0.811 0.617z"></path>
<path fill="#000" style="fill: var(--color9, #000)" opacity="0.3" d="M5.504 6.913l0.557 0.33c0.006-0.009 0.011-0.019 0.013-0.029l-0.554-0.328c-0.008-0.005-0.018-0.002-0.022 0.006s-0.002 0.017 0.006 0.022z"></path>
<path fill="#288dd5" style="fill: var(--color7, #288dd5)" d="M6.076 7.502c0 0.006 0.001 0.012 0.002 0.017 0.002 0.011 0.007 0.021 0.013 0.029 0.018 0.025 0.051 0.039 0.084 0.031 0.292-0.071 1.114-0.304 0.811-0.617-0.251-0.259-0.786 0.36-0.892 0.488-0.012 0.014-0.018 0.032-0.018 0.051z"></path>
<path fill="#000" style="fill: var(--color9, #000)" opacity="0.3" d="M6.078 7.519c0.002 0.011 0.007 0.021 0.013 0.029l0.557-0.33c0.007-0.004 0.010-0.014 0.006-0.022s-0.014-0.010-0.022-0.006l-0.554 0.328z"></path>
<path fill="#288dd5" style="fill: var(--color7, #288dd5)" d="M6.016 6.875c0.002 0.019 0.011 0.036 0.024 0.049 0.004 0.004 0.009 0.007 0.014 0.011 0.009 0.006 0.020 0.009 0.031 0.011 0.031 0.004 0.063-0.010 0.080-0.039 0.15-0.261 0.548-1.017 0.113-1.013-0.361 0.003-0.281 0.817-0.262 0.982z"></path>
<path fill="#000" style="fill: var(--color9, #000)" opacity="0.3" d="M6.053 6.934c0.009 0.006 0.020 0.009 0.031 0.011l0.146-0.631c0.002-0.009-0.003-0.017-0.012-0.019s-0.017 0.003-0.019 0.012l-0.145 0.627z"></path>
<path fill="#288dd5" style="fill: var(--color7, #288dd5)" d="M5.978 7.931c0.033 0.008 0.066-0.006 0.084-0.031 0.006-0.009 0.011-0.019 0.013-0.029 0.001-0.005 0.002-0.011 0.002-0.017 0-0.019-0.007-0.037-0.018-0.051-0.106-0.128-0.641-0.747-0.892-0.488-0.303 0.313 0.519 0.546 0.811 0.617z"></path>
<path fill="#000" style="fill: var(--color9, #000)" opacity="0.3" d="M5.504 7.57l0.557 0.33c0.006-0.009 0.011-0.019 0.013-0.029l-0.554-0.328c-0.008-0.005-0.018-0.002-0.022 0.006s-0.002 0.018 0.006 0.022z"></path>
<path fill="#288dd5" style="fill: var(--color7, #288dd5)" d="M7.218 9.105h-0.059v-0.088h2.23c0.074 0 0.141 0.030 0.189 0.079s0.078 0.115 0.078 0.189c0 0.148-0.12 0.268-0.268 0.268h-2.23v-0.076h0.059l-0-0.371z"></path>
<path fill="#fff" style="fill: var(--color6, #fff)" d="M7.203 9.105v0.371h2.046c0.1 0 0.181-0.083 0.181-0.186 0-0.051-0.020-0.098-0.053-0.131s-0.078-0.054-0.128-0.054h-2.046z"></path>
<path fill="#e6e6e6" style="fill: var(--color4, #e6e6e6)" d="M7.203 9.199v0.057h1.994c0.016 0 0.028-0.013 0.028-0.028v-0c0-0.016-0.013-0.028-0.028-0.028h-1.994z"></path>
<path fill="#e6e6e6" style="fill: var(--color4, #e6e6e6)" d="M7.203 9.339v0.057h1.994c0.016 0 0.028-0.013 0.028-0.028v-0c0-0.016-0.013-0.028-0.028-0.028h-1.994z"></path>
<path fill="#288dd5" style="fill: var(--color7, #288dd5)" d="M7.218 8.569h-0.059v-0.088h2.23c0.074 0 0.141 0.030 0.189 0.078s0.078 0.115 0.078 0.189c0 0.148-0.12 0.268-0.268 0.268h-2.23v-0.076h0.059l-0-0.371z"></path>
<path fill="#000" style="fill: var(--color9, #000)" opacity="0.3" d="M7.218 8.569h-0.059v-0.088h2.23c0.074 0 0.141 0.030 0.189 0.078s0.078 0.115 0.078 0.189c0 0.148-0.12 0.268-0.268 0.268h-2.23v-0.076h0.059l-0-0.371z"></path>
<path fill="#fff" style="fill: var(--color6, #fff)" d="M7.203 8.569v0.371h2.046c0.1 0 0.181-0.083 0.181-0.185 0-0.051-0.020-0.098-0.053-0.131s-0.078-0.054-0.128-0.054h-2.046z"></path>
<path fill="#e6e6e6" style="fill: var(--color4, #e6e6e6)" d="M7.203 8.663v0.057h1.994c0.016 0 0.028-0.013 0.028-0.028v-0c0-0.016-0.013-0.028-0.028-0.028h-1.994z"></path>
<path fill="#e6e6e6" style="fill: var(--color4, #e6e6e6)" d="M7.203 8.803v0.057h1.994c0.016 0 0.028-0.013 0.028-0.028v-0c0-0.016-0.013-0.028-0.028-0.028h-1.994z"></path>
<path fill="#288dd5" style="fill: var(--color7, #288dd5)" d="M20.727 8.314c0 0.566-0.459 1.025-1.025 1.025-0.173 0-0.335-0.043-0.478-0.118l-0.383 0.258 0.141-0.436c-0.189-0.186-0.305-0.444-0.305-0.73 0-0.566 0.459-1.025 1.025-1.025s1.025 0.459 1.025 1.025z"></path>
<path fill="#fff" style="fill: var(--color6, #fff)" opacity="0.5" d="M20.727 8.314c0 0.566-0.459 1.025-1.025 1.025-0.173 0-0.335-0.043-0.478-0.118l-0.383 0.258 0.141-0.436c-0.189-0.186-0.305-0.444-0.305-0.73 0-0.566 0.459-1.025 1.025-1.025s1.025 0.459 1.025 1.025z"></path>
<path fill="#fff" style="fill: var(--color6, #fff)" d="M19.702 8.442c0.071 0 0.128-0.057 0.128-0.128s-0.057-0.128-0.128-0.128c-0.071 0-0.128 0.057-0.128 0.128s0.057 0.128 0.128 0.128z"></path>
<path fill="#fff" style="fill: var(--color6, #fff)" d="M19.27 8.442c0.071 0 0.128-0.057 0.128-0.128s-0.057-0.128-0.128-0.128c-0.071 0-0.128 0.057-0.128 0.128s0.057 0.128 0.128 0.128z"></path>
<path fill="#fff" style="fill: var(--color6, #fff)" d="M20.134 8.442c0.071 0 0.128-0.057 0.128-0.128s-0.057-0.128-0.128-0.128c-0.071 0-0.128 0.057-0.128 0.128s0.057 0.128 0.128 0.128z"></path>
<path fill="#288dd5" style="fill: var(--color7, #288dd5)" d="M15.388 11.149l-0.010 0.019-0.426 0.837c-0.25-0.12-0.493-0.248-0.733-0.386-0.14-0.079-0.278-0.161-0.416-0.246-0.188-0.116-0.372-0.237-0.562-0.376l-0.072-0.052-0.074-0.060-0.038-0.031-0.045-0.040c-0.030-0.027-0.051-0.049-0.077-0.075-0.090-0.095-0.163-0.184-0.234-0.273-0.279-0.358-0.517-0.719-0.753-1.085-0.233-0.367-0.456-0.737-0.669-1.117l0.392-0.269 0.822 0.987c0.273 0.326 0.548 0.655 0.826 0.952 0.068 0.073 0.14 0.145 0.203 0.2 0.014 0.011 0.031 0.027 0.042 0.034l0.017 0.012 0.027 0.017 0.056 0.035 0.063 0.037c0.169 0.098 0.355 0.195 0.54 0.292 0.287 0.15 0.58 0.3 0.868 0.454 0.076 0.041 0.152 0.082 0.227 0.124 0.008 0.005 0.017 0.010 0.025 0.014z"></path>
<path fill="#000" style="fill: var(--color9, #000)" opacity="0.2" d="M15.363 11.135l0.015 0.033-0.426 0.837c-0.25-0.12-0.493-0.248-0.733-0.386 0.108-0.492 0.641-0.589 0.916-0.607l0.227 0.124z"></path>
<path fill="#ffb573" style="fill: var(--color10, #ffb573)" d="M11.349 8.384c0 0-0.404-0.197-0.603-0.281-0.182-0.077-0.406-0.256-0.379-0.373 0.105-0.448 0.662-0.085 0.662-0.085l0.641 0.34c0.013 0.135-0.144 0.32-0.32 0.399z"></path>
<path fill="#288dd5" style="fill: var(--color7, #288dd5)" d="M8.789 7.353l-0.058-0.017-0.025 0.086 2.176 0.629c0.072 0.021 0.146 0.011 0.207-0.023s0.109-0.090 0.13-0.163c0.042-0.144-0.041-0.295-0.186-0.337l-2.176-0.629-0.021 0.074 0.058 0.017-0.105 0.362z"></path>
<path fill="#fff" style="fill: var(--color6, #fff)" d="M8.775 7.349l0.105-0.362 1.997 0.577c0.097 0.028 0.153 0.132 0.124 0.232-0.014 0.050-0.047 0.090-0.089 0.113s-0.091 0.031-0.14 0.017l-1.997-0.577z"></path>
<path fill="#d6d6d6" style="fill: var(--color11, #d6d6d6)" d="M8.801 7.257l0.016-0.055 1.945 0.562c0.015 0.004 0.024 0.020 0.020 0.036l-0 0c-0.004 0.015-0.020 0.024-0.036 0.020l-1.945-0.562z"></path>
<path fill="#d6d6d6" style="fill: var(--color11, #d6d6d6)" d="M8.84 7.121l0.016-0.055 1.945 0.562c0.015 0.004 0.024 0.020 0.020 0.036l-0 0c-0.004 0.015-0.020 0.024-0.036 0.020l-1.945-0.562z"></path>
<path fill="#ffb573" style="fill: var(--color10, #ffb573)" d="M11.669 7.985c0 0-0.333-0.369-0.428-0.399s-0.588 0.025-0.54 0.091c0.048 0.066 0.428 0.162 0.428 0.162l0.182 0.147 0.358-0.002z"></path>
<path fill="#288dd5" style="fill: var(--color7, #288dd5)" d="M17.74 11.514c-0.023-0.010-0.045-0.020-0.068-0.029-0.111-0.045-0.221-0.095-0.332-0.143-0.032-0.014-0.064-0.028-0.096-0.042-0.044-0.019-0.088-0.038-0.131-0.057l-0.381 0.811c0.296 0.143 0.591 0.273 0.894 0.391 0.037 0.014 0.074 0.029 0.111 0.042 0.034 0.013 0.068 0.026 0.103 0.038 0.025 0.009 0.050 0.018 0.075 0.027 0.169 0.061 0.341 0.117 0.52 0.168 0.001 0.001 0.003 0.001 0.004 0.001 0.005 0.001 0.010 0.003 0.015 0.004l-0.714-1.212zM17.773 10.687c0.007 0.012 0.014 0.023 0.022 0.035 0.007 0.002 0.013 0.003 0.020 0.003 0.095 0.060 0.337-0.161 0.351-0.307-0.029-0.031-0.059-0.063-0.089-0.093-0.010-0.011-0.021-0.022-0.031-0.033l-0.249 0.194-0.1 0.079c0.001 0.003 0.003 0.005 0.004 0.007 0.024 0.039 0.049 0.078 0.073 0.116z"></path>
<path fill="#288dd5" style="fill: var(--color7, #288dd5)" d="M19.702 12.431c0 0.015-0.001 0.029-0.002 0.045l-0.003 0.024c-0.002 0.012-0.005 0.024-0.008 0.036s-0.007 0.024-0.011 0.035c-0.003 0.010-0.009 0.024-0.017 0.042-0.017 0.034-0.036 0.063-0.063 0.093-0.029 0.032-0.065 0.061-0.1 0.082-0.032 0.018-0.068 0.033-0.104 0.042l-0.033 0.008-0.022 0.004c-0.111 0.018-0.187 0.015-0.259 0.010-0.070-0.005-0.134-0.014-0.195-0.024-0.122-0.020-0.234-0.047-0.342-0.075-0.030-0.008-0.059-0.016-0.089-0.025l-0.714-1.212c0.165 0.071 0.328 0.141 0.492 0.208 0.090 0.036 0.179 0.072 0.268 0.106-0.045-0.070-0.090-0.14-0.135-0.211-0.191-0.296-0.382-0.596-0.57-0.897 0.007 0.002 0.013 0.003 0.020 0.003 0.095 0.060 0.337-0.161 0.351-0.307 0.249 0.264 0.491 0.532 0.726 0.809 0.138 0.159 0.272 0.323 0.405 0.49 0.067 0.084 0.133 0.169 0.198 0.261 0.033 0.046 0.066 0.093 0.101 0.148 0.017 0.029 0.035 0.057 0.058 0.105 0.006 0.013 0.012 0.026 0.020 0.046 0.007 0.023 0.016 0.042 0.024 0.099 0.003 0.017 0.004 0.035 0.004 0.057z"></path>
<path fill="#000" style="fill: var(--color9, #000)" opacity="0.2" d="M18.486 12.781c-0.002-0.003-0.004-0.005-0.006-0.008l-0.045-0.053-1.191-1.421c0.032 0.014 0.064 0.028 0.096 0.042 0.11 0.048 0.221 0.097 0.332 0.143 0.023 0.010 0.045 0.020 0.069 0.029l0.746 1.267z"></path>
<path fill="#ffb573" style="fill: var(--color10, #ffb573)" d="M18.166 10.417c-0.014 0.146-0.256 0.367-0.351 0.307-0.006-0.001-0.013-0.001-0.020-0.003-0.013-0.002-0.027-0.006-0.042-0.012-0.027-0.010-0.056-0.024-0.083-0.042-0.086-0.054-0.164-0.136-0.189-0.197-0.004-0.008-0.007-0.016-0.008-0.024-0.019-0.093-0.029-0.198-0.048-0.28-0.005-0.019 0.001-0.032 0.012-0.040 0.015-0.012 0.042-0.013 0.070-0.002h0.001c0.012 0.005 0.025 0.012 0.037 0.021 0.002 0.001 0.003 0.002 0.004 0.004 0.004 0.003 0.008 0.006 0.011 0.010 0.019 0.020 0.035 0.047 0.042 0.083 0.028 0.141 0.251 0.112 0.251 0.112l0.091-0.26 0.031-0.091h0.001l0.058-0.168c0.001 0.001 0.003 0.003 0.004 0.004 0.003 0.005 0.005 0.009 0.006 0.013 0.036 0.084 0.097 0.438 0.12 0.523 0.003 0.013 0.005 0.027 0.002 0.042z"></path>
<path fill="#263238" style="fill: var(--color8, #263238)" d="M18.067 10.339l-0.322 0.381c-0.019 0.023-0.044 0.018-0.057-0.010l-0.368-0.852c-0.012-0.028-0.007-0.070 0.012-0.092l0.322-0.381c0.019-0.023 0.044-0.018 0.057 0.010l0.368 0.852c0.012 0.028 0.007 0.070-0.012 0.092z"></path>
<path fill="#fff" style="fill: var(--color6, #fff)" opacity="0.3" d="M17.987 10.259l-0.262 0.31c-0.010 0.012-0.023 0.009-0.029-0.005l-0.323-0.749c-0.006-0.015-0.003-0.036 0.006-0.047l0.262-0.31c0.010-0.012 0.023-0.009 0.029 0.005l0.323 0.748c0.006 0.015 0.003 0.036-0.007 0.048z"></path>
<path fill="#ffb573" style="fill: var(--color10, #ffb573)" d="M18.038 9.84c-0.041-0.084-0.107-0.129-0.16-0.128s-0.075 0.239-0.060 0.295c0.031 0.116 0.116-0.1 0.116-0.1l0.046 0.107c0.049-0.055 0.095-0.104 0.058-0.174z"></path>
<path fill="#ffb573" style="fill: var(--color10, #ffb573)" d="M17.951 9.626c-0.007-0.019-0.091-0.092-0.144-0.090s-0.080 0.224-0.064 0.28c0.032 0.116 0.12-0.086 0.12-0.086l0.113 0.122c0.049-0.055 0.028-0.132-0.025-0.227z"></path>
<path fill="#ffb573" style="fill: var(--color10, #ffb573)" d="M17.863 9.513c-0.007-0.019-0.050-0.114-0.104-0.112s-0.098 0.177-0.083 0.233c0.032 0.116 0.12-0.086 0.12-0.086l0.113 0.122c0.020-0.031 0.006-0.063-0.046-0.158z"></path>
<path fill="#288dd5" style="fill: var(--color7, #288dd5)" d="M21.555 14.47l-0.137 0.429c-0.445-0.111-0.888-0.225-1.331-0.342-0.221-0.060-0.443-0.12-0.666-0.183s-0.443-0.127-0.676-0.208c-0.031-0.011-0.059-0.021-0.091-0.034l-0.048-0.019-0.054-0.025c-0.038-0.017-0.099-0.052-0.149-0.092l-0.051-0.042c-0.013-0.012-0.027-0.024-0.041-0.037-0.1-0.095-0.176-0.182-0.257-0.27-0.030-0.034-0.060-0.068-0.090-0.101-0.024-0.028-0.047-0.054-0.070-0.081-0.086-0.099-0.17-0.197-0.253-0.296-0.014-0.017-0.028-0.034-0.042-0.051-0.296-0.353-0.585-0.707-0.872-1.067l0.762-0.584c0.269 0.361 0.543 0.725 0.817 1.082 0.138 0.178 0.276 0.355 0.415 0.524 0.069 0.084 0.141 0.168 0.202 0.236 0.007 0.007 0.013 0.015 0.020 0.024l0.027 0.030 0.001 0.001 0.029 0.017c0.019 0.011 0.044 0.024 0.065 0.035 0.188 0.095 0.396 0.187 0.602 0.276 0.207 0.090 0.415 0.178 0.625 0.266 0.419 0.174 0.842 0.345 1.265 0.512z"></path>
<path fill="#000" style="fill: var(--color9, #000)" opacity="0.2" d="M17.964 13.546c-0.024-0.028-0.047-0.054-0.070-0.081-0.086-0.099-0.17-0.197-0.253-0.296l-0.026-1.305c0.014 0.038 0.108 0.455 0.255 0.716 0.203 0.358 0.236 0.769 0.094 0.966z"></path>
<path fill="#ffb573" style="fill: var(--color10, #ffb573)" d="M21.418 14.899c0 0 0.543 0.080 0.756 0.078s0.657-0.231 0.605-0.312c-0.053-0.081-0.607-0.171-0.607-0.171l-0.711-0.063c-0.083 0.105-0.145 0.308-0.043 0.468z"></path>
<path fill="#263238" style="fill: var(--color8, #263238)" d="M23.2 14.629l-1.444-0.034-0.003 0.143 1.444 0.034 0.003-0.143z"></path>
<path fill="#263238" style="fill: var(--color8, #263238)" d="M24.666 15.188l-1.183-0.028c-0.247-0.006-0.443-0.211-0.437-0.459l0.002-0.075 2.078 0.050-0.002 0.075c-0.006 0.247-0.211 0.443-0.459 0.437z"></path>
<path fill="#288dd5" style="fill: var(--color7, #288dd5)" d="M23.983 14.515c0 0-0.459-0.368-0.096-0.702s0.373-0.597 0.096-0.853c0 0 0.416 0.189 0.565 0.585s-0.576 0.7-0.565 0.97z"></path>
<path fill="#fff" style="fill: var(--color6, #fff)" opacity="0.8" d="M23.983 14.515c0 0-0.459-0.368-0.096-0.702s0.373-0.597 0.096-0.853c0 0 0.416 0.189 0.565 0.585s-0.576 0.7-0.565 0.97z"></path>
<path fill="#ffb573" style="fill: var(--color10, #ffb573)" d="M21.461 14.431c0 0 0.473-0.126 0.568-0.099s0.472 0.336 0.396 0.365c-0.075 0.029-0.44-0.096-0.44-0.096l-0.229 0.024-0.295-0.194z"></path>
<path fill="#ffb573" style="fill: var(--color10, #ffb573)" d="M17.233 27.764l0.154 0.737h0.388l0.042-0.737h-0.584z"></path>
<path fill="#288dd5" style="fill: var(--color7, #288dd5)" d="M18.883 29.022c-0.013-0.24-0.116-0.312-0.246-0.32-0.135-0.009-0.613-0.17-0.613-0.17s-0.096-0.152-0.184-0.183c-0.088-0.031-0.177 0.060-0.177 0.060l-0.242-0.030c0 0-0.069-0.11-0.123-0.014-0.083 0.149-0.087 0.561-0.083 0.657h1.668z"></path>
<path fill="#000" style="fill: var(--color9, #000)" d="M18.854 28.959c-0.101-0-0.201-0.001-0.302-0.001-0.441-0.002-0.882-0.005-1.323-0.007-0.017 0-0.013-0.026 0.004-0.025 0.030 0 0.060 0 0.090 0 0-0.001 0.001-0.002 0.002-0.003 0.087-0.138 0.037-0.279-0.078-0.349-0.014-0.008 0.004-0.030 0.017-0.022 0.125 0.076 0.175 0.226 0.087 0.374 0.062 0.001 0.124 0.001 0.187 0.001 0.44 0.002 0.881 0.005 1.322 0.007 0.017-0 0.012 0.026-0.004 0.025z"></path>
<path fill="#fff" style="fill: var(--color6, #fff)" d="M17.948 28.635c0.071-0.081 0.173-0.104 0.244-0.043 0.012 0.010 0.028-0.012 0.017-0.022-0.082-0.070-0.2-0.040-0.281 0.052-0.012 0.014 0.008 0.026 0.020 0.013z"></path>
<path fill="#fff" style="fill: var(--color6, #fff)" d="M18.083 28.678c0.071-0.081 0.173-0.104 0.244-0.043 0.011 0.010 0.028-0.012 0.017-0.022-0.082-0.070-0.2-0.040-0.281 0.052-0.012 0.013 0.008 0.026 0.020 0.013z"></path>
<path fill="#fff" style="fill: var(--color6, #fff)" d="M18.223 28.721c0.071-0.081 0.173-0.104 0.244-0.043 0.012 0.010 0.028-0.012 0.017-0.022-0.082-0.070-0.2-0.040-0.281 0.052-0.012 0.013 0.008 0.026 0.020 0.013z"></path>
<path fill="#ffb573" style="fill: var(--color10, #ffb573)" d="M13.172 27.095l-0.233 0.742 0.377 0.188 0.366-0.646-0.51-0.285z"></path>
<path fill="#288dd5" style="fill: var(--color7, #288dd5)" d="M14.031 29.022c0.106-0.216 0.051-0.329-0.059-0.399-0.114-0.073-0.452-0.448-0.452-0.448s-0.009-0.18-0.071-0.25c-0.062-0.070-0.184-0.034-0.184-0.034l-0.248-0.159c0 0-0.003-0.16-0.078-0.072-0.111 0.129-0.281 0.478-0.324 0.565l1.416 0.797z"></path>
<path fill="#000" style="fill: var(--color9, #000)" d="M14.052 28.933c-0.087-0.048-0.173-0.095-0.26-0.142-0.379-0.207-0.758-0.415-1.138-0.622-0.015-0.008 0.001-0.030 0.015-0.021 0.025 0.014 0.052 0.028 0.077 0.042 0.001-0.001 0.002-0.002 0.003-0.002 0.139-0.087 0.161-0.24 0.094-0.358-0.008-0.013 0.017-0.026 0.024-0.013 0.072 0.128 0.046 0.29-0.098 0.386 0.053 0.030 0.107 0.059 0.16 0.088 0.379 0.207 0.758 0.415 1.137 0.622 0.015 0.008-0.001 0.030-0.015 0.021z"></path>
<path fill="#fff" style="fill: var(--color6, #fff)" d="M13.403 28.228c0.102-0.036 0.201-0.006 0.234 0.082 0.005 0.014 0.031 0.003 0.025-0.011-0.037-0.101-0.155-0.132-0.27-0.091-0.017 0.006-0.006 0.027 0.011 0.021z"></path>
<path fill="#fff" style="fill: var(--color6, #fff)" d="M13.5 28.332c0.102-0.036 0.201-0.006 0.234 0.082 0.005 0.014 0.031 0.003 0.025-0.011-0.037-0.101-0.155-0.132-0.27-0.091-0.017 0.006-0.006 0.027 0.011 0.021z"></path>
<path fill="#fff" style="fill: var(--color6, #fff)" d="M13.601 28.438c0.102-0.036 0.201-0.006 0.234 0.082 0.005 0.014 0.031 0.003 0.025-0.011-0.037-0.101-0.155-0.132-0.27-0.091-0.017 0.006-0.006 0.027 0.011 0.021z"></path>
<path fill="#263238" style="fill: var(--color8, #263238)" d="M15.954 18.112c0.054 0.742 0.177 1.703 0.416 2.939 0.069 0.359 0.149 0.742 0.239 1.149-0.365 2.359 0.637 5.766 0.637 5.766l0.599-0.013c0 0 0.203-3.808 0.2-5.801-0.005-3.266-0.298-6.378-0.298-6.378l-1.63-0.006c0 0-0.298 0.491-0.164 2.345z"></path>
<path fill="#000" style="fill: var(--color9, #000)" opacity="0.2" d="M15.954 18.112c0.054 0.742 0.177 1.703 0.416 2.939 0.387-1.306-0.139-4.094-0.139-4.094l-0.276 1.155z"></path>
<path fill="#263238" style="fill: var(--color8, #263238)" d="M17.909 28.094l0.028-0.256h-0.798l0.036 0.256h0.734z"></path>
<path fill="#263238" style="fill: var(--color8, #263238)" d="M14.396 15.706l-0.035 6.539c-0.431 0.467-1.335 4.972-1.335 4.972l0.696 0.38c0 0 1.903-4.348 2.165-5.019s0.625-5.62 0.625-5.62l-0.442-1.072-1.674-0.179z"></path>
<path fill="#263238" style="fill: var(--color8, #263238)" d="M13.769 27.751l0.124-0.225-0.922-0.472-0.096 0.239 0.894 0.457z"></path>
<path fill="#288dd5" style="fill: var(--color7, #288dd5)" d="M17.808 15.999c0 0.298-2.184 0.438-3.484 0.010 0.022-0.081 0.053-0.221 0.072-0.303 0.010-0.038 0.018-0.077 0.026-0.117 0.027-0.13 0.049-0.272 0.068-0.426 0.001-0.006 0.002-0.014 0.003-0.021 0.031-0.269 0.050-0.57 0.053-0.901 0.001-0.085 0.001-0.173-0.001-0.262-0.001-0.111-0.005-0.224-0.011-0.341-0.022-0.518-0.083-1.088-0.189-1.692-0.073-0.409 0.226-0.79 0.639-0.819 0.111-0.008 0.228-0.013 0.348-0.015s0.235-0.004 0.346-0.004c0.319-0.002 0.606 0.006 0.908 0.043 0.023 0.003 0.045 0.006 0.069 0.009 0.113 0.015 0.228 0.033 0.339 0.052 0.481 0.083 0.688 0.416 0.705 0.992 0.019 0.639 0.505 1.039-0.11 1.469-0.079 0.546 0.218 1.489 0.218 2.327z"></path>
<path fill="#000" style="fill: var(--color9, #000)" opacity="0.2" d="M14.546 14.241c0.001-0.085 0.001-0.173-0.001-0.262-0.001-0.111-0.005-0.224-0.011-0.341l0.504-1.019-0.492 1.622z"></path>
<path fill="#000" style="fill: var(--color9, #000)" opacity="0.2" d="M15.147 12.13l-0.648 0.977c-0.010-0.117-0.022-0.237-0.036-0.358v-0.002l0.685-0.616z"></path>
<path fill="#ffb573" style="fill: var(--color10, #ffb573)" d="M15.679 11.107c0.308 0.541 1.032 0.865 1.032 0.865 0.098-0.242 0.067-0.631-0.054-0.813-0.023-0.003-0.046-0.006-0.069-0.009-0.302-0.037-0.59-0.045-0.909-0.043z"></path>
<path fill="#263238" style="fill: var(--color8, #263238)" d="M17.547 10.151c0 0 0.364-0.499 0.048-0.972s-0.83-0.276-0.83-0.276l0.782 1.248z"></path>
<path fill="#ffb573" style="fill: var(--color10, #ffb573)" d="M16.664 11.32c0.003 0.008 0.006 0.016 0.011 0.025 0.105 0.165-0.009 0.316-0.189 0.303-0.017-0.001-0.035-0.004-0.052-0.007-0.065-0.013-0.125-0.046-0.169-0.095-0-0-0-0-0.001-0.001-0.216-0.234-0.448-0.412-0.448-0.412 0.271-0.145 0.37-0.66 0.395-0.982l0.42 0.535 0.079 0.117c-0.038 0.067-0.072 0.137-0.091 0.207-0.031 0.108-0.028 0.214 0.045 0.31z"></path>
<path fill="#000" style="fill: var(--color9, #000)" opacity="0.2" d="M16.619 11.010c0.019-0.069 0.053-0.139 0.091-0.207l-0.079-0.117-0.265 0.006c0 0 0.069 0.214 0.252 0.317z"></path>
<path fill="#ffb573" style="fill: var(--color10, #ffb573)" d="M16.135 9.577c-0.042 0.529-0.071 0.752 0.151 1.058 0.334 0.46 0.981 0.393 1.177-0.113 0.177-0.456 0.216-1.244-0.258-1.524-0.467-0.275-1.027 0.050-1.069 0.579z"></path>
<path fill="#263238" style="fill: var(--color8, #263238)" d="M16.251 9.924c-0.265-0.071-0.161-0.344-0.161-0.344l0.391 0.061c0 0 0.036 0.354-0.23 0.284z"></path>
<path fill="#263238" style="fill: var(--color8, #263238)" d="M17.322 9.047c0 0-0.007 0.293-0.366 0.308s-0.332 0.565-0.729 0.462c-0.491-0.126-0.305-0.546-0.186-0.727 0.075-0.116 0.878-0.809 1.281-0.043z"></path>
<path fill="#263238" style="fill: var(--color8, #263238)" d="M16.78 8.834c0 0 0.008-0.656-0.567-0.74-0.527-0.077-0.731 0.414-0.712 1.018 0.023 0.73-0.509 0.54-0.509 0.54s0.131 0.356 0.578 0.397c0.972 0.090 1.21-1.214 1.21-1.214z"></path>
<path fill="#288dd5" style="fill: var(--color7, #288dd5)" d="M16.1 9.019c-0.003 0-0.006-0.001-0.009-0.003-0.007-0.005-0.009-0.015-0.005-0.022 0.002-0.004 0.233-0.349 0.679-0.325 0.009 0 0.016 0.008 0.015 0.017s-0.006 0.017-0.017 0.015c-0.428-0.023-0.648 0.307-0.65 0.311-0.003 0.005-0.008 0.007-0.013 0.007z"></path>
<path fill="#fff" style="fill: var(--color6, #fff)" d="M17.242 10.393c0 0-0.258-0.117-0.314-0.229 0 0-0.038 0.201 0.097 0.275s0.217-0.046 0.217-0.046z"></path>
<path fill="#263238" style="fill: var(--color8, #263238)" d="M17.005 9.813c-0.006 0.043 0.012 0.080 0.040 0.084s0.055-0.027 0.061-0.070c0.006-0.043-0.012-0.081-0.040-0.084s-0.055 0.027-0.061 0.070z"></path>
<path fill="#263238" style="fill: var(--color8, #263238)" d="M17.439 9.884c-0.006 0.043 0.012 0.081 0.040 0.084s0.055-0.027 0.061-0.070c0.006-0.043-0.012-0.081-0.040-0.084s-0.055 0.027-0.061 0.070z"></path>
<path fill="#263238" style="fill: var(--color8, #263238)" d="M17.488 9.814l0.107-0.015c0 0-0.064 0.073-0.107 0.015z"></path>
<path fill="#ed893e" style="fill: var(--color12, #ed893e)" d="M17.28 9.875c0 0 0.058 0.124 0.124 0.233 0.021 0.036 0.005 0.082-0.034 0.095-0.068 0.022-0.139 0.027-0.139 0.027l0.049-0.355z"></path>
<path fill="#ffb573" style="fill: var(--color10, #ffb573)" d="M15.897 9.914c0.033 0.107 0.106 0.182 0.181 0.214 0.112 0.049 0.188-0.071 0.173-0.205-0.013-0.121-0.087-0.292-0.208-0.283-0.119 0.009-0.184 0.152-0.147 0.274z"></path>
<path fill="#fff" style="fill: var(--color6, #fff)" d="M16.177 10.052c0 0.039-0.032 0.071-0.071 0.071s-0.072-0.032-0.072-0.071c0-0.039 0.032-0.071 0.072-0.071s0.071 0.032 0.071 0.071z"></path>
<path fill="#263238" style="fill: var(--color8, #263238)" d="M16.888 9.642c0.007 0 0.013-0.003 0.018-0.008 0.078-0.082 0.169-0.067 0.171-0.067 0.014 0.002 0.027-0.007 0.029-0.020s-0.007-0.027-0.020-0.029c-0.005-0.001-0.12-0.020-0.216 0.082-0.010 0.010-0.009 0.026 0.001 0.036 0.005 0.005 0.011 0.007 0.018 0.007z"></path>
<path fill="#263238" style="fill: var(--color8, #263238)" d="M17.638 9.719c0.006 0.001 0.013-0.001 0.018-0.005 0.011-0.009 0.013-0.025 0.004-0.036-0.088-0.109-0.204-0.099-0.209-0.098-0.014 0.001-0.024 0.014-0.023 0.028s0.014 0.024 0.028 0.023c0.005-0 0.095-0.007 0.165 0.080 0.005 0.006 0.011 0.009 0.018 0.009z"></path>
<path fill="#263238" style="fill: var(--color8, #263238)" d="M17.054 9.744l0.107-0.015c0 0-0.064 0.073-0.107 0.015z"></path>
<path fill="#288dd5" style="fill: var(--color7, #288dd5)" d="M15.359 11.876c-0.183 0.453-0.384 0.891-0.6 1.328-0.107 0.219-0.22 0.435-0.339 0.651-0.119 0.218-0.244 0.43-0.393 0.651-0.018 0.027-0.038 0.055-0.059 0.084-0.020 0.028-0.041 0.057-0.065 0.087-0.021 0.028-0.050 0.061-0.077 0.092-0.012 0.014-0.034 0.035-0.050 0.052l-0.027 0.026-0.017 0.015c-0.086 0.073-0.175 0.153-0.263 0.232l-0.537 0.475c-0.36 0.317-0.724 0.631-1.1 0.934l-0.313-0.302c0.29-0.388 0.593-0.762 0.903-1.131 0.156-0.184 0.312-0.367 0.473-0.549 0.081-0.091 0.162-0.181 0.249-0.273 0.005-0.005 0.012-0.013 0.015-0.016l0.004-0.006c0.003-0.005 0.004-0.005 0.010-0.014 0.010-0.016 0.020-0.029 0.033-0.050 0.012-0.019 0.025-0.038 0.038-0.061 0.013-0.021 0.026-0.043 0.040-0.067 0.107-0.185 0.208-0.396 0.309-0.604 0.101-0.21 0.198-0.424 0.297-0.639 0.195-0.429 0.389-0.866 0.587-1.293l0.882 0.378z"></path>
<path fill="#ffb573" style="fill: var(--color10, #ffb573)" d="M11.581 16.113c0 0 0.383 0.184 0.247 0.391s-0.439 0.301-0.547 0.472c-0.108 0.17-0.324 0.616-0.372 0.613s0.098-0.665 0.148-0.78c0.050-0.115 0.28-0.381 0.28-0.381l0.244-0.314z"></path>
<path fill="#ffb573" style="fill: var(--color10, #ffb573)" d="M11.027 16.9c0 0-0.147 0.215-0.156 0.31s-0.043 0.321-0.072 0.377c-0.028 0.056 0.103 0.017 0.148-0.167s0.080-0.521 0.080-0.521z"></path>
<path fill="#ffb573" style="fill: var(--color10, #ffb573)" d="M11.804 16.413c0 0-0.013 0.136-0.095 0.257s-0.158 0.265-0.199 0.376c-0.041 0.111-0.15 0.152-0.18 0.102s0.074-0.25 0.112-0.415c0.038-0.165 0.362-0.319 0.362-0.319z"></path>
</symbol>
</defs>
</svg>
