<svg width="364" height="59" viewBox="0 0 364 59" fill="none" xmlns="http://www.w3.org/2000/svg">
<g clip-path="url(#clip0_158_246)">
<path d="M77.8325 0.537598H7.41659C3.55298 0.537598 0.420898 3.66967 0.420898 7.53329V51.8976C0.420898 55.7612 3.55298 58.8933 7.41659 58.8933H77.8325C81.6961 58.8933 84.8282 55.7612 84.8282 51.8976V7.53329C84.8282 3.66967 81.6961 0.537598 77.8325 0.537598Z" fill="#D0E8C5"/>
<path d="M29.4711 16.3407C29.3312 16.3407 29.2234 16.3028 29.1476 16.227C29.0718 16.1513 29.0339 16.0434 29.0339 15.9035V10.613C29.0339 10.4731 29.0718 10.3652 29.1476 10.2894C29.2234 10.2137 29.3312 10.1758 29.4711 10.1758H31.5436C31.9692 10.1758 32.3306 10.2399 32.6279 10.3682C32.9311 10.4964 33.1613 10.68 33.3188 10.9191C33.4762 11.1581 33.5549 11.4467 33.5549 11.7848C33.5549 12.1637 33.4441 12.4814 33.2226 12.7379C33.001 12.9944 32.6979 13.1664 32.3131 13.2539V13.1227C32.7445 13.1752 33.0826 13.3355 33.3275 13.6037C33.5782 13.866 33.7035 14.2099 33.7035 14.6355C33.7035 15.1835 33.5228 15.6062 33.1613 15.9035C32.8057 16.195 32.3015 16.3407 31.6485 16.3407H29.4711ZM29.8209 15.7024H31.5611C32.0158 15.7024 32.3539 15.6149 32.5755 15.44C32.797 15.2593 32.9078 14.9853 32.9078 14.618C32.9078 14.2508 32.797 13.9797 32.5755 13.8048C32.3539 13.6299 32.0158 13.5424 31.5611 13.5424H29.8209V15.7024ZM29.8209 12.8953H31.4212C31.8642 12.8953 32.1965 12.8079 32.4181 12.633C32.6454 12.4523 32.7591 12.1929 32.7591 11.8547C32.7591 11.5166 32.6454 11.2601 32.4181 11.0852C32.1965 10.9045 31.8642 10.8141 31.4212 10.8141H29.8209V12.8953ZM36.7529 16.4194C36.3215 16.4194 35.9484 16.3291 35.6335 16.1483C35.3187 15.9618 35.0768 15.7024 34.9077 15.3701C34.7387 15.0319 34.6541 14.6355 34.6541 14.1808C34.6541 13.8427 34.7008 13.5395 34.7941 13.2714C34.8932 13.0032 35.0331 12.7758 35.2138 12.5893C35.3945 12.3969 35.6131 12.2512 35.8697 12.1521C36.132 12.0529 36.4264 12.0034 36.7529 12.0034C36.9569 12.0034 37.1726 12.0355 37.4 12.0996C37.6273 12.1637 37.8372 12.2686 38.0296 12.4144C38.0937 12.461 38.1345 12.5164 38.152 12.5805C38.1695 12.6388 38.1695 12.7 38.152 12.7642C38.1403 12.8283 38.1112 12.8837 38.0645 12.9303C38.0237 12.9711 37.9684 12.9944 37.8984 13.0003C37.8343 13.0061 37.7643 12.9857 37.6885 12.9391C37.5486 12.8341 37.4 12.7583 37.2426 12.7117C37.091 12.6651 36.9452 12.6417 36.8053 12.6417C36.5896 12.6417 36.3972 12.6767 36.2282 12.7467C36.0649 12.8166 35.925 12.9187 35.8084 13.0527C35.6977 13.181 35.6131 13.3413 35.5548 13.5337C35.4965 13.7203 35.4674 13.9389 35.4674 14.1895C35.4674 14.6851 35.584 15.0757 35.8172 15.3613C36.0504 15.6412 36.3798 15.7811 36.8053 15.7811C36.9452 15.7811 37.091 15.7607 37.2426 15.7199C37.3941 15.6732 37.5428 15.5974 37.6885 15.4925C37.7643 15.4459 37.8343 15.4284 37.8984 15.44C37.9625 15.4459 38.015 15.4721 38.0558 15.5187C38.1024 15.5595 38.1316 15.612 38.1432 15.6761C38.1549 15.7344 38.1491 15.7956 38.1258 15.8598C38.1083 15.9239 38.0675 15.9764 38.0033 16.0172C37.8168 16.1571 37.6127 16.2591 37.3912 16.3232C37.1697 16.3874 36.9569 16.4194 36.7529 16.4194ZM39.4776 16.3407C39.3435 16.3407 39.2414 16.3057 39.1715 16.2358C39.1015 16.1658 39.0666 16.0638 39.0666 15.9297V12.4231C39.0666 12.2891 39.1015 12.1899 39.1715 12.1258C39.2414 12.0559 39.3406 12.0209 39.4688 12.0209C39.5971 12.0209 39.6933 12.0559 39.7574 12.1258C39.8273 12.1899 39.8623 12.2891 39.8623 12.4231V13.5774H41.1128C41.6608 13.5774 42.0747 13.6969 42.3545 13.936C42.6344 14.1691 42.7743 14.5073 42.7743 14.9503C42.7743 15.2302 42.7072 15.475 42.5731 15.6849C42.4449 15.8947 42.2554 16.058 42.0047 16.1746C41.7599 16.2853 41.4626 16.3407 41.1128 16.3407H39.4776ZM39.8623 15.7898H41.0166C41.3372 15.7898 41.585 15.7228 41.7599 15.5887C41.9348 15.4488 42.0222 15.236 42.0222 14.9503C42.0222 14.6705 41.9348 14.4635 41.7599 14.3295C41.585 14.1954 41.3372 14.1283 41.0166 14.1283H39.8623V15.7898ZM45.6077 16.4194C45.1879 16.4194 44.8236 16.3291 44.5146 16.1483C44.2056 15.9676 43.9666 15.7111 43.7975 15.3788C43.6285 15.0465 43.5439 14.6559 43.5439 14.207C43.5439 13.8689 43.5906 13.5658 43.6838 13.2976C43.783 13.0236 43.9229 12.7904 44.1036 12.598C44.2843 12.4056 44.5 12.2599 44.7507 12.1608C45.0072 12.0559 45.2929 12.0034 45.6077 12.0034C46.0274 12.0034 46.3918 12.0938 46.7007 12.2745C47.0097 12.4552 47.2487 12.7117 47.4178 13.044C47.5869 13.3705 47.6714 13.7581 47.6714 14.207C47.6714 14.5452 47.6218 14.8512 47.5227 15.1252C47.4295 15.3992 47.2925 15.6324 47.1117 15.8248C46.931 16.0172 46.7124 16.1658 46.4559 16.2708C46.2052 16.3699 45.9225 16.4194 45.6077 16.4194ZM45.6077 15.7898C45.8642 15.7898 46.0857 15.7286 46.2723 15.6062C46.4646 15.4837 46.6104 15.3059 46.7095 15.0728C46.8144 14.8396 46.8669 14.551 46.8669 14.207C46.8669 13.694 46.7532 13.3034 46.5258 13.0353C46.2985 12.7671 45.9924 12.633 45.6077 12.633C45.357 12.633 45.1355 12.6942 44.9431 12.8166C44.7565 12.9332 44.6108 13.1081 44.5058 13.3413C44.4009 13.5745 44.3484 13.8631 44.3484 14.207C44.3484 14.7201 44.4621 15.1136 44.6895 15.3876C44.9227 15.6557 45.2287 15.7898 45.6077 15.7898ZM49.1955 16.4019C49.0672 16.4019 48.9681 16.367 48.8982 16.297C48.8282 16.2212 48.7932 16.1163 48.7932 15.9822V12.5368C48.7932 12.3911 48.8311 12.2803 48.9069 12.2045C48.9885 12.1229 49.1022 12.0821 49.2479 12.0821H51.539C51.6615 12.0821 51.7518 12.1083 51.8101 12.1608C51.8684 12.2133 51.8976 12.292 51.8976 12.3969C51.8976 12.5018 51.8684 12.5835 51.8101 12.6417C51.7518 12.6942 51.6615 12.7205 51.539 12.7205H49.589V15.9822C49.589 16.262 49.4578 16.4019 49.1955 16.4019ZM54.4548 16.4194C54.035 16.4194 53.6707 16.3291 53.3617 16.1483C53.0527 15.9676 52.8137 15.7111 52.6446 15.3788C52.4756 15.0465 52.391 14.6559 52.391 14.207C52.391 13.8689 52.4377 13.5658 52.5309 13.2976C52.63 13.0236 52.77 12.7904 52.9507 12.598C53.1314 12.4056 53.3471 12.2599 53.5978 12.1608C53.8543 12.0559 54.1399 12.0034 54.4548 12.0034C54.8745 12.0034 55.2389 12.0938 55.5478 12.2745C55.8568 12.4552 56.0958 12.7117 56.2649 13.044C56.4339 13.3705 56.5185 13.7581 56.5185 14.207C56.5185 14.5452 56.4689 14.8512 56.3698 15.1252C56.2765 15.3992 56.1395 15.6324 55.9588 15.8248C55.7781 16.0172 55.5595 16.1658 55.303 16.2708C55.0523 16.3699 54.7696 16.4194 54.4548 16.4194ZM54.4548 15.7898C54.7113 15.7898 54.9328 15.7286 55.1193 15.6062C55.3117 15.4837 55.4575 15.3059 55.5566 15.0728C55.6615 14.8396 55.714 14.551 55.714 14.207C55.714 13.694 55.6003 13.3034 55.3729 13.0353C55.1456 12.7671 54.8395 12.633 54.4548 12.633C54.2041 12.633 53.9825 12.6942 53.7902 12.8166C53.6036 12.9332 53.4579 13.1081 53.3529 13.3413C53.248 13.5745 53.1955 13.8631 53.1955 14.207C53.1955 14.7201 53.3092 15.1136 53.5366 15.3876C53.7698 15.6557 54.0758 15.7898 54.4548 15.7898ZM25.891 28.3407C25.7569 28.3407 25.6549 28.3057 25.5849 28.2358C25.5149 28.1658 25.48 28.0638 25.48 27.9297V24.4931C25.48 24.359 25.5149 24.257 25.5849 24.187C25.6549 24.1171 25.7569 24.0821 25.891 24.0821H27.6049C27.9489 24.0821 28.2287 24.1258 28.4444 24.2133C28.6659 24.3007 28.8291 24.426 28.9341 24.5893C29.039 24.7525 29.0915 24.9566 29.0915 25.2014C29.0915 25.4696 28.9982 25.6969 28.8117 25.8835C28.6251 26.07 28.3803 26.1808 28.0771 26.2158V26.1021C28.4386 26.1138 28.7213 26.2187 28.9253 26.4169C29.1294 26.6093 29.2314 26.8571 29.2314 27.1602C29.2314 27.5216 29.0973 27.8102 28.8291 28.0259C28.561 28.2358 28.1762 28.3407 27.6749 28.3407H25.891ZM26.232 27.816H27.6311C27.911 27.816 28.1237 27.7577 28.2695 27.6412C28.4211 27.5187 28.4968 27.3467 28.4968 27.1252C28.4968 26.8979 28.4211 26.7259 28.2695 26.6093C28.1237 26.4927 27.911 26.4344 27.6311 26.4344H26.232V27.816ZM26.232 25.9097H27.5612C27.8119 25.9097 28.0042 25.8514 28.1383 25.7348C28.2782 25.6182 28.3482 25.4579 28.3482 25.2539C28.3482 25.044 28.2782 24.8837 28.1383 24.7729C28.0042 24.6622 27.8119 24.6068 27.5612 24.6068H26.232V25.9097ZM31.6603 28.4194C31.3688 28.4194 31.1035 28.3611 30.8645 28.2445C30.6313 28.1279 30.4477 27.9705 30.3136 27.7723C30.1854 27.5741 30.1212 27.3526 30.1212 27.1077C30.1212 26.7929 30.1999 26.5452 30.3573 26.3644C30.5147 26.1837 30.78 26.0555 31.1531 25.9797C31.5262 25.8981 32.0276 25.8573 32.6572 25.8573H33.0682V26.3644H32.6747C32.2258 26.3644 31.8702 26.3848 31.6078 26.4257C31.3513 26.4665 31.1706 26.5393 31.0656 26.6443C30.9607 26.7434 30.9082 26.8833 30.9082 27.064C30.9082 27.2914 30.9869 27.4779 31.1443 27.6237C31.3076 27.7694 31.5291 27.8423 31.8089 27.8423C32.0305 27.8423 32.2258 27.7898 32.3948 27.6849C32.5639 27.5741 32.698 27.4284 32.7971 27.2476C32.8962 27.0611 32.9457 26.8483 32.9457 26.6093V25.6037C32.9457 25.2597 32.8758 25.0119 32.7359 24.8604C32.596 24.703 32.3598 24.6243 32.0276 24.6243C31.8352 24.6243 31.637 24.6505 31.4329 24.703C31.2289 24.7554 31.0161 24.837 30.7946 24.9478C30.7071 24.9886 30.6313 25.0032 30.5672 24.9915C30.5031 24.974 30.4506 24.9391 30.4098 24.8866C30.3748 24.8283 30.3544 24.7671 30.3486 24.703C30.3486 24.633 30.3632 24.566 30.3923 24.5018C30.4273 24.4377 30.4856 24.3911 30.5672 24.3619C30.8237 24.2337 31.0773 24.1433 31.328 24.0908C31.5845 24.0325 31.8235 24.0034 32.045 24.0034C32.424 24.0034 32.7359 24.0646 32.9807 24.187C33.2256 24.3036 33.4092 24.4873 33.5316 24.7379C33.6541 24.9828 33.7153 25.2976 33.7153 25.6824V27.9909C33.7153 28.125 33.6832 28.227 33.6191 28.297C33.5549 28.367 33.4617 28.4019 33.3392 28.4019C33.2227 28.4019 33.1294 28.367 33.0594 28.297C32.9953 28.227 32.9632 28.125 32.9632 27.9909V27.3701H33.0419C32.9953 27.5858 32.9078 27.7723 32.7796 27.9297C32.6513 28.0871 32.491 28.2096 32.2986 28.297C32.1121 28.3786 31.8993 28.4194 31.6603 28.4194ZM35.4637 28.4019C35.3355 28.4019 35.2363 28.367 35.1664 28.297C35.0964 28.227 35.0615 28.125 35.0615 27.9909V24.4406C35.0615 24.3124 35.0964 24.2133 35.1664 24.1433C35.2363 24.0733 35.3355 24.0384 35.4637 24.0384C35.592 24.0384 35.6882 24.0733 35.7523 24.1433C35.8222 24.2133 35.8572 24.3124 35.8572 24.4406V25.831H36.6093L37.8685 24.2133C37.9268 24.1316 37.9938 24.0821 38.0696 24.0646C38.1454 24.0413 38.2183 24.0413 38.2882 24.0646C38.3582 24.0821 38.4165 24.12 38.4631 24.1783C38.5097 24.2366 38.5331 24.3036 38.5331 24.3794C38.5331 24.4552 38.501 24.5339 38.4369 24.6155L37.2476 26.1633L37.0465 25.9185C37.2039 25.936 37.3438 25.9768 37.4662 26.0409C37.5886 26.105 37.7052 26.2012 37.816 26.3295C37.9268 26.4577 38.0463 26.6297 38.1745 26.8454L38.7692 27.8598C38.8216 27.9472 38.8391 28.0288 38.8216 28.1046C38.81 28.1804 38.775 28.2445 38.7167 28.297C38.6642 28.3436 38.6001 28.3728 38.5243 28.3844C38.4485 28.4019 38.3727 28.3932 38.297 28.3582C38.2212 28.3291 38.157 28.2708 38.1046 28.1833L37.44 27.064C37.3467 26.9066 37.2564 26.7842 37.1689 26.6967C37.0815 26.6093 36.9853 26.5481 36.8803 26.5131C36.7754 26.4781 36.6471 26.4606 36.4956 26.4606H35.8572V27.9909C35.8572 28.125 35.8222 28.227 35.7523 28.297C35.6882 28.367 35.592 28.4019 35.4637 28.4019ZM41.0881 28.4194C40.7966 28.4194 40.5313 28.3611 40.2923 28.2445C40.0591 28.1279 39.8755 27.9705 39.7414 27.7723C39.6131 27.5741 39.549 27.3526 39.549 27.1077C39.549 26.7929 39.6277 26.5452 39.7851 26.3644C39.9425 26.1837 40.2078 26.0555 40.5809 25.9797C40.954 25.8981 41.4553 25.8573 42.085 25.8573H42.4959V26.3644H42.1024C41.6536 26.3644 41.2979 26.3848 41.0356 26.4257C40.7791 26.4665 40.5984 26.5393 40.4934 26.6443C40.3885 26.7434 40.336 26.8833 40.336 27.064C40.336 27.2914 40.4147 27.4779 40.5721 27.6237C40.7354 27.7694 40.9569 27.8423 41.2367 27.8423C41.4583 27.8423 41.6536 27.7898 41.8226 27.6849C41.9917 27.5741 42.1258 27.4284 42.2249 27.2476C42.324 27.0611 42.3735 26.8483 42.3735 26.6093V25.6037C42.3735 25.2597 42.3036 25.0119 42.1637 24.8604C42.0237 24.703 41.7876 24.6243 41.4553 24.6243C41.263 24.6243 41.0647 24.6505 40.8607 24.703C40.6567 24.7554 40.4439 24.837 40.2224 24.9478C40.1349 24.9886 40.0591 25.0032 39.995 24.9915C39.9309 24.974 39.8784 24.9391 39.8376 24.8866C39.8026 24.8283 39.7822 24.7671 39.7764 24.703C39.7764 24.633 39.7909 24.566 39.8201 24.5018C39.8551 24.4377 39.9134 24.3911 39.995 24.3619C40.2515 24.2337 40.5051 24.1433 40.7558 24.0908C41.0123 24.0325 41.2513 24.0034 41.4728 24.0034C41.8518 24.0034 42.1637 24.0646 42.4085 24.187C42.6534 24.3036 42.837 24.4873 42.9594 24.7379C43.0818 24.9828 43.1431 25.2976 43.1431 25.6824V27.9909C43.1431 28.125 43.111 28.227 43.0469 28.297C42.9827 28.367 42.8895 28.4019 42.767 28.4019C42.6504 28.4019 42.5572 28.367 42.4872 28.297C42.4231 28.227 42.391 28.125 42.391 27.9909V27.3701H42.4697C42.4231 27.5858 42.3356 27.7723 42.2074 27.9297C42.0791 28.0871 41.9188 28.2096 41.7264 28.297C41.5399 28.3786 41.3271 28.4194 41.0881 28.4194ZM44.8915 28.4019C44.7632 28.4019 44.6641 28.367 44.5942 28.297C44.5242 28.227 44.4892 28.125 44.4892 27.9909V24.4231C44.4892 24.2891 44.5242 24.1899 44.5942 24.1258C44.6641 24.0559 44.7632 24.0209 44.8915 24.0209C45.0197 24.0209 45.1159 24.0559 45.1801 24.1258C45.25 24.1899 45.285 24.2891 45.285 24.4231V25.831H47.5061V24.4231C47.5061 24.2891 47.5382 24.1899 47.6023 24.1258C47.6723 24.0559 47.7714 24.0209 47.8996 24.0209C48.0279 24.0209 48.127 24.0559 48.197 24.1258C48.2669 24.1899 48.3019 24.2891 48.3019 24.4231V27.9909C48.3019 28.125 48.2669 28.227 48.197 28.297C48.127 28.367 48.0279 28.4019 47.8996 28.4019C47.7714 28.4019 47.6723 28.367 47.6023 28.297C47.5382 28.227 47.5061 28.125 47.5061 27.9909V26.4694H45.285V27.9909C45.285 28.125 45.2529 28.227 45.1888 28.297C45.1247 28.367 45.0256 28.4019 44.8915 28.4019ZM51.5094 28.4194C51.078 28.4194 50.7049 28.3291 50.3901 28.1483C50.0753 27.9618 49.8333 27.7024 49.6643 27.3701C49.4952 27.0319 49.4107 26.6355 49.4107 26.1808C49.4107 25.8427 49.4573 25.5395 49.5506 25.2714C49.6497 25.0032 49.7896 24.7758 49.9703 24.5893C50.1511 24.3969 50.3697 24.2512 50.6262 24.1521C50.8885 24.0529 51.1829 24.0034 51.5094 24.0034C51.7134 24.0034 51.9291 24.0355 52.1565 24.0996C52.3838 24.1637 52.5937 24.2686 52.7861 24.4144C52.8502 24.461 52.891 24.5164 52.9085 24.5805C52.926 24.6388 52.926 24.7 52.9085 24.7642C52.8969 24.8283 52.8677 24.8837 52.8211 24.9303C52.7803 24.9711 52.7249 24.9944 52.6549 25.0003C52.5908 25.0061 52.5208 24.9857 52.4451 24.9391C52.3051 24.8341 52.1565 24.7583 51.9991 24.7117C51.8475 24.6651 51.7018 24.6417 51.5619 24.6417C51.3462 24.6417 51.1538 24.6767 50.9847 24.7467C50.8215 24.8166 50.6816 24.9187 50.565 25.0527C50.4542 25.181 50.3697 25.3413 50.3114 25.5337C50.2531 25.7203 50.2239 25.9389 50.2239 26.1895C50.2239 26.6851 50.3405 27.0757 50.5737 27.3613C50.8069 27.6412 51.1363 27.7811 51.5619 27.7811C51.7018 27.7811 51.8475 27.7607 51.9991 27.7199C52.1507 27.6732 52.2993 27.5974 52.4451 27.4925C52.5208 27.4459 52.5908 27.4284 52.6549 27.44C52.7191 27.4459 52.7715 27.4721 52.8123 27.5187C52.859 27.5595 52.8881 27.612 52.8998 27.6761C52.9114 27.7344 52.9056 27.7956 52.8823 27.8598C52.8648 27.9239 52.824 27.9764 52.7599 28.0172C52.5733 28.1571 52.3693 28.2591 52.1477 28.3232C51.9262 28.3874 51.7134 28.4194 51.5094 28.4194ZM54.2166 28.3844C54.0942 28.3844 53.998 28.3466 53.928 28.2708C53.8581 28.195 53.8231 28.09 53.8231 27.956V24.4669C53.8231 24.3269 53.8581 24.222 53.928 24.1521C53.998 24.0763 54.0942 24.0384 54.2166 24.0384C54.3449 24.0384 54.444 24.0763 54.5139 24.1521C54.5839 24.222 54.6189 24.3269 54.6189 24.4669V27.956C54.6189 28.09 54.5839 28.195 54.5139 28.2708C54.4498 28.3466 54.3507 28.3844 54.2166 28.3844ZM54.2166 23.094C54.0592 23.094 53.9339 23.0531 53.8406 22.9715C53.7531 22.8841 53.7094 22.7704 53.7094 22.6305C53.7094 22.4789 53.7531 22.3652 53.8406 22.2894C53.9339 22.2078 54.0592 22.167 54.2166 22.167C54.3857 22.167 54.511 22.2078 54.5926 22.2894C54.6801 22.3652 54.7238 22.4789 54.7238 22.6305C54.7238 22.7704 54.6801 22.8841 54.5926 22.9715C54.511 23.0531 54.3857 23.094 54.2166 23.094ZM56.3594 28.4019C56.2836 28.4019 56.2166 28.3874 56.1583 28.3582C56.1058 28.3291 56.065 28.2824 56.0359 28.2183C56.0067 28.1542 55.9922 28.0726 55.9922 27.9734V24.4056C55.9922 24.2832 56.0242 24.1899 56.0884 24.1258C56.1525 24.0559 56.2428 24.0209 56.3594 24.0209C56.4702 24.0209 56.5576 24.0559 56.6218 24.1258C56.6859 24.1899 56.718 24.2832 56.718 24.4056V27.5624H56.4906L58.9566 24.2745C59.0032 24.2103 59.0615 24.1521 59.1315 24.0996C59.2014 24.0471 59.2947 24.0209 59.4113 24.0209C59.4929 24.0209 59.56 24.0355 59.6124 24.0646C59.6649 24.0938 59.7028 24.1404 59.7261 24.2045C59.7553 24.2628 59.7698 24.3415 59.7698 24.4406V28.0172C59.7698 28.1338 59.7378 28.227 59.6736 28.297C59.6153 28.367 59.5308 28.4019 59.4201 28.4019C59.2976 28.4019 59.2043 28.367 59.1402 28.297C59.0819 28.227 59.0528 28.1338 59.0528 28.0172V24.8516H59.2801L56.8142 28.1483C56.7675 28.2125 56.7092 28.2708 56.6393 28.3232C56.5693 28.3757 56.476 28.4019 56.3594 28.4019ZM57.881 23.5399C57.5604 23.5399 57.2689 23.4612 57.0065 23.3038C56.7442 23.1406 56.5518 22.8987 56.4294 22.578C56.3944 22.4906 56.3886 22.4177 56.4119 22.3594C56.4411 22.2953 56.4906 22.2516 56.5606 22.2282C56.6305 22.2049 56.6917 22.2078 56.7442 22.237C56.8025 22.2661 56.852 22.3244 56.8929 22.4119C56.992 22.6217 57.1231 22.7821 57.2864 22.8928C57.4554 22.9978 57.6536 23.0502 57.881 23.0502C58.1142 23.0502 58.3124 22.9978 58.4756 22.8928C58.6389 22.7821 58.77 22.6217 58.8691 22.4119C58.9158 22.3244 58.9653 22.2661 59.0178 22.237C59.0703 22.2078 59.1315 22.2049 59.2014 22.2282C59.2714 22.2516 59.318 22.2953 59.3413 22.3594C59.3705 22.4177 59.3647 22.4906 59.3239 22.578C59.1839 22.8987 58.9886 23.1406 58.738 23.3038C58.4873 23.4612 58.2016 23.5399 57.881 23.5399Z" fill="#333333"/>
<path d="M31.7932 47.0899C31.5973 47.0899 31.4434 47.034 31.3315 46.922C31.2195 46.8101 31.1636 46.6609 31.1636 46.4743C31.1636 46.2784 31.2195 46.1292 31.3315 46.0266C31.4434 45.924 31.5973 45.8727 31.7932 45.8727H33.5001V38.4293H34.2277L32.1849 39.7305C32.0357 39.8144 31.8958 39.8471 31.7652 39.8284C31.6439 39.8098 31.5367 39.7585 31.4434 39.6745C31.3594 39.5906 31.2988 39.488 31.2615 39.3667C31.2335 39.2454 31.2428 39.1195 31.2895 38.9889C31.3455 38.8583 31.4434 38.7511 31.5833 38.6671L33.5141 37.4499C33.6727 37.3566 33.8219 37.282 33.9618 37.226C34.1111 37.1607 34.251 37.1281 34.3816 37.1281C34.5402 37.1281 34.6707 37.1747 34.7733 37.268C34.8853 37.3519 34.9412 37.4965 34.9412 37.7017V45.8727H36.5083C36.7135 45.8727 36.872 45.924 36.984 46.0266C37.0959 46.1292 37.1519 46.2784 37.1519 46.4743C37.1519 46.6702 37.0959 46.8241 36.984 46.936C36.872 47.0386 36.7135 47.0899 36.5083 47.0899H31.7932ZM42.5611 47.2159C41.7682 47.2159 41.092 47.0247 40.5323 46.6422C39.982 46.2598 39.5576 45.7095 39.2591 44.9912C38.97 44.2637 38.8254 43.3916 38.8254 42.3748C38.8254 41.526 38.9187 40.7752 39.1052 40.1222C39.2918 39.4693 39.5623 38.919 39.9167 38.4713C40.2712 38.0235 40.7002 37.6831 41.2039 37.4499C41.7169 37.2167 42.2952 37.1001 42.9388 37.1001C43.3586 37.1001 43.7877 37.1747 44.226 37.324C44.6644 37.4639 45.0655 37.6784 45.4293 37.9676C45.5506 38.0515 45.6252 38.1588 45.6532 38.2894C45.6905 38.4106 45.6951 38.5319 45.6672 38.6531C45.6392 38.7651 45.5832 38.863 45.4993 38.947C45.4153 39.0309 45.308 39.0822 45.1775 39.1009C45.0562 39.1102 44.9256 39.0682 44.7857 38.9749C44.4686 38.7418 44.1514 38.5785 43.8343 38.4852C43.5265 38.3826 43.2187 38.3313 42.9109 38.3313C42.3325 38.3313 41.8428 38.4713 41.4418 38.7511C41.0407 39.0309 40.7375 39.4506 40.5323 40.0103C40.3271 40.57 40.2245 41.2649 40.2245 42.095V43.2843H40.0706C40.1359 42.7806 40.2898 42.3469 40.5323 41.9831C40.7842 41.61 41.106 41.3255 41.4977 41.1296C41.8895 40.9337 42.3232 40.8358 42.7989 40.8358C43.3772 40.8358 43.8856 40.971 44.324 41.2415C44.7717 41.512 45.1215 41.8851 45.3733 42.3609C45.6252 42.8272 45.7511 43.3636 45.7511 43.9699C45.7511 44.5948 45.6159 45.1545 45.3454 45.6488C45.0749 46.1432 44.6971 46.5303 44.2121 46.8101C43.7363 47.0806 43.186 47.2159 42.5611 47.2159ZM42.4771 46.0406C42.8596 46.0406 43.1953 45.9566 43.4845 45.7887C43.7737 45.6208 43.9975 45.3877 44.1561 45.0892C44.3147 44.7814 44.3939 44.4269 44.3939 44.0258C44.3939 43.6247 44.3147 43.275 44.1561 42.9765C43.9975 42.678 43.7737 42.4448 43.4845 42.2769C43.1953 42.0997 42.8596 42.0111 42.4771 42.0111C42.0947 42.0111 41.7589 42.0997 41.4697 42.2769C41.1899 42.4448 40.9661 42.678 40.7982 42.9765C40.6396 43.275 40.5603 43.6247 40.5603 44.0258C40.5603 44.4269 40.6396 44.7814 40.7982 45.0892C40.9661 45.3877 41.1899 45.6208 41.4697 45.7887C41.7589 45.9566 42.0947 46.0406 42.4771 46.0406ZM50.6007 47.2159C49.4534 47.2159 48.5766 46.7821 47.9703 45.9147C47.3733 45.0379 47.0748 43.7833 47.0748 42.151C47.0748 41.041 47.2101 40.1129 47.4806 39.3667C47.7511 38.6205 48.1475 38.0562 48.6698 37.6737C49.1922 37.2913 49.8358 37.1001 50.6007 37.1001C51.7573 37.1001 52.6341 37.5292 53.231 38.3873C53.828 39.2361 54.1265 40.486 54.1265 42.137C54.1265 43.2283 53.9912 44.1518 53.7207 44.9073C53.4502 45.6628 53.0538 46.2365 52.5315 46.6282C52.0091 47.02 51.3655 47.2159 50.6007 47.2159ZM50.6007 46.0126C51.3189 46.0126 51.8459 45.7001 52.1817 45.0752C52.5268 44.4409 52.6994 43.4615 52.6994 42.137C52.6994 40.8031 52.5268 39.8331 52.1817 39.2268C51.8459 38.6112 51.3189 38.3034 50.6007 38.3034C49.8918 38.3034 49.3647 38.6112 49.0196 39.2268C48.6745 39.8331 48.5019 40.8031 48.5019 42.137C48.5019 43.4615 48.6745 44.4409 49.0196 45.0752C49.3647 45.7001 49.8918 46.0126 50.6007 46.0126Z" fill="#333333"/>
<path d="M170.984 0.537598H100.568C96.7048 0.537598 93.5728 3.66967 93.5728 7.53329V51.8976C93.5728 55.7612 96.7048 58.8933 100.568 58.8933H170.984C174.848 58.8933 177.98 55.7612 177.98 51.8976V7.53329C177.98 3.66967 174.848 0.537598 170.984 0.537598Z" fill="#C6E7FF"/>
<path d="M112.998 16.402C112.87 16.402 112.771 16.3671 112.701 16.2971C112.631 16.2213 112.596 16.1164 112.596 15.9823V10.5344C112.596 10.3945 112.631 10.2895 112.701 10.2196C112.771 10.1496 112.87 10.1147 112.998 10.1147C113.132 10.1147 113.234 10.1496 113.304 10.2196C113.374 10.2895 113.409 10.3945 113.409 10.5344V12.8692H116.977V10.5344C116.977 10.3945 117.012 10.2895 117.082 10.2196C117.152 10.1496 117.254 10.1147 117.388 10.1147C117.516 10.1147 117.615 10.1496 117.685 10.2196C117.755 10.2895 117.79 10.3945 117.79 10.5344V15.9823C117.79 16.1164 117.755 16.2213 117.685 16.2971C117.615 16.3671 117.516 16.402 117.388 16.402C117.254 16.402 117.152 16.3671 117.082 16.2971C117.012 16.2213 116.977 16.1164 116.977 15.9823V13.56H113.409V15.9823C113.409 16.1164 113.374 16.2213 113.304 16.2971C113.24 16.3671 113.138 16.402 112.998 16.402ZM120.568 16.4195C120.277 16.4195 120.011 16.3612 119.772 16.2446C119.539 16.128 119.356 15.9706 119.221 15.7724C119.093 15.5742 119.029 15.3527 119.029 15.1078C119.029 14.793 119.108 14.5453 119.265 14.3645C119.423 14.1838 119.688 14.0556 120.061 13.9798C120.434 13.8982 120.935 13.8574 121.565 13.8574H121.976V14.3645H121.582C121.134 14.3645 120.778 14.3849 120.516 14.4258C120.259 14.4666 120.078 14.5394 119.973 14.6444C119.869 14.7435 119.816 14.8834 119.816 15.0641C119.816 15.2915 119.895 15.478 120.052 15.6238C120.215 15.7695 120.437 15.8424 120.717 15.8424C120.938 15.8424 121.134 15.7899 121.303 15.685C121.472 15.5742 121.606 15.4285 121.705 15.2477C121.804 15.0612 121.854 14.8484 121.854 14.6094V13.6038C121.854 13.2598 121.784 13.012 121.644 12.8605C121.504 12.7031 121.268 12.6244 120.935 12.6244C120.743 12.6244 120.545 12.6506 120.341 12.7031C120.137 12.7555 119.924 12.8371 119.702 12.9479C119.615 12.9887 119.539 13.0033 119.475 12.9916C119.411 12.9741 119.358 12.9392 119.318 12.8867C119.283 12.8284 119.262 12.7672 119.256 12.7031C119.256 12.6331 119.271 12.5661 119.3 12.5019C119.335 12.4378 119.393 12.3912 119.475 12.362C119.732 12.2338 119.985 12.1434 120.236 12.0909C120.492 12.0326 120.731 12.0035 120.953 12.0035C121.332 12.0035 121.644 12.0647 121.889 12.1871C122.133 12.3037 122.317 12.4874 122.439 12.738C122.562 12.9829 122.623 13.2977 122.623 13.6825V15.991C122.623 16.1251 122.591 16.2271 122.527 16.2971C122.463 16.3671 122.37 16.402 122.247 16.402C122.13 16.402 122.037 16.3671 121.967 16.2971C121.903 16.2271 121.871 16.1251 121.871 15.991V15.3702H121.95C121.903 15.5859 121.816 15.7724 121.687 15.9298C121.559 16.0872 121.399 16.2097 121.206 16.2971C121.02 16.3787 120.807 16.4195 120.568 16.4195ZM123.864 17.5388C123.759 17.5388 123.675 17.5068 123.611 17.4426C123.547 17.3785 123.515 17.2882 123.515 17.1716V16.096C123.515 15.8336 123.646 15.7025 123.908 15.7025H124.345L123.864 15.8686C124.028 15.6646 124.156 15.443 124.249 15.204C124.342 14.9592 124.409 14.6852 124.45 14.382C124.497 14.0731 124.52 13.7233 124.52 13.3327V12.5369C124.52 12.3912 124.558 12.2804 124.634 12.2046C124.716 12.123 124.829 12.0822 124.975 12.0822H127.152C127.298 12.0822 127.409 12.123 127.485 12.2046C127.566 12.2804 127.607 12.3912 127.607 12.5369V16.0697L127.24 15.7025H127.896C128.024 15.7025 128.12 15.7374 128.184 15.8074C128.254 15.8715 128.289 15.9677 128.289 16.096V17.1716C128.289 17.4164 128.175 17.5388 127.948 17.5388C127.831 17.5388 127.744 17.5068 127.686 17.4426C127.627 17.3785 127.598 17.2882 127.598 17.1716V16.3408H124.205V17.1716C124.205 17.4164 124.092 17.5388 123.864 17.5388ZM124.73 15.7025H126.855V12.7031H125.22V13.4813C125.22 13.9011 125.176 14.3092 125.089 14.7056C125.007 15.0962 124.887 15.4285 124.73 15.7025ZM129.589 16.3845C129.467 16.3845 129.37 16.3467 129.301 16.2709C129.231 16.1951 129.196 16.0901 129.196 15.9561V12.467C129.196 12.327 129.231 12.2221 129.301 12.1522C129.37 12.0764 129.467 12.0385 129.589 12.0385C129.717 12.0385 129.816 12.0764 129.886 12.1522C129.956 12.2221 129.991 12.327 129.991 12.467V15.9561C129.991 16.0901 129.956 16.1951 129.886 16.2709C129.822 16.3467 129.723 16.3845 129.589 16.3845ZM129.589 11.0941C129.432 11.0941 129.306 11.0532 129.213 10.9716C129.126 10.8842 129.082 10.7705 129.082 10.6306C129.082 10.479 129.126 10.3653 129.213 10.2895C129.306 10.2079 129.432 10.1671 129.589 10.1671C129.758 10.1671 129.883 10.2079 129.965 10.2895C130.053 10.3653 130.096 10.479 130.096 10.6306C130.096 10.7705 130.053 10.8842 129.965 10.9716C129.883 11.0532 129.758 11.0941 129.589 11.0941ZM133.21 16.4195C132.778 16.4195 132.405 16.3292 132.09 16.1484C131.776 15.9619 131.534 15.7025 131.365 15.3702C131.196 15.032 131.111 14.6356 131.111 14.1809C131.111 13.8428 131.158 13.5396 131.251 13.2715C131.35 13.0033 131.49 12.7759 131.671 12.5894C131.851 12.397 132.07 12.2513 132.327 12.1522C132.589 12.053 132.883 12.0035 133.21 12.0035C133.414 12.0035 133.629 12.0356 133.857 12.0997C134.084 12.1638 134.294 12.2687 134.486 12.4145C134.551 12.4611 134.591 12.5165 134.609 12.5806C134.626 12.6389 134.626 12.7001 134.609 12.7643C134.597 12.8284 134.568 12.8838 134.521 12.9304C134.481 12.9712 134.425 12.9945 134.355 13.0004C134.291 13.0062 134.221 12.9858 134.145 12.9392C134.006 12.8342 133.857 12.7584 133.699 12.7118C133.548 12.6652 133.402 12.6418 133.262 12.6418C133.047 12.6418 132.854 12.6768 132.685 12.7468C132.522 12.8167 132.382 12.9188 132.265 13.0528C132.155 13.1811 132.07 13.3414 132.012 13.5338C131.953 13.7204 131.924 13.939 131.924 14.1896C131.924 14.6852 132.041 15.0758 132.274 15.3614C132.507 15.6413 132.837 15.7812 133.262 15.7812C133.402 15.7812 133.548 15.7608 133.699 15.72C133.851 15.6733 134 15.5975 134.145 15.4926C134.221 15.446 134.291 15.4285 134.355 15.4401C134.419 15.446 134.472 15.4722 134.513 15.5188C134.559 15.5596 134.588 15.6121 134.6 15.6762C134.612 15.7345 134.606 15.7957 134.583 15.8599C134.565 15.924 134.524 15.9765 134.46 16.0173C134.274 16.1572 134.07 16.2592 133.848 16.3233C133.627 16.3875 133.414 16.4195 133.21 16.4195ZM138.829 16.402C138.701 16.402 138.602 16.3671 138.532 16.2971C138.462 16.2271 138.427 16.1251 138.427 15.991V12.7206H136.8V13.2452C136.8 13.6883 136.777 14.0818 136.73 14.4258C136.684 14.7639 136.611 15.0583 136.512 15.309C136.418 15.5596 136.293 15.7695 136.136 15.9386C135.984 16.1076 135.795 16.2446 135.567 16.3496C135.48 16.3904 135.398 16.402 135.322 16.3845C135.247 16.3729 135.182 16.3408 135.13 16.2884C135.083 16.2359 135.051 16.1747 135.034 16.1047C135.022 16.0348 135.031 15.9648 135.06 15.8948C135.089 15.8249 135.147 15.7666 135.235 15.72C135.398 15.6267 135.532 15.513 135.637 15.3789C135.742 15.239 135.824 15.0699 135.882 14.8717C135.946 14.6735 135.99 14.4403 136.013 14.1722C136.042 13.904 136.057 13.5892 136.057 13.2277V12.5369C136.057 12.3912 136.095 12.2804 136.171 12.2046C136.252 12.123 136.366 12.0822 136.512 12.0822H138.776C138.922 12.0822 139.033 12.123 139.109 12.2046C139.185 12.2804 139.222 12.3912 139.222 12.5369V15.991C139.222 16.1251 139.187 16.2271 139.117 16.2971C139.048 16.3671 138.951 16.402 138.829 16.402ZM141.943 16.4195C141.651 16.4195 141.386 16.3612 141.147 16.2446C140.914 16.128 140.73 15.9706 140.596 15.7724C140.468 15.5742 140.404 15.3527 140.404 15.1078C140.404 14.793 140.483 14.5453 140.64 14.3645C140.797 14.1838 141.063 14.0556 141.436 13.9798C141.809 13.8982 142.31 13.8574 142.94 13.8574H143.351V14.3645H142.957C142.508 14.3645 142.153 14.3849 141.89 14.4258C141.634 14.4666 141.453 14.5394 141.348 14.6444C141.243 14.7435 141.191 14.8834 141.191 15.0641C141.191 15.2915 141.27 15.478 141.427 15.6238C141.59 15.7695 141.812 15.8424 142.092 15.8424C142.313 15.8424 142.508 15.7899 142.677 15.685C142.846 15.5742 142.981 15.4285 143.08 15.2477C143.179 15.0612 143.228 14.8484 143.228 14.6094V13.6038C143.228 13.2598 143.158 13.012 143.018 12.8605C142.879 12.7031 142.642 12.6244 142.31 12.6244C142.118 12.6244 141.92 12.6506 141.716 12.7031C141.511 12.7555 141.299 12.8371 141.077 12.9479C140.99 12.9887 140.914 13.0033 140.85 12.9916C140.786 12.9741 140.733 12.9392 140.692 12.8867C140.657 12.8284 140.637 12.7672 140.631 12.7031C140.631 12.6331 140.646 12.5661 140.675 12.5019C140.71 12.4378 140.768 12.3912 140.85 12.362C141.106 12.2338 141.36 12.1434 141.611 12.0909C141.867 12.0326 142.106 12.0035 142.328 12.0035C142.707 12.0035 143.018 12.0647 143.263 12.1871C143.508 12.3037 143.692 12.4874 143.814 12.738C143.937 12.9829 143.998 13.2977 143.998 13.6825V15.991C143.998 16.1251 143.966 16.2271 143.902 16.2971C143.838 16.3671 143.744 16.402 143.622 16.402C143.505 16.402 143.412 16.3671 143.342 16.2971C143.278 16.2271 143.246 16.1251 143.246 15.991V15.3702H143.325C143.278 15.5859 143.19 15.7724 143.062 15.9298C142.934 16.0872 142.774 16.2097 142.581 16.2971C142.395 16.3787 142.182 16.4195 141.943 16.4195ZM145.746 16.402C145.618 16.402 145.519 16.3671 145.449 16.2971C145.379 16.2271 145.344 16.1251 145.344 15.991V12.4232C145.344 12.2892 145.379 12.19 145.449 12.1259C145.519 12.056 145.618 12.021 145.746 12.021C145.875 12.021 145.971 12.056 146.035 12.1259C146.105 12.19 146.14 12.2892 146.14 12.4232V13.8311H148.361V12.4232C148.361 12.2892 148.393 12.19 148.457 12.1259C148.527 12.056 148.626 12.021 148.754 12.021C148.883 12.021 148.982 12.056 149.052 12.1259C149.122 12.19 149.157 12.2892 149.157 12.4232V15.991C149.157 16.1251 149.122 16.2271 149.052 16.2971C148.982 16.3671 148.883 16.402 148.754 16.402C148.626 16.402 148.527 16.3671 148.457 16.2971C148.393 16.2271 148.361 16.1251 148.361 15.991V14.4695H146.14V15.991C146.14 16.1251 146.108 16.2271 146.044 16.2971C145.98 16.3671 145.88 16.402 145.746 16.402ZM150.886 16.402C150.811 16.402 150.744 16.3875 150.685 16.3583C150.633 16.3292 150.592 16.2825 150.563 16.2184C150.534 16.1543 150.519 16.0727 150.519 15.9735V12.4057C150.519 12.2833 150.551 12.19 150.615 12.1259C150.679 12.056 150.77 12.021 150.886 12.021C150.997 12.021 151.085 12.056 151.149 12.1259C151.213 12.19 151.245 12.2833 151.245 12.4057V15.5625H151.018L153.484 12.2746C153.53 12.2104 153.588 12.1522 153.658 12.0997C153.728 12.0472 153.822 12.021 153.938 12.021C154.02 12.021 154.087 12.0356 154.139 12.0647C154.192 12.0939 154.23 12.1405 154.253 12.2046C154.282 12.2629 154.297 12.3416 154.297 12.4407V16.0173C154.297 16.1339 154.265 16.2271 154.201 16.2971C154.142 16.3671 154.058 16.402 153.947 16.402C153.825 16.402 153.731 16.3671 153.667 16.2971C153.609 16.2271 153.58 16.1339 153.58 16.0173V12.8517H153.807L151.341 16.1484C151.294 16.2126 151.236 16.2709 151.166 16.3233C151.096 16.3758 151.003 16.402 150.886 16.402ZM155.747 16.3933C155.66 16.3933 155.584 16.3671 155.52 16.3146C155.456 16.2621 155.421 16.1922 155.415 16.1047C155.415 16.0173 155.453 15.924 155.529 15.8249L157.042 13.9448V14.3383L155.625 12.5894C155.543 12.4903 155.505 12.397 155.511 12.3096C155.517 12.2221 155.549 12.1522 155.608 12.0997C155.672 12.0472 155.75 12.021 155.844 12.021C155.943 12.021 156.024 12.0385 156.088 12.0734C156.158 12.1084 156.223 12.1638 156.281 12.2396L157.488 13.7699H157.208L158.415 12.2396C158.473 12.1638 158.534 12.1084 158.598 12.0734C158.668 12.0385 158.75 12.021 158.843 12.021C158.936 12.021 159.012 12.0472 159.07 12.0997C159.134 12.1522 159.167 12.2221 159.167 12.3096C159.172 12.397 159.137 12.4903 159.062 12.5894L157.654 14.3208V13.971L159.158 15.8249C159.239 15.9182 159.277 16.0085 159.271 16.096C159.266 16.1834 159.231 16.2563 159.167 16.3146C159.108 16.3671 159.032 16.3933 158.939 16.3933C158.84 16.3933 158.756 16.3758 158.686 16.3408C158.621 16.3058 158.56 16.2505 158.502 16.1747L157.199 14.5394H157.47L156.185 16.1747C156.126 16.2446 156.062 16.3 155.992 16.3408C155.928 16.3758 155.847 16.3933 155.747 16.3933ZM120.96 29.9761C120.837 29.9761 120.741 29.9411 120.671 29.8711C120.601 29.8012 120.566 29.7021 120.566 29.5738V24.4232C120.566 24.2892 120.601 24.19 120.671 24.1259C120.741 24.056 120.837 24.021 120.96 24.021C121.088 24.021 121.184 24.056 121.248 24.1259C121.318 24.19 121.353 24.2892 121.353 24.4232V25.219L121.257 25.0616C121.35 24.741 121.534 24.4844 121.808 24.2921C122.082 24.0997 122.411 24.0035 122.796 24.0035C123.175 24.0035 123.504 24.0939 123.784 24.2746C124.064 24.4495 124.283 24.7031 124.44 25.0354C124.598 25.3618 124.676 25.7524 124.676 26.2071C124.676 26.656 124.598 27.0495 124.44 27.3877C124.289 27.72 124.07 27.9765 123.784 28.1572C123.504 28.3321 123.175 28.4195 122.796 28.4195C122.417 28.4195 122.091 28.3233 121.817 28.1309C121.543 27.9386 121.359 27.685 121.266 27.3702H121.362V29.5738C121.362 29.7021 121.327 29.8012 121.257 29.8711C121.187 29.9411 121.088 29.9761 120.96 29.9761ZM122.612 27.7899C122.863 27.7899 123.082 27.7287 123.268 27.6063C123.461 27.4838 123.609 27.306 123.714 27.0729C123.819 26.8397 123.872 26.5511 123.872 26.2071C123.872 25.6941 123.758 25.3035 123.531 25.0354C123.303 24.7672 122.997 24.6331 122.612 24.6331C122.356 24.6331 122.132 24.6943 121.939 24.8167C121.753 24.9333 121.607 25.1082 121.502 25.3414C121.403 25.5746 121.353 25.8632 121.353 26.2071C121.353 26.7202 121.467 27.1137 121.694 27.3877C121.922 27.6558 122.228 27.7899 122.612 27.7899ZM127.76 28.4195C127.299 28.4195 126.903 28.3321 126.571 28.1572C126.244 27.9765 125.991 27.7229 125.81 27.3964C125.629 27.0641 125.539 26.6735 125.539 26.2246C125.539 25.7816 125.626 25.3939 125.801 25.0616C125.982 24.7293 126.227 24.4699 126.536 24.2833C126.851 24.0968 127.209 24.0035 127.611 24.0035C127.897 24.0035 128.154 24.053 128.381 24.1522C128.614 24.2454 128.812 24.3824 128.976 24.5631C129.139 24.7439 129.261 24.9654 129.343 25.2277C129.43 25.4842 129.474 25.7757 129.474 26.1022C129.474 26.1955 129.445 26.2683 129.387 26.3208C129.334 26.3675 129.255 26.3908 129.15 26.3908H126.16V25.8836H128.949L128.801 26.006C128.801 25.7029 128.754 25.4464 128.661 25.2365C128.573 25.0208 128.442 24.8575 128.267 24.7468C128.098 24.636 127.885 24.5806 127.629 24.5806C127.349 24.5806 127.11 24.6477 126.912 24.7818C126.714 24.91 126.562 25.0937 126.457 25.3327C126.352 25.5659 126.3 25.8369 126.3 26.1459V26.1984C126.3 26.7231 126.425 27.1195 126.676 27.3877C126.926 27.6558 127.288 27.7899 127.76 27.7899C127.947 27.7899 128.136 27.7666 128.328 27.72C128.527 27.6733 128.716 27.5888 128.897 27.4664C128.984 27.4139 129.063 27.3906 129.133 27.3964C129.209 27.3964 129.27 27.4197 129.317 27.4664C129.363 27.5072 129.392 27.5596 129.404 27.6238C129.416 27.6821 129.407 27.7462 129.378 27.8161C129.349 27.8861 129.293 27.9473 129.212 27.9998C129.019 28.1339 128.789 28.2388 128.521 28.3146C128.258 28.3845 128.005 28.4195 127.76 28.4195ZM132.001 28.4195C131.703 28.4195 131.412 28.3875 131.126 28.3233C130.84 28.2534 130.596 28.1543 130.391 28.026C130.31 27.9852 130.252 27.9327 130.217 27.8686C130.187 27.8045 130.176 27.7404 130.182 27.6762C130.187 27.6121 130.211 27.5567 130.252 27.5101C130.298 27.4634 130.354 27.4372 130.418 27.4314C130.488 27.4197 130.569 27.4372 130.663 27.4838C130.849 27.5946 131.059 27.6791 131.292 27.7374C131.525 27.7899 131.759 27.8161 131.992 27.8161C132.4 27.8161 132.691 27.7578 132.866 27.6413C133.041 27.5247 133.129 27.3556 133.129 27.1341C133.129 26.9184 133.056 26.7551 132.91 26.6444C132.764 26.5336 132.557 26.4782 132.289 26.4782H131.52C131.42 26.4782 131.339 26.452 131.275 26.3995C131.216 26.3412 131.187 26.2683 131.187 26.1809C131.187 26.0876 131.216 26.0148 131.275 25.9623C131.339 25.9098 131.42 25.8836 131.52 25.8836H132.193C132.438 25.8836 132.63 25.8311 132.77 25.7262C132.916 25.6154 132.989 25.4638 132.989 25.2715C132.989 25.0674 132.91 24.9071 132.753 24.7905C132.595 24.6681 132.336 24.6069 131.974 24.6069C131.747 24.6069 131.531 24.6331 131.327 24.6856C131.123 24.7322 130.925 24.8051 130.733 24.9042C130.622 24.9625 130.526 24.98 130.444 24.9567C130.368 24.9275 130.313 24.878 130.278 24.808C130.243 24.7322 130.237 24.6564 130.26 24.5806C130.289 24.499 130.351 24.4349 130.444 24.3883C130.683 24.2542 130.939 24.158 131.213 24.0997C131.487 24.0356 131.776 24.0035 132.079 24.0035C132.627 24.0035 133.038 24.1084 133.312 24.3183C133.586 24.5282 133.723 24.8226 133.723 25.2015C133.723 25.4697 133.63 25.697 133.443 25.8836C133.263 26.0701 133.018 26.1809 132.709 26.2159V26.1022C133.064 26.1139 133.347 26.2159 133.557 26.4083C133.773 26.5948 133.881 26.8455 133.881 27.1603C133.881 27.5392 133.72 27.8453 133.4 28.0785C133.085 28.3058 132.618 28.4195 132.001 28.4195ZM138.585 28.4195C138.194 28.4195 137.853 28.3408 137.562 28.1834C137.27 28.026 137.037 27.8016 136.862 27.5101C136.687 27.2128 136.582 26.8659 136.547 26.4695H135.725V27.991C135.725 28.1251 135.693 28.2271 135.629 28.2971C135.571 28.3671 135.475 28.402 135.341 28.402C135.212 28.402 135.113 28.3671 135.043 28.2971C134.979 28.2271 134.947 28.1251 134.947 27.991V24.4232C134.947 24.2892 134.979 24.19 135.043 24.1259C135.113 24.056 135.212 24.021 135.341 24.021C135.469 24.021 135.565 24.056 135.629 24.1259C135.693 24.19 135.725 24.2892 135.725 24.4232V25.8311H136.556C136.603 25.4464 136.713 25.1199 136.888 24.8517C137.069 24.5777 137.302 24.3679 137.588 24.2221C137.879 24.0764 138.212 24.0035 138.585 24.0035C139.005 24.0035 139.369 24.0939 139.678 24.2746C139.987 24.4553 140.226 24.7118 140.395 25.0441C140.564 25.3706 140.649 25.7582 140.649 26.2071C140.649 26.5453 140.599 26.8513 140.5 27.1253C140.407 27.3993 140.27 27.6325 140.089 27.8249C139.908 28.0173 139.69 28.1659 139.433 28.2709C139.182 28.37 138.9 28.4195 138.585 28.4195ZM138.585 27.7899C138.841 27.7899 139.063 27.7287 139.249 27.6063C139.442 27.4838 139.587 27.306 139.687 27.0729C139.792 26.8397 139.844 26.5511 139.844 26.2071C139.844 25.6941 139.73 25.3035 139.503 25.0354C139.276 24.7672 138.97 24.6331 138.585 24.6331C138.328 24.6331 138.104 24.6943 137.911 24.8167C137.725 24.9333 137.579 25.1082 137.474 25.3414C137.375 25.5746 137.326 25.8632 137.326 26.2071C137.326 26.7202 137.439 27.1137 137.667 27.3877C137.9 27.6558 138.206 27.7899 138.585 27.7899ZM142.12 28.402C142.009 28.402 141.922 28.37 141.858 28.3058C141.799 28.2359 141.77 28.1397 141.77 28.0173V24.4495C141.77 24.3562 141.782 24.2775 141.805 24.2134C141.834 24.1492 141.875 24.1026 141.928 24.0734C141.98 24.0385 142.047 24.021 142.129 24.021C142.205 24.021 142.269 24.0356 142.321 24.0647C142.374 24.088 142.417 24.1201 142.452 24.1609C142.493 24.2017 142.528 24.2513 142.557 24.3096L144 26.8542L145.434 24.3096C145.469 24.2454 145.504 24.193 145.539 24.1522C145.574 24.1113 145.618 24.0793 145.67 24.056C145.723 24.0326 145.787 24.021 145.863 24.021C145.985 24.021 146.075 24.0589 146.134 24.1347C146.192 24.2046 146.221 24.3096 146.221 24.4495V28.0173C146.221 28.1397 146.189 28.2359 146.125 28.3058C146.067 28.37 145.982 28.402 145.871 28.402C145.761 28.402 145.673 28.37 145.609 28.3058C145.545 28.2359 145.513 28.1397 145.513 28.0173V25.0004H145.714L144.28 27.5101C144.251 27.5567 144.216 27.6004 144.175 27.6413C144.134 27.6762 144.076 27.6937 144 27.6937C143.918 27.6937 143.857 27.6762 143.816 27.6413C143.781 27.6004 143.749 27.5567 143.72 27.5101L142.277 25.0004H142.47V28.0173C142.47 28.1397 142.441 28.2359 142.382 28.3058C142.324 28.37 142.237 28.402 142.12 28.402ZM149.553 28.4195C149.093 28.4195 148.696 28.3321 148.364 28.1572C148.038 27.9765 147.784 27.7229 147.603 27.3964C147.422 27.0641 147.332 26.6735 147.332 26.2246C147.332 25.7816 147.42 25.3939 147.594 25.0616C147.775 24.7293 148.02 24.4699 148.329 24.2833C148.644 24.0968 149.002 24.0035 149.405 24.0035C149.69 24.0035 149.947 24.053 150.174 24.1522C150.407 24.2454 150.606 24.3824 150.769 24.5631C150.932 24.7439 151.054 24.9654 151.136 25.2277C151.223 25.4842 151.267 25.7757 151.267 26.1022C151.267 26.1955 151.238 26.2683 151.18 26.3208C151.127 26.3675 151.049 26.3908 150.944 26.3908H147.953V25.8836H150.743L150.594 26.006C150.594 25.7029 150.547 25.4464 150.454 25.2365C150.367 25.0208 150.235 24.8575 150.06 24.7468C149.891 24.636 149.679 24.5806 149.422 24.5806C149.142 24.5806 148.903 24.6477 148.705 24.7818C148.507 24.91 148.355 25.0937 148.25 25.3327C148.145 25.5659 148.093 25.8369 148.093 26.1459V26.1984C148.093 26.7231 148.218 27.1195 148.469 27.3877C148.72 27.6558 149.081 27.7899 149.553 27.7899C149.74 27.7899 149.929 27.7666 150.122 27.72C150.32 27.6733 150.509 27.5888 150.69 27.4664C150.778 27.4139 150.856 27.3906 150.926 27.3964C151.002 27.3964 151.063 27.4197 151.11 27.4664C151.156 27.5072 151.186 27.5596 151.197 27.6238C151.209 27.6821 151.2 27.7462 151.171 27.8161C151.142 27.8861 151.086 27.9473 151.005 27.9998C150.812 28.1339 150.582 28.2388 150.314 28.3146C150.052 28.3845 149.798 28.4195 149.553 28.4195Z" fill="#333333"/>
<path d="M124.945 47.0899C124.749 47.0899 124.595 47.034 124.483 46.922C124.371 46.8101 124.315 46.6609 124.315 46.4743C124.315 46.2784 124.371 46.1292 124.483 46.0266C124.595 45.924 124.749 45.8727 124.945 45.8727H126.652V38.4293H127.38L125.337 39.7305C125.188 39.8144 125.048 39.8471 124.917 39.8284C124.796 39.8098 124.689 39.7585 124.595 39.6745C124.511 39.5906 124.451 39.488 124.413 39.3667C124.385 39.2454 124.395 39.1195 124.441 38.9889C124.497 38.8583 124.595 38.7511 124.735 38.6671L126.666 37.4499C126.825 37.3566 126.974 37.282 127.114 37.226C127.263 37.1607 127.403 37.1281 127.533 37.1281C127.692 37.1281 127.823 37.1747 127.925 37.268C128.037 37.3519 128.093 37.4965 128.093 37.7017V45.8727H129.66C129.865 45.8727 130.024 45.924 130.136 46.0266C130.248 46.1292 130.304 46.2784 130.304 46.4743C130.304 46.6702 130.248 46.8241 130.136 46.936C130.024 47.0386 129.865 47.0899 129.66 47.0899H124.945ZM136.986 47.1879C136.762 47.1879 136.585 47.1273 136.454 47.006C136.324 46.8754 136.259 46.6982 136.259 46.4743V45.0892H132.509C132.276 45.0892 132.089 45.0379 131.949 44.9353C131.809 44.8327 131.739 44.6741 131.739 44.4596C131.739 44.3383 131.767 44.2077 131.823 44.0678C131.889 43.9279 132.001 43.746 132.159 43.5221L136.231 37.6038C136.333 37.4452 136.45 37.3286 136.58 37.254C136.711 37.1701 136.86 37.1281 137.028 37.1281C137.224 37.1281 137.383 37.1887 137.504 37.31C137.634 37.4219 137.7 37.5991 137.7 37.8416V43.8719H138.581C138.805 43.8719 138.968 43.9232 139.071 44.0258C139.183 44.1284 139.239 44.2777 139.239 44.4736C139.239 44.6788 139.183 44.8327 139.071 44.9353C138.968 45.0379 138.805 45.0892 138.581 45.0892H137.7V46.4743C137.7 46.6982 137.634 46.8754 137.504 47.006C137.383 47.1273 137.21 47.1879 136.986 47.1879ZM136.259 43.8719V38.933H136.636L132.985 44.2637V43.8719H136.259ZM143.599 47.2159C143.076 47.2159 142.545 47.1459 142.004 47.006C141.463 46.8568 140.992 46.6376 140.59 46.3484C140.441 46.2551 140.339 46.1432 140.283 46.0126C140.236 45.8727 140.227 45.7468 140.255 45.6348C140.283 45.5136 140.339 45.411 140.423 45.327C140.516 45.2431 140.628 45.1964 140.758 45.1871C140.889 45.1685 141.034 45.2058 141.192 45.299C141.593 45.5416 141.985 45.7188 142.367 45.8307C142.75 45.9333 143.146 45.9846 143.557 45.9846C144.004 45.9846 144.382 45.9193 144.69 45.7887C144.998 45.6582 145.226 45.4669 145.376 45.2151C145.534 44.9633 145.613 44.6601 145.613 44.3057C145.613 43.774 145.436 43.3776 145.082 43.1164C144.737 42.8459 144.233 42.7106 143.571 42.7106H142.619C142.405 42.7106 142.241 42.6593 142.13 42.5567C142.018 42.4448 141.962 42.2909 141.962 42.095C141.962 41.9085 142.018 41.7639 142.13 41.6613C142.241 41.5494 142.405 41.4934 142.619 41.4934H143.431C143.832 41.4934 144.172 41.4281 144.452 41.2975C144.732 41.1576 144.946 40.9664 145.096 40.7239C145.254 40.472 145.334 40.1689 145.334 39.8144C145.334 39.3387 145.175 38.9749 144.858 38.7231C144.55 38.4619 144.098 38.3313 143.501 38.3313C143.118 38.3313 142.754 38.3826 142.409 38.4852C142.074 38.5878 141.724 38.7697 141.36 39.0309C141.22 39.1242 141.085 39.1662 140.954 39.1568C140.833 39.1382 140.726 39.0915 140.632 39.0169C140.548 38.933 140.488 38.8304 140.451 38.7091C140.423 38.5878 140.432 38.4619 140.479 38.3313C140.525 38.2008 140.618 38.0888 140.758 37.9955C141.15 37.7064 141.593 37.4872 142.088 37.338C142.582 37.1794 143.09 37.1001 143.613 37.1001C144.266 37.1001 144.825 37.2027 145.292 37.4079C145.767 37.6131 146.126 37.9069 146.369 38.2894C146.621 38.6718 146.747 39.1288 146.747 39.6605C146.747 40.0616 146.672 40.4254 146.523 40.7518C146.374 41.0783 146.159 41.3581 145.879 41.5913C145.609 41.8152 145.278 41.9738 144.886 42.067V41.9131C145.567 42.0251 146.094 42.3049 146.467 42.7526C146.84 43.191 147.026 43.7413 147.026 44.4036C147.026 44.9819 146.887 45.4856 146.607 45.9147C146.336 46.3344 145.944 46.6562 145.431 46.8801C144.918 47.1039 144.307 47.2159 143.599 47.2159Z" fill="#333333"/>
<path d="M263.095 0.537598H193.721C189.857 0.537598 186.725 3.66967 186.725 7.53329V51.8976C186.725 55.7612 189.857 58.8933 193.721 58.8933H263.095C266.958 58.8933 270.09 55.7612 270.09 51.8976V7.53329C270.09 3.66967 266.958 0.537598 263.095 0.537598Z" fill="#D0E8C5"/>
<path d="M210.76 16.4194C210.311 16.4194 209.898 16.364 209.519 16.2533C209.14 16.1425 208.819 15.9851 208.557 15.7811C208.481 15.7228 208.428 15.6586 208.399 15.5887C208.376 15.5129 208.373 15.4429 208.391 15.3788C208.408 15.3089 208.44 15.2506 208.487 15.2039C208.539 15.1573 208.6 15.131 208.67 15.1252C208.746 15.1194 208.828 15.1427 208.915 15.1952C209.079 15.3118 209.253 15.408 209.44 15.4837C209.627 15.5595 209.825 15.6178 210.035 15.6586C210.25 15.6936 210.475 15.7111 210.708 15.7111C211.075 15.7111 211.375 15.6703 211.609 15.5887C211.842 15.5071 212.014 15.3846 212.125 15.2214C212.241 15.0523 212.299 14.8425 212.299 14.5918C212.299 14.2362 212.189 13.9738 211.967 13.8048C211.746 13.6357 211.41 13.5512 210.962 13.5512H209.746C209.635 13.5512 209.548 13.522 209.484 13.4637C209.425 13.4054 209.396 13.3209 209.396 13.2101C209.396 13.111 209.425 13.0323 209.484 12.974C209.548 12.9157 209.635 12.8866 209.746 12.8866H210.813C211.256 12.8866 211.588 12.8021 211.81 12.633C212.037 12.4581 212.151 12.2016 212.151 11.8635C212.151 11.6478 212.098 11.4612 211.993 11.3038C211.888 11.1406 211.728 11.0153 211.512 10.9278C211.303 10.8404 211.037 10.7966 210.717 10.7966C210.419 10.7966 210.131 10.8374 209.851 10.9191C209.571 11.0007 209.315 11.1202 209.081 11.2776C208.988 11.3359 208.904 11.3621 208.828 11.3563C208.758 11.3446 208.7 11.3155 208.653 11.2688C208.606 11.2222 208.574 11.1639 208.557 11.094C208.539 11.024 208.542 10.954 208.565 10.8841C208.595 10.8083 208.65 10.7442 208.732 10.6917C209.011 10.4935 209.329 10.3448 209.685 10.2457C210.046 10.1466 210.414 10.0971 210.787 10.0971C211.27 10.0971 211.673 10.167 211.993 10.3069C212.314 10.4469 212.556 10.6451 212.719 10.9016C212.882 11.1523 212.964 11.4467 212.964 11.7848C212.964 12.1637 212.85 12.4814 212.623 12.7379C212.401 12.9944 212.101 13.1664 211.722 13.2539V13.1227C212.154 13.1752 212.492 13.3355 212.737 13.6037C212.987 13.866 213.113 14.2099 213.113 14.6355C213.113 15.0028 213.028 15.3205 212.859 15.5887C212.69 15.8569 212.431 16.0638 212.081 16.2096C211.737 16.3495 211.297 16.4194 210.76 16.4194ZM214.71 17.976C214.588 17.976 214.491 17.941 214.422 17.871C214.352 17.8011 214.317 17.702 214.317 17.5737V12.4231C214.317 12.2891 214.352 12.1899 214.422 12.1258C214.491 12.0559 214.588 12.0209 214.71 12.0209C214.838 12.0209 214.935 12.0559 214.999 12.1258C215.069 12.1899 215.104 12.2891 215.104 12.4231V13.2189L215.007 13.0615C215.101 12.7409 215.284 12.4843 215.558 12.292C215.832 12.0996 216.162 12.0034 216.546 12.0034C216.925 12.0034 217.255 12.0938 217.535 12.2745C217.814 12.4494 218.033 12.703 218.19 13.0353C218.348 13.3617 218.427 13.7523 218.427 14.207C218.427 14.6559 218.348 15.0494 218.19 15.3876C218.039 15.7199 217.82 15.9764 217.535 16.1571C217.255 16.332 216.925 16.4194 216.546 16.4194C216.168 16.4194 215.841 16.3232 215.567 16.1308C215.293 15.9385 215.109 15.6849 215.016 15.3701H215.112V17.5737C215.112 17.702 215.077 17.8011 215.007 17.871C214.937 17.941 214.838 17.976 214.71 17.976ZM216.363 15.7898C216.613 15.7898 216.832 15.7286 217.019 15.6062C217.211 15.4837 217.36 15.3059 217.465 15.0728C217.57 14.8396 217.622 14.551 217.622 14.207C217.622 13.694 217.508 13.3034 217.281 13.0353C217.054 12.7671 216.748 12.633 216.363 12.633C216.106 12.633 215.882 12.6942 215.689 12.8166C215.503 12.9332 215.357 13.1081 215.252 13.3413C215.153 13.5745 215.104 13.8631 215.104 14.207C215.104 14.7201 215.217 15.1136 215.445 15.3876C215.672 15.6557 215.978 15.7898 216.363 15.7898ZM221.353 16.4194C220.933 16.4194 220.569 16.3291 220.26 16.1483C219.951 15.9676 219.712 15.7111 219.543 15.3788C219.374 15.0465 219.289 14.6559 219.289 14.207C219.289 13.8689 219.336 13.5658 219.429 13.2976C219.528 13.0236 219.668 12.7904 219.849 12.598C220.03 12.4056 220.245 12.2599 220.496 12.1608C220.753 12.0559 221.038 12.0034 221.353 12.0034C221.773 12.0034 222.137 12.0938 222.446 12.2745C222.755 12.4552 222.994 12.7117 223.163 13.044C223.332 13.3705 223.417 13.7581 223.417 14.207C223.417 14.5452 223.367 14.8512 223.268 15.1252C223.175 15.3992 223.038 15.6324 222.857 15.8248C222.676 16.0172 222.458 16.1658 222.201 16.2708C221.951 16.3699 221.668 16.4194 221.353 16.4194ZM221.353 15.7898C221.609 15.7898 221.831 15.7286 222.018 15.6062C222.21 15.4837 222.356 15.3059 222.455 15.0728C222.56 14.8396 222.612 14.551 222.612 14.207C222.612 13.694 222.499 13.3034 222.271 13.0353C222.044 12.7671 221.738 12.633 221.353 12.633C221.102 12.633 220.881 12.6942 220.688 12.8166C220.502 12.9332 220.356 13.1081 220.251 13.3413C220.146 13.5745 220.094 13.8631 220.094 14.207C220.094 14.7201 220.207 15.1136 220.435 15.3876C220.668 15.6557 220.974 15.7898 221.353 15.7898ZM226.384 16.4194C225.952 16.4194 225.579 16.3291 225.264 16.1483C224.95 15.9618 224.708 15.6878 224.539 15.3263C224.375 14.9591 224.294 14.5131 224.294 13.9884V13.3326C224.294 12.7671 224.369 12.2949 224.521 11.9159C224.678 11.5312 224.912 11.2222 225.221 10.989C225.535 10.7558 225.926 10.5751 226.392 10.4469L227.634 10.1058C227.751 10.0767 227.847 10.0825 227.923 10.1233C228.004 10.1641 228.06 10.237 228.089 10.3419C228.112 10.4527 228.095 10.546 228.036 10.6217C227.984 10.6975 227.896 10.75 227.774 10.7791L226.445 11.1377C226.136 11.2193 225.876 11.3446 225.667 11.5137C225.463 11.6828 225.308 11.8897 225.203 12.1346C225.098 12.3794 225.046 12.6592 225.046 12.974V13.3501H224.923C224.987 13.0936 225.095 12.872 225.247 12.6855C225.398 12.4931 225.585 12.3444 225.807 12.2395C226.034 12.1346 226.287 12.0821 226.567 12.0821C226.935 12.0821 227.255 12.1695 227.529 12.3444C227.809 12.5193 228.028 12.7671 228.185 13.0877C228.342 13.4084 228.421 13.7873 228.421 14.2245C228.421 14.6734 228.337 15.0611 228.168 15.3876C227.998 15.714 227.762 15.9676 227.459 16.1483C227.156 16.3291 226.798 16.4194 226.384 16.4194ZM226.349 15.7898C226.617 15.7898 226.844 15.7315 227.031 15.6149C227.217 15.4925 227.36 15.3176 227.459 15.0902C227.564 14.8629 227.617 14.5831 227.617 14.2508C227.617 13.7611 227.503 13.3821 227.276 13.114C227.054 12.8458 226.748 12.7117 226.357 12.7117C226.095 12.7117 225.868 12.7729 225.675 12.8953C225.489 13.0119 225.346 13.181 225.247 13.4025C225.148 13.6182 225.098 13.8806 225.098 14.1895C225.098 14.7142 225.206 15.1136 225.422 15.3876C225.643 15.6557 225.952 15.7898 226.349 15.7898ZM232.754 16.4019C232.626 16.4019 232.527 16.367 232.457 16.297C232.387 16.227 232.352 16.125 232.352 15.9909V12.7205H230.726V13.2451C230.726 13.6882 230.702 14.0817 230.656 14.4257C230.609 14.7638 230.536 15.0582 230.437 15.3089C230.344 15.5595 230.218 15.7694 230.061 15.9385C229.909 16.1075 229.72 16.2445 229.493 16.3495C229.405 16.3903 229.324 16.4019 229.248 16.3844C229.172 16.3728 229.108 16.3407 229.055 16.2883C229.009 16.2358 228.977 16.1746 228.959 16.1046C228.947 16.0347 228.956 15.9647 228.985 15.8947C229.015 15.8248 229.073 15.7665 229.16 15.7199C229.324 15.6266 229.458 15.5129 229.563 15.3788C229.667 15.2389 229.749 15.0698 229.807 14.8716C229.872 14.6734 229.915 14.4402 229.939 14.1721C229.968 13.9039 229.982 13.5891 229.982 13.2276V12.5368C229.982 12.3911 230.02 12.2803 230.096 12.2045C230.178 12.1229 230.291 12.0821 230.437 12.0821H232.702C232.848 12.0821 232.958 12.1229 233.034 12.2045C233.11 12.2803 233.148 12.3911 233.148 12.5368V15.9909C233.148 16.125 233.113 16.227 233.043 16.297C232.973 16.367 232.877 16.4019 232.754 16.4019ZM236.48 16.4194C236.02 16.4194 235.623 16.332 235.291 16.1571C234.965 15.9764 234.711 15.7228 234.53 15.3963C234.35 15.064 234.259 14.6734 234.259 14.2245C234.259 13.7815 234.347 13.3938 234.522 13.0615C234.702 12.7292 234.947 12.4698 235.256 12.2832C235.571 12.0967 235.929 12.0034 236.332 12.0034C236.617 12.0034 236.874 12.0529 237.101 12.1521C237.334 12.2453 237.533 12.3823 237.696 12.563C237.859 12.7438 237.982 12.9653 238.063 13.2276C238.151 13.4841 238.194 13.7756 238.194 14.1021C238.194 14.1954 238.165 14.2682 238.107 14.3207C238.054 14.3674 237.976 14.3907 237.871 14.3907H234.88V13.8835H237.67L237.521 14.0059C237.521 13.7028 237.474 13.4463 237.381 13.2364C237.294 13.0207 237.162 12.8574 236.988 12.7467C236.819 12.6359 236.606 12.5805 236.349 12.5805C236.069 12.5805 235.83 12.6476 235.632 12.7817C235.434 12.9099 235.282 13.0936 235.177 13.3326C235.073 13.5658 235.02 13.8368 235.02 14.1458V14.1983C235.02 14.723 235.145 15.1194 235.396 15.3876C235.647 15.6557 236.008 15.7898 236.48 15.7898C236.667 15.7898 236.856 15.7665 237.049 15.7199C237.247 15.6732 237.436 15.5887 237.617 15.4663C237.705 15.4138 237.783 15.3905 237.853 15.3963C237.929 15.3963 237.99 15.4196 238.037 15.4663C238.084 15.5071 238.113 15.5595 238.124 15.6237C238.136 15.682 238.127 15.7461 238.098 15.816C238.069 15.886 238.014 15.9472 237.932 15.9997C237.74 16.1338 237.509 16.2387 237.241 16.3145C236.979 16.3844 236.725 16.4194 236.48 16.4194ZM239.68 16.4019C239.552 16.4019 239.453 16.367 239.383 16.297C239.313 16.227 239.278 16.125 239.278 15.9909V12.4231C239.278 12.2891 239.313 12.1899 239.383 12.1258C239.453 12.0559 239.552 12.0209 239.68 12.0209C239.809 12.0209 239.905 12.0559 239.969 12.1258C240.039 12.1899 240.074 12.2891 240.074 12.4231V13.831H242.295V12.4231C242.295 12.2891 242.327 12.1899 242.391 12.1258C242.461 12.0559 242.56 12.0209 242.688 12.0209C242.817 12.0209 242.916 12.0559 242.986 12.1258C243.056 12.1899 243.091 12.2891 243.091 12.4231V15.9909C243.091 16.125 243.056 16.227 242.986 16.297C242.916 16.367 242.817 16.4019 242.688 16.4019C242.56 16.4019 242.461 16.367 242.391 16.297C242.327 16.227 242.295 16.125 242.295 15.9909V14.4694H240.074V15.9909C240.074 16.125 240.042 16.227 239.978 16.297C239.913 16.367 239.814 16.4019 239.68 16.4019ZM246.263 16.4194C245.843 16.4194 245.479 16.3291 245.17 16.1483C244.861 15.9676 244.622 15.7111 244.453 15.3788C244.284 15.0465 244.199 14.6559 244.199 14.207C244.199 13.8689 244.246 13.5658 244.339 13.2976C244.438 13.0236 244.578 12.7904 244.759 12.598C244.94 12.4056 245.156 12.2599 245.406 12.1608C245.663 12.0559 245.948 12.0034 246.263 12.0034C246.683 12.0034 247.047 12.0938 247.356 12.2745C247.665 12.4552 247.904 12.7117 248.073 13.044C248.242 13.3705 248.327 13.7581 248.327 14.207C248.327 14.5452 248.277 14.8512 248.178 15.1252C248.085 15.3992 247.948 15.6324 247.767 15.8248C247.587 16.0172 247.368 16.1658 247.111 16.2708C246.861 16.3699 246.578 16.4194 246.263 16.4194ZM246.263 15.7898C246.52 15.7898 246.741 15.7286 246.928 15.6062C247.12 15.4837 247.266 15.3059 247.365 15.0728C247.47 14.8396 247.522 14.551 247.522 14.207C247.522 13.694 247.409 13.3034 247.181 13.0353C246.954 12.7671 246.648 12.633 246.263 12.633C246.012 12.633 245.791 12.6942 245.599 12.8166C245.412 12.9332 245.266 13.1081 245.161 13.3413C245.056 13.5745 245.004 13.8631 245.004 14.207C245.004 14.7201 245.118 15.1136 245.345 15.3876C245.578 15.6557 245.884 15.7898 246.263 15.7898ZM212.169 28.4019C212.041 28.4019 211.942 28.367 211.872 28.297C211.802 28.227 211.767 28.125 211.767 27.9909V24.7205H210.525C210.292 24.7205 210.176 24.6126 210.176 24.3969C210.176 24.2978 210.208 24.222 210.272 24.1695C210.336 24.1112 210.42 24.0821 210.525 24.0821H213.796C214.035 24.0821 214.154 24.187 214.154 24.3969C214.154 24.5018 214.122 24.5835 214.058 24.6417C214 24.6942 213.912 24.7205 213.796 24.7205H212.563V27.9909C212.563 28.125 212.528 28.227 212.458 28.297C212.394 28.367 212.298 28.4019 212.169 28.4019ZM216.754 28.4194C216.293 28.4194 215.897 28.332 215.565 28.1571C215.238 27.9764 214.984 27.7228 214.804 27.3963C214.623 27.064 214.533 26.6734 214.533 26.2245C214.533 25.7815 214.62 25.3938 214.795 25.0615C214.976 24.7292 215.221 24.4698 215.53 24.2832C215.844 24.0967 216.203 24.0034 216.605 24.0034C216.891 24.0034 217.147 24.0529 217.375 24.1521C217.608 24.2453 217.806 24.3823 217.969 24.563C218.133 24.7438 218.255 24.9653 218.337 25.2276C218.424 25.4841 218.468 25.7756 218.468 26.1021C218.468 26.1954 218.439 26.2682 218.38 26.3207C218.328 26.3674 218.249 26.3907 218.144 26.3907H215.154V25.8835H217.943L217.794 26.0059C217.794 25.7028 217.748 25.4463 217.654 25.2364C217.567 25.0207 217.436 24.8574 217.261 24.7467C217.092 24.6359 216.879 24.5805 216.623 24.5805C216.343 24.5805 216.104 24.6476 215.906 24.7817C215.707 24.9099 215.556 25.0936 215.451 25.3326C215.346 25.5658 215.293 25.8368 215.293 26.1458V26.1983C215.293 26.723 215.419 27.1194 215.669 27.3876C215.92 27.6557 216.282 27.7898 216.754 27.7898C216.94 27.7898 217.13 27.7665 217.322 27.7199C217.52 27.6732 217.71 27.5887 217.891 27.4663C217.978 27.4138 218.057 27.3905 218.127 27.3963C218.202 27.3963 218.264 27.4196 218.31 27.4663C218.357 27.5071 218.386 27.5595 218.398 27.6237C218.409 27.682 218.401 27.7461 218.372 27.816C218.342 27.886 218.287 27.9472 218.205 27.9997C218.013 28.1338 217.783 28.2387 217.515 28.3145C217.252 28.3844 216.999 28.4194 216.754 28.4194ZM221.396 28.4194C220.965 28.4194 220.592 28.3291 220.277 28.1483C219.962 27.9618 219.72 27.7024 219.551 27.3701C219.382 27.0319 219.298 26.6355 219.298 26.1808C219.298 25.8427 219.344 25.5395 219.438 25.2714C219.537 25.0032 219.677 24.7758 219.857 24.5893C220.038 24.3969 220.257 24.2512 220.513 24.1521C220.776 24.0529 221.07 24.0034 221.396 24.0034C221.601 24.0034 221.816 24.0355 222.044 24.0996C222.271 24.1637 222.481 24.2686 222.673 24.4144C222.737 24.461 222.778 24.5164 222.796 24.5805C222.813 24.6388 222.813 24.7 222.796 24.7642C222.784 24.8283 222.755 24.8837 222.708 24.9303C222.667 24.9711 222.612 24.9944 222.542 25.0003C222.478 25.0061 222.408 24.9857 222.332 24.9391C222.192 24.8341 222.044 24.7583 221.886 24.7117C221.735 24.6651 221.589 24.6417 221.449 24.6417C221.233 24.6417 221.041 24.6767 220.872 24.7467C220.709 24.8166 220.569 24.9187 220.452 25.0527C220.341 25.181 220.257 25.3413 220.198 25.5337C220.14 25.7203 220.111 25.9389 220.111 26.1895C220.111 26.6851 220.228 27.0757 220.461 27.3613C220.694 27.6412 221.023 27.7811 221.449 27.7811C221.589 27.7811 221.735 27.7607 221.886 27.7199C222.038 27.6732 222.186 27.5974 222.332 27.4925C222.408 27.4459 222.478 27.4284 222.542 27.44C222.606 27.4459 222.659 27.4721 222.699 27.5187C222.746 27.5595 222.775 27.612 222.787 27.6761C222.799 27.7344 222.793 27.7956 222.769 27.8598C222.752 27.9239 222.711 27.9764 222.647 28.0172C222.46 28.1571 222.256 28.2591 222.035 28.3232C221.813 28.3874 221.601 28.4194 221.396 28.4194ZM225.004 28.4019C224.876 28.4019 224.777 28.367 224.707 28.297C224.637 28.227 224.602 28.125 224.602 27.9909V24.7205H223.36C223.127 24.7205 223.011 24.6126 223.011 24.3969C223.011 24.2978 223.043 24.222 223.107 24.1695C223.171 24.1112 223.255 24.0821 223.36 24.0821H226.631C226.87 24.0821 226.989 24.187 226.989 24.3969C226.989 24.5018 226.957 24.5835 226.893 24.6417C226.835 24.6942 226.747 24.7205 226.631 24.7205H225.398V27.9909C225.398 28.125 225.363 28.227 225.293 28.297C225.229 28.367 225.133 28.4019 225.004 28.4019ZM229.431 28.4194C229.012 28.4194 228.647 28.3291 228.338 28.1483C228.029 27.9676 227.79 27.7111 227.621 27.3788C227.452 27.0465 227.368 26.6559 227.368 26.207C227.368 25.8689 227.414 25.5658 227.508 25.2976C227.607 25.0236 227.747 24.7904 227.927 24.598C228.108 24.4056 228.324 24.2599 228.575 24.1608C228.831 24.0559 229.117 24.0034 229.431 24.0034C229.851 24.0034 230.216 24.0938 230.525 24.2745C230.834 24.4552 231.073 24.7117 231.242 25.044C231.411 25.3705 231.495 25.7581 231.495 26.207C231.495 26.5452 231.446 26.8512 231.347 27.1252C231.253 27.3992 231.116 27.6324 230.936 27.8248C230.755 28.0172 230.536 28.1658 230.28 28.2708C230.029 28.3699 229.746 28.4194 229.431 28.4194ZM229.431 27.7898C229.688 27.7898 229.91 27.7286 230.096 27.6062C230.288 27.4837 230.434 27.3059 230.533 27.0728C230.638 26.8396 230.691 26.551 230.691 26.207C230.691 25.694 230.577 25.3034 230.35 25.0353C230.122 24.7671 229.816 24.633 229.431 24.633C229.181 24.633 228.959 24.6942 228.767 24.8166C228.58 24.9332 228.435 25.1081 228.33 25.3413C228.225 25.5745 228.172 25.8631 228.172 26.207C228.172 26.7201 228.286 27.1136 228.513 27.3876C228.747 27.6557 229.053 27.7898 229.431 27.7898ZM233.028 28.3407C232.894 28.3407 232.792 28.3057 232.722 28.2358C232.652 28.1658 232.617 28.0638 232.617 27.9297V24.4931C232.617 24.359 232.652 24.257 232.722 24.187C232.792 24.1171 232.894 24.0821 233.028 24.0821H234.742C235.086 24.0821 235.366 24.1258 235.581 24.2133C235.803 24.3007 235.966 24.426 236.071 24.5893C236.176 24.7525 236.229 24.9566 236.229 25.2014C236.229 25.4696 236.135 25.6969 235.949 25.8835C235.762 26.07 235.517 26.1808 235.214 26.2158V26.1021C235.576 26.1138 235.858 26.2187 236.062 26.4169C236.266 26.6093 236.369 26.8571 236.369 27.1602C236.369 27.5216 236.234 27.8102 235.966 28.0259C235.698 28.2358 235.313 28.3407 234.812 28.3407H233.028ZM233.369 27.816H234.768C235.048 27.816 235.261 27.7577 235.407 27.6412C235.558 27.5187 235.634 27.3467 235.634 27.1252C235.634 26.8979 235.558 26.7259 235.407 26.6093C235.261 26.4927 235.048 26.4344 234.768 26.4344H233.369V27.816ZM233.369 25.9097H234.698C234.949 25.9097 235.141 25.8514 235.275 25.7348C235.415 25.6182 235.485 25.4579 235.485 25.2539C235.485 25.044 235.415 24.8837 235.275 24.7729C235.141 24.6622 234.949 24.6068 234.698 24.6068H233.369V25.9097ZM237.809 28.4019C237.733 28.4019 237.666 28.3874 237.608 28.3582C237.556 28.3291 237.515 28.2824 237.486 28.2183C237.457 28.1542 237.442 28.0726 237.442 27.9734V24.4056C237.442 24.2832 237.474 24.1899 237.538 24.1258C237.602 24.0559 237.693 24.0209 237.809 24.0209C237.92 24.0209 238.007 24.0559 238.072 24.1258C238.136 24.1899 238.168 24.2832 238.168 24.4056V27.5624H237.94L240.406 24.2745C240.453 24.2103 240.511 24.1521 240.581 24.0996C240.651 24.0471 240.745 24.0209 240.861 24.0209C240.943 24.0209 241.01 24.0355 241.062 24.0646C241.115 24.0938 241.153 24.1404 241.176 24.2045C241.205 24.2628 241.22 24.3415 241.22 24.4406V28.0172C241.22 28.1338 241.188 28.227 241.123 28.297C241.065 28.367 240.981 28.4019 240.87 28.4019C240.747 28.4019 240.654 28.367 240.59 28.297C240.532 28.227 240.503 28.1338 240.503 28.0172V24.8516H240.73L238.264 28.1483C238.217 28.2125 238.159 28.2708 238.089 28.3232C238.019 28.3757 237.926 28.4019 237.809 28.4019ZM242.67 28.3932C242.583 28.3932 242.507 28.367 242.443 28.3145C242.379 28.262 242.344 28.1921 242.338 28.1046C242.338 28.0172 242.376 27.9239 242.452 27.8248L243.964 25.9447V26.3382L242.548 24.5893C242.466 24.4902 242.428 24.3969 242.434 24.3095C242.44 24.222 242.472 24.1521 242.53 24.0996C242.595 24.0471 242.673 24.0209 242.766 24.0209C242.866 24.0209 242.947 24.0384 243.011 24.0733C243.081 24.1083 243.145 24.1637 243.204 24.2395L244.41 25.7698H244.131L245.337 24.2395C245.396 24.1637 245.457 24.1083 245.521 24.0733C245.591 24.0384 245.673 24.0209 245.766 24.0209C245.859 24.0209 245.935 24.0471 245.993 24.0996C246.057 24.1521 246.089 24.222 246.089 24.3095C246.095 24.3969 246.06 24.4902 245.984 24.5893L244.577 26.3207V25.9709L246.081 27.8248C246.162 27.9181 246.2 28.0084 246.194 28.0959C246.189 28.1833 246.154 28.2562 246.089 28.3145C246.031 28.367 245.955 28.3932 245.862 28.3932C245.763 28.3932 245.678 28.3757 245.608 28.3407C245.544 28.3057 245.483 28.2504 245.425 28.1746L244.122 26.5393H244.393L243.108 28.1746C243.049 28.2445 242.985 28.2999 242.915 28.3407C242.851 28.3757 242.769 28.3932 242.67 28.3932Z" fill="#333333"/>
<path d="M224.105 47.2159C223.358 47.2159 222.715 47.1086 222.174 46.8941C221.642 46.6795 221.232 46.3671 220.943 45.9566C220.663 45.5369 220.523 45.0379 220.523 44.4596C220.523 43.9932 220.616 43.5828 220.803 43.2283C220.989 42.8645 221.25 42.5707 221.586 42.3469C221.922 42.123 222.309 41.9831 222.747 41.9271V42.179C222.141 42.0484 221.656 41.7639 221.292 41.3255C220.938 40.8778 220.761 40.3461 220.761 39.7305C220.761 39.1801 220.896 38.7091 221.166 38.3173C221.446 37.9163 221.838 37.6131 222.342 37.4079C222.845 37.2027 223.433 37.1001 224.105 37.1001C224.786 37.1001 225.378 37.2027 225.882 37.4079C226.385 37.6131 226.772 37.9163 227.043 38.3173C227.323 38.7091 227.463 39.1801 227.463 39.7305C227.463 40.1409 227.379 40.5187 227.211 40.8638C227.052 41.1996 226.824 41.4841 226.525 41.7173C226.227 41.9411 225.877 42.0904 225.476 42.165V41.9271C226.138 42.0204 226.67 42.2956 227.071 42.7526C227.481 43.2003 227.686 43.7693 227.686 44.4596C227.686 45.0379 227.542 45.5369 227.253 45.9566C226.973 46.3671 226.567 46.6795 226.035 46.8941C225.504 47.1086 224.86 47.2159 224.105 47.2159ZM224.105 46.0686C224.842 46.0686 225.397 45.9287 225.77 45.6488C226.143 45.3597 226.329 44.9306 226.329 44.3616C226.329 43.7926 226.143 43.3682 225.77 43.0884C225.397 42.8086 224.842 42.6687 224.105 42.6687C223.377 42.6687 222.822 42.8086 222.44 43.0884C222.067 43.3682 221.88 43.7926 221.88 44.3616C221.88 44.9306 222.067 45.3597 222.44 45.6488C222.822 45.9287 223.377 46.0686 224.105 46.0686ZM224.105 41.5214C224.524 41.5214 224.879 41.4561 225.168 41.3255C225.466 41.1856 225.695 40.9944 225.854 40.7518C226.012 40.5 226.091 40.2062 226.091 39.8704C226.091 39.3667 225.914 38.9703 225.56 38.6811C225.215 38.392 224.73 38.2474 224.105 38.2474C223.48 38.2474 222.995 38.392 222.65 38.6811C222.304 38.9703 222.132 39.3667 222.132 39.8704C222.132 40.3834 222.304 40.7892 222.65 41.0876C222.995 41.3768 223.48 41.5214 224.105 41.5214ZM234.117 47.1879C233.893 47.1879 233.716 47.1273 233.585 47.006C233.455 46.8754 233.389 46.6982 233.389 46.4743V45.0892H229.64C229.407 45.0892 229.22 45.0379 229.08 44.9353C228.94 44.8327 228.87 44.6741 228.87 44.4596C228.87 44.3383 228.898 44.2077 228.954 44.0678C229.019 43.9279 229.131 43.746 229.29 43.5221L233.361 37.6038C233.464 37.4452 233.581 37.3286 233.711 37.254C233.842 37.1701 233.991 37.1281 234.159 37.1281C234.355 37.1281 234.513 37.1887 234.635 37.31C234.765 37.4219 234.831 37.5991 234.831 37.8416V43.8719H235.712C235.936 43.8719 236.099 43.9232 236.202 44.0258C236.314 44.1284 236.37 44.2777 236.37 44.4736C236.37 44.6788 236.314 44.8327 236.202 44.9353C236.099 45.0379 235.936 45.0892 235.712 45.0892H234.831V46.4743C234.831 46.6982 234.765 46.8754 234.635 47.006C234.513 47.1273 234.341 47.1879 234.117 47.1879ZM233.389 43.8719V38.933H233.767L230.115 44.2637V43.8719H233.389Z" fill="#333333"/>
<path d="M356.246 0.537598H285.83C281.966 0.537598 278.834 3.66967 278.834 7.53329V51.8976C278.834 55.7612 281.966 58.8933 285.83 58.8933H356.246C360.109 58.8933 363.241 55.7612 363.241 51.8976V7.53329C363.241 3.66967 360.109 0.537598 356.246 0.537598Z" fill="#C6E7FF"/>
<path d="M298.673 16.4019C298.545 16.4019 298.445 16.367 298.376 16.297C298.306 16.2212 298.271 16.1163 298.271 15.9822V10.613C298.271 10.4731 298.308 10.3652 298.384 10.2894C298.46 10.2137 298.568 10.1758 298.708 10.1758H302.975C303.121 10.1758 303.232 10.2137 303.307 10.2894C303.383 10.3652 303.421 10.4731 303.421 10.613V15.9822C303.421 16.1163 303.386 16.2212 303.316 16.297C303.246 16.367 303.144 16.4019 303.01 16.4019C302.882 16.4019 302.783 16.367 302.713 16.297C302.643 16.2212 302.608 16.1163 302.608 15.9822V10.8666H299.084V15.9822C299.084 16.1163 299.049 16.2212 298.979 16.297C298.915 16.367 298.813 16.4019 298.673 16.4019ZM305.23 17.976C305.107 17.976 305.011 17.941 304.941 17.871C304.871 17.8011 304.836 17.702 304.836 17.5737V12.4231C304.836 12.2891 304.871 12.1899 304.941 12.1258C305.011 12.0559 305.107 12.0209 305.23 12.0209C305.358 12.0209 305.454 12.0559 305.518 12.1258C305.588 12.1899 305.623 12.2891 305.623 12.4231V13.2189L305.527 13.0615C305.62 12.7409 305.804 12.4843 306.078 12.292C306.352 12.0996 306.681 12.0034 307.066 12.0034C307.445 12.0034 307.774 12.0938 308.054 12.2745C308.334 12.4494 308.553 12.703 308.71 13.0353C308.867 13.3617 308.946 13.7523 308.946 14.207C308.946 14.6559 308.867 15.0494 308.71 15.3876C308.558 15.7199 308.34 15.9764 308.054 16.1571C307.774 16.332 307.445 16.4194 307.066 16.4194C306.687 16.4194 306.361 16.3232 306.087 16.1308C305.813 15.9385 305.629 15.6849 305.536 15.3701H305.632V17.5737C305.632 17.702 305.597 17.8011 305.527 17.871C305.457 17.941 305.358 17.976 305.23 17.976ZM306.882 15.7898C307.133 15.7898 307.352 15.7286 307.538 15.6062C307.731 15.4837 307.879 15.3059 307.984 15.0728C308.089 14.8396 308.142 14.551 308.142 14.207C308.142 13.694 308.028 13.3034 307.801 13.0353C307.573 12.7671 307.267 12.633 306.882 12.633C306.626 12.633 306.401 12.6942 306.209 12.8166C306.022 12.9332 305.877 13.1081 305.772 13.3413C305.673 13.5745 305.623 13.8631 305.623 14.207C305.623 14.7201 305.737 15.1136 305.964 15.3876C306.192 15.6557 306.498 15.7898 306.882 15.7898ZM311.873 16.4194C311.453 16.4194 311.088 16.3291 310.779 16.1483C310.47 15.9676 310.231 15.7111 310.062 15.3788C309.893 15.0465 309.809 14.6559 309.809 14.207C309.809 13.8689 309.855 13.5658 309.949 13.2976C310.048 13.0236 310.188 12.7904 310.368 12.598C310.549 12.4056 310.765 12.2599 311.016 12.1608C311.272 12.0559 311.558 12.0034 311.873 12.0034C312.292 12.0034 312.657 12.0938 312.966 12.2745C313.275 12.4552 313.514 12.7117 313.683 13.044C313.852 13.3705 313.936 13.7581 313.936 14.207C313.936 14.5452 313.887 14.8512 313.788 15.1252C313.694 15.3992 313.557 15.6324 313.377 15.8248C313.196 16.0172 312.977 16.1658 312.721 16.2708C312.47 16.3699 312.187 16.4194 311.873 16.4194ZM311.873 15.7898C312.129 15.7898 312.351 15.7286 312.537 15.6062C312.73 15.4837 312.875 15.3059 312.974 15.0728C313.079 14.8396 313.132 14.551 313.132 14.207C313.132 13.694 313.018 13.3034 312.791 13.0353C312.563 12.7671 312.257 12.633 311.873 12.633C311.622 12.633 311.4 12.6942 311.208 12.8166C311.021 12.9332 310.876 13.1081 310.771 13.3413C310.666 13.5745 310.613 13.8631 310.613 14.207C310.613 14.7201 310.727 15.1136 310.954 15.3876C311.188 15.6557 311.494 15.7898 311.873 15.7898ZM315.425 16.4019C315.35 16.4019 315.283 16.3874 315.224 16.3582C315.172 16.3291 315.131 16.2824 315.102 16.2183C315.073 16.1542 315.058 16.0726 315.058 15.9734V12.4056C315.058 12.2832 315.09 12.1899 315.154 12.1258C315.218 12.0559 315.309 12.0209 315.425 12.0209C315.536 12.0209 315.624 12.0559 315.688 12.1258C315.752 12.1899 315.784 12.2832 315.784 12.4056V15.5624H315.557L318.023 12.2745C318.069 12.2103 318.127 12.1521 318.197 12.0996C318.267 12.0471 318.361 12.0209 318.477 12.0209C318.559 12.0209 318.626 12.0355 318.678 12.0646C318.731 12.0938 318.769 12.1404 318.792 12.2045C318.821 12.2628 318.836 12.3415 318.836 12.4406V16.0172C318.836 16.1338 318.804 16.227 318.74 16.297C318.681 16.367 318.597 16.4019 318.486 16.4019C318.364 16.4019 318.27 16.367 318.206 16.297C318.148 16.227 318.119 16.1338 318.119 16.0172V12.8516H318.346L315.88 16.1483C315.833 16.2125 315.775 16.2708 315.705 16.3232C315.635 16.3757 315.542 16.4019 315.425 16.4019ZM316.947 11.5399C316.626 11.5399 316.335 11.4612 316.072 11.3038C315.81 11.1406 315.618 10.8987 315.495 10.578C315.46 10.4906 315.455 10.4177 315.478 10.3594C315.507 10.2953 315.557 10.2516 315.627 10.2282C315.696 10.2049 315.758 10.2078 315.81 10.237C315.868 10.2661 315.918 10.3244 315.959 10.4119C316.058 10.6217 316.189 10.7821 316.352 10.8928C316.521 10.9978 316.72 11.0502 316.947 11.0502C317.18 11.0502 317.378 10.9978 317.542 10.8928C317.705 10.7821 317.836 10.6217 317.935 10.4119C317.982 10.3244 318.031 10.2661 318.084 10.237C318.136 10.2078 318.197 10.2049 318.267 10.2282C318.337 10.2516 318.384 10.2953 318.407 10.3594C318.436 10.4177 318.431 10.4906 318.39 10.578C318.25 10.8987 318.055 11.1406 317.804 11.3038C317.553 11.4612 317.268 11.5399 316.947 11.5399ZM320.094 17.5387C319.989 17.5387 319.905 17.5067 319.84 17.4425C319.776 17.3784 319.744 17.2881 319.744 17.1715V16.0959C319.744 15.8335 319.875 15.7024 320.138 15.7024H320.575L320.094 15.8685C320.257 15.6645 320.386 15.4429 320.479 15.2039C320.572 14.9591 320.639 14.6851 320.68 14.3819C320.727 14.073 320.75 13.7232 320.75 13.3326V12.5368C320.75 12.3911 320.788 12.2803 320.864 12.2045C320.945 12.1229 321.059 12.0821 321.205 12.0821H323.382C323.528 12.0821 323.639 12.1229 323.714 12.2045C323.796 12.2803 323.837 12.3911 323.837 12.5368V16.0696L323.469 15.7024H324.125C324.254 15.7024 324.35 15.7373 324.414 15.8073C324.484 15.8714 324.519 15.9676 324.519 16.0959V17.1715C324.519 17.4163 324.405 17.5387 324.178 17.5387C324.061 17.5387 323.974 17.5067 323.915 17.4425C323.857 17.3784 323.828 17.2881 323.828 17.1715V16.3407H320.435V17.1715C320.435 17.4163 320.321 17.5387 320.094 17.5387ZM320.96 15.7024H323.085V12.703H321.449V13.4812C321.449 13.901 321.406 14.3091 321.318 14.7055C321.237 15.0961 321.117 15.4284 320.96 15.7024ZM327.393 16.4194C326.932 16.4194 326.536 16.332 326.204 16.1571C325.877 15.9764 325.623 15.7228 325.443 15.3963C325.262 15.064 325.172 14.6734 325.172 14.2245C325.172 13.7815 325.259 13.3938 325.434 13.0615C325.615 12.7292 325.86 12.4698 326.169 12.2832C326.483 12.0967 326.842 12.0034 327.244 12.0034C327.53 12.0034 327.786 12.0529 328.014 12.1521C328.247 12.2453 328.445 12.3823 328.608 12.563C328.772 12.7438 328.894 12.9653 328.976 13.2276C329.063 13.4841 329.107 13.7756 329.107 14.1021C329.107 14.1954 329.078 14.2682 329.019 14.3207C328.967 14.3674 328.888 14.3907 328.783 14.3907H325.793V13.8835H328.582L328.433 14.0059C328.433 13.7028 328.387 13.4463 328.293 13.2364C328.206 13.0207 328.075 12.8574 327.9 12.7467C327.731 12.6359 327.518 12.5805 327.262 12.5805C326.982 12.5805 326.743 12.6476 326.545 12.7817C326.346 12.9099 326.195 13.0936 326.09 13.3326C325.985 13.5658 325.932 13.8368 325.932 14.1458V14.1983C325.932 14.723 326.058 15.1194 326.308 15.3876C326.559 15.6557 326.921 15.7898 327.393 15.7898C327.579 15.7898 327.769 15.7665 327.961 15.7199C328.159 15.6732 328.349 15.5887 328.53 15.4663C328.617 15.4138 328.696 15.3905 328.766 15.3963C328.841 15.3963 328.903 15.4196 328.949 15.4663C328.996 15.5071 329.025 15.5595 329.037 15.6237C329.048 15.682 329.04 15.7461 329.011 15.816C328.981 15.886 328.926 15.9472 328.844 15.9997C328.652 16.1338 328.422 16.2387 328.154 16.3145C327.891 16.3844 327.638 16.4194 327.393 16.4194ZM330.593 16.4019C330.464 16.4019 330.365 16.367 330.295 16.297C330.225 16.227 330.19 16.125 330.19 15.9909V12.4231C330.19 12.2891 330.225 12.1899 330.295 12.1258C330.365 12.0559 330.464 12.0209 330.593 12.0209C330.721 12.0209 330.817 12.0559 330.881 12.1258C330.951 12.1899 330.986 12.2891 330.986 12.4231V13.831H333.207V12.4231C333.207 12.2891 333.239 12.1899 333.303 12.1258C333.373 12.0559 333.473 12.0209 333.601 12.0209C333.729 12.0209 333.828 12.0559 333.898 12.1258C333.968 12.1899 334.003 12.2891 334.003 12.4231V15.9909C334.003 16.125 333.968 16.227 333.898 16.297C333.828 16.367 333.729 16.4019 333.601 16.4019C333.473 16.4019 333.373 16.367 333.303 16.297C333.239 16.227 333.207 16.125 333.207 15.9909V14.4694H330.986V15.9909C330.986 16.125 330.954 16.227 330.89 16.297C330.826 16.367 330.727 16.4019 330.593 16.4019ZM335.733 16.4019C335.657 16.4019 335.59 16.3874 335.532 16.3582C335.479 16.3291 335.438 16.2824 335.409 16.2183C335.38 16.1542 335.365 16.0726 335.365 15.9734V12.4056C335.365 12.2832 335.397 12.1899 335.462 12.1258C335.526 12.0559 335.616 12.0209 335.733 12.0209C335.843 12.0209 335.931 12.0559 335.995 12.1258C336.059 12.1899 336.091 12.2832 336.091 12.4056V15.5624H335.864L338.33 12.2745C338.376 12.2103 338.435 12.1521 338.505 12.0996C338.575 12.0471 338.668 12.0209 338.785 12.0209C338.866 12.0209 338.933 12.0355 338.986 12.0646C339.038 12.0938 339.076 12.1404 339.099 12.2045C339.129 12.2628 339.143 12.3415 339.143 12.4406V16.0172C339.143 16.1338 339.111 16.227 339.047 16.297C338.989 16.367 338.904 16.4019 338.793 16.4019C338.671 16.4019 338.578 16.367 338.513 16.297C338.455 16.227 338.426 16.1338 338.426 16.0172V12.8516H338.653L336.187 16.1483C336.141 16.2125 336.082 16.2708 336.013 16.3232C335.943 16.3757 335.849 16.4019 335.733 16.4019ZM340.594 16.3932C340.506 16.3932 340.431 16.367 340.366 16.3145C340.302 16.262 340.267 16.1921 340.261 16.1046C340.261 16.0172 340.299 15.9239 340.375 15.8248L341.888 13.9447V14.3382L340.471 12.5893C340.39 12.4902 340.352 12.3969 340.358 12.3095C340.363 12.222 340.396 12.1521 340.454 12.0996C340.518 12.0471 340.597 12.0209 340.69 12.0209C340.789 12.0209 340.871 12.0384 340.935 12.0733C341.005 12.1083 341.069 12.1637 341.127 12.2395L342.334 13.7698H342.054L343.261 12.2395C343.319 12.1637 343.38 12.1083 343.444 12.0733C343.514 12.0384 343.596 12.0209 343.689 12.0209C343.783 12.0209 343.858 12.0471 343.917 12.0996C343.981 12.1521 344.013 12.222 344.013 12.3095C344.019 12.3969 343.984 12.4902 343.908 12.5893L342.5 14.3207V13.9709L344.004 15.8248C344.086 15.9181 344.124 16.0084 344.118 16.0959C344.112 16.1833 344.077 16.2562 344.013 16.3145C343.955 16.367 343.879 16.3932 343.786 16.3932C343.686 16.3932 343.602 16.3757 343.532 16.3407C343.468 16.3057 343.407 16.2504 343.348 16.1746L342.045 14.5393H342.316L341.031 16.1746C340.973 16.2445 340.909 16.2999 340.839 16.3407C340.774 16.3757 340.693 16.3932 340.594 16.3932ZM304.645 28.3844C304.522 28.3844 304.426 28.3466 304.356 28.2708C304.286 28.195 304.251 28.09 304.251 27.956V24.4669C304.251 24.3269 304.286 24.222 304.356 24.1521C304.426 24.0763 304.522 24.0384 304.645 24.0384C304.773 24.0384 304.872 24.0763 304.942 24.1521C305.012 24.222 305.047 24.3269 305.047 24.4669V27.956C305.047 28.09 305.012 28.195 304.942 28.2708C304.878 28.3466 304.779 28.3844 304.645 28.3844ZM304.645 23.094C304.487 23.094 304.362 23.0531 304.269 22.9715C304.181 22.8841 304.137 22.7704 304.137 22.6305C304.137 22.4789 304.181 22.3652 304.269 22.2894C304.362 22.2078 304.487 22.167 304.645 22.167C304.814 22.167 304.939 22.2078 305.021 22.2894C305.108 22.3652 305.152 22.4789 305.152 22.6305C305.152 22.7704 305.108 22.8841 305.021 22.9715C304.939 23.0531 304.814 23.094 304.645 23.094ZM306.822 28.4019C306.694 28.4019 306.595 28.367 306.525 28.297C306.455 28.227 306.42 28.125 306.42 27.9909V24.4231C306.42 24.2891 306.455 24.1899 306.525 24.1258C306.595 24.0559 306.694 24.0209 306.822 24.0209C306.951 24.0209 307.047 24.0559 307.111 24.1258C307.181 24.1899 307.216 24.2891 307.216 24.4231V25.831H309.437V24.4231C309.437 24.2891 309.469 24.1899 309.533 24.1258C309.603 24.0559 309.702 24.0209 309.831 24.0209C309.959 24.0209 310.058 24.0559 310.128 24.1258C310.198 24.1899 310.233 24.2891 310.233 24.4231V27.9909C310.233 28.125 310.198 28.227 310.128 28.297C310.058 28.367 309.959 28.4019 309.831 28.4019C309.702 28.4019 309.603 28.367 309.533 28.297C309.469 28.227 309.437 28.125 309.437 27.9909V26.4694H307.216V27.9909C307.216 28.125 307.184 28.227 307.12 28.297C307.056 28.367 306.957 28.4019 306.822 28.4019ZM312.889 28.4019C312.761 28.4019 312.662 28.367 312.592 28.297C312.522 28.227 312.487 28.125 312.487 27.9909V24.7205H311.245C311.012 24.7205 310.896 24.6126 310.896 24.3969C310.896 24.2978 310.928 24.222 310.992 24.1695C311.056 24.1112 311.141 24.0821 311.245 24.0821H314.516C314.755 24.0821 314.875 24.187 314.875 24.3969C314.875 24.5018 314.842 24.5835 314.778 24.6417C314.72 24.6942 314.633 24.7205 314.516 24.7205H313.283V27.9909C313.283 28.125 313.248 28.227 313.178 28.297C313.114 28.367 313.018 28.4019 312.889 28.4019ZM317.474 28.4194C317.013 28.4194 316.617 28.332 316.285 28.1571C315.958 27.9764 315.705 27.7228 315.524 27.3963C315.343 27.064 315.253 26.6734 315.253 26.2245C315.253 25.7815 315.34 25.3938 315.515 25.0615C315.696 24.7292 315.941 24.4698 316.25 24.2832C316.565 24.0967 316.923 24.0034 317.325 24.0034C317.611 24.0034 317.867 24.0529 318.095 24.1521C318.328 24.2453 318.526 24.3823 318.689 24.563C318.853 24.7438 318.975 24.9653 319.057 25.2276C319.144 25.4841 319.188 25.7756 319.188 26.1021C319.188 26.1954 319.159 26.2682 319.1 26.3207C319.048 26.3674 318.969 26.3907 318.864 26.3907H315.874V25.8835H318.663L318.515 26.0059C318.515 25.7028 318.468 25.4463 318.375 25.2364C318.287 25.0207 318.156 24.8574 317.981 24.7467C317.812 24.6359 317.599 24.5805 317.343 24.5805C317.063 24.5805 316.824 24.6476 316.626 24.7817C316.428 24.9099 316.276 25.0936 316.171 25.3326C316.066 25.5658 316.014 25.8368 316.014 26.1458V26.1983C316.014 26.723 316.139 27.1194 316.39 27.3876C316.64 27.6557 317.002 27.7898 317.474 27.7898C317.661 27.7898 317.85 27.7665 318.042 27.7199C318.241 27.6732 318.43 27.5887 318.611 27.4663C318.698 27.4138 318.777 27.3905 318.847 27.3963C318.923 27.3963 318.984 27.4196 319.031 27.4663C319.077 27.5071 319.106 27.5595 319.118 27.6237C319.13 27.682 319.121 27.7461 319.092 27.816C319.063 27.886 319.007 27.9472 318.926 27.9997C318.733 28.1338 318.503 28.2387 318.235 28.3145C317.972 28.3844 317.719 28.4194 317.474 28.4194ZM320.665 29.976C320.543 29.976 320.446 29.941 320.377 29.871C320.307 29.8011 320.272 29.702 320.272 29.5737V24.4231C320.272 24.2891 320.307 24.1899 320.377 24.1258C320.446 24.0559 320.543 24.0209 320.665 24.0209C320.793 24.0209 320.89 24.0559 320.954 24.1258C321.024 24.1899 321.059 24.2891 321.059 24.4231V25.2189L320.962 25.0615C321.056 24.7409 321.239 24.4843 321.513 24.292C321.787 24.0996 322.117 24.0034 322.501 24.0034C322.88 24.0034 323.21 24.0938 323.49 24.2745C323.769 24.4494 323.988 24.703 324.145 25.0353C324.303 25.3617 324.382 25.7523 324.382 26.207C324.382 26.6559 324.303 27.0494 324.145 27.3876C323.994 27.7199 323.775 27.9764 323.49 28.1571C323.21 28.332 322.88 28.4194 322.501 28.4194C322.123 28.4194 321.796 28.3232 321.522 28.1308C321.248 27.9385 321.064 27.6849 320.971 27.3701H321.067V29.5737C321.067 29.702 321.032 29.8011 320.962 29.871C320.892 29.941 320.793 29.976 320.665 29.976ZM322.318 27.7898C322.568 27.7898 322.787 27.7286 322.974 27.6062C323.166 27.4837 323.315 27.3059 323.42 27.0728C323.525 26.8396 323.577 26.551 323.577 26.207C323.577 25.694 323.463 25.3034 323.236 25.0353C323.009 24.7671 322.703 24.633 322.318 24.633C322.061 24.633 321.837 24.6942 321.644 24.8166C321.458 24.9332 321.312 25.1081 321.207 25.3413C321.108 25.5745 321.059 25.8631 321.059 26.207C321.059 26.7201 321.172 27.1136 321.4 27.3876C321.627 27.6557 321.933 27.7898 322.318 27.7898ZM325.909 28.3407C325.775 28.3407 325.673 28.3057 325.603 28.2358C325.533 28.1658 325.498 28.0638 325.498 27.9297V24.4931C325.498 24.359 325.533 24.257 325.603 24.187C325.673 24.1171 325.775 24.0821 325.909 24.0821H327.623C327.967 24.0821 328.247 24.1258 328.462 24.2133C328.684 24.3007 328.847 24.426 328.952 24.5893C329.057 24.7525 329.109 24.9566 329.109 25.2014C329.109 25.4696 329.016 25.6969 328.83 25.8835C328.643 26.07 328.398 26.1808 328.095 26.2158V26.1021C328.456 26.1138 328.739 26.2187 328.943 26.4169C329.147 26.6093 329.249 26.8571 329.249 27.1602C329.249 27.5216 329.115 27.8102 328.847 28.0259C328.579 28.2358 328.194 28.3407 327.693 28.3407H325.909ZM326.25 27.816H327.649C327.929 27.816 328.142 27.7577 328.287 27.6412C328.439 27.5187 328.515 27.3467 328.515 27.1252C328.515 26.8979 328.439 26.7259 328.287 26.6093C328.142 26.4927 327.929 26.4344 327.649 26.4344H326.25V27.816ZM326.25 25.9097H327.579C327.83 25.9097 328.022 25.8514 328.156 25.7348C328.296 25.6182 328.366 25.4579 328.366 25.2539C328.366 25.044 328.296 24.8837 328.156 24.7729C328.022 24.6622 327.83 24.6068 327.579 24.6068H326.25V25.9097ZM330.751 23.9946C330.693 24.0704 330.629 24.1142 330.559 24.1258C330.495 24.1375 330.436 24.1258 330.384 24.0908C330.337 24.0559 330.311 24.0034 330.305 23.9334C330.299 23.8635 330.329 23.7877 330.393 23.7061C330.492 23.5837 330.559 23.4583 330.594 23.3301C330.635 23.196 330.655 23.0765 330.655 22.9715L330.69 23.1727C330.527 23.1727 330.393 23.126 330.288 23.0327C330.189 22.9395 330.139 22.8141 330.139 22.6567C330.139 22.5051 330.186 22.3827 330.279 22.2894C330.372 22.1903 330.498 22.1408 330.655 22.1408C330.812 22.1408 330.938 22.1962 331.031 22.3069C331.13 22.4119 331.18 22.5693 331.18 22.7791C331.18 22.9016 331.165 23.0327 331.136 23.1727C331.113 23.3067 331.072 23.4437 331.014 23.5837C330.955 23.7236 330.868 23.8606 330.751 23.9946ZM336.001 28.4194C335.611 28.4194 335.27 28.3407 334.978 28.1833C334.687 28.0259 334.454 27.8015 334.279 27.51C334.104 27.2127 333.999 26.8658 333.964 26.4694H333.142V27.9909C333.142 28.125 333.11 28.227 333.046 28.297C332.988 28.367 332.891 28.4019 332.757 28.4019C332.629 28.4019 332.53 28.367 332.46 28.297C332.396 28.227 332.364 28.125 332.364 27.9909V24.4231C332.364 24.2891 332.396 24.1899 332.46 24.1258C332.53 24.0559 332.629 24.0209 332.757 24.0209C332.885 24.0209 332.982 24.0559 333.046 24.1258C333.11 24.1899 333.142 24.2891 333.142 24.4231V25.831H333.973C334.019 25.4463 334.13 25.1198 334.305 24.8516C334.486 24.5776 334.719 24.3678 335.005 24.222C335.296 24.0763 335.628 24.0034 336.001 24.0034C336.421 24.0034 336.786 24.0938 337.095 24.2745C337.404 24.4552 337.643 24.7117 337.812 25.044C337.981 25.3705 338.065 25.7581 338.065 26.207C338.065 26.5452 338.016 26.8512 337.917 27.1252C337.823 27.3992 337.686 27.6324 337.506 27.8248C337.325 28.0172 337.106 28.1658 336.85 28.2708C336.599 28.3699 336.316 28.4194 336.001 28.4194ZM336.001 27.7898C336.258 27.7898 336.48 27.7286 336.666 27.6062C336.858 27.4837 337.004 27.3059 337.103 27.0728C337.208 26.8396 337.261 26.551 337.261 26.207C337.261 25.694 337.147 25.3034 336.92 25.0353C336.692 24.7671 336.386 24.633 336.001 24.633C335.745 24.633 335.521 24.6942 335.328 24.8166C335.142 24.9332 334.996 25.1081 334.891 25.3413C334.792 25.5745 334.742 25.8631 334.742 26.207C334.742 26.7201 334.856 27.1136 335.083 27.3876C335.316 27.6557 335.623 27.7898 336.001 27.7898Z" fill="#333333"/>
<path d="M316.007 47.2159C315.597 47.2159 315.167 47.1459 314.72 47.006C314.281 46.8568 313.88 46.6376 313.516 46.3484C313.395 46.2645 313.316 46.1618 313.279 46.0406C313.251 45.91 313.251 45.7887 313.279 45.6768C313.307 45.5556 313.363 45.453 313.447 45.369C313.53 45.2757 313.633 45.2244 313.754 45.2151C313.885 45.1964 314.02 45.2338 314.16 45.327C314.477 45.5602 314.79 45.7281 315.098 45.8307C315.415 45.9333 315.727 45.9846 316.035 45.9846C316.613 45.9846 317.103 45.8447 317.504 45.5649C317.905 45.2851 318.208 44.8653 318.413 44.3057C318.619 43.746 318.721 43.0511 318.721 42.2209V41.0317H318.875C318.81 41.526 318.651 41.9598 318.399 42.3329C318.157 42.706 317.84 42.9905 317.448 43.1863C317.056 43.3822 316.623 43.4802 316.147 43.4802C315.578 43.4802 315.07 43.3449 314.622 43.0744C314.174 42.8039 313.824 42.4308 313.572 41.9551C313.321 41.4794 313.195 40.9431 313.195 40.3461C313.195 39.7118 313.33 39.1522 313.6 38.6671C313.871 38.1728 314.244 37.7903 314.72 37.5198C315.205 37.24 315.76 37.1001 316.385 37.1001C317.187 37.1001 317.863 37.2913 318.413 37.6737C318.964 38.0468 319.384 38.5972 319.673 39.3247C319.971 40.0523 320.12 40.9244 320.12 41.9411C320.12 42.7899 320.027 43.5408 319.841 44.1937C319.654 44.8467 319.384 45.397 319.029 45.8447C318.675 46.2924 318.241 46.6329 317.728 46.8661C317.224 47.0993 316.651 47.2159 316.007 47.2159ZM316.483 42.2909C316.856 42.2909 317.187 42.207 317.476 42.0391C317.765 41.8712 317.989 41.6333 318.148 41.3255C318.316 41.0177 318.399 40.6679 318.399 40.2761C318.399 39.8751 318.316 39.5253 318.148 39.2268C317.989 38.919 317.765 38.6811 317.476 38.5132C317.187 38.3453 316.856 38.2614 316.483 38.2614C316.1 38.2614 315.764 38.3453 315.475 38.5132C315.195 38.6811 314.972 38.919 314.804 39.2268C314.645 39.5253 314.566 39.8751 314.566 40.2761C314.566 40.6679 314.645 41.0177 314.804 41.3255C314.972 41.6333 315.195 41.8712 315.475 42.0391C315.764 42.207 316.1 42.2909 316.483 42.2909ZM323.305 47.1879C323.137 47.1879 322.993 47.1506 322.871 47.076C322.759 46.992 322.689 46.8801 322.661 46.7402C322.643 46.5909 322.675 46.4277 322.759 46.2505L327.139 37.8976V38.4433H322.326C322.12 38.4433 321.962 38.392 321.85 38.2894C321.738 38.1774 321.682 38.0282 321.682 37.8416C321.682 37.6458 321.738 37.4965 321.85 37.3939C321.962 37.282 322.12 37.226 322.326 37.226H327.824C328.029 37.226 328.193 37.282 328.314 37.3939C328.444 37.4965 328.51 37.6458 328.51 37.8416C328.51 38.0095 328.486 38.1541 328.44 38.2754C328.403 38.3966 328.347 38.5319 328.272 38.6811L324.116 46.7122C324.033 46.8801 323.925 47.0013 323.795 47.076C323.664 47.1506 323.501 47.1879 323.305 47.1879Z" fill="#333333"/>
</g>
<defs>
<clipPath id="clip0_158_246">
<rect width="364" height="59" fill="white"/>
</clipPath>
</defs>
</svg>
