<svg width="568" height="151" viewBox="0 0 568 151" fill="none" xmlns="http://www.w3.org/2000/svg">
<path d="M53.6814 69.1588H26.5684C25.6023 69.1588 24.8192 69.942 24.8192 70.908V80.5288C24.8192 81.4949 25.6023 82.278 26.5684 82.278H53.6814C54.6474 82.278 55.4306 81.4949 55.4306 80.5288V70.908C55.4306 69.942 54.6474 69.1588 53.6814 69.1588Z" fill="#B1D690"/>
<path d="M62.4692 78.2673C62.3666 78.2673 62.2873 78.2394 62.2313 78.1834C62.1754 78.1227 62.1474 78.0388 62.1474 77.9315V73.5724C62.1474 73.4605 62.1754 73.3765 62.2313 73.3205C62.2873 73.2646 62.3666 73.2366 62.4692 73.2366C62.5765 73.2366 62.6581 73.2646 62.7141 73.3205C62.7701 73.3765 62.7981 73.4605 62.7981 73.5724V77.9315C62.7981 78.0388 62.7701 78.1227 62.7141 78.1834C62.6628 78.2394 62.5812 78.2673 62.4692 78.2673ZM64.2515 78.2673C64.1488 78.2673 64.0695 78.2394 64.0136 78.1834C63.9576 78.1274 63.9296 78.0458 63.9296 77.9385V75.0838C63.9296 74.9765 63.9576 74.8972 64.0136 74.8459C64.0695 74.7899 64.1488 74.7619 64.2515 74.7619C64.3541 74.7619 64.4311 74.7899 64.4824 74.8459C64.5383 74.8972 64.5663 74.9765 64.5663 75.0838V76.2103H66.3435V75.0838C66.3435 74.9765 66.3692 74.8972 66.4205 74.8459C66.4765 74.7899 66.5558 74.7619 66.6584 74.7619C66.761 74.7619 66.8403 74.7899 66.8963 74.8459C66.9523 74.8972 66.9802 74.9765 66.9802 75.0838V77.9385C66.9802 78.0458 66.9523 78.1274 66.8963 78.1834C66.8403 78.2394 66.761 78.2673 66.6584 78.2673C66.5558 78.2673 66.4765 78.2394 66.4205 78.1834C66.3692 78.1274 66.3435 78.0458 66.3435 77.9385V76.721H64.5663V77.9385C64.5663 78.0458 64.5407 78.1274 64.4894 78.1834C64.438 78.2394 64.3587 78.2673 64.2515 78.2673ZM68.3992 78.2184C68.2919 78.2184 68.2103 78.1904 68.1543 78.1344C68.0983 78.0784 68.0703 77.9968 68.0703 77.8895V75.0838C68.0703 74.9765 68.096 74.8972 68.1473 74.8459C68.2033 74.7899 68.2779 74.7619 68.3712 74.7619C68.4738 74.7619 68.5508 74.7899 68.6021 74.8459C68.6534 74.8972 68.6791 74.9765 68.6791 75.0838V77.7076H70.0435V75.0838C70.0435 74.9765 70.0691 74.8972 70.1204 74.8459C70.1764 74.7899 70.251 74.7619 70.3443 74.7619C70.4469 74.7619 70.5239 74.7899 70.5752 74.8459C70.6265 74.8972 70.6522 74.9765 70.6522 75.0838V77.7076H72.0166V75.0838C72.0166 74.9765 72.0422 74.8972 72.0935 74.8459C72.1495 74.7899 72.2242 74.7619 72.3174 74.7619C72.4154 74.7619 72.49 74.7899 72.5413 74.8459C72.5973 74.8972 72.6253 74.9765 72.6253 75.0838V77.8895C72.6253 77.9968 72.595 78.0784 72.5344 78.1344C72.4784 78.1904 72.3991 78.2184 72.2965 78.2184H68.3992ZM75.2886 78.2813C74.9201 78.2813 74.6029 78.2114 74.337 78.0714C74.0758 77.9268 73.8729 77.7239 73.7283 77.4627C73.5837 77.1968 73.5114 76.8843 73.5114 76.5251C73.5114 76.1706 73.5814 75.8604 73.7213 75.5945C73.8659 75.3286 74.0618 75.1211 74.309 74.9718C74.5609 74.8225 74.8478 74.7479 75.1697 74.7479C75.3982 74.7479 75.6035 74.7876 75.7854 74.8669C75.972 74.9415 76.1306 75.0511 76.2612 75.1957C76.3918 75.3403 76.4897 75.5176 76.555 75.7275C76.625 75.9327 76.66 76.1659 76.66 76.4272C76.66 76.5018 76.6367 76.5601 76.59 76.6021C76.548 76.6394 76.4851 76.6581 76.4011 76.6581H74.0082V76.2522H76.2402L76.1212 76.3502C76.1212 76.1076 76.0839 75.9024 76.0093 75.7345C75.9393 75.5619 75.8344 75.4313 75.6944 75.3426C75.5592 75.254 75.3889 75.2097 75.1837 75.2097C74.9598 75.2097 74.7685 75.2633 74.6099 75.3706C74.4513 75.4733 74.33 75.6202 74.2461 75.8114C74.1621 75.998 74.1201 76.2149 74.1201 76.4621V76.5041C74.1201 76.9239 74.2204 77.2411 74.421 77.4557C74.6216 77.6703 74.9108 77.7776 75.2886 77.7776C75.4379 77.7776 75.5895 77.7589 75.7434 77.7216C75.902 77.6843 76.0536 77.6166 76.1982 77.5187C76.2682 77.4767 76.3311 77.458 76.3871 77.4627C76.4478 77.4627 76.4967 77.4814 76.5341 77.5187C76.5714 77.5513 76.5947 77.5933 76.604 77.6446C76.6134 77.6913 76.6064 77.7426 76.583 77.7985C76.5597 77.8545 76.5154 77.9035 76.4501 77.9455C76.2962 78.0528 76.1119 78.1367 75.8973 78.1974C75.6874 78.2533 75.4845 78.2813 75.2886 78.2813Z" fill="#333333"/>
<path d="M112.78 69.1588H85.6671C84.701 69.1588 83.9179 69.942 83.9179 70.908V80.5288C83.9179 81.4949 84.701 82.278 85.6671 82.278H112.78C113.746 82.278 114.529 81.4949 114.529 80.5288V70.908C114.529 69.942 113.746 69.1588 112.78 69.1588Z" fill="#A6AEBF"/>
<path d="M121.596 78.2184C121.484 78.2184 121.398 78.188 121.337 78.1274C121.276 78.0668 121.246 77.9805 121.246 77.8685V73.6354C121.246 73.5235 121.276 73.4372 121.337 73.3765C121.398 73.3159 121.484 73.2856 121.596 73.2856H124.29C124.378 73.2856 124.446 73.3089 124.493 73.3555C124.539 73.3975 124.563 73.4605 124.563 73.5444C124.563 73.6331 124.539 73.7007 124.493 73.7474C124.446 73.794 124.378 73.8173 124.29 73.8173H121.876V75.4336H123.338C123.861 75.4336 124.264 75.5502 124.549 75.7834C124.838 76.0167 124.982 76.3619 124.982 76.819C124.982 77.2761 124.838 77.6236 124.549 77.8615C124.264 78.0994 123.861 78.2184 123.338 78.2184H121.596ZM121.876 77.6866H123.268C123.632 77.6866 123.903 77.6166 124.08 77.4767C124.257 77.3321 124.346 77.1152 124.346 76.826C124.346 76.5321 124.257 76.3152 124.08 76.1753C123.903 76.0353 123.632 75.9654 123.268 75.9654H121.876V77.6866ZM127.411 78.2813C127.042 78.2813 126.725 78.2114 126.459 78.0714C126.198 77.9268 125.995 77.7239 125.851 77.4627C125.706 77.1968 125.634 76.8843 125.634 76.5251C125.634 76.1706 125.704 75.8604 125.844 75.5945C125.988 75.3286 126.184 75.1211 126.431 74.9718C126.683 74.8225 126.97 74.7479 127.292 74.7479C127.521 74.7479 127.726 74.7876 127.908 74.8669C128.094 74.9415 128.253 75.0511 128.384 75.1957C128.514 75.3403 128.612 75.5176 128.677 75.7275C128.747 75.9327 128.782 76.1659 128.782 76.4272C128.782 76.5018 128.759 76.5601 128.712 76.6021C128.67 76.6394 128.607 76.6581 128.523 76.6581H126.131V76.2522H128.363L128.244 76.3502C128.244 76.1076 128.206 75.9024 128.132 75.7345C128.062 75.5619 127.957 75.4313 127.817 75.3426C127.682 75.254 127.511 75.2097 127.306 75.2097C127.082 75.2097 126.891 75.2633 126.732 75.3706C126.574 75.4733 126.452 75.6202 126.368 75.8114C126.284 75.998 126.242 76.2149 126.242 76.4621V76.5041C126.242 76.9239 126.343 77.2411 126.543 77.4557C126.744 77.6703 127.033 77.7776 127.411 77.7776C127.56 77.7776 127.712 77.7589 127.866 77.7216C128.024 77.6843 128.176 77.6166 128.321 77.5187C128.391 77.4767 128.453 77.458 128.509 77.4627C128.57 77.4627 128.619 77.4814 128.656 77.5187C128.694 77.5513 128.717 77.5933 128.726 77.6446C128.736 77.6913 128.729 77.7426 128.705 77.7985C128.682 77.8545 128.638 77.9035 128.572 77.9455C128.419 78.0528 128.234 78.1367 128.02 78.1974C127.81 78.2533 127.607 78.2813 127.411 78.2813ZM130.804 78.2813C130.566 78.2813 130.333 78.2557 130.104 78.2044C129.876 78.1484 129.68 78.0691 129.516 77.9665C129.451 77.9338 129.405 77.8918 129.377 77.8405C129.353 77.7892 129.344 77.7379 129.349 77.6866C129.353 77.6353 129.372 77.591 129.405 77.5537C129.442 77.5163 129.486 77.4954 129.537 77.4907C129.593 77.4814 129.659 77.4954 129.733 77.5327C129.883 77.6213 130.051 77.6889 130.237 77.7356C130.424 77.7776 130.61 77.7985 130.797 77.7985C131.123 77.7985 131.357 77.7519 131.497 77.6586C131.637 77.5653 131.706 77.43 131.706 77.2528C131.706 77.0802 131.648 76.9496 131.532 76.861C131.415 76.7723 131.249 76.728 131.035 76.728H130.419C130.34 76.728 130.274 76.707 130.223 76.6651C130.177 76.6184 130.153 76.5601 130.153 76.4901C130.153 76.4155 130.177 76.3572 130.223 76.3152C130.274 76.2732 130.34 76.2522 130.419 76.2522H130.958C131.154 76.2522 131.308 76.2103 131.42 76.1263C131.536 76.0377 131.595 75.9164 131.595 75.7625C131.595 75.5992 131.532 75.4709 131.406 75.3776C131.28 75.2797 131.072 75.2307 130.783 75.2307C130.601 75.2307 130.428 75.2517 130.265 75.2937C130.102 75.331 129.943 75.3893 129.789 75.4686C129.701 75.5152 129.624 75.5292 129.558 75.5106C129.498 75.4872 129.454 75.4476 129.426 75.3916C129.398 75.331 129.393 75.2703 129.412 75.2097C129.435 75.1444 129.484 75.0931 129.558 75.0558C129.75 74.9485 129.955 74.8715 130.174 74.8249C130.393 74.7736 130.624 74.7479 130.867 74.7479C131.305 74.7479 131.634 74.8319 131.853 74.9998C132.073 75.1677 132.182 75.4033 132.182 75.7065C132.182 75.9211 132.108 76.103 131.958 76.2522C131.814 76.4015 131.618 76.4901 131.371 76.5181V76.4272C131.655 76.4365 131.881 76.5181 132.049 76.6721C132.222 76.8213 132.308 77.0219 132.308 77.2738C132.308 77.577 132.18 77.8219 131.923 78.0085C131.672 78.1904 131.298 78.2813 130.804 78.2813ZM135.315 78.2184C135.207 78.2184 135.126 78.1904 135.07 78.1344C135.014 78.0784 134.986 77.9968 134.986 77.8895V75.1397C134.986 75.0324 135.014 74.9508 135.07 74.8948C135.126 74.8389 135.207 74.8109 135.315 74.8109H136.686C136.961 74.8109 137.185 74.8459 137.358 74.9158C137.535 74.9858 137.666 75.0861 137.75 75.2167C137.834 75.3473 137.876 75.5106 137.876 75.7065C137.876 75.9211 137.801 76.103 137.652 76.2522C137.502 76.4015 137.307 76.4901 137.064 76.5181V76.4272C137.353 76.4365 137.579 76.5205 137.743 76.679C137.906 76.833 137.988 77.0312 137.988 77.2738C137.988 77.563 137.88 77.7939 137.666 77.9665C137.451 78.1344 137.143 78.2184 136.742 78.2184H135.315ZM135.588 77.7985H136.707C136.931 77.7985 137.101 77.7519 137.218 77.6586C137.339 77.5607 137.4 77.423 137.4 77.2458C137.4 77.0639 137.339 76.9263 137.218 76.833C137.101 76.7397 136.931 76.693 136.707 76.693H135.588V77.7985ZM135.588 76.2732H136.651C136.852 76.2732 137.006 76.2266 137.113 76.1333C137.225 76.04 137.281 75.9117 137.281 75.7485C137.281 75.5805 137.225 75.4523 137.113 75.3636C137.006 75.275 136.852 75.2307 136.651 75.2307H135.588V76.2732ZM139.161 78.2533C139.063 78.2533 138.986 78.223 138.93 78.1624C138.874 78.1017 138.846 78.0178 138.846 77.9105V75.1187C138.846 75.0068 138.874 74.9228 138.93 74.8669C138.986 74.8062 139.063 74.7759 139.161 74.7759C139.264 74.7759 139.343 74.8062 139.399 74.8669C139.455 74.9228 139.483 75.0068 139.483 75.1187V77.9105C139.483 78.0178 139.455 78.1017 139.399 78.1624C139.348 78.223 139.269 78.2533 139.161 78.2533ZM139.161 74.0202C139.035 74.0202 138.935 73.9876 138.86 73.9223C138.791 73.8523 138.756 73.7613 138.756 73.6494C138.756 73.5281 138.791 73.4372 138.86 73.3765C138.935 73.3112 139.035 73.2786 139.161 73.2786C139.297 73.2786 139.397 73.3112 139.462 73.3765C139.532 73.4372 139.567 73.5281 139.567 73.6494C139.567 73.7613 139.532 73.8523 139.462 73.9223C139.397 73.9876 139.297 74.0202 139.161 74.0202ZM140.498 79.1769C140.414 79.1769 140.346 79.1513 140.295 79.1C140.244 79.0487 140.218 78.9764 140.218 78.8831V78.0224C140.218 77.8125 140.323 77.7076 140.533 77.7076H140.883L140.498 77.8405C140.629 77.6773 140.731 77.5 140.806 77.3088C140.881 77.1129 140.934 76.8936 140.967 76.6511C141.004 76.4038 141.023 76.124 141.023 75.8114V75.1747C141.023 75.0581 141.053 74.9695 141.114 74.9088C141.179 74.8435 141.27 74.8109 141.387 74.8109H143.129C143.246 74.8109 143.334 74.8435 143.395 74.9088C143.46 74.9695 143.493 75.0581 143.493 75.1747V78.0015L143.199 77.7076H143.724C143.826 77.7076 143.903 77.7356 143.955 77.7916C144.011 77.8429 144.039 77.9198 144.039 78.0224V78.8831C144.039 79.079 143.948 79.1769 143.766 79.1769C143.672 79.1769 143.602 79.1513 143.556 79.1C143.509 79.0487 143.486 78.9764 143.486 78.8831V78.2184H140.771V78.8831C140.771 79.079 140.68 79.1769 140.498 79.1769ZM141.191 77.7076H142.891V75.3077H141.583V75.9304C141.583 76.2662 141.548 76.5928 141.478 76.9099C141.412 77.2225 141.317 77.4884 141.191 77.7076ZM145.086 78.2673C144.983 78.2673 144.904 78.2394 144.848 78.1834C144.792 78.1274 144.764 78.0458 144.764 77.9385V75.1747C144.764 75.0581 144.794 74.9695 144.855 74.9088C144.92 74.8435 145.011 74.8109 145.128 74.8109H147.43C147.546 74.8109 147.635 74.8435 147.695 74.9088C147.761 74.9695 147.793 75.0581 147.793 75.1747V77.9385C147.793 78.0458 147.765 78.1274 147.709 78.1834C147.653 78.2394 147.574 78.2673 147.472 78.2673C147.369 78.2673 147.29 78.2394 147.234 78.1834C147.182 78.1274 147.157 78.0458 147.157 77.9385V75.3217H145.4V77.9385C145.4 78.0458 145.375 78.1274 145.324 78.1834C145.272 78.2394 145.193 78.2673 145.086 78.2673ZM150.332 78.2813C149.997 78.2813 149.705 78.209 149.458 78.0644C149.211 77.9198 149.019 77.7146 148.884 77.4487C148.749 77.1828 148.681 76.8703 148.681 76.5111C148.681 76.2406 148.718 75.998 148.793 75.7834C148.872 75.5642 148.984 75.3776 149.129 75.2237C149.274 75.0698 149.446 74.9531 149.647 74.8739C149.852 74.7899 150.08 74.7479 150.332 74.7479C150.668 74.7479 150.96 74.8202 151.207 74.9648C151.454 75.1094 151.645 75.3147 151.781 75.5805C151.916 75.8418 151.984 76.1519 151.984 76.5111C151.984 76.7817 151.944 77.0266 151.865 77.2458C151.79 77.465 151.68 77.6516 151.536 77.8055C151.391 77.9595 151.216 78.0784 151.011 78.1624C150.81 78.2417 150.584 78.2813 150.332 78.2813ZM150.332 77.7776C150.538 77.7776 150.715 77.7286 150.864 77.6306C151.018 77.5327 151.135 77.3904 151.214 77.2038C151.298 77.0172 151.34 76.7863 151.34 76.5111C151.34 76.1006 151.249 75.7881 151.067 75.5735C150.885 75.359 150.64 75.2517 150.332 75.2517C150.132 75.2517 149.955 75.3007 149.801 75.3986C149.651 75.4919 149.535 75.6318 149.451 75.8184C149.367 76.005 149.325 76.2359 149.325 76.5111C149.325 76.9216 149.416 77.2365 149.598 77.4557C149.784 77.6703 150.029 77.7776 150.332 77.7776ZM153.21 78.2184C153.103 78.2184 153.021 78.1904 152.965 78.1344C152.909 78.0784 152.881 77.9968 152.881 77.8895V75.1397C152.881 75.0324 152.909 74.9508 152.965 74.8948C153.021 74.8389 153.103 74.8109 153.21 74.8109H154.581C154.857 74.8109 155.081 74.8459 155.253 74.9158C155.43 74.9858 155.561 75.0861 155.645 75.2167C155.729 75.3473 155.771 75.5106 155.771 75.7065C155.771 75.9211 155.696 76.103 155.547 76.2522C155.398 76.4015 155.202 76.4901 154.959 76.5181V76.4272C155.249 76.4365 155.475 76.5205 155.638 76.679C155.801 76.833 155.883 77.0312 155.883 77.2738C155.883 77.563 155.776 77.7939 155.561 77.9665C155.346 78.1344 155.039 78.2184 154.637 78.2184H153.21ZM153.483 77.7985H154.602C154.826 77.7985 154.997 77.7519 155.113 77.6586C155.235 77.5607 155.295 77.423 155.295 77.2458C155.295 77.0639 155.235 76.9263 155.113 76.833C154.997 76.7397 154.826 76.693 154.602 76.693H153.483V77.7985ZM153.483 76.2732H154.547C154.747 76.2732 154.901 76.2266 155.008 76.1333C155.12 76.04 155.176 75.9117 155.176 75.7485C155.176 75.5805 155.12 75.4523 155.008 75.3636C154.901 75.275 154.747 75.2307 154.547 75.2307H153.483V76.2732ZM157.057 78.2533C156.959 78.2533 156.882 78.223 156.826 78.1624C156.77 78.1017 156.742 78.0178 156.742 77.9105V75.1187C156.742 75.0068 156.77 74.9228 156.826 74.8669C156.882 74.8062 156.959 74.7759 157.057 74.7759C157.159 74.7759 157.239 74.8062 157.295 74.8669C157.351 74.9228 157.379 75.0068 157.379 75.1187V77.9105C157.379 78.0178 157.351 78.1017 157.295 78.1624C157.243 78.223 157.164 78.2533 157.057 78.2533ZM157.057 74.0202C156.931 74.0202 156.83 73.9876 156.756 73.9223C156.686 73.8523 156.651 73.7613 156.651 73.6494C156.651 73.5281 156.686 73.4372 156.756 73.3765C156.83 73.3112 156.931 73.2786 157.057 73.2786C157.192 73.2786 157.292 73.3112 157.358 73.3765C157.428 73.4372 157.463 73.5281 157.463 73.6494C157.463 73.7613 157.428 73.8523 157.358 73.9223C157.292 73.9876 157.192 74.0202 157.057 74.0202ZM158.393 79.1769C158.309 79.1769 158.242 79.1513 158.191 79.1C158.139 79.0487 158.114 78.9764 158.114 78.8831V78.0224C158.114 77.8125 158.219 77.7076 158.428 77.7076H158.778L158.393 77.8405C158.524 77.6773 158.627 77.5 158.701 77.3088C158.776 77.1129 158.83 76.8936 158.862 76.6511C158.9 76.4038 158.918 76.124 158.918 75.8114V75.1747C158.918 75.0581 158.949 74.9695 159.009 74.9088C159.074 74.8435 159.165 74.8109 159.282 74.8109H161.024C161.141 74.8109 161.23 74.8435 161.29 74.9088C161.355 74.9695 161.388 75.0581 161.388 75.1747V78.0015L161.094 77.7076H161.619C161.722 77.7076 161.799 77.7356 161.85 77.7916C161.906 77.8429 161.934 77.9198 161.934 78.0224V78.8831C161.934 79.079 161.843 79.1769 161.661 79.1769C161.568 79.1769 161.498 79.1513 161.451 79.1C161.404 79.0487 161.381 78.9764 161.381 78.8831V78.2184H158.666V78.8831C158.666 79.079 158.575 79.1769 158.393 79.1769ZM159.086 77.7076H160.786V75.3077H159.478V75.9304C159.478 76.2662 159.443 76.5928 159.373 76.9099C159.308 77.2225 159.212 77.4884 159.086 77.7076ZM162.974 78.2533C162.876 78.2533 162.799 78.223 162.743 78.1624C162.687 78.1017 162.659 78.0178 162.659 77.9105V75.1187C162.659 75.0068 162.687 74.9228 162.743 74.8669C162.799 74.8062 162.876 74.7759 162.974 74.7759C163.077 74.7759 163.156 74.8062 163.212 74.8669C163.268 74.9228 163.296 75.0068 163.296 75.1187V77.9105C163.296 78.0178 163.268 78.1017 163.212 78.1624C163.161 78.223 163.081 78.2533 162.974 78.2533ZM162.974 74.0202C162.848 74.0202 162.748 73.9876 162.673 73.9223C162.603 73.8523 162.568 73.7613 162.568 73.6494C162.568 73.5281 162.603 73.4372 162.673 73.3765C162.748 73.3112 162.848 73.2786 162.974 73.2786C163.109 73.2786 163.21 73.3112 163.275 73.3765C163.345 73.4372 163.38 73.5281 163.38 73.6494C163.38 73.7613 163.345 73.8523 163.275 73.9223C163.21 73.9876 163.109 74.0202 162.974 74.0202Z" fill="#333333"/>
<path d="M200.015 69.1588H172.902C171.936 69.1588 171.153 69.942 171.153 70.908V80.5288C171.153 81.4949 171.936 82.278 172.902 82.278H200.015C200.981 82.278 201.764 81.4949 201.764 80.5288V70.908C201.764 69.942 200.981 69.1588 200.015 69.1588Z" fill="#CDC1FF"/>
<path d="M208.803 78.2673C208.7 78.2673 208.621 78.2394 208.565 78.1834C208.509 78.1227 208.481 78.0388 208.481 77.9315V73.5724C208.481 73.4605 208.509 73.3765 208.565 73.3205C208.621 73.2646 208.7 73.2366 208.803 73.2366C208.91 73.2366 208.992 73.2646 209.048 73.3205C209.104 73.3765 209.132 73.4605 209.132 73.5724V75.4406H211.986V73.5724C211.986 73.4605 212.014 73.3765 212.07 73.3205C212.126 73.2646 212.208 73.2366 212.315 73.2366C212.418 73.2366 212.497 73.2646 212.553 73.3205C212.609 73.3765 212.637 73.4605 212.637 73.5724V77.9315C212.637 78.0388 212.609 78.1227 212.553 78.1834C212.497 78.2394 212.418 78.2673 212.315 78.2673C212.208 78.2673 212.126 78.2394 212.07 78.1834C212.014 78.1227 211.986 78.0388 211.986 77.9315V75.9934H209.132V77.9315C209.132 78.0388 209.104 78.1227 209.048 78.1834C208.996 78.2394 208.915 78.2673 208.803 78.2673ZM215.35 78.2813C214.981 78.2813 214.664 78.2114 214.398 78.0714C214.137 77.9268 213.934 77.7239 213.789 77.4627C213.645 77.1968 213.572 76.8843 213.572 76.5251C213.572 76.1706 213.642 75.8604 213.782 75.5945C213.927 75.3286 214.123 75.1211 214.37 74.9718C214.622 74.8225 214.909 74.7479 215.231 74.7479C215.459 74.7479 215.664 74.7876 215.846 74.8669C216.033 74.9415 216.192 75.0511 216.322 75.1957C216.453 75.3403 216.551 75.5176 216.616 75.7275C216.686 75.9327 216.721 76.1659 216.721 76.4272C216.721 76.5018 216.698 76.5601 216.651 76.6021C216.609 76.6394 216.546 76.6581 216.462 76.6581H214.069V76.2522H216.301L216.182 76.3502C216.182 76.1076 216.145 75.9024 216.07 75.7345C216 75.5619 215.895 75.4313 215.755 75.3426C215.62 75.254 215.45 75.2097 215.245 75.2097C215.021 75.2097 214.83 75.2633 214.671 75.3706C214.512 75.4733 214.391 75.6202 214.307 75.8114C214.223 75.998 214.181 76.2149 214.181 76.4621V76.5041C214.181 76.9239 214.281 77.2411 214.482 77.4557C214.683 77.6703 214.972 77.7776 215.35 77.7776C215.499 77.7776 215.65 77.7589 215.804 77.7216C215.963 77.6843 216.115 77.6166 216.259 77.5187C216.329 77.4767 216.392 77.458 216.448 77.4627C216.509 77.4627 216.558 77.4814 216.595 77.5187C216.632 77.5513 216.656 77.5933 216.665 77.6446C216.674 77.6913 216.667 77.7426 216.644 77.7985C216.621 77.8545 216.576 77.9035 216.511 77.9455C216.357 78.0528 216.173 78.1367 215.958 78.1974C215.748 78.2533 215.546 78.2813 215.35 78.2813ZM220.497 78.2813C220.264 78.2813 220.051 78.2347 219.86 78.1414C219.674 78.0481 219.527 77.9222 219.419 77.7636C219.317 77.605 219.266 77.4277 219.266 77.2318C219.266 76.9799 219.328 76.7817 219.454 76.6371C219.58 76.4925 219.793 76.3898 220.091 76.3292C220.39 76.2639 220.791 76.2312 221.295 76.2312H221.623V76.6371H221.309C220.949 76.6371 220.665 76.6534 220.455 76.686C220.25 76.7187 220.105 76.777 220.021 76.861C219.937 76.9403 219.895 77.0522 219.895 77.1968C219.895 77.3787 219.958 77.528 220.084 77.6446C220.215 77.7612 220.392 77.8195 220.616 77.8195C220.793 77.8195 220.949 77.7776 221.085 77.6936C221.22 77.605 221.327 77.4884 221.407 77.3438C221.486 77.1945 221.526 77.0242 221.526 76.833V76.0283C221.526 75.7531 221.47 75.5549 221.358 75.4336C221.246 75.3077 221.057 75.2447 220.791 75.2447C220.637 75.2447 220.478 75.2657 220.315 75.3077C220.152 75.3496 219.982 75.4149 219.804 75.5036C219.734 75.5362 219.674 75.5479 219.622 75.5386C219.571 75.5246 219.529 75.4966 219.496 75.4546C219.468 75.4079 219.452 75.359 219.447 75.3077C219.447 75.2517 219.459 75.198 219.482 75.1467C219.51 75.0954 219.557 75.0581 219.622 75.0348C219.828 74.9322 220.031 74.8599 220.231 74.8179C220.436 74.7712 220.628 74.7479 220.805 74.7479C221.108 74.7479 221.358 74.7969 221.553 74.8948C221.749 74.9881 221.896 75.1351 221.994 75.3356C222.092 75.5316 222.141 75.7834 222.141 76.0913V77.9385C222.141 78.0458 222.116 78.1274 222.064 78.1834C222.013 78.2394 221.938 78.2673 221.84 78.2673C221.747 78.2673 221.672 78.2394 221.616 78.1834C221.565 78.1274 221.54 78.0458 221.54 77.9385V77.4417H221.602C221.565 77.6143 221.495 77.7636 221.393 77.8895C221.29 78.0155 221.162 78.1134 221.008 78.1834C220.858 78.2487 220.688 78.2813 220.497 78.2813ZM223.54 78.2673C223.438 78.2673 223.358 78.2394 223.302 78.1834C223.246 78.1274 223.218 78.0458 223.218 77.9385V75.0978C223.218 74.9951 223.246 74.9158 223.302 74.8599C223.358 74.8039 223.438 74.7759 223.54 74.7759C223.643 74.7759 223.72 74.8039 223.771 74.8599C223.827 74.9158 223.855 74.9951 223.855 75.0978V76.2103H224.457L225.464 74.9158C225.511 74.8505 225.565 74.8109 225.625 74.7969C225.686 74.7782 225.744 74.7782 225.8 74.7969C225.856 74.8109 225.903 74.8412 225.94 74.8878C225.977 74.9345 225.996 74.9881 225.996 75.0488C225.996 75.1094 225.97 75.1724 225.919 75.2377L224.968 76.4761L224.807 76.2802C224.933 76.2942 225.045 76.3269 225.143 76.3782C225.24 76.4295 225.334 76.5065 225.422 76.6091C225.511 76.7117 225.607 76.8493 225.709 77.0219L226.185 77.8335C226.227 77.9035 226.241 77.9688 226.227 78.0294C226.218 78.0901 226.19 78.1414 226.143 78.1834C226.101 78.2207 226.05 78.244 225.989 78.2533C225.928 78.2673 225.868 78.2603 225.807 78.2324C225.747 78.209 225.695 78.1624 225.653 78.0924L225.122 77.1968C225.047 77.0709 224.975 76.9729 224.905 76.9029C224.835 76.833 224.758 76.784 224.674 76.756C224.59 76.728 224.487 76.714 224.366 76.714H223.855V77.9385C223.855 78.0458 223.827 78.1274 223.771 78.1834C223.72 78.2394 223.643 78.2673 223.54 78.2673ZM227.992 78.2673C227.889 78.2673 227.81 78.2394 227.754 78.1834C227.698 78.1274 227.67 78.0458 227.67 77.9385V75.3217H226.676C226.49 75.3217 226.396 75.2354 226.396 75.0628C226.396 74.9835 226.422 74.9228 226.473 74.8808C226.524 74.8342 226.592 74.8109 226.676 74.8109H229.293C229.484 74.8109 229.58 74.8948 229.58 75.0628C229.58 75.1467 229.554 75.212 229.503 75.2587C229.456 75.3007 229.386 75.3217 229.293 75.3217H228.306V77.9385C228.306 78.0458 228.278 78.1274 228.222 78.1834C228.171 78.2394 228.094 78.2673 227.992 78.2673ZM230.91 79.5268C230.835 79.5268 230.772 79.5058 230.721 79.4638C230.675 79.4265 230.647 79.3728 230.637 79.3029C230.633 79.2376 230.647 79.1676 230.679 79.093L231.155 78.0155V78.2813L229.833 75.2027C229.8 75.1234 229.788 75.0511 229.798 74.9858C229.807 74.9205 229.837 74.8669 229.889 74.8249C229.945 74.7829 230.019 74.7619 230.112 74.7619C230.192 74.7619 230.255 74.7806 230.301 74.8179C230.348 74.8552 230.392 74.9205 230.434 75.0138L231.533 77.7216H231.337L232.456 75.0138C232.494 74.9205 232.538 74.8552 232.589 74.8179C232.641 74.7806 232.711 74.7619 232.799 74.7619C232.879 74.7619 232.939 74.7829 232.981 74.8249C233.028 74.8669 233.056 74.9205 233.065 74.9858C233.074 75.0511 233.06 75.1211 233.023 75.1957L231.26 79.2749C231.213 79.3728 231.164 79.4382 231.113 79.4708C231.066 79.5081 230.999 79.5268 230.91 79.5268ZM234.846 78.2813C234.613 78.2813 234.401 78.2347 234.209 78.1414C234.023 78.0481 233.876 77.9222 233.769 77.7636C233.666 77.605 233.615 77.4277 233.615 77.2318C233.615 76.9799 233.678 76.7817 233.804 76.6371C233.929 76.4925 234.142 76.3898 234.44 76.3292C234.739 76.2639 235.14 76.2312 235.644 76.2312H235.973V76.6371H235.658C235.299 76.6371 235.014 76.6534 234.804 76.686C234.599 76.7187 234.454 76.777 234.37 76.861C234.286 76.9403 234.244 77.0522 234.244 77.1968C234.244 77.3787 234.307 77.528 234.433 77.6446C234.564 77.7612 234.741 77.8195 234.965 77.8195C235.142 77.8195 235.299 77.7776 235.434 77.6936C235.569 77.605 235.676 77.4884 235.756 77.3438C235.835 77.1945 235.875 77.0242 235.875 76.833V76.0283C235.875 75.7531 235.819 75.5549 235.707 75.4336C235.595 75.3077 235.406 75.2447 235.14 75.2447C234.986 75.2447 234.827 75.2657 234.664 75.3077C234.501 75.3496 234.331 75.4149 234.153 75.5036C234.083 75.5362 234.023 75.5479 233.971 75.5386C233.92 75.5246 233.878 75.4966 233.845 75.4546C233.818 75.4079 233.801 75.359 233.797 75.3077C233.797 75.2517 233.808 75.198 233.831 75.1467C233.859 75.0954 233.906 75.0581 233.971 75.0348C234.177 74.9322 234.38 74.8599 234.58 74.8179C234.785 74.7712 234.977 74.7479 235.154 74.7479C235.457 74.7479 235.707 74.7969 235.903 74.8948C236.098 74.9881 236.245 75.1351 236.343 75.3356C236.441 75.5316 236.49 75.7834 236.49 76.0913V77.9385C236.49 78.0458 236.465 78.1274 236.413 78.1834C236.362 78.2394 236.287 78.2673 236.189 78.2673C236.096 78.2673 236.022 78.2394 235.966 78.1834C235.914 78.1274 235.889 78.0458 235.889 77.9385V77.4417H235.952C235.914 77.6143 235.844 77.7636 235.742 77.8895C235.639 78.0155 235.511 78.1134 235.357 78.1834C235.208 78.2487 235.037 78.2813 234.846 78.2813ZM240.212 78.2673C240.11 78.2673 240.03 78.2394 239.974 78.1834C239.918 78.1274 239.89 78.0458 239.89 77.9385V75.3217H238.589V75.7415C238.589 76.096 238.57 76.4108 238.533 76.686C238.496 76.9566 238.437 77.1922 238.358 77.3927C238.283 77.5933 238.183 77.7612 238.057 77.8965C237.936 78.0318 237.784 78.1414 237.602 78.2254C237.532 78.258 237.467 78.2673 237.407 78.2533C237.346 78.244 237.295 78.2184 237.253 78.1764C237.215 78.1344 237.19 78.0854 237.176 78.0294C237.166 77.9735 237.173 77.9175 237.197 77.8615C237.22 77.8055 237.267 77.7589 237.337 77.7216C237.467 77.6469 237.574 77.556 237.658 77.4487C237.742 77.3368 237.808 77.2015 237.854 77.0429C237.906 76.8843 237.941 76.6977 237.959 76.4831C237.983 76.2686 237.994 76.0167 237.994 75.7275V75.1747C237.994 75.0581 238.025 74.9695 238.085 74.9088C238.151 74.8435 238.241 74.8109 238.358 74.8109H240.17C240.287 74.8109 240.376 74.8435 240.436 74.9088C240.497 74.9695 240.527 75.0581 240.527 75.1747V77.9385C240.527 78.0458 240.499 78.1274 240.443 78.1834C240.387 78.2394 240.31 78.2673 240.212 78.2673ZM241.948 78.2184C241.841 78.2184 241.759 78.1904 241.703 78.1344C241.647 78.0784 241.619 77.9968 241.619 77.8895V75.0838C241.619 74.9765 241.647 74.8972 241.703 74.8459C241.759 74.7899 241.839 74.7619 241.941 74.7619C242.044 74.7619 242.121 74.7899 242.172 74.8459C242.228 74.8972 242.256 74.9765 242.256 75.0838V76.0073H243.257C243.695 76.0073 244.026 76.103 244.25 76.2942C244.474 76.4808 244.586 76.7513 244.586 77.1059C244.586 77.3298 244.532 77.5257 244.425 77.6936C244.322 77.8615 244.171 77.9921 243.97 78.0854C243.774 78.174 243.536 78.2184 243.257 78.2184H241.948ZM242.256 77.7776H243.18C243.436 77.7776 243.634 77.7239 243.774 77.6166C243.914 77.5047 243.984 77.3344 243.984 77.1059C243.984 76.882 243.914 76.7164 243.774 76.6091C243.634 76.5018 243.436 76.4482 243.18 76.4482H242.256V77.7776ZM245.727 78.2673C245.624 78.2673 245.545 78.2394 245.489 78.1834C245.433 78.1274 245.405 78.0458 245.405 77.9385V75.0838C245.405 74.9765 245.433 74.8972 245.489 74.8459C245.545 74.7899 245.624 74.7619 245.727 74.7619C245.829 74.7619 245.906 74.7899 245.958 74.8459C246.014 74.8972 246.041 74.9765 246.041 75.0838V76.2103H247.819V75.0838C247.819 74.9765 247.844 74.8972 247.896 74.8459C247.952 74.7899 248.031 74.7619 248.134 74.7619C248.236 74.7619 248.315 74.7899 248.371 74.8459C248.427 74.8972 248.455 74.9765 248.455 75.0838V77.9385C248.455 78.0458 248.427 78.1274 248.371 78.1834C248.315 78.2394 248.236 78.2673 248.134 78.2673C248.031 78.2673 247.952 78.2394 247.896 78.1834C247.844 78.1274 247.819 78.0458 247.819 77.9385V76.721H246.041V77.9385C246.041 78.0458 246.016 78.1274 245.965 78.1834C245.913 78.2394 245.834 78.2673 245.727 78.2673ZM250.994 78.2813C250.658 78.2813 250.366 78.209 250.119 78.0644C249.872 77.9198 249.681 77.7146 249.546 77.4487C249.41 77.1828 249.343 76.8703 249.343 76.5111C249.343 76.2406 249.38 75.998 249.455 75.7834C249.534 75.5642 249.646 75.3776 249.79 75.2237C249.935 75.0698 250.108 74.9531 250.308 74.8739C250.513 74.7899 250.742 74.7479 250.994 74.7479C251.33 74.7479 251.621 74.8202 251.868 74.9648C252.116 75.1094 252.307 75.3147 252.442 75.5805C252.577 75.8418 252.645 76.1519 252.645 76.5111C252.645 76.7817 252.605 77.0266 252.526 77.2458C252.452 77.465 252.342 77.6516 252.197 77.8055C252.053 77.9595 251.878 78.0784 251.673 78.1624C251.472 78.2417 251.246 78.2813 250.994 78.2813ZM250.994 77.7776C251.199 77.7776 251.376 77.7286 251.526 77.6306C251.68 77.5327 251.796 77.3904 251.875 77.2038C251.959 77.0172 252.001 76.7863 252.001 76.5111C252.001 76.1006 251.91 75.7881 251.729 75.5735C251.547 75.359 251.302 75.2517 250.994 75.2517C250.793 75.2517 250.616 75.3007 250.462 75.3986C250.313 75.4919 250.196 75.6318 250.112 75.8184C250.028 76.005 249.986 76.2359 249.986 76.5111C249.986 76.9216 250.077 77.2365 250.259 77.4557C250.446 77.6703 250.691 77.7776 250.994 77.7776Z" fill="#333333"/>
<path d="M289.334 69.1588H262.221C261.255 69.1588 260.472 69.942 260.472 70.908V80.5288C260.472 81.4949 261.255 82.278 262.221 82.278H289.334C290.3 82.278 291.083 81.4949 291.083 80.5288V70.908C291.083 69.942 290.3 69.1588 289.334 69.1588Z" fill="#D0E8C5"/>
<path d="M299.416 78.2813C299.197 78.2813 298.985 78.2627 298.779 78.2254C298.574 78.1927 298.381 78.1414 298.199 78.0714C298.017 78.0015 297.853 77.9152 297.709 77.8125C297.648 77.7706 297.604 77.7193 297.576 77.6586C297.553 77.598 297.546 77.5397 297.555 77.4837C297.569 77.423 297.595 77.3717 297.632 77.3298C297.674 77.2878 297.723 77.2621 297.779 77.2528C297.835 77.2435 297.895 77.2621 297.961 77.3088C298.175 77.4534 298.399 77.5583 298.632 77.6236C298.87 77.6889 299.132 77.7216 299.416 77.7216C299.827 77.7216 300.127 77.6469 300.319 77.4977C300.515 77.3484 300.613 77.1525 300.613 76.9099C300.613 76.7094 300.543 76.5531 300.403 76.4412C300.263 76.3245 300.027 76.2336 299.696 76.1683L298.954 76.0143C298.516 75.9211 298.187 75.7671 297.968 75.5525C297.753 75.338 297.646 75.0511 297.646 74.6919C297.646 74.4727 297.69 74.2745 297.779 74.0972C297.867 73.9153 297.993 73.759 298.157 73.6284C298.32 73.4978 298.511 73.3975 298.73 73.3275C298.954 73.2576 299.202 73.2226 299.472 73.2226C299.761 73.2226 300.032 73.2622 300.284 73.3415C300.54 73.4208 300.771 73.5374 300.976 73.6914C301.032 73.7334 301.07 73.7847 301.088 73.8453C301.107 73.9013 301.109 73.9573 301.095 74.0132C301.086 74.0692 301.06 74.1159 301.018 74.1532C300.981 74.1905 300.932 74.2115 300.871 74.2161C300.815 74.2208 300.752 74.1998 300.683 74.1532C300.496 74.0226 300.305 73.9293 300.109 73.8733C299.913 73.8127 299.698 73.7823 299.465 73.7823C299.227 73.7823 299.02 73.8197 298.842 73.8943C298.67 73.9689 298.534 74.0739 298.437 74.2091C298.343 74.3398 298.297 74.4937 298.297 74.6709C298.297 74.8855 298.362 75.0534 298.493 75.1747C298.623 75.296 298.842 75.3893 299.15 75.4546L299.885 75.6015C300.351 75.6995 300.697 75.8511 300.92 76.0563C301.149 76.2569 301.263 76.5274 301.263 76.868C301.263 77.0825 301.219 77.2761 301.13 77.4487C301.046 77.6213 300.925 77.7706 300.766 77.8965C300.608 78.0178 300.414 78.1134 300.186 78.1834C299.957 78.2487 299.701 78.2813 299.416 78.2813ZM303.489 78.2813C303.154 78.2813 302.862 78.209 302.615 78.0644C302.368 77.9198 302.176 77.7146 302.041 77.4487C301.906 77.1828 301.838 76.8703 301.838 76.5111C301.838 76.2406 301.875 75.998 301.95 75.7834C302.029 75.5642 302.141 75.3776 302.286 75.2237C302.431 75.0698 302.603 74.9531 302.804 74.8739C303.009 74.7899 303.238 74.7479 303.489 74.7479C303.825 74.7479 304.117 74.8202 304.364 74.9648C304.611 75.1094 304.803 75.3147 304.938 75.5805C305.073 75.8418 305.141 76.1519 305.141 76.5111C305.141 76.7817 305.101 77.0266 305.022 77.2458C304.947 77.465 304.837 77.6516 304.693 77.8055C304.548 77.9595 304.373 78.0784 304.168 78.1624C303.968 78.2417 303.741 78.2813 303.489 78.2813ZM303.489 77.7776C303.695 77.7776 303.872 77.7286 304.021 77.6306C304.175 77.5327 304.292 77.3904 304.371 77.2038C304.455 77.0172 304.497 76.7863 304.497 76.5111C304.497 76.1006 304.406 75.7881 304.224 75.5735C304.042 75.359 303.797 75.2517 303.489 75.2517C303.289 75.2517 303.112 75.3007 302.958 75.3986C302.808 75.4919 302.692 75.6318 302.608 75.8184C302.524 76.005 302.482 76.2359 302.482 76.5111C302.482 76.9216 302.573 77.2365 302.755 77.4557C302.941 77.6703 303.186 77.7776 303.489 77.7776ZM306.44 78.2673C306.337 78.2673 306.258 78.2394 306.202 78.1834C306.146 78.1274 306.118 78.0458 306.118 77.9385V75.3007H305.698C305.614 75.3007 305.549 75.2797 305.502 75.2377C305.456 75.191 305.432 75.1304 305.432 75.0558C305.432 74.9765 305.456 74.9158 305.502 74.8739C305.549 74.8319 305.614 74.8109 305.698 74.8109H306.293L306.118 74.9788V74.7199C306.118 74.2675 306.228 73.9246 306.447 73.6914C306.671 73.4535 306.997 73.3159 307.426 73.2786L307.643 73.2646C307.713 73.2552 307.769 73.2669 307.811 73.2996C307.853 73.3275 307.881 73.3649 307.895 73.4115C307.909 73.4581 307.909 73.5071 307.895 73.5584C307.886 73.6051 307.865 73.6471 307.832 73.6844C307.8 73.7217 307.758 73.7427 307.706 73.7474L307.552 73.7544C307.273 73.7777 307.07 73.8616 306.944 74.0062C306.818 74.1462 306.755 74.3561 306.755 74.636V74.9158L306.664 74.8109H307.468C307.557 74.8109 307.625 74.8319 307.671 74.8739C307.718 74.9158 307.741 74.9765 307.741 75.0558C307.741 75.1304 307.718 75.191 307.671 75.2377C307.625 75.2797 307.557 75.3007 307.468 75.3007H306.755V77.9385C306.755 78.1577 306.65 78.2673 306.44 78.2673ZM309.543 78.2813C309.267 78.2813 309.036 78.2324 308.85 78.1344C308.668 78.0364 308.53 77.8942 308.437 77.7076C308.348 77.521 308.304 77.2924 308.304 77.0219V75.3007H307.856C307.772 75.3007 307.707 75.2797 307.66 75.2377C307.614 75.191 307.59 75.1304 307.59 75.0558C307.59 74.9765 307.614 74.9158 307.66 74.8739C307.707 74.8319 307.772 74.8109 307.856 74.8109H308.304V74.0482C308.304 73.9409 308.332 73.8616 308.388 73.8103C308.444 73.7543 308.523 73.7264 308.626 73.7264C308.729 73.7264 308.806 73.7543 308.857 73.8103C308.913 73.8616 308.941 73.9409 308.941 74.0482V74.8109H309.787C309.876 74.8109 309.944 74.8319 309.99 74.8739C310.037 74.9158 310.06 74.9765 310.06 75.0558C310.06 75.1304 310.037 75.191 309.99 75.2377C309.944 75.2797 309.876 75.3007 309.787 75.3007H308.941V76.9659C308.941 77.2225 308.994 77.4161 309.102 77.5467C309.209 77.6773 309.386 77.7426 309.634 77.7426C309.722 77.7426 309.797 77.7356 309.857 77.7216C309.918 77.7029 309.972 77.6936 310.018 77.6936C310.06 77.6889 310.095 77.7029 310.123 77.7356C310.156 77.7682 310.172 77.8289 310.172 77.9175C310.172 77.9828 310.161 78.0434 310.137 78.0994C310.119 78.1507 310.079 78.1857 310.018 78.2044C309.962 78.223 309.888 78.2394 309.794 78.2533C309.701 78.272 309.617 78.2813 309.543 78.2813ZM314.161 78.2813C313.942 78.2813 313.73 78.2627 313.525 78.2254C313.32 78.1927 313.126 78.1414 312.944 78.0714C312.762 78.0015 312.599 77.9152 312.454 77.8125C312.394 77.7706 312.349 77.7193 312.321 77.6586C312.298 77.598 312.291 77.5397 312.3 77.4837C312.314 77.423 312.34 77.3717 312.377 77.3298C312.419 77.2878 312.468 77.2621 312.524 77.2528C312.58 77.2435 312.641 77.2621 312.706 77.3088C312.921 77.4534 313.145 77.5583 313.378 77.6236C313.616 77.6889 313.877 77.7216 314.161 77.7216C314.572 77.7216 314.873 77.6469 315.064 77.4977C315.26 77.3484 315.358 77.1525 315.358 76.9099C315.358 76.7094 315.288 76.5531 315.148 76.4412C315.008 76.3245 314.773 76.2336 314.441 76.1683L313.7 76.0143C313.261 75.9211 312.932 75.7671 312.713 75.5525C312.499 75.338 312.391 75.0511 312.391 74.6919C312.391 74.4727 312.436 74.2745 312.524 74.0972C312.613 73.9153 312.739 73.759 312.902 73.6284C313.065 73.4978 313.257 73.3975 313.476 73.3275C313.7 73.2576 313.947 73.2226 314.217 73.2226C314.507 73.2226 314.777 73.2622 315.029 73.3415C315.286 73.4208 315.517 73.5374 315.722 73.6914C315.778 73.7334 315.815 73.7847 315.834 73.8453C315.852 73.9013 315.855 73.9573 315.841 74.0132C315.831 74.0692 315.806 74.1159 315.764 74.1532C315.726 74.1905 315.677 74.2115 315.617 74.2161C315.561 74.2208 315.498 74.1998 315.428 74.1532C315.241 74.0226 315.05 73.9293 314.854 73.8733C314.658 73.8127 314.444 73.7823 314.21 73.7823C313.973 73.7823 313.765 73.8197 313.588 73.8943C313.415 73.9689 313.28 74.0739 313.182 74.2091C313.089 74.3398 313.042 74.4937 313.042 74.6709C313.042 74.8855 313.107 75.0534 313.238 75.1747C313.368 75.296 313.588 75.3893 313.896 75.4546L314.63 75.6015C315.097 75.6995 315.442 75.8511 315.666 76.0563C315.894 76.2569 316.009 76.5274 316.009 76.868C316.009 77.0825 315.964 77.2761 315.876 77.4487C315.792 77.6213 315.67 77.7706 315.512 77.8965C315.353 78.0178 315.16 78.1134 314.931 78.1834C314.703 78.2487 314.446 78.2813 314.161 78.2813ZM317.101 78.2673C317.003 78.2673 316.926 78.2394 316.87 78.1834C316.814 78.1274 316.786 78.0458 316.786 77.9385V73.5584C316.786 73.4512 316.814 73.3719 316.87 73.3205C316.926 73.2646 317.003 73.2366 317.101 73.2366C317.204 73.2366 317.283 73.2646 317.339 73.3205C317.395 73.3719 317.423 73.4512 317.423 73.5584V76.3152H317.437L318.809 74.9788C318.879 74.9088 318.941 74.8552 318.997 74.8179C319.053 74.7806 319.126 74.7619 319.214 74.7619C319.303 74.7619 319.371 74.7852 319.417 74.8319C319.464 74.8739 319.487 74.9298 319.487 74.9998C319.487 75.0651 319.455 75.1304 319.389 75.1957L317.934 76.6091V76.2942L319.522 77.8265C319.588 77.8918 319.618 77.9595 319.613 78.0294C319.613 78.0994 319.588 78.1577 319.536 78.2044C319.49 78.2463 319.427 78.2673 319.347 78.2673C319.254 78.2673 319.177 78.2487 319.116 78.2114C319.06 78.174 318.995 78.1157 318.921 78.0364L317.437 76.6371H317.423V77.9385C317.423 78.1577 317.316 78.2673 317.101 78.2673ZM320.654 78.2533C320.556 78.2533 320.48 78.223 320.424 78.1624C320.368 78.1017 320.34 78.0178 320.34 77.9105V75.1187C320.34 75.0068 320.368 74.9228 320.424 74.8669C320.48 74.8062 320.556 74.7759 320.654 74.7759C320.757 74.7759 320.836 74.8062 320.892 74.8669C320.948 74.9228 320.976 75.0068 320.976 75.1187V77.9105C320.976 78.0178 320.948 78.1017 320.892 78.1624C320.841 78.223 320.762 78.2533 320.654 78.2533ZM320.654 74.0202C320.528 74.0202 320.428 73.9876 320.354 73.9223C320.284 73.8523 320.249 73.7613 320.249 73.6494C320.249 73.5281 320.284 73.4372 320.354 73.3765C320.428 73.3112 320.528 73.2786 320.654 73.2786C320.79 73.2786 320.89 73.3112 320.955 73.3765C321.025 73.4372 321.06 73.5281 321.06 73.6494C321.06 73.7613 321.025 73.8523 320.955 73.9223C320.89 73.9876 320.79 74.0202 320.654 74.0202ZM323.07 78.2813C322.721 78.2813 322.455 78.1787 322.273 77.9735C322.091 77.7636 322 77.4627 322 77.0709V73.5584C322 73.4512 322.028 73.3719 322.084 73.3205C322.14 73.2646 322.217 73.2366 322.315 73.2366C322.417 73.2366 322.497 73.2646 322.553 73.3205C322.609 73.3719 322.637 73.4512 322.637 73.5584V77.0219C322.637 77.2645 322.686 77.4464 322.784 77.5677C322.886 77.6843 323.031 77.7426 323.217 77.7426C323.259 77.7426 323.297 77.7426 323.329 77.7426C323.362 77.7379 323.395 77.7332 323.427 77.7286C323.479 77.7239 323.516 77.7379 323.539 77.7706C323.563 77.8032 323.574 77.8685 323.574 77.9665C323.574 78.0551 323.553 78.1251 323.511 78.1764C323.474 78.223 323.411 78.2533 323.322 78.2673C323.28 78.272 323.238 78.2743 323.196 78.2743C323.154 78.279 323.112 78.2813 323.07 78.2813ZM325.175 78.2813C324.825 78.2813 324.559 78.1787 324.377 77.9735C324.195 77.7636 324.104 77.4627 324.104 77.0709V73.5584C324.104 73.4512 324.132 73.3719 324.188 73.3205C324.244 73.2646 324.321 73.2366 324.419 73.2366C324.522 73.2366 324.601 73.2646 324.657 73.3205C324.713 73.3719 324.741 73.4512 324.741 73.5584V77.0219C324.741 77.2645 324.79 77.4464 324.888 77.5677C324.991 77.6843 325.135 77.7426 325.322 77.7426C325.364 77.7426 325.401 77.7426 325.434 77.7426C325.467 77.7379 325.499 77.7332 325.532 77.7286C325.583 77.7239 325.62 77.7379 325.644 77.7706C325.667 77.8032 325.679 77.8685 325.679 77.9665C325.679 78.0551 325.658 78.1251 325.616 78.1764C325.578 78.223 325.516 78.2533 325.427 78.2673C325.385 78.272 325.343 78.2743 325.301 78.2743C325.259 78.279 325.217 78.2813 325.175 78.2813ZM327.35 78.2813C327.14 78.2813 326.928 78.258 326.714 78.2114C326.504 78.1601 326.305 78.0738 326.119 77.9525C326.068 77.9198 326.03 77.8802 326.007 77.8335C325.988 77.7822 325.981 77.7332 325.986 77.6866C325.995 77.6353 326.016 77.591 326.049 77.5537C326.082 77.5163 326.121 77.4954 326.168 77.4907C326.219 77.4814 326.273 77.493 326.329 77.5257C326.511 77.6283 326.686 77.7006 326.854 77.7426C327.026 77.7846 327.196 77.8055 327.364 77.8055C327.621 77.8055 327.814 77.7589 327.945 77.6656C328.076 77.5723 328.141 77.4487 328.141 77.2948C328.141 77.1642 328.097 77.0639 328.008 76.9939C327.924 76.9193 327.791 76.8633 327.609 76.826L326.959 76.693C326.669 76.6277 326.45 76.5205 326.301 76.3712C326.156 76.2173 326.084 76.0213 326.084 75.7834C326.084 75.5735 326.14 75.3916 326.252 75.2377C326.368 75.0791 326.529 74.9578 326.735 74.8739C326.94 74.7899 327.175 74.7479 327.441 74.7479C327.647 74.7479 327.84 74.7759 328.022 74.8319C328.209 74.8832 328.377 74.9625 328.526 75.0698C328.582 75.1024 328.617 75.1444 328.631 75.1957C328.649 75.2424 328.652 75.2913 328.638 75.3426C328.628 75.3893 328.607 75.4289 328.575 75.4616C328.542 75.4942 328.5 75.5152 328.449 75.5246C328.398 75.5292 328.342 75.5152 328.281 75.4826C328.146 75.3893 328.006 75.324 327.861 75.2867C327.721 75.2447 327.581 75.2237 327.441 75.2237C327.189 75.2237 326.998 75.2727 326.868 75.3706C326.742 75.4686 326.679 75.5969 326.679 75.7555C326.679 75.8767 326.716 75.977 326.791 76.0563C326.87 76.1356 326.993 76.1939 327.161 76.2312L327.812 76.3642C328.115 76.4295 328.344 76.5344 328.498 76.679C328.652 76.819 328.729 77.0102 328.729 77.2528C328.729 77.57 328.603 77.8219 328.351 78.0085C328.104 78.1904 327.77 78.2813 327.35 78.2813Z" fill="#333333"/>
<path d="M365.106 69.1588H337.993C337.027 69.1588 336.244 69.942 336.244 70.908V80.5288C336.244 81.4949 337.027 82.278 337.993 82.278H365.106C366.072 82.278 366.855 81.4949 366.855 80.5288V70.908C366.855 69.942 366.072 69.1588 365.106 69.1588Z" fill="#FEEE91"/>
<path d="M375.104 78.2673C374.997 78.2673 374.915 78.2394 374.859 78.1834C374.803 78.1227 374.775 78.0388 374.775 77.9315V73.8383H373.243C373.154 73.8383 373.084 73.815 373.033 73.7683C372.982 73.717 372.956 73.6471 372.956 73.5584C372.956 73.4698 372.982 73.4022 373.033 73.3555C373.084 73.3089 373.154 73.2856 373.243 73.2856H376.958C377.052 73.2856 377.122 73.3089 377.168 73.3555C377.219 73.4022 377.245 73.4698 377.245 73.5584C377.245 73.6471 377.219 73.717 377.168 73.7683C377.122 73.815 377.052 73.8383 376.958 73.8383H375.426V77.9315C375.426 78.0388 375.398 78.1227 375.342 78.1834C375.291 78.2394 375.211 78.2673 375.104 78.2673ZM378.772 78.2813C378.404 78.2813 378.087 78.2114 377.821 78.0714C377.56 77.9268 377.357 77.7239 377.212 77.4627C377.067 77.1968 376.995 76.8843 376.995 76.5251C376.995 76.1706 377.065 75.8604 377.205 75.5945C377.35 75.3286 377.546 75.1211 377.793 74.9718C378.045 74.8225 378.332 74.7479 378.653 74.7479C378.882 74.7479 379.087 74.7876 379.269 74.8669C379.456 74.9415 379.614 75.0511 379.745 75.1957C379.876 75.3403 379.974 75.5176 380.039 75.7275C380.109 75.9327 380.144 76.1659 380.144 76.4272C380.144 76.5018 380.12 76.5601 380.074 76.6021C380.032 76.6394 379.969 76.6581 379.885 76.6581H377.492V76.2522H379.724L379.605 76.3502C379.605 76.1076 379.568 75.9024 379.493 75.7345C379.423 75.5619 379.318 75.4313 379.178 75.3426C379.043 75.254 378.873 75.2097 378.667 75.2097C378.444 75.2097 378.252 75.2633 378.094 75.3706C377.935 75.4733 377.814 75.6202 377.73 75.8114C377.646 75.998 377.604 76.2149 377.604 76.4621V76.5041C377.604 76.9239 377.704 77.2411 377.905 77.4557C378.105 77.6703 378.395 77.7776 378.772 77.7776C378.922 77.7776 379.073 77.7589 379.227 77.7216C379.386 77.6843 379.537 77.6166 379.682 77.5187C379.752 77.4767 379.815 77.458 379.871 77.4627C379.932 77.4627 379.981 77.4814 380.018 77.5187C380.055 77.5513 380.078 77.5933 380.088 77.6446C380.097 77.6913 380.09 77.7426 380.067 77.7985C380.043 77.8545 379.999 77.9035 379.934 77.9455C379.78 78.0528 379.596 78.1367 379.381 78.1974C379.171 78.2533 378.968 78.2813 378.772 78.2813ZM382.412 78.2813C382.067 78.2813 381.768 78.209 381.516 78.0644C381.265 77.9152 381.071 77.7076 380.936 77.4417C380.8 77.1712 380.733 76.854 380.733 76.4901C380.733 76.2196 380.77 75.977 380.845 75.7625C380.924 75.5479 381.036 75.366 381.181 75.2167C381.325 75.0628 381.5 74.9462 381.705 74.8669C381.915 74.7876 382.151 74.7479 382.412 74.7479C382.575 74.7479 382.748 74.7736 382.93 74.8249C383.112 74.8762 383.28 74.9601 383.434 75.0768C383.485 75.1141 383.518 75.1584 383.532 75.2097C383.546 75.2563 383.546 75.3053 383.532 75.3566C383.522 75.4079 383.499 75.4523 383.462 75.4896C383.429 75.5222 383.385 75.5409 383.329 75.5456C383.277 75.5502 383.221 75.5339 383.161 75.4966C383.049 75.4126 382.93 75.352 382.804 75.3147C382.683 75.2773 382.566 75.2587 382.454 75.2587C382.281 75.2587 382.127 75.2867 381.992 75.3426C381.862 75.3986 381.75 75.4802 381.656 75.5875C381.568 75.6902 381.5 75.8184 381.453 75.9724C381.407 76.1216 381.383 76.2966 381.383 76.4971C381.383 76.8936 381.477 77.2061 381.663 77.4347C381.85 77.6586 382.113 77.7706 382.454 77.7706C382.566 77.7706 382.683 77.7542 382.804 77.7216C382.925 77.6843 383.044 77.6236 383.161 77.5397C383.221 77.5023 383.277 77.4884 383.329 77.4977C383.38 77.5023 383.422 77.5233 383.455 77.5607C383.492 77.5933 383.515 77.6353 383.525 77.6866C383.534 77.7332 383.529 77.7822 383.511 77.8335C383.497 77.8848 383.464 77.9268 383.413 77.9595C383.263 78.0714 383.1 78.1531 382.923 78.2044C382.746 78.2557 382.575 78.2813 382.412 78.2813ZM384.503 78.2673C384.405 78.2673 384.328 78.2394 384.272 78.1834C384.216 78.1274 384.188 78.0458 384.188 77.9385V73.5584C384.188 73.4512 384.216 73.3719 384.272 73.3205C384.328 73.2646 384.405 73.2366 384.503 73.2366C384.606 73.2366 384.685 73.2646 384.741 73.3205C384.797 73.3719 384.825 73.4512 384.825 73.5584V75.5525H384.734C384.832 75.2867 384.99 75.0861 385.21 74.9508C385.434 74.8155 385.688 74.7479 385.972 74.7479C386.248 74.7479 386.474 74.7992 386.651 74.9018C386.828 74.9998 386.961 75.1491 387.05 75.3496C387.138 75.5502 387.183 75.8021 387.183 76.1053V77.9385C387.183 78.0458 387.155 78.1274 387.099 78.1834C387.048 78.2394 386.971 78.2673 386.868 78.2673C386.765 78.2673 386.686 78.2394 386.63 78.1834C386.574 78.1274 386.546 78.0458 386.546 77.9385V76.1403C386.546 75.8371 386.488 75.6155 386.371 75.4756C386.255 75.3356 386.068 75.2657 385.811 75.2657C385.513 75.2657 385.273 75.359 385.091 75.5456C384.913 75.7275 384.825 75.9747 384.825 76.2872V77.9385C384.825 78.1577 384.718 78.2673 384.503 78.2673ZM388.395 76.6161C388.32 76.6161 388.258 76.5904 388.206 76.5391C388.155 76.4878 388.129 76.4248 388.129 76.3502C388.129 76.2756 388.155 76.2149 388.206 76.1683C388.258 76.117 388.32 76.0913 388.395 76.0913H389.955C390.025 76.0913 390.086 76.117 390.137 76.1683C390.193 76.2149 390.221 76.2756 390.221 76.3502C390.221 76.4248 390.193 76.4878 390.137 76.5391C390.086 76.5904 390.025 76.6161 389.955 76.6161H388.395ZM392.374 78.2813C392.164 78.2813 391.952 78.258 391.737 78.2114C391.528 78.1601 391.329 78.0738 391.143 77.9525C391.091 77.9198 391.054 77.8802 391.031 77.8335C391.012 77.7822 391.005 77.7332 391.01 77.6866C391.019 77.6353 391.04 77.591 391.073 77.5537C391.105 77.5163 391.145 77.4954 391.192 77.4907C391.243 77.4814 391.297 77.493 391.353 77.5257C391.535 77.6283 391.709 77.7006 391.877 77.7426C392.05 77.7846 392.22 77.8055 392.388 77.8055C392.645 77.8055 392.838 77.7589 392.969 77.6656C393.1 77.5723 393.165 77.4487 393.165 77.2948C393.165 77.1642 393.12 77.0639 393.032 76.9939C392.948 76.9193 392.815 76.8633 392.633 76.826L391.982 76.693C391.693 76.6277 391.474 76.5205 391.325 76.3712C391.18 76.2173 391.108 76.0213 391.108 75.7834C391.108 75.5735 391.164 75.3916 391.276 75.2377C391.392 75.0791 391.553 74.9578 391.758 74.8739C391.964 74.7899 392.199 74.7479 392.465 74.7479C392.67 74.7479 392.864 74.7759 393.046 74.8319C393.232 74.8832 393.4 74.9625 393.55 75.0698C393.606 75.1024 393.641 75.1444 393.655 75.1957C393.673 75.2424 393.676 75.2913 393.662 75.3426C393.652 75.3893 393.631 75.4289 393.599 75.4616C393.566 75.4942 393.524 75.5152 393.473 75.5246C393.421 75.5292 393.365 75.5152 393.305 75.4826C393.169 75.3893 393.03 75.324 392.885 75.2867C392.745 75.2447 392.605 75.2237 392.465 75.2237C392.213 75.2237 392.022 75.2727 391.891 75.3706C391.765 75.4686 391.702 75.5969 391.702 75.7555C391.702 75.8767 391.74 75.977 391.814 76.0563C391.894 76.1356 392.017 76.1939 392.185 76.2312L392.836 76.3642C393.139 76.4295 393.368 76.5344 393.522 76.679C393.676 76.819 393.753 77.0102 393.753 77.2528C393.753 77.57 393.627 77.8219 393.375 78.0085C393.127 78.1904 392.794 78.2813 392.374 78.2813ZM394.896 78.2673C394.798 78.2673 394.721 78.2394 394.665 78.1834C394.609 78.1274 394.581 78.0458 394.581 77.9385V73.5584C394.581 73.4512 394.609 73.3719 394.665 73.3205C394.721 73.2646 394.798 73.2366 394.896 73.2366C394.998 73.2366 395.078 73.2646 395.134 73.3205C395.19 73.3719 395.218 73.4512 395.218 73.5584V76.3152H395.232L396.603 74.9788C396.673 74.9088 396.736 74.8552 396.792 74.8179C396.848 74.7806 396.92 74.7619 397.009 74.7619C397.098 74.7619 397.165 74.7852 397.212 74.8319C397.258 74.8739 397.282 74.9298 397.282 74.9998C397.282 75.0651 397.249 75.1304 397.184 75.1957L395.728 76.6091V76.2942L397.317 77.8265C397.382 77.8918 397.412 77.9595 397.408 78.0294C397.408 78.0994 397.382 78.1577 397.331 78.2044C397.284 78.2463 397.221 78.2673 397.142 78.2673C397.049 78.2673 396.972 78.2487 396.911 78.2114C396.855 78.174 396.79 78.1157 396.715 78.0364L395.232 76.6371H395.218V77.9385C395.218 78.1577 395.11 78.2673 394.896 78.2673ZM398.449 78.2533C398.351 78.2533 398.274 78.223 398.218 78.1624C398.162 78.1017 398.134 78.0178 398.134 77.9105V75.1187C398.134 75.0068 398.162 74.9228 398.218 74.8669C398.274 74.8062 398.351 74.7759 398.449 74.7759C398.552 74.7759 398.631 74.8062 398.687 74.8669C398.743 74.9228 398.771 75.0068 398.771 75.1187V77.9105C398.771 78.0178 398.743 78.1017 398.687 78.1624C398.636 78.223 398.556 78.2533 398.449 78.2533ZM398.449 74.0202C398.323 74.0202 398.223 73.9876 398.148 73.9223C398.078 73.8523 398.043 73.7613 398.043 73.6494C398.043 73.5281 398.078 73.4372 398.148 73.3765C398.223 73.3112 398.323 73.2786 398.449 73.2786C398.584 73.2786 398.684 73.3112 398.75 73.3765C398.82 73.4372 398.855 73.5281 398.855 73.6494C398.855 73.7613 398.82 73.8523 398.75 73.9223C398.684 73.9876 398.584 74.0202 398.449 74.0202ZM400.865 78.2813C400.515 78.2813 400.249 78.1787 400.067 77.9735C399.885 77.7636 399.794 77.4627 399.794 77.0709V73.5584C399.794 73.4512 399.822 73.3719 399.878 73.3205C399.934 73.2646 400.011 73.2366 400.109 73.2366C400.212 73.2366 400.291 73.2646 400.347 73.3205C400.403 73.3719 400.431 73.4512 400.431 73.5584V77.0219C400.431 77.2645 400.48 77.4464 400.578 77.5677C400.681 77.6843 400.825 77.7426 401.012 77.7426C401.054 77.7426 401.091 77.7426 401.124 77.7426C401.157 77.7379 401.189 77.7332 401.222 77.7286C401.273 77.7239 401.31 77.7379 401.334 77.7706C401.357 77.8032 401.369 77.8685 401.369 77.9665C401.369 78.0551 401.348 78.1251 401.306 78.1764C401.268 78.223 401.206 78.2533 401.117 78.2673C401.075 78.272 401.033 78.2743 400.991 78.2743C400.949 78.279 400.907 78.2813 400.865 78.2813ZM402.97 78.2813C402.62 78.2813 402.354 78.1787 402.172 77.9735C401.99 77.7636 401.899 77.4627 401.899 77.0709V73.5584C401.899 73.4512 401.927 73.3719 401.983 73.3205C402.039 73.2646 402.116 73.2366 402.214 73.2366C402.316 73.2366 402.396 73.2646 402.452 73.3205C402.508 73.3719 402.536 73.4512 402.536 73.5584V77.0219C402.536 77.2645 402.585 77.4464 402.683 77.5677C402.785 77.6843 402.93 77.7426 403.116 77.7426C403.158 77.7426 403.196 77.7426 403.228 77.7426C403.261 77.7379 403.294 77.7332 403.326 77.7286C403.378 77.7239 403.415 77.7379 403.438 77.7706C403.462 77.8032 403.473 77.8685 403.473 77.9665C403.473 78.0551 403.452 78.1251 403.41 78.1764C403.373 78.223 403.31 78.2533 403.221 78.2673C403.179 78.272 403.137 78.2743 403.095 78.2743C403.053 78.279 403.012 78.2813 402.97 78.2813ZM405.145 78.2813C404.935 78.2813 404.723 78.258 404.508 78.2114C404.298 78.1601 404.1 78.0738 403.913 77.9525C403.862 77.9198 403.825 77.8802 403.801 77.8335C403.783 77.7822 403.776 77.7332 403.78 77.6866C403.79 77.6353 403.811 77.591 403.843 77.5537C403.876 77.5163 403.916 77.4954 403.962 77.4907C404.014 77.4814 404.067 77.493 404.123 77.5257C404.305 77.6283 404.48 77.7006 404.648 77.7426C404.821 77.7846 404.991 77.8055 405.159 77.8055C405.415 77.8055 405.609 77.7589 405.74 77.6656C405.87 77.5723 405.935 77.4487 405.935 77.2948C405.935 77.1642 405.891 77.0639 405.803 76.9939C405.719 76.9193 405.586 76.8633 405.404 76.826L404.753 76.693C404.464 76.6277 404.245 76.5205 404.095 76.3712C403.951 76.2173 403.878 76.0213 403.878 75.7834C403.878 75.5735 403.934 75.3916 404.046 75.2377C404.163 75.0791 404.324 74.9578 404.529 74.8739C404.734 74.7899 404.97 74.7479 405.236 74.7479C405.441 74.7479 405.635 74.7759 405.817 74.8319C406.003 74.8832 406.171 74.9625 406.32 75.0698C406.376 75.1024 406.411 75.1444 406.425 75.1957C406.444 75.2424 406.446 75.2913 406.432 75.3426C406.423 75.3893 406.402 75.4289 406.369 75.4616C406.337 75.4942 406.295 75.5152 406.243 75.5246C406.192 75.5292 406.136 75.5152 406.075 75.4826C405.94 75.3893 405.8 75.324 405.656 75.2867C405.516 75.2447 405.376 75.2237 405.236 75.2237C404.984 75.2237 404.793 75.2727 404.662 75.3706C404.536 75.4686 404.473 75.5969 404.473 75.7555C404.473 75.8767 404.51 75.977 404.585 76.0563C404.664 76.1356 404.788 76.1939 404.956 76.2312L405.607 76.3642C405.91 76.4295 406.138 76.5344 406.292 76.679C406.446 76.819 406.523 77.0102 406.523 77.2528C406.523 77.57 406.397 77.8219 406.145 78.0085C405.898 78.1904 405.565 78.2813 405.145 78.2813Z" fill="#333333"/>
<path d="M446.088 69.1588H418.975C418.009 69.1588 417.226 69.942 417.226 70.908V80.5288C417.226 81.4949 418.009 82.278 418.975 82.278H446.088C447.054 82.278 447.837 81.4949 447.837 80.5288V70.908C447.837 69.942 447.054 69.1588 446.088 69.1588Z" fill="#FC8972"/>
<path d="M454.484 78.2673C454.4 78.2673 454.333 78.2487 454.281 78.2114C454.235 78.174 454.207 78.1227 454.197 78.0574C454.188 77.9921 454.202 77.9198 454.239 77.8405L456.149 73.5165C456.191 73.4185 456.245 73.3485 456.31 73.3065C456.376 73.2599 456.448 73.2366 456.527 73.2366C456.607 73.2366 456.677 73.2599 456.737 73.3065C456.803 73.3485 456.859 73.4185 456.905 73.5165L458.815 77.8405C458.853 77.9198 458.867 77.9945 458.857 78.0644C458.853 78.1297 458.827 78.181 458.78 78.2184C458.734 78.251 458.668 78.2673 458.584 78.2673C458.491 78.2673 458.416 78.244 458.361 78.1974C458.305 78.1461 458.256 78.0738 458.214 77.9805L457.717 76.819L458.018 76.9869H455.023L455.324 76.819L454.827 77.9805C454.785 78.0831 454.738 78.1577 454.687 78.2044C454.636 78.2463 454.568 78.2673 454.484 78.2673ZM456.513 74.0202L455.422 76.6021L455.254 76.4551H457.787L457.626 76.6021L456.527 74.0202H456.513ZM459.959 78.2673C459.856 78.2673 459.777 78.2394 459.721 78.1834C459.665 78.1274 459.637 78.0458 459.637 77.9385V75.0838C459.637 74.9765 459.665 74.8972 459.721 74.8459C459.777 74.7899 459.856 74.7619 459.959 74.7619C460.061 74.7619 460.138 74.7899 460.189 74.8459C460.245 74.8972 460.273 74.9765 460.273 75.0838V76.2103H462.051V75.0838C462.051 74.9765 462.076 74.8972 462.128 74.8459C462.184 74.7899 462.263 74.7619 462.366 74.7619C462.468 74.7619 462.547 74.7899 462.603 74.8459C462.659 74.8972 462.687 74.9765 462.687 75.0838V77.9385C462.687 78.0458 462.659 78.1274 462.603 78.1834C462.547 78.2394 462.468 78.2673 462.366 78.2673C462.263 78.2673 462.184 78.2394 462.128 78.1834C462.076 78.1274 462.051 78.0458 462.051 77.9385V76.721H460.273V77.9385C460.273 78.0458 460.248 78.1274 460.196 78.1834C460.145 78.2394 460.066 78.2673 459.959 78.2673ZM464.099 78.2673C463.997 78.2673 463.917 78.2394 463.861 78.1834C463.805 78.1227 463.777 78.0388 463.777 77.9315V75.1747C463.777 75.0581 463.808 74.9695 463.868 74.9088C463.934 74.8435 464.025 74.8109 464.141 74.8109H465.974C466.072 74.8109 466.145 74.8319 466.191 74.8739C466.238 74.9158 466.261 74.9788 466.261 75.0628C466.261 75.1467 466.238 75.212 466.191 75.2587C466.145 75.3007 466.072 75.3217 465.974 75.3217H464.414V77.9315C464.414 78.1554 464.309 78.2673 464.099 78.2673ZM469.367 78.2673C469.265 78.2673 469.185 78.2394 469.129 78.1834C469.073 78.1274 469.045 78.0458 469.045 77.9385V75.3217H467.744V75.7415C467.744 76.096 467.725 76.4108 467.688 76.686C467.651 76.9566 467.592 77.1922 467.513 77.3927C467.438 77.5933 467.338 77.7612 467.212 77.8965C467.091 78.0318 466.939 78.1414 466.757 78.2254C466.687 78.258 466.622 78.2673 466.562 78.2533C466.501 78.244 466.45 78.2184 466.408 78.1764C466.37 78.1344 466.345 78.0854 466.331 78.0294C466.321 77.9735 466.328 77.9175 466.352 77.8615C466.375 77.8055 466.422 77.7589 466.492 77.7216C466.622 77.6469 466.729 77.556 466.813 77.4487C466.897 77.3368 466.963 77.2015 467.009 77.0429C467.061 76.8843 467.096 76.6977 467.114 76.4831C467.138 76.2686 467.149 76.0167 467.149 75.7275V75.1747C467.149 75.0581 467.18 74.9695 467.24 74.9088C467.306 74.8435 467.396 74.8109 467.513 74.8109H469.325C469.442 74.8109 469.531 74.8435 469.591 74.9088C469.652 74.9695 469.682 75.0581 469.682 75.1747V77.9385C469.682 78.0458 469.654 78.1274 469.598 78.1834C469.542 78.2394 469.465 78.2673 469.367 78.2673ZM471.089 78.2533C470.991 78.2533 470.914 78.223 470.858 78.1624C470.802 78.1017 470.774 78.0178 470.774 77.9105V75.1187C470.774 75.0068 470.802 74.9228 470.858 74.8669C470.914 74.8062 470.991 74.7759 471.089 74.7759C471.192 74.7759 471.271 74.8062 471.327 74.8669C471.383 74.9228 471.411 75.0068 471.411 75.1187V77.9105C471.411 78.0178 471.383 78.1017 471.327 78.1624C471.276 78.223 471.196 78.2533 471.089 78.2533ZM471.089 74.0202C470.963 74.0202 470.863 73.9876 470.788 73.9223C470.718 73.8523 470.683 73.7613 470.683 73.6494C470.683 73.5281 470.718 73.4372 470.788 73.3765C470.863 73.3112 470.963 73.2786 471.089 73.2786C471.224 73.2786 471.325 73.3112 471.39 73.3765C471.46 73.4372 471.495 73.5281 471.495 73.6494C471.495 73.7613 471.46 73.8523 471.39 73.9223C471.325 73.9876 471.224 74.0202 471.089 74.0202ZM472.804 78.2673C472.743 78.2673 472.689 78.2557 472.643 78.2324C472.601 78.209 472.568 78.1717 472.545 78.1204C472.522 78.0691 472.51 78.0038 472.51 77.9245V75.0698C472.51 74.9718 472.536 74.8972 472.587 74.8459C472.638 74.7899 472.71 74.7619 472.804 74.7619C472.892 74.7619 472.962 74.7899 473.014 74.8459C473.065 74.8972 473.091 74.9718 473.091 75.0698V77.5956H472.909L474.882 74.9648C474.919 74.9135 474.966 74.8669 475.022 74.8249C475.078 74.7829 475.152 74.7619 475.246 74.7619C475.311 74.7619 475.365 74.7736 475.407 74.7969C475.449 74.8202 475.479 74.8575 475.498 74.9088C475.521 74.9555 475.533 75.0185 475.533 75.0978V77.9595C475.533 78.0528 475.507 78.1274 475.456 78.1834C475.409 78.2394 475.341 78.2673 475.253 78.2673C475.155 78.2673 475.08 78.2394 475.029 78.1834C474.982 78.1274 474.959 78.0528 474.959 77.9595V75.4266H475.141L473.168 78.0644C473.13 78.1157 473.084 78.1624 473.028 78.2044C472.972 78.2463 472.897 78.2673 472.804 78.2673ZM474.021 74.3771C473.765 74.3771 473.531 74.3141 473.322 74.1882C473.112 74.0575 472.958 73.864 472.86 73.6074C472.832 73.5374 472.827 73.4791 472.846 73.4325C472.869 73.3812 472.909 73.3462 472.965 73.3275C473.021 73.3089 473.07 73.3112 473.112 73.3345C473.158 73.3579 473.198 73.4045 473.231 73.4745C473.31 73.6424 473.415 73.7707 473.545 73.8593C473.681 73.9433 473.839 73.9852 474.021 73.9852C474.208 73.9852 474.366 73.9433 474.497 73.8593C474.628 73.7707 474.733 73.6424 474.812 73.4745C474.849 73.4045 474.889 73.3579 474.931 73.3345C474.973 73.3112 475.022 73.3089 475.078 73.3275C475.134 73.3462 475.171 73.3812 475.19 73.4325C475.213 73.4791 475.208 73.5374 475.176 73.6074C475.064 73.864 474.908 74.0575 474.707 74.1882C474.506 74.3141 474.278 74.3771 474.021 74.3771ZM478.1 78.2813C477.754 78.2813 477.456 78.209 477.204 78.0644C476.952 77.9152 476.759 77.7076 476.623 77.4417C476.488 77.1712 476.42 76.854 476.42 76.4901C476.42 76.2196 476.458 75.977 476.532 75.7625C476.612 75.5479 476.724 75.366 476.868 75.2167C477.013 75.0628 477.188 74.9462 477.393 74.8669C477.603 74.7876 477.838 74.7479 478.1 74.7479C478.263 74.7479 478.436 74.7736 478.617 74.8249C478.799 74.8762 478.967 74.9601 479.121 75.0768C479.173 75.1141 479.205 75.1584 479.219 75.2097C479.233 75.2563 479.233 75.3053 479.219 75.3566C479.21 75.4079 479.186 75.4523 479.149 75.4896C479.117 75.5222 479.072 75.5409 479.016 75.5456C478.965 75.5502 478.909 75.5339 478.848 75.4966C478.736 75.4126 478.617 75.352 478.491 75.3147C478.37 75.2773 478.254 75.2587 478.142 75.2587C477.969 75.2587 477.815 75.2867 477.68 75.3426C477.549 75.3986 477.437 75.4802 477.344 75.5875C477.255 75.6902 477.188 75.8184 477.141 75.9724C477.094 76.1216 477.071 76.2966 477.071 76.4971C477.071 76.8936 477.164 77.2061 477.351 77.4347C477.538 77.6586 477.801 77.7706 478.142 77.7706C478.254 77.7706 478.37 77.7542 478.491 77.7216C478.613 77.6843 478.732 77.6236 478.848 77.5397C478.909 77.5023 478.965 77.4884 479.016 77.4977C479.068 77.5023 479.11 77.5233 479.142 77.5607C479.18 77.5933 479.203 77.6353 479.212 77.6866C479.221 77.7332 479.217 77.7822 479.198 77.8335C479.184 77.8848 479.152 77.9268 479.1 77.9595C478.951 78.0714 478.788 78.1531 478.61 78.2044C478.433 78.2557 478.263 78.2813 478.1 78.2813ZM480.28 78.2184C480.172 78.2184 480.091 78.1904 480.035 78.1344C479.979 78.0784 479.951 77.9968 479.951 77.8895V75.0838C479.951 74.9765 479.979 74.8972 480.035 74.8459C480.091 74.7899 480.17 74.7619 480.273 74.7619C480.375 74.7619 480.452 74.7899 480.504 74.8459C480.56 74.8972 480.588 74.9765 480.588 75.0838V76.0073H481.588C482.027 76.0073 482.358 76.103 482.582 76.2942C482.806 76.4808 482.918 76.7513 482.918 77.1059C482.918 77.3298 482.864 77.5257 482.757 77.6936C482.654 77.8615 482.502 77.9921 482.302 78.0854C482.106 78.174 481.868 78.2184 481.588 78.2184H480.28ZM480.588 77.7776H481.511C481.768 77.7776 481.966 77.7239 482.106 77.6166C482.246 77.5047 482.316 77.3344 482.316 77.1059C482.316 76.882 482.246 76.7164 482.106 76.6091C481.966 76.5018 481.768 76.4482 481.511 76.4482H480.588V77.7776ZM484.058 78.2673C483.956 78.2673 483.876 78.2394 483.82 78.1834C483.764 78.1274 483.736 78.0458 483.736 77.9385V75.0978C483.736 74.9951 483.764 74.9158 483.82 74.8599C483.876 74.8039 483.956 74.7759 484.058 74.7759C484.161 74.7759 484.238 74.8039 484.289 74.8599C484.345 74.9158 484.373 74.9951 484.373 75.0978V76.2103H484.975L485.982 74.9158C486.029 74.8505 486.083 74.8109 486.143 74.7969C486.204 74.7782 486.262 74.7782 486.318 74.7969C486.374 74.8109 486.421 74.8412 486.458 74.8878C486.495 74.9345 486.514 74.9881 486.514 75.0488C486.514 75.1094 486.488 75.1724 486.437 75.2377L485.486 76.4761L485.325 76.2802C485.451 76.2942 485.563 76.3269 485.66 76.3782C485.758 76.4295 485.852 76.5065 485.94 76.6091C486.029 76.7117 486.125 76.8493 486.227 77.0219L486.703 77.8335C486.745 77.9035 486.759 77.9688 486.745 78.0294C486.736 78.0901 486.708 78.1414 486.661 78.1834C486.619 78.2207 486.568 78.244 486.507 78.2533C486.446 78.2673 486.386 78.2603 486.325 78.2324C486.265 78.209 486.213 78.1624 486.171 78.0924L485.64 77.1968C485.565 77.0709 485.493 76.9729 485.423 76.9029C485.353 76.833 485.276 76.784 485.192 76.756C485.108 76.728 485.005 76.714 484.884 76.714H484.373V77.9385C484.373 78.0458 484.345 78.1274 484.289 78.1834C484.238 78.2394 484.161 78.2673 484.058 78.2673ZM488.558 78.2813C488.325 78.2813 488.113 78.2347 487.922 78.1414C487.735 78.0481 487.588 77.9222 487.481 77.7636C487.378 77.605 487.327 77.4277 487.327 77.2318C487.327 76.9799 487.39 76.7817 487.516 76.6371C487.642 76.4925 487.854 76.3898 488.153 76.3292C488.451 76.2639 488.852 76.2312 489.356 76.2312H489.685V76.6371H489.37C489.011 76.6371 488.726 76.6534 488.516 76.686C488.311 76.7187 488.167 76.777 488.083 76.861C487.999 76.9403 487.957 77.0522 487.957 77.1968C487.957 77.3787 488.02 77.528 488.146 77.6446C488.276 77.7612 488.454 77.8195 488.677 77.8195C488.855 77.8195 489.011 77.7776 489.146 77.6936C489.281 77.605 489.389 77.4884 489.468 77.3438C489.547 77.1945 489.587 77.0242 489.587 76.833V76.0283C489.587 75.7531 489.531 75.5549 489.419 75.4336C489.307 75.3077 489.118 75.2447 488.852 75.2447C488.698 75.2447 488.54 75.2657 488.377 75.3077C488.213 75.3496 488.043 75.4149 487.866 75.5036C487.796 75.5362 487.735 75.5479 487.684 75.5386C487.633 75.5246 487.591 75.4966 487.558 75.4546C487.53 75.4079 487.514 75.359 487.509 75.3077C487.509 75.2517 487.521 75.198 487.544 75.1467C487.572 75.0954 487.619 75.0581 487.684 75.0348C487.889 74.9322 488.092 74.8599 488.293 74.8179C488.498 74.7712 488.689 74.7479 488.866 74.7479C489.17 74.7479 489.419 74.7969 489.615 74.8948C489.811 74.9881 489.958 75.1351 490.056 75.3356C490.154 75.5316 490.203 75.7834 490.203 76.0913V77.9385C490.203 78.0458 490.177 78.1274 490.126 78.1834C490.074 78.2394 490 78.2673 489.902 78.2673C489.809 78.2673 489.734 78.2394 489.678 78.1834C489.627 78.1274 489.601 78.0458 489.601 77.9385V77.4417H489.664C489.627 77.6143 489.557 77.7636 489.454 77.8895C489.351 78.0155 489.223 78.1134 489.069 78.1834C488.92 78.2487 488.75 78.2813 488.558 78.2813Z" fill="#333333"/>
<path d="M527.07 69.1588H499.957C498.991 69.1588 498.208 69.942 498.208 70.908V80.5288C498.208 81.4949 498.991 82.278 499.957 82.278H527.07C528.036 82.278 528.819 81.4949 528.819 80.5288V70.908C528.819 69.942 528.036 69.1588 527.07 69.1588Z" fill="#C6E7FF"/>
<path d="M535.348 79.3798C535.25 79.3798 535.175 79.3519 535.124 79.2959C535.077 79.2446 535.054 79.1723 535.054 79.079V78.0015C535.054 77.7916 535.161 77.6866 535.376 77.6866H535.83L535.446 77.7846C535.716 77.4954 535.917 77.0872 536.047 76.5601C536.178 76.033 536.243 75.366 536.243 74.559V73.6354C536.243 73.5235 536.274 73.4372 536.334 73.3765C536.395 73.3159 536.481 73.2856 536.593 73.2856H539.21C539.327 73.2856 539.415 73.3159 539.476 73.3765C539.537 73.4372 539.567 73.5235 539.567 73.6354V77.9385L539.308 77.6866H539.945C540.047 77.6866 540.127 77.7146 540.183 77.7706C540.239 77.8219 540.267 77.8988 540.267 78.0015V79.079C540.267 79.2796 540.169 79.3798 539.973 79.3798C539.879 79.3798 539.807 79.3519 539.756 79.2959C539.704 79.2446 539.679 79.1723 539.679 79.079V78.2184H535.642V79.079C535.642 79.2796 535.544 79.3798 535.348 79.3798ZM536.208 77.6866H538.909V73.8173H536.845V74.608C536.845 75.345 536.794 75.9607 536.691 76.4551C536.588 76.9496 536.428 77.3601 536.208 77.6866ZM542.416 78.2813C542.08 78.2813 541.789 78.209 541.541 78.0644C541.294 77.9198 541.103 77.7146 540.968 77.4487C540.832 77.1828 540.765 76.8703 540.765 76.5111C540.765 76.2406 540.802 75.998 540.877 75.7834C540.956 75.5642 541.068 75.3776 541.213 75.2237C541.357 75.0698 541.53 74.9531 541.73 74.8739C541.936 74.7899 542.164 74.7479 542.416 74.7479C542.752 74.7479 543.043 74.8202 543.291 74.9648C543.538 75.1094 543.729 75.3147 543.864 75.5805C544 75.8418 544.067 76.1519 544.067 76.5111C544.067 76.7817 544.028 77.0266 543.948 77.2458C543.874 77.465 543.764 77.6516 543.619 77.8055C543.475 77.9595 543.3 78.0784 543.095 78.1624C542.894 78.2417 542.668 78.2813 542.416 78.2813ZM542.416 77.7776C542.621 77.7776 542.798 77.7286 542.948 77.6306C543.102 77.5327 543.218 77.3904 543.298 77.2038C543.382 77.0172 543.424 76.7863 543.424 76.5111C543.424 76.1006 543.333 75.7881 543.151 75.5735C542.969 75.359 542.724 75.2517 542.416 75.2517C542.215 75.2517 542.038 75.3007 541.884 75.3986C541.735 75.4919 541.618 75.6318 541.534 75.8184C541.45 76.005 541.408 76.2359 541.408 76.5111C541.408 76.9216 541.499 77.2365 541.681 77.4557C541.868 77.6703 542.113 77.7776 542.416 77.7776ZM546.441 78.2813C546.096 78.2813 545.798 78.209 545.546 78.0644C545.294 77.9152 545.1 77.7076 544.965 77.4417C544.83 77.1712 544.762 76.854 544.762 76.4901C544.762 76.2196 544.799 75.977 544.874 75.7625C544.953 75.5479 545.065 75.366 545.21 75.2167C545.354 75.0628 545.529 74.9462 545.735 74.8669C545.944 74.7876 546.18 74.7479 546.441 74.7479C546.604 74.7479 546.777 74.7736 546.959 74.8249C547.141 74.8762 547.309 74.9601 547.463 75.0768C547.514 75.1141 547.547 75.1584 547.561 75.2097C547.575 75.2563 547.575 75.3053 547.561 75.3566C547.551 75.4079 547.528 75.4523 547.491 75.4896C547.458 75.5222 547.414 75.5409 547.358 75.5456C547.306 75.5502 547.251 75.5339 547.19 75.4966C547.078 75.4126 546.959 75.352 546.833 75.3147C546.712 75.2773 546.595 75.2587 546.483 75.2587C546.311 75.2587 546.157 75.2867 546.021 75.3426C545.891 75.3986 545.779 75.4802 545.686 75.5875C545.597 75.6902 545.529 75.8184 545.483 75.9724C545.436 76.1216 545.413 76.2966 545.413 76.4971C545.413 76.8936 545.506 77.2061 545.693 77.4347C545.879 77.6586 546.143 77.7706 546.483 77.7706C546.595 77.7706 546.712 77.7542 546.833 77.7216C546.954 77.6843 547.073 77.6236 547.19 77.5397C547.251 77.5023 547.306 77.4884 547.358 77.4977C547.409 77.5023 547.451 77.5233 547.484 77.5607C547.521 77.5933 547.544 77.6353 547.554 77.6866C547.563 77.7332 547.558 77.7822 547.54 77.8335C547.526 77.8848 547.493 77.9268 547.442 77.9595C547.293 78.0714 547.129 78.1531 546.952 78.2044C546.775 78.2557 546.604 78.2813 546.441 78.2813ZM548.621 78.2184C548.514 78.2184 548.432 78.1904 548.376 78.1344C548.32 78.0784 548.292 77.9968 548.292 77.8895V75.1397C548.292 75.0324 548.32 74.9508 548.376 74.8948C548.432 74.8389 548.514 74.8109 548.621 74.8109H549.993C550.268 74.8109 550.492 74.8459 550.664 74.9158C550.842 74.9858 550.972 75.0861 551.056 75.2167C551.14 75.3473 551.182 75.5106 551.182 75.7065C551.182 75.9211 551.108 76.103 550.958 76.2522C550.809 76.4015 550.613 76.4901 550.371 76.5181V76.4272C550.66 76.4365 550.886 76.5205 551.049 76.679C551.213 76.833 551.294 77.0312 551.294 77.2738C551.294 77.563 551.187 77.7939 550.972 77.9665C550.758 78.1344 550.45 78.2184 550.049 78.2184H548.621ZM548.894 77.7985H550.014C550.238 77.7985 550.408 77.7519 550.525 77.6586C550.646 77.5607 550.706 77.423 550.706 77.2458C550.706 77.0639 550.646 76.9263 550.525 76.833C550.408 76.7397 550.238 76.693 550.014 76.693H548.894V77.7985ZM548.894 76.2732H549.958C550.158 76.2732 550.312 76.2266 550.42 76.1333C550.531 76.04 550.587 75.9117 550.587 75.7485C550.587 75.5805 550.531 75.4523 550.42 75.3636C550.312 75.275 550.158 75.2307 549.958 75.2307H548.894V76.2732ZM552.468 78.2533C552.37 78.2533 552.293 78.223 552.237 78.1624C552.181 78.1017 552.153 78.0178 552.153 77.9105V75.1187C552.153 75.0068 552.181 74.9228 552.237 74.8669C552.293 74.8062 552.37 74.7759 552.468 74.7759C552.571 74.7759 552.65 74.8062 552.706 74.8669C552.762 74.9228 552.79 75.0068 552.79 75.1187V77.9105C552.79 78.0178 552.762 78.1017 552.706 78.1624C552.655 78.223 552.575 78.2533 552.468 78.2533ZM552.468 74.0202C552.342 74.0202 552.242 73.9876 552.167 73.9223C552.097 73.8523 552.062 73.7613 552.062 73.6494C552.062 73.5281 552.097 73.4372 552.167 73.3765C552.242 73.3112 552.342 73.2786 552.468 73.2786C552.603 73.2786 552.704 73.3112 552.769 73.3765C552.839 73.4372 552.874 73.5281 552.874 73.6494C552.874 73.7613 552.839 73.8523 552.769 73.9223C552.704 73.9876 552.603 74.0202 552.468 74.0202ZM553.805 79.1769C553.721 79.1769 553.653 79.1513 553.602 79.1C553.55 79.0487 553.525 78.9764 553.525 78.8831V78.0224C553.525 77.8125 553.63 77.7076 553.84 77.7076H554.19L553.805 77.8405C553.935 77.6773 554.038 77.5 554.113 77.3088C554.187 77.1129 554.241 76.8936 554.273 76.6511C554.311 76.4038 554.329 76.124 554.329 75.8114V75.1747C554.329 75.0581 554.36 74.9695 554.42 74.9088C554.486 74.8435 554.577 74.8109 554.693 74.8109H556.436C556.552 74.8109 556.641 74.8435 556.701 74.9088C556.767 74.9695 556.799 75.0581 556.799 75.1747V78.0015L556.505 77.7076H557.03C557.133 77.7076 557.21 77.7356 557.261 77.7916C557.317 77.8429 557.345 77.9198 557.345 78.0224V78.8831C557.345 79.079 557.254 79.1769 557.072 79.1769C556.979 79.1769 556.909 79.1513 556.862 79.1C556.816 79.0487 556.792 78.9764 556.792 78.8831V78.2184H554.078V78.8831C554.078 79.079 553.987 79.1769 553.805 79.1769ZM554.497 77.7076H556.198V75.3077H554.889V75.9304C554.889 76.2662 554.854 76.5928 554.784 76.9099C554.719 77.2225 554.623 77.4884 554.497 77.7076Z" fill="#333333"/>
<path d="M244.882 9.08581C244.702 9.08581 244.563 9.03681 244.465 8.93891C244.367 8.83281 244.318 8.68591 244.318 8.49821V0.981304C244.318 0.785424 244.371 0.634434 244.478 0.528334C244.584 0.422234 244.735 0.369184 244.931 0.369184H250.905C251.109 0.369184 251.264 0.422234 251.37 0.528334C251.476 0.634434 251.529 0.785424 251.529 0.981304V8.49821C251.529 8.68591 251.48 8.83281 251.382 8.93891C251.284 9.03681 251.142 9.08581 250.954 9.08581C250.774 9.08581 250.636 9.03681 250.538 8.93891C250.44 8.83281 250.391 8.68591 250.391 8.49821V1.33633H245.457V8.49821C245.457 8.68591 245.408 8.83281 245.31 8.93891C245.22 9.03681 245.077 9.08581 244.882 9.08581ZM254.061 11.2894C253.89 11.2894 253.755 11.2405 253.657 11.1425C253.559 11.0446 253.51 10.9058 253.51 10.7263V3.51549C253.51 3.32777 253.559 3.18902 253.657 3.09924C253.755 3.00131 253.89 2.95234 254.061 2.95234C254.241 2.95234 254.375 3.00131 254.465 3.09924C254.563 3.18902 254.612 3.32777 254.612 3.51549V4.62955L254.477 4.40919C254.608 3.9603 254.865 3.60119 255.249 3.33185C255.632 3.06252 256.093 2.92785 256.632 2.92785C257.163 2.92785 257.624 3.05436 258.015 3.30737C258.407 3.55222 258.713 3.90725 258.934 4.37246C259.154 4.82951 259.264 5.37634 259.264 6.01291C259.264 6.64141 259.154 7.19231 258.934 7.66571C258.721 8.13091 258.415 8.49001 258.015 8.74301C257.624 8.98791 257.163 9.11031 256.632 9.11031C256.102 9.11031 255.645 8.97561 255.261 8.70631C254.877 8.43691 254.62 8.08191 254.49 7.64121H254.624V10.7263C254.624 10.9058 254.575 11.0446 254.477 11.1425C254.379 11.2405 254.241 11.2894 254.061 11.2894ZM256.375 8.22881C256.726 8.22881 257.032 8.14311 257.293 7.97171C257.562 7.80031 257.771 7.55141 257.918 7.22491C258.064 6.89851 258.138 6.49451 258.138 6.01291C258.138 5.29473 257.979 4.7479 257.66 4.37246C257.342 3.99703 256.914 3.80931 256.375 3.80931C256.016 3.80931 255.702 3.895 255.432 4.0664C255.171 4.22963 254.967 4.47448 254.82 4.80095C254.681 5.12741 254.612 5.53141 254.612 6.01291C254.612 6.73121 254.771 7.28211 255.09 7.66571C255.408 8.04111 255.836 8.22881 256.375 8.22881ZM261.341 9.08581C261.235 9.08581 261.141 9.06541 261.06 9.02461C260.986 8.98381 260.929 8.91851 260.888 8.82871C260.847 8.73891 260.827 8.62471 260.827 8.48591V3.491C260.827 3.31961 260.872 3.18902 260.962 3.09924C261.051 3.00131 261.178 2.95234 261.341 2.95234C261.496 2.95234 261.619 3.00131 261.708 3.09924C261.798 3.18902 261.843 3.31961 261.843 3.491V7.91051H261.525L264.977 3.30737C265.042 3.21759 265.124 3.13597 265.222 3.06252C265.32 2.98906 265.451 2.95234 265.614 2.95234C265.728 2.95234 265.822 2.97274 265.895 3.01355C265.969 3.05436 266.022 3.11965 266.055 3.20943C266.095 3.29104 266.116 3.40123 266.116 3.53997V8.54711C266.116 8.71041 266.071 8.84091 265.981 8.93891C265.899 9.03681 265.781 9.08581 265.626 9.08581C265.455 9.08581 265.324 9.03681 265.234 8.93891C265.153 8.84091 265.112 8.71041 265.112 8.54711V4.11537H265.43L261.978 8.73081C261.913 8.82051 261.831 8.90221 261.733 8.97561C261.635 9.04911 261.504 9.08581 261.341 9.08581ZM272.383 9.08581C272.203 9.08581 272.064 9.03681 271.966 8.93891C271.877 8.83281 271.832 8.68591 271.832 8.49821V6.64951C271.603 6.78011 271.358 6.87811 271.097 6.94341C270.844 7.00871 270.579 7.04131 270.301 7.04131C269.436 7.04131 268.8 6.83731 268.392 6.42921C267.983 6.01291 267.779 5.38858 267.779 4.5561V3.51549C267.779 3.32777 267.824 3.18902 267.914 3.09924C268.012 3.00131 268.151 2.95234 268.33 2.95234C268.51 2.95234 268.649 3.00131 268.747 3.09924C268.844 3.18902 268.893 3.32777 268.893 3.51549V4.4704C268.893 5.04172 269.016 5.45796 269.261 5.71913C269.506 5.9803 269.901 6.11091 270.448 6.11091C270.726 6.11091 270.975 6.08231 271.195 6.02521C271.415 5.9599 271.624 5.85788 271.819 5.71913V3.53997C271.819 3.14821 272.007 2.95234 272.383 2.95234C272.562 2.95234 272.697 3.00131 272.787 3.09924C272.884 3.19718 272.933 3.34409 272.933 3.53997V8.49821C272.933 8.68591 272.889 8.83281 272.799 8.93891C272.709 9.03681 272.57 9.08581 272.383 9.08581ZM275.353 9.08581C275.247 9.08581 275.153 9.06541 275.071 9.02461C274.998 8.98381 274.941 8.91851 274.9 8.82871C274.859 8.73891 274.839 8.62471 274.839 8.48591V3.491C274.839 3.31961 274.884 3.18902 274.974 3.09924C275.063 3.00131 275.19 2.95234 275.353 2.95234C275.508 2.95234 275.631 3.00131 275.72 3.09924C275.81 3.18902 275.855 3.31961 275.855 3.491V7.91051H275.537L278.989 3.30737C279.054 3.21759 279.136 3.13597 279.234 3.06252C279.332 2.98906 279.462 2.95234 279.626 2.95234C279.74 2.95234 279.834 2.97274 279.907 3.01355C279.981 3.05436 280.034 3.11965 280.066 3.20943C280.107 3.29104 280.128 3.40123 280.128 3.53997V8.54711C280.128 8.71041 280.083 8.84091 279.993 8.93891C279.911 9.03681 279.793 9.08581 279.638 9.08581C279.467 9.08581 279.336 9.03681 279.246 8.93891C279.165 8.84091 279.124 8.71041 279.124 8.54711V4.11537H279.442L275.99 8.73081C275.924 8.82051 275.843 8.90221 275.745 8.97561C275.647 9.04911 275.516 9.08581 275.353 9.08581ZM282.599 9.08581C282.42 9.08581 282.281 9.03681 282.183 8.93891C282.085 8.84091 282.036 8.69811 282.036 8.51041V3.51549C282.036 3.32777 282.085 3.18902 282.183 3.09924C282.281 3.00131 282.42 2.95234 282.599 2.95234C282.779 2.95234 282.913 3.00131 283.003 3.09924C283.101 3.18902 283.15 3.32777 283.15 3.51549V5.48652H286.26V3.51549C286.26 3.32777 286.305 3.18902 286.394 3.09924C286.492 3.00131 286.631 2.95234 286.811 2.95234C286.99 2.95234 287.129 3.00131 287.227 3.09924C287.325 3.18902 287.374 3.32777 287.374 3.51549V8.51041C287.374 8.69811 287.325 8.84091 287.227 8.93891C287.129 9.03681 286.99 9.08581 286.811 9.08581C286.631 9.08581 286.492 9.03681 286.394 8.93891C286.305 8.84091 286.26 8.69811 286.26 8.51041V6.38021H283.15V8.51041C283.15 8.69811 283.105 8.84091 283.016 8.93891C282.926 9.03681 282.787 9.08581 282.599 9.08581ZM289.795 9.08581C289.689 9.08581 289.595 9.06541 289.514 9.02461C289.44 8.98381 289.383 8.91851 289.342 8.82871C289.302 8.73891 289.281 8.62471 289.281 8.48591V3.491C289.281 3.31961 289.326 3.18902 289.416 3.09924C289.506 3.00131 289.632 2.95234 289.795 2.95234C289.95 2.95234 290.073 3.00131 290.163 3.09924C290.252 3.18902 290.297 3.31961 290.297 3.491V7.91051H289.979L293.431 3.30737C293.497 3.21759 293.578 3.13597 293.676 3.06252C293.774 2.98906 293.905 2.95234 294.068 2.95234C294.182 2.95234 294.276 2.97274 294.35 3.01355C294.423 3.05436 294.476 3.11965 294.509 3.20943C294.55 3.29104 294.57 3.40123 294.57 3.53997V8.54711C294.57 8.71041 294.525 8.84091 294.435 8.93891C294.354 9.03681 294.235 9.08581 294.08 9.08581C293.909 9.08581 293.778 9.03681 293.688 8.93891C293.607 8.84091 293.566 8.71041 293.566 8.54711V4.11537H293.884L290.432 8.73081C290.367 8.82051 290.285 8.90221 290.187 8.97561C290.089 9.04911 289.959 9.08581 289.795 9.08581ZM300.246 9.00011C300.058 9.00011 299.915 8.95111 299.817 8.85321C299.719 8.75531 299.671 8.61241 299.671 8.42471V3.61343C299.671 3.42571 299.719 3.28288 299.817 3.18494C299.915 3.087 300.058 3.03803 300.246 3.03803H302.645C303.127 3.03803 303.519 3.09924 303.821 3.22167C304.131 3.34409 304.359 3.51957 304.506 3.7481C304.653 3.97662 304.727 4.26228 304.727 4.60507C304.727 4.9805 304.596 5.29881 304.335 5.55998C304.074 5.82115 303.731 5.97622 303.307 6.02521V5.86604C303.813 5.88236 304.208 6.02931 304.494 6.30681C304.78 6.57611 304.923 6.92301 304.923 7.34741C304.923 7.85341 304.735 8.25741 304.359 8.55941C303.984 8.85321 303.445 9.00011 302.743 9.00011H300.246ZM300.723 8.26561H302.682C303.074 8.26561 303.372 8.18391 303.576 8.02071C303.788 7.84931 303.894 7.60851 303.894 7.29841C303.894 6.98011 303.788 6.73931 303.576 6.57611C303.372 6.41291 303.074 6.33121 302.682 6.33121H300.723V8.26561ZM300.723 5.59671H302.584C302.935 5.59671 303.205 5.51509 303.392 5.35186C303.588 5.18862 303.686 4.96418 303.686 4.67852C303.686 4.3847 303.588 4.16026 303.392 4.00519C303.205 3.85012 302.935 3.77258 302.584 3.77258H300.723V5.59671ZM306.976 9.06131C306.805 9.06131 306.67 9.00831 306.572 8.90221C306.474 8.79611 306.425 8.64911 306.425 8.46141V3.5767C306.425 3.38082 306.474 3.23391 306.572 3.13597C306.67 3.02987 306.805 2.97682 306.976 2.97682C307.156 2.97682 307.295 3.02987 307.393 3.13597C307.49 3.23391 307.539 3.38082 307.539 3.5767V8.46141C307.539 8.64911 307.49 8.79611 307.393 8.90221C307.303 9.00831 307.164 9.06131 306.976 9.06131ZM306.976 1.65463C306.756 1.65463 306.58 1.5975 306.45 1.48324C306.327 1.36082 306.266 1.20166 306.266 1.00578C306.266 0.793584 306.327 0.634434 306.45 0.528334C306.58 0.414074 306.756 0.356934 306.976 0.356934C307.213 0.356934 307.388 0.414074 307.503 0.528334C307.625 0.634434 307.686 0.793584 307.686 1.00578C307.686 1.20166 307.625 1.36082 307.503 1.48324C307.388 1.5975 307.213 1.65463 306.976 1.65463ZM309.315 10.6773C309.168 10.6773 309.05 10.6324 308.96 10.5426C308.87 10.4529 308.825 10.3264 308.825 10.1631V8.65731C308.825 8.29001 309.009 8.10641 309.376 8.10641H309.989L309.315 8.33901C309.544 8.05331 309.723 7.74321 309.854 7.40861C309.984 7.06581 310.078 6.68221 310.135 6.25781C310.201 5.82523 310.233 5.33553 310.233 4.7887V3.67464C310.233 3.4706 310.286 3.31553 310.393 3.20943C310.507 3.09516 310.666 3.03803 310.87 3.03803H313.918C314.122 3.03803 314.277 3.09516 314.384 3.20943C314.498 3.31553 314.555 3.4706 314.555 3.67464V8.62061L314.041 8.10641H314.959C315.139 8.10641 315.273 8.15541 315.363 8.25331C315.461 8.34311 315.51 8.47781 315.51 8.65731V10.1631C315.51 10.5059 315.351 10.6773 315.032 10.6773C314.869 10.6773 314.747 10.6324 314.665 10.5426C314.584 10.4529 314.543 10.3264 314.543 10.1631V9.00011H309.793V10.1631C309.793 10.5059 309.633 10.6773 309.315 10.6773ZM310.527 8.10641H313.502V3.90725H311.213V4.99683C311.213 5.58446 311.152 6.15581 311.029 6.71081C310.915 7.25761 310.748 7.72281 310.527 8.10641ZM317.269 9.08581C317.113 9.08581 316.991 9.04091 316.901 8.95111C316.82 8.85321 316.779 8.71851 316.779 8.54711V3.55222C316.779 3.42163 316.795 3.31145 316.828 3.22167C316.869 3.13189 316.926 3.0666 316.999 3.02579C317.073 2.97682 317.167 2.95234 317.281 2.95234C317.387 2.95234 317.477 2.97274 317.55 3.01355C317.624 3.04619 317.685 3.09108 317.734 3.14821C317.791 3.20535 317.84 3.27472 317.881 3.35634L319.901 6.91891L321.908 3.35634C321.957 3.26656 322.006 3.1931 322.055 3.13597C322.104 3.07884 322.166 3.03395 322.239 3.00131C322.312 2.96866 322.402 2.95234 322.508 2.95234C322.68 2.95234 322.806 3.00539 322.888 3.11149C322.969 3.20943 323.01 3.35634 323.01 3.55222V8.54711C323.01 8.71851 322.965 8.85321 322.876 8.95111C322.794 9.04091 322.676 9.08581 322.521 9.08581C322.366 9.08581 322.243 9.04091 322.153 8.95111C322.064 8.85321 322.019 8.71851 322.019 8.54711V4.32349H322.3L320.292 7.83711C320.252 7.90241 320.203 7.96361 320.146 8.02071C320.088 8.06971 320.007 8.09421 319.901 8.09421C319.786 8.09421 319.701 8.06971 319.644 8.02071C319.595 7.96361 319.55 7.90241 319.509 7.83711L317.489 4.32349H317.758V8.54711C317.758 8.71851 317.717 8.85321 317.636 8.95111C317.554 9.04091 317.432 9.08581 317.269 9.08581ZM327.455 9.11031C326.867 9.11031 326.357 8.98381 325.924 8.73081C325.492 8.47781 325.157 8.11861 324.921 7.65341C324.684 7.18821 324.566 6.64141 324.566 6.01291C324.566 5.53957 324.631 5.11517 324.761 4.73973C324.9 4.35614 325.096 4.02967 325.349 3.76034C325.602 3.491 325.904 3.28696 326.255 3.14821C326.614 3.00131 327.014 2.92785 327.455 2.92785C328.042 2.92785 328.553 3.05436 328.985 3.30737C329.418 3.56038 329.752 3.91949 329.989 4.3847C330.226 4.84175 330.344 5.3845 330.344 6.01291C330.344 6.48631 330.275 6.91481 330.136 7.29841C330.005 7.68201 329.813 8.00851 329.56 8.27781C329.307 8.54711 329.001 8.75531 328.642 8.90221C328.291 9.04091 327.896 9.11031 327.455 9.11031ZM327.455 8.22881C327.814 8.22881 328.124 8.14311 328.385 7.97171C328.655 7.80031 328.859 7.55141 328.997 7.22491C329.144 6.89851 329.218 6.49451 329.218 6.01291C329.218 5.29473 329.059 4.7479 328.74 4.37246C328.422 3.99703 327.993 3.80931 327.455 3.80931C327.104 3.80931 326.794 3.895 326.524 4.0664C326.263 4.22963 326.059 4.47448 325.912 4.80095C325.765 5.12741 325.692 5.53141 325.692 6.01291C325.692 6.73121 325.851 7.28211 326.169 7.66571C326.496 8.04111 326.924 8.22881 327.455 8.22881ZM332.49 9.00011C332.302 9.00011 332.159 8.95111 332.061 8.85321C331.964 8.75531 331.915 8.61241 331.915 8.42471V3.61343C331.915 3.42571 331.964 3.28288 332.061 3.18494C332.159 3.087 332.302 3.03803 332.49 3.03803H334.889C335.371 3.03803 335.763 3.09924 336.065 3.22167C336.375 3.34409 336.603 3.51957 336.75 3.7481C336.897 3.97662 336.971 4.26228 336.971 4.60507C336.971 4.9805 336.84 5.29881 336.579 5.55998C336.318 5.82115 335.975 5.97622 335.551 6.02521V5.86604C336.057 5.88236 336.452 6.02931 336.738 6.30681C337.024 6.57611 337.167 6.92301 337.167 7.34741C337.167 7.85341 336.979 8.25741 336.603 8.55941C336.228 8.85321 335.689 9.00011 334.987 9.00011H332.49ZM332.967 8.26561H334.926C335.318 8.26561 335.616 8.18391 335.82 8.02071C336.032 7.84931 336.138 7.60851 336.138 7.29841C336.138 6.98011 336.032 6.73931 335.82 6.57611C335.616 6.41291 335.318 6.33121 334.926 6.33121H332.967V8.26561ZM332.967 5.59671H334.828C335.179 5.59671 335.449 5.51509 335.636 5.35186C335.832 5.18862 335.93 4.96418 335.93 4.67852C335.93 4.3847 335.832 4.16026 335.636 4.00519C335.449 3.85012 335.179 3.77258 334.828 3.77258H332.967V5.59671Z" fill="#333333"/>
<path d="M0.420768 28.3406C0.420768 25.4429 2.76983 23.0939 5.66754 23.0939H43.1455V58.5241H5.66753C2.76982 58.5241 0.420768 56.175 0.420768 53.2773V28.3406Z" fill="#B1D690"/>
<path d="M43.1455 23.0939H139.016V58.5241H43.1455V23.0939Z" fill="#A6AEBF"/>
<path d="M200.498 23.0939H139.016V58.5241H200.498V23.0939Z" fill="#CDC1FF"/>
<path d="M236.969 23.0939H200.498V58.5241H236.969V23.0939Z" fill="#D0E8C5"/>
<path d="M289.073 23.0939H236.969V58.5241H289.073V23.0939Z" fill="#FEEE91"/>
<path d="M289.073 23.0939H387.027V58.5241H289.073V23.0939Z" fill="#FC8972"/>
<path d="M387.027 23.0939H562.058C564.956 23.0939 567.305 25.4429 567.305 28.3406V53.2773C567.305 56.175 564.956 58.5241 562.058 58.5241H387.027V23.0939Z" fill="#C6E7FF"/>
</svg>
