<svg width="598" height="187" viewBox="0 0 598 187" fill="none" xmlns="http://www.w3.org/2000/svg">
<path d="M300.882 120.347H47.1271C44.0356 120.347 41.5295 122.853 41.5295 125.945V143.67C41.5295 146.761 44.0356 149.268 47.1271 149.268H300.882C303.973 149.268 306.48 146.761 306.48 143.67V125.945C306.48 122.853 303.973 120.347 300.882 120.347Z" fill="#F7F8FB"/>
<path d="M83.5113 127.811H54.5907C53.5602 127.811 52.7248 128.646 52.7248 129.677V139.939C52.7248 140.97 53.5602 141.805 54.5907 141.805H83.5113C84.5418 141.805 85.3771 140.97 85.3771 139.939V129.677C85.3771 128.646 84.5418 127.811 83.5113 127.811Z" fill="#D0E8C5"/>
<path d="M92.8851 136.86C92.7756 136.86 92.6911 136.83 92.6313 136.77C92.5716 136.706 92.5418 136.616 92.5418 136.502V131.852C92.5418 131.733 92.5716 131.643 92.6313 131.583C92.6911 131.524 92.7756 131.494 92.8851 131.494C92.9995 131.494 93.0866 131.524 93.1463 131.583C93.206 131.643 93.2359 131.733 93.2359 131.852V133.845H96.2809V131.852C96.2809 131.733 96.3108 131.643 96.3705 131.583C96.4302 131.524 96.5173 131.494 96.6317 131.494C96.7412 131.494 96.8258 131.524 96.8855 131.583C96.9452 131.643 96.975 131.733 96.975 131.852V136.502C96.975 136.616 96.9452 136.706 96.8855 136.77C96.8258 136.83 96.7412 136.86 96.6317 136.86C96.5173 136.86 96.4302 136.83 96.3705 136.77C96.3108 136.706 96.2809 136.616 96.2809 136.502V134.434H93.2359V136.502C93.2359 136.616 93.206 136.706 93.1463 136.77C93.0916 136.83 93.0045 136.86 92.8851 136.86ZM99.3458 136.875C99.0968 136.875 98.8708 136.825 98.6668 136.726C98.4678 136.626 98.311 136.492 98.1966 136.322C98.0871 136.153 98.0324 135.964 98.0324 135.755C98.0324 135.487 98.0996 135.275 98.2339 135.121C98.3682 134.967 98.5946 134.857 98.9128 134.793C99.2318 134.723 99.6598 134.688 100.197 134.688H100.548V135.121H100.212C99.8288 135.121 99.5248 135.138 99.3008 135.173C99.0818 135.208 98.9278 135.27 98.8388 135.36C98.7488 135.444 98.7038 135.564 98.7038 135.718C98.7038 135.912 98.7708 136.071 98.9058 136.196C99.0448 136.32 99.2338 136.382 99.4728 136.382C99.6618 136.382 99.8288 136.337 99.9728 136.248C100.117 136.153 100.232 136.029 100.316 135.875C100.401 135.715 100.443 135.534 100.443 135.33V134.472C100.443 134.178 100.384 133.967 100.264 133.837C100.145 133.703 99.9428 133.636 99.6598 133.636C99.4948 133.636 99.3258 133.658 99.1518 133.703C98.9778 133.748 98.7958 133.817 98.6068 133.912C98.5324 133.947 98.4678 133.959 98.413 133.949C98.3583 133.934 98.3135 133.904 98.2787 133.86C98.2488 133.81 98.2314 133.758 98.2264 133.703C98.2264 133.643 98.2389 133.586 98.2638 133.531C98.2936 133.476 98.3434 133.437 98.413 133.412C98.6318 133.302 98.8488 133.225 99.0628 133.18C99.2808 133.131 99.4848 133.106 99.6748 133.106C99.9978 133.106 100.264 133.158 100.473 133.263C100.682 133.362 100.839 133.519 100.943 133.733C101.048 133.942 101.1 134.21 101.1 134.539V136.509C101.1 136.624 101.073 136.711 101.018 136.77C100.963 136.83 100.884 136.86 100.779 136.86C100.68 136.86 100.6 136.83 100.54 136.77C100.486 136.711 100.458 136.624 100.458 136.509V135.979H100.525C100.486 136.163 100.411 136.322 100.301 136.457C100.192 136.591 100.055 136.696 99.8908 136.77C99.7318 136.84 99.5498 136.875 99.3458 136.875ZM102.159 137.83C102.07 137.83 101.998 137.803 101.943 137.748C101.888 137.693 101.861 137.616 101.861 137.517V136.599C101.861 136.375 101.973 136.263 102.197 136.263H102.57L102.159 136.405C102.299 136.23 102.408 136.041 102.488 135.837C102.567 135.628 102.625 135.395 102.659 135.136C102.699 134.872 102.719 134.574 102.719 134.24V133.561C102.719 133.437 102.752 133.342 102.816 133.277C102.886 133.208 102.983 133.173 103.107 133.173H104.966C105.09 133.173 105.185 133.208 105.249 133.277C105.319 133.342 105.354 133.437 105.354 133.561V136.576L105.04 136.263H105.6C105.71 136.263 105.792 136.293 105.846 136.352C105.906 136.407 105.936 136.489 105.936 136.599V137.517C105.936 137.726 105.839 137.83 105.645 137.83C105.545 137.83 105.471 137.803 105.421 137.748C105.371 137.693 105.346 137.616 105.346 137.517V136.808H102.451V137.517C102.451 137.726 102.353 137.83 102.159 137.83ZM102.898 136.263H104.712V133.703H103.316V134.367C103.316 134.725 103.279 135.074 103.204 135.412C103.135 135.745 103.033 136.029 102.898 136.263ZM107.045 136.845C106.941 136.845 106.859 136.813 106.799 136.748C106.739 136.683 106.71 136.594 106.71 136.479V133.501C106.71 133.382 106.739 133.292 106.799 133.233C106.859 133.168 106.941 133.136 107.045 133.136C107.155 133.136 107.239 133.168 107.299 133.233C107.359 133.292 107.389 133.382 107.389 133.501V136.479C107.389 136.594 107.359 136.683 107.299 136.748C107.244 136.813 107.16 136.845 107.045 136.845ZM107.045 132.33C106.911 132.33 106.804 132.295 106.724 132.225C106.65 132.15 106.613 132.053 106.613 131.934C106.613 131.805 106.65 131.708 106.724 131.643C106.804 131.573 106.911 131.538 107.045 131.538C107.19 131.538 107.297 131.573 107.366 131.643C107.441 131.708 107.478 131.805 107.478 131.934C107.478 132.053 107.441 132.15 107.366 132.225C107.297 132.295 107.19 132.33 107.045 132.33ZM110.136 136.875C109.767 136.875 109.449 136.798 109.18 136.643C108.912 136.484 108.705 136.263 108.561 135.979C108.417 135.691 108.344 135.352 108.344 134.964C108.344 134.676 108.384 134.417 108.464 134.188C108.548 133.959 108.668 133.765 108.822 133.606C108.976 133.442 109.163 133.317 109.382 133.233C109.606 133.148 109.857 133.106 110.136 133.106C110.31 133.106 110.494 133.133 110.688 133.188C110.882 133.243 111.061 133.332 111.225 133.457C111.28 133.496 111.315 133.544 111.33 133.598C111.345 133.648 111.345 133.7 111.33 133.755C111.32 133.81 111.295 133.857 111.255 133.897C111.22 133.932 111.173 133.952 111.113 133.957C111.059 133.962 110.999 133.944 110.934 133.904C110.815 133.815 110.688 133.75 110.554 133.71C110.424 133.671 110.3 133.651 110.18 133.651C109.996 133.651 109.832 133.68 109.688 133.74C109.548 133.8 109.429 133.887 109.33 134.001C109.235 134.111 109.163 134.248 109.113 134.412C109.063 134.571 109.038 134.758 109.038 134.972C109.038 135.395 109.138 135.728 109.337 135.972C109.536 136.211 109.817 136.33 110.18 136.33C110.3 136.33 110.424 136.313 110.554 136.278C110.683 136.238 110.81 136.173 110.934 136.084C110.999 136.044 111.059 136.029 111.113 136.039C111.168 136.044 111.213 136.066 111.248 136.106C111.287 136.141 111.312 136.186 111.322 136.24C111.332 136.29 111.327 136.342 111.307 136.397C111.292 136.452 111.258 136.497 111.203 136.531C111.044 136.651 110.869 136.738 110.68 136.793C110.491 136.847 110.31 136.875 110.136 136.875ZM114.931 136.86C114.822 136.86 114.737 136.83 114.678 136.77C114.618 136.711 114.588 136.624 114.588 136.509V133.718H113.2V134.166C113.2 134.544 113.18 134.88 113.14 135.173C113.1 135.462 113.038 135.713 112.954 135.927C112.874 136.141 112.767 136.32 112.633 136.464C112.503 136.609 112.342 136.726 112.148 136.815C112.073 136.85 112.003 136.86 111.939 136.845C111.874 136.835 111.819 136.808 111.774 136.763C111.735 136.718 111.707 136.666 111.692 136.606C111.682 136.546 111.69 136.487 111.715 136.427C111.74 136.367 111.789 136.318 111.864 136.278C112.003 136.198 112.118 136.101 112.207 135.987C112.297 135.867 112.367 135.723 112.416 135.554C112.471 135.385 112.508 135.186 112.528 134.957C112.553 134.728 112.566 134.459 112.566 134.151V133.561C112.566 133.437 112.598 133.342 112.663 133.277C112.732 133.208 112.829 133.173 112.954 133.173H114.887C115.011 133.173 115.106 133.208 115.17 133.277C115.235 133.342 115.267 133.437 115.267 133.561V136.509C115.267 136.624 115.237 136.711 115.178 136.77C115.118 136.83 115.036 136.86 114.931 136.86ZM117.589 136.875C117.34 136.875 117.114 136.825 116.91 136.726C116.711 136.626 116.554 136.492 116.44 136.322C116.33 136.153 116.276 135.964 116.276 135.755C116.276 135.487 116.343 135.275 116.477 135.121C116.611 134.967 116.838 134.857 117.156 134.793C117.475 134.723 117.903 134.688 118.44 134.688H118.791V135.121H118.455C118.072 135.121 117.768 135.138 117.544 135.173C117.325 135.208 117.171 135.27 117.082 135.36C116.992 135.444 116.947 135.564 116.947 135.718C116.947 135.912 117.015 136.071 117.149 136.196C117.288 136.32 117.477 136.382 117.716 136.382C117.905 136.382 118.072 136.337 118.216 136.248C118.36 136.153 118.475 136.029 118.559 135.875C118.644 135.715 118.686 135.534 118.686 135.33V134.472C118.686 134.178 118.627 133.967 118.507 133.837C118.388 133.703 118.186 133.636 117.903 133.636C117.738 133.636 117.569 133.658 117.395 133.703C117.221 133.748 117.039 133.817 116.85 133.912C116.776 133.947 116.711 133.959 116.656 133.949C116.602 133.934 116.557 133.904 116.522 133.86C116.492 133.81 116.475 133.758 116.47 133.703C116.47 133.643 116.482 133.586 116.507 133.531C116.537 133.476 116.587 133.437 116.656 133.412C116.875 133.302 117.092 133.225 117.306 133.18C117.525 133.131 117.729 133.106 117.918 133.106C118.241 133.106 118.507 133.158 118.716 133.263C118.925 133.362 119.082 133.519 119.186 133.733C119.291 133.942 119.343 134.21 119.343 134.539V136.509C119.343 136.624 119.316 136.711 119.261 136.77C119.206 136.83 119.127 136.86 119.022 136.86C118.923 136.86 118.843 136.83 118.783 136.77C118.729 136.711 118.701 136.624 118.701 136.509V135.979H118.768C118.729 136.163 118.654 136.322 118.545 136.457C118.435 136.591 118.298 136.696 118.134 136.77C117.975 136.84 117.793 136.875 117.589 136.875ZM120.835 136.86C120.726 136.86 120.641 136.83 120.582 136.77C120.522 136.711 120.492 136.624 120.492 136.509V133.464C120.492 133.35 120.522 133.265 120.582 133.21C120.641 133.151 120.726 133.121 120.835 133.121C120.945 133.121 121.027 133.151 121.082 133.21C121.141 133.265 121.171 133.35 121.171 133.464V134.666H123.067V133.464C123.067 133.35 123.094 133.265 123.149 133.21C123.209 133.151 123.293 133.121 123.403 133.121C123.512 133.121 123.597 133.151 123.657 133.21C123.716 133.265 123.746 133.35 123.746 133.464V136.509C123.746 136.624 123.716 136.711 123.657 136.77C123.597 136.83 123.512 136.86 123.403 136.86C123.293 136.86 123.209 136.83 123.149 136.77C123.094 136.711 123.067 136.624 123.067 136.509V135.21H121.171V136.509C121.171 136.624 121.144 136.711 121.089 136.77C121.034 136.83 120.95 136.86 120.835 136.86ZM126.454 136.875C126.096 136.875 125.785 136.798 125.521 136.643C125.257 136.489 125.053 136.27 124.909 135.987C124.765 135.703 124.692 135.37 124.692 134.987C124.692 134.698 124.732 134.439 124.812 134.21C124.896 133.977 125.016 133.777 125.17 133.613C125.324 133.449 125.508 133.325 125.722 133.24C125.941 133.151 126.185 133.106 126.454 133.106C126.812 133.106 127.123 133.183 127.387 133.337C127.65 133.491 127.854 133.71 127.999 133.994C128.143 134.273 128.215 134.603 128.215 134.987C128.215 135.275 128.173 135.536 128.088 135.77C128.009 136.004 127.892 136.203 127.737 136.367C127.583 136.531 127.397 136.658 127.178 136.748C126.964 136.832 126.722 136.875 126.454 136.875ZM126.454 136.337C126.673 136.337 126.862 136.285 127.021 136.181C127.185 136.076 127.31 135.924 127.394 135.725C127.484 135.526 127.529 135.28 127.529 134.987C127.529 134.549 127.431 134.215 127.237 133.986C127.043 133.758 126.782 133.643 126.454 133.643C126.24 133.643 126.051 133.695 125.887 133.8C125.727 133.899 125.603 134.049 125.513 134.248C125.424 134.447 125.379 134.693 125.379 134.987C125.379 135.424 125.476 135.76 125.67 135.994C125.869 136.223 126.13 136.337 126.454 136.337ZM131.454 138.203C131.35 138.203 131.268 138.173 131.208 138.114C131.148 138.054 131.119 137.969 131.119 137.86V133.464C131.119 133.35 131.148 133.265 131.208 133.21C131.268 133.151 131.35 133.121 131.454 133.121C131.564 133.121 131.646 133.151 131.701 133.21C131.76 133.265 131.79 133.35 131.79 133.464V134.143L131.708 134.009C131.788 133.735 131.945 133.516 132.178 133.352C132.412 133.188 132.693 133.106 133.022 133.106C133.345 133.106 133.626 133.183 133.865 133.337C134.104 133.486 134.291 133.703 134.425 133.986C134.559 134.265 134.626 134.598 134.626 134.987C134.626 135.37 134.559 135.706 134.425 135.994C134.296 136.278 134.109 136.497 133.865 136.651C133.626 136.8 133.345 136.875 133.022 136.875C132.698 136.875 132.42 136.793 132.186 136.628C131.952 136.464 131.795 136.248 131.716 135.979H131.798V137.86C131.798 137.969 131.768 138.054 131.708 138.114C131.649 138.173 131.564 138.203 131.454 138.203ZM132.865 136.337C133.079 136.337 133.266 136.285 133.425 136.181C133.589 136.076 133.716 135.924 133.805 135.725C133.895 135.526 133.94 135.28 133.94 134.987C133.94 134.549 133.843 134.215 133.649 133.986C133.455 133.758 133.193 133.643 132.865 133.643C132.646 133.643 132.455 133.695 132.29 133.8C132.131 133.899 132.007 134.049 131.917 134.248C131.833 134.447 131.79 134.693 131.79 134.987C131.79 135.424 131.887 135.76 132.081 135.994C132.275 136.223 132.537 136.337 132.865 136.337ZM137.258 136.875C136.865 136.875 136.527 136.8 136.243 136.651C135.965 136.497 135.748 136.28 135.594 136.002C135.44 135.718 135.363 135.385 135.363 135.001C135.363 134.623 135.437 134.292 135.587 134.009C135.741 133.725 135.95 133.504 136.214 133.345C136.482 133.185 136.788 133.106 137.132 133.106C137.375 133.106 137.594 133.148 137.788 133.233C137.987 133.312 138.157 133.429 138.296 133.583C138.435 133.738 138.54 133.927 138.609 134.151C138.684 134.37 138.721 134.618 138.721 134.897C138.721 134.977 138.696 135.039 138.647 135.084C138.602 135.123 138.535 135.143 138.445 135.143H135.893V134.71H138.273L138.147 134.815C138.147 134.556 138.107 134.337 138.027 134.158C137.953 133.974 137.841 133.835 137.691 133.74C137.547 133.646 137.365 133.598 137.146 133.598C136.908 133.598 136.704 133.656 136.534 133.77C136.365 133.879 136.236 134.036 136.146 134.24C136.057 134.439 136.012 134.671 136.012 134.934V134.979C136.012 135.427 136.119 135.765 136.333 135.994C136.547 136.223 136.855 136.337 137.258 136.337C137.418 136.337 137.579 136.318 137.744 136.278C137.913 136.238 138.074 136.166 138.229 136.061C138.303 136.016 138.37 135.997 138.43 136.002C138.495 136.002 138.547 136.021 138.587 136.061C138.627 136.096 138.652 136.141 138.662 136.196C138.672 136.245 138.664 136.3 138.639 136.36C138.614 136.42 138.567 136.472 138.497 136.517C138.333 136.631 138.137 136.721 137.908 136.785C137.684 136.845 137.467 136.875 137.258 136.875ZM140.878 136.875C140.624 136.875 140.375 136.847 140.131 136.793C139.887 136.733 139.678 136.648 139.504 136.539C139.435 136.504 139.385 136.459 139.355 136.405C139.33 136.35 139.32 136.295 139.325 136.24C139.33 136.186 139.35 136.138 139.385 136.099C139.425 136.059 139.472 136.036 139.527 136.031C139.586 136.021 139.656 136.036 139.736 136.076C139.895 136.171 140.074 136.243 140.273 136.293C140.472 136.337 140.671 136.36 140.87 136.36C141.218 136.36 141.467 136.31 141.616 136.211C141.766 136.111 141.84 135.967 141.84 135.778C141.84 135.594 141.778 135.454 141.654 135.36C141.529 135.265 141.353 135.218 141.124 135.218H140.467C140.383 135.218 140.313 135.196 140.258 135.151C140.208 135.101 140.184 135.039 140.184 134.964C140.184 134.885 140.208 134.822 140.258 134.778C140.313 134.733 140.383 134.71 140.467 134.71H141.042C141.251 134.71 141.415 134.666 141.534 134.576C141.659 134.482 141.721 134.352 141.721 134.188C141.721 134.014 141.654 133.877 141.519 133.777C141.385 133.673 141.164 133.621 140.855 133.621C140.661 133.621 140.477 133.643 140.303 133.688C140.129 133.728 139.96 133.79 139.795 133.875C139.701 133.924 139.619 133.939 139.549 133.919C139.484 133.894 139.437 133.852 139.407 133.792C139.377 133.728 139.372 133.663 139.392 133.598C139.417 133.529 139.47 133.474 139.549 133.434C139.753 133.32 139.972 133.238 140.206 133.188C140.44 133.133 140.686 133.106 140.945 133.106C141.412 133.106 141.763 133.195 141.997 133.374C142.231 133.554 142.348 133.805 142.348 134.128C142.348 134.357 142.268 134.551 142.109 134.71C141.955 134.87 141.746 134.964 141.482 134.994V134.897C141.786 134.907 142.027 134.994 142.206 135.158C142.39 135.317 142.482 135.531 142.482 135.8C142.482 136.123 142.345 136.385 142.072 136.584C141.803 136.778 141.405 136.875 140.878 136.875ZM146.497 136.875C146.164 136.875 145.873 136.808 145.624 136.673C145.375 136.539 145.176 136.347 145.027 136.099C144.878 135.845 144.788 135.549 144.758 135.21H144.057V136.509C144.057 136.624 144.029 136.711 143.975 136.77C143.925 136.83 143.843 136.86 143.728 136.86C143.619 136.86 143.534 136.83 143.475 136.77C143.42 136.711 143.392 136.624 143.392 136.509V133.464C143.392 133.35 143.42 133.265 143.475 133.21C143.534 133.151 143.619 133.121 143.728 133.121C143.838 133.121 143.92 133.151 143.975 133.21C144.029 133.265 144.057 133.35 144.057 133.464V134.666H144.766C144.805 134.337 144.9 134.059 145.049 133.83C145.204 133.596 145.403 133.417 145.646 133.292C145.895 133.168 146.179 133.106 146.497 133.106C146.855 133.106 147.166 133.183 147.43 133.337C147.694 133.491 147.898 133.71 148.042 133.994C148.186 134.273 148.259 134.603 148.259 134.987C148.259 135.275 148.216 135.536 148.132 135.77C148.052 136.004 147.935 136.203 147.781 136.367C147.627 136.531 147.44 136.658 147.221 136.748C147.007 136.832 146.766 136.875 146.497 136.875ZM146.497 136.337C146.716 136.337 146.905 136.285 147.064 136.181C147.229 136.076 147.353 135.924 147.438 135.725C147.527 135.526 147.572 135.28 147.572 134.987C147.572 134.549 147.475 134.215 147.281 133.986C147.087 133.758 146.826 133.643 146.497 133.643C146.278 133.643 146.087 133.695 145.923 133.8C145.763 133.899 145.639 134.049 145.549 134.248C145.465 134.447 145.422 134.693 145.422 134.987C145.422 135.424 145.519 135.76 145.714 135.994C145.913 136.223 146.174 136.337 146.497 136.337ZM149.514 136.86C149.42 136.86 149.345 136.832 149.291 136.778C149.241 136.718 149.216 136.636 149.216 136.531V133.486C149.216 133.407 149.226 133.34 149.246 133.285C149.271 133.23 149.305 133.19 149.35 133.165C149.395 133.136 149.452 133.121 149.522 133.121C149.587 133.121 149.641 133.133 149.686 133.158C149.731 133.178 149.768 133.205 149.798 133.24C149.833 133.275 149.863 133.317 149.888 133.367L151.119 135.539L152.343 133.367C152.373 133.312 152.403 133.267 152.433 133.233C152.462 133.198 152.5 133.17 152.545 133.151C152.589 133.131 152.644 133.121 152.709 133.121C152.813 133.121 152.89 133.153 152.94 133.218C152.99 133.277 153.015 133.367 153.015 133.486V136.531C153.015 136.636 152.987 136.718 152.933 136.778C152.883 136.832 152.811 136.86 152.716 136.86C152.622 136.86 152.547 136.832 152.492 136.778C152.438 136.718 152.41 136.636 152.41 136.531V133.957H152.582L151.358 136.099C151.333 136.138 151.303 136.176 151.268 136.211C151.234 136.24 151.184 136.255 151.119 136.255C151.049 136.255 150.997 136.24 150.962 136.211C150.932 136.176 150.905 136.138 150.88 136.099L149.649 133.957H149.813V136.531C149.813 136.636 149.788 136.718 149.738 136.778C149.689 136.832 149.614 136.86 149.514 136.86ZM155.859 136.875C155.466 136.875 155.127 136.8 154.844 136.651C154.565 136.497 154.349 136.28 154.194 136.002C154.04 135.718 153.963 135.385 153.963 135.001C153.963 134.623 154.038 134.292 154.187 134.009C154.341 133.725 154.55 133.504 154.814 133.345C155.082 133.185 155.388 133.106 155.732 133.106C155.976 133.106 156.194 133.148 156.389 133.233C156.588 133.312 156.757 133.429 156.896 133.583C157.035 133.738 157.14 133.927 157.209 134.151C157.284 134.37 157.321 134.618 157.321 134.897C157.321 134.977 157.297 135.039 157.247 135.084C157.202 135.123 157.135 135.143 157.045 135.143H154.493V134.71H156.874L156.747 134.815C156.747 134.556 156.707 134.337 156.627 134.158C156.553 133.974 156.441 133.835 156.291 133.74C156.147 133.646 155.966 133.598 155.747 133.598C155.508 133.598 155.304 133.656 155.135 133.77C154.965 133.879 154.836 134.036 154.747 134.24C154.657 134.439 154.612 134.671 154.612 134.934V134.979C154.612 135.427 154.719 135.765 154.933 135.994C155.147 136.223 155.456 136.337 155.859 136.337C156.018 136.337 156.18 136.318 156.344 136.278C156.513 136.238 156.675 136.166 156.829 136.061C156.903 136.016 156.971 135.997 157.03 136.002C157.095 136.002 157.147 136.021 157.187 136.061C157.227 136.096 157.252 136.141 157.262 136.196C157.272 136.245 157.264 136.3 157.239 136.36C157.214 136.42 157.167 136.472 157.098 136.517C156.933 136.631 156.737 136.721 156.508 136.785C156.284 136.845 156.068 136.875 155.859 136.875Z" fill="#333333"/>
<path d="M211.084 127.811H182.164C181.133 127.811 180.298 128.646 180.298 129.677V139.939C180.298 140.97 181.133 141.805 182.164 141.805H211.084C212.115 141.805 212.95 140.97 212.95 139.939V129.677C212.95 128.646 212.115 127.811 211.084 127.811Z" fill="#C6E7FF"/>
<path d="M222.361 136.875C221.864 136.875 221.433 136.765 221.07 136.546C220.707 136.322 220.423 136.009 220.219 135.606C220.02 135.198 219.921 134.72 219.921 134.173C219.921 133.76 219.978 133.389 220.092 133.061C220.207 132.728 220.368 132.444 220.577 132.21C220.791 131.971 221.048 131.79 221.346 131.665C221.65 131.541 221.988 131.479 222.361 131.479C222.859 131.479 223.289 131.588 223.652 131.807C224.016 132.026 224.297 132.337 224.496 132.74C224.695 133.143 224.794 133.618 224.794 134.166C224.794 134.579 224.737 134.952 224.623 135.285C224.508 135.618 224.344 135.905 224.13 136.143C223.921 136.382 223.667 136.564 223.369 136.688C223.07 136.813 222.734 136.875 222.361 136.875ZM222.361 136.263C222.719 136.263 223.025 136.181 223.279 136.016C223.533 135.852 223.727 135.613 223.861 135.3C224.001 134.987 224.07 134.611 224.07 134.173C224.07 133.511 223.921 132.999 223.623 132.636C223.329 132.272 222.909 132.091 222.361 132.091C222.003 132.091 221.694 132.173 221.436 132.337C221.182 132.496 220.988 132.733 220.854 133.046C220.719 133.355 220.652 133.73 220.652 134.173C220.652 134.83 220.801 135.342 221.1 135.71C221.398 136.079 221.819 136.263 222.361 136.263ZM226.925 136.86C226.816 136.86 226.731 136.83 226.671 136.77C226.612 136.711 226.582 136.624 226.582 136.509V133.718H225.522C225.323 133.718 225.223 133.626 225.223 133.442C225.223 133.357 225.251 133.292 225.305 133.248C225.36 133.198 225.432 133.173 225.522 133.173H228.313C228.517 133.173 228.619 133.263 228.619 133.442C228.619 133.531 228.592 133.601 228.537 133.651C228.487 133.695 228.413 133.718 228.313 133.718H227.261V136.509C227.261 136.624 227.231 136.711 227.171 136.77C227.117 136.83 227.034 136.86 226.925 136.86ZM229.516 138.203C229.412 138.203 229.33 138.173 229.27 138.114C229.21 138.054 229.18 137.969 229.18 137.86V133.464C229.18 133.35 229.21 133.265 229.27 133.21C229.33 133.151 229.412 133.121 229.516 133.121C229.626 133.121 229.708 133.151 229.763 133.21C229.822 133.265 229.852 133.35 229.852 133.464V134.143L229.77 134.009C229.85 133.735 230.006 133.516 230.24 133.352C230.474 133.188 230.755 133.106 231.084 133.106C231.407 133.106 231.688 133.183 231.927 133.337C232.166 133.486 232.352 133.703 232.487 133.986C232.621 134.265 232.688 134.598 232.688 134.987C232.688 135.37 232.621 135.706 232.487 135.994C232.357 136.278 232.171 136.497 231.927 136.651C231.688 136.8 231.407 136.875 231.084 136.875C230.76 136.875 230.481 136.793 230.248 136.628C230.014 136.464 229.857 136.248 229.777 135.979H229.86V137.86C229.86 137.969 229.83 138.054 229.77 138.114C229.71 138.173 229.626 138.203 229.516 138.203ZM230.927 136.337C231.141 136.337 231.327 136.285 231.487 136.181C231.651 136.076 231.778 135.924 231.867 135.725C231.957 135.526 232.002 135.28 232.002 134.987C232.002 134.549 231.905 134.215 231.71 133.986C231.516 133.758 231.255 133.643 230.927 133.643C230.708 133.643 230.516 133.695 230.352 133.8C230.193 133.899 230.069 134.049 229.979 134.248C229.894 134.447 229.852 134.693 229.852 134.987C229.852 135.424 229.949 135.76 230.143 135.994C230.337 136.223 230.598 136.337 230.927 136.337ZM233.954 136.86C233.89 136.86 233.832 136.847 233.783 136.823C233.738 136.798 233.703 136.758 233.678 136.703C233.653 136.648 233.641 136.579 233.641 136.494V133.449C233.641 133.345 233.668 133.265 233.723 133.21C233.778 133.151 233.855 133.121 233.954 133.121C234.049 133.121 234.124 133.151 234.178 133.21C234.233 133.265 234.26 133.345 234.26 133.449V136.143H234.066L236.171 133.337C236.211 133.282 236.261 133.233 236.32 133.188C236.38 133.143 236.46 133.121 236.559 133.121C236.629 133.121 236.686 133.133 236.731 133.158C236.776 133.183 236.808 133.223 236.828 133.277C236.853 133.327 236.865 133.394 236.865 133.479V136.531C236.865 136.631 236.838 136.711 236.783 136.77C236.733 136.83 236.661 136.86 236.567 136.86C236.462 136.86 236.382 136.83 236.328 136.77C236.278 136.711 236.253 136.631 236.253 136.531V133.83H236.447L234.342 136.643C234.303 136.698 234.253 136.748 234.193 136.793C234.133 136.837 234.054 136.86 233.954 136.86ZM238.327 136.86C238.233 136.86 238.158 136.832 238.103 136.778C238.053 136.718 238.029 136.636 238.029 136.531V133.486C238.029 133.407 238.039 133.34 238.058 133.285C238.083 133.23 238.118 133.19 238.163 133.165C238.208 133.136 238.265 133.121 238.335 133.121C238.399 133.121 238.454 133.133 238.499 133.158C238.544 133.178 238.581 133.205 238.611 133.24C238.646 133.275 238.675 133.317 238.7 133.367L239.932 135.539L241.156 133.367C241.186 133.312 241.215 133.267 241.245 133.233C241.275 133.198 241.312 133.17 241.357 133.151C241.402 133.131 241.457 133.121 241.521 133.121C241.626 133.121 241.703 133.153 241.753 133.218C241.803 133.277 241.827 133.367 241.827 133.486V136.531C241.827 136.636 241.8 136.718 241.745 136.778C241.696 136.832 241.623 136.86 241.529 136.86C241.434 136.86 241.36 136.832 241.305 136.778C241.25 136.718 241.223 136.636 241.223 136.531V133.957H241.395L240.171 136.099C240.146 136.138 240.116 136.176 240.081 136.211C240.046 136.24 239.996 136.255 239.932 136.255C239.862 136.255 239.81 136.24 239.775 136.211C239.745 136.176 239.718 136.138 239.693 136.099L238.461 133.957H238.626V136.531C238.626 136.636 238.601 136.718 238.551 136.778C238.501 136.832 238.427 136.86 238.327 136.86ZM244.149 136.875C243.9 136.875 243.674 136.825 243.47 136.726C243.271 136.626 243.114 136.492 242.999 136.322C242.89 136.153 242.835 135.964 242.835 135.755C242.835 135.487 242.902 135.275 243.037 135.121C243.171 134.967 243.398 134.857 243.716 134.793C244.034 134.723 244.462 134.688 245 134.688H245.35V135.121H245.015C244.631 135.121 244.328 135.138 244.104 135.173C243.885 135.208 243.731 135.27 243.641 135.36C243.552 135.444 243.507 135.564 243.507 135.718C243.507 135.912 243.574 136.071 243.709 136.196C243.848 136.32 244.037 136.382 244.276 136.382C244.465 136.382 244.631 136.337 244.776 136.248C244.92 136.153 245.034 136.029 245.119 135.875C245.204 135.715 245.246 135.534 245.246 135.33V134.472C245.246 134.178 245.186 133.967 245.067 133.837C244.947 133.703 244.746 133.636 244.462 133.636C244.298 133.636 244.129 133.658 243.955 133.703C243.781 133.748 243.599 133.817 243.41 133.912C243.335 133.947 243.271 133.959 243.216 133.949C243.161 133.934 243.116 133.904 243.082 133.86C243.052 133.81 243.034 133.758 243.029 133.703C243.029 133.643 243.042 133.586 243.067 133.531C243.097 133.476 243.146 133.437 243.216 133.412C243.435 133.302 243.651 133.225 243.865 133.18C244.084 133.131 244.288 133.106 244.477 133.106C244.801 133.106 245.067 133.158 245.276 133.263C245.485 133.362 245.642 133.519 245.746 133.733C245.85 133.942 245.903 134.21 245.903 134.539V136.509C245.903 136.624 245.875 136.711 245.821 136.77C245.766 136.83 245.686 136.86 245.582 136.86C245.482 136.86 245.403 136.83 245.343 136.77C245.288 136.711 245.261 136.624 245.261 136.509V135.979H245.328C245.288 136.163 245.214 136.322 245.104 136.457C244.995 136.591 244.858 136.696 244.694 136.77C244.534 136.84 244.353 136.875 244.149 136.875ZM247.395 136.86C247.286 136.86 247.201 136.83 247.141 136.77C247.082 136.711 247.052 136.624 247.052 136.509V133.464C247.052 133.35 247.082 133.265 247.141 133.21C247.201 133.151 247.286 133.121 247.395 133.121C247.504 133.121 247.587 133.151 247.641 133.21C247.701 133.265 247.731 133.35 247.731 133.464V134.666H249.627V133.464C249.627 133.35 249.654 133.265 249.709 133.21C249.768 133.151 249.853 133.121 249.962 133.121C250.072 133.121 250.156 133.151 250.216 133.21C250.276 133.265 250.306 133.35 250.306 133.464V136.509C250.306 136.624 250.276 136.711 250.216 136.77C250.156 136.83 250.072 136.86 249.962 136.86C249.853 136.86 249.768 136.83 249.709 136.77C249.654 136.711 249.627 136.624 249.627 136.509V135.21H247.731V136.509C247.731 136.624 247.703 136.711 247.649 136.77C247.594 136.83 247.509 136.86 247.395 136.86ZM253.013 136.875C252.655 136.875 252.344 136.798 252.081 136.643C251.817 136.489 251.613 136.27 251.469 135.987C251.324 135.703 251.252 135.37 251.252 134.987C251.252 134.698 251.292 134.439 251.371 134.21C251.456 133.977 251.575 133.777 251.73 133.613C251.884 133.449 252.068 133.325 252.282 133.24C252.501 133.151 252.745 133.106 253.013 133.106C253.372 133.106 253.683 133.183 253.946 133.337C254.21 133.491 254.414 133.71 254.558 133.994C254.703 134.273 254.775 134.603 254.775 134.987C254.775 135.275 254.732 135.536 254.648 135.77C254.568 136.004 254.451 136.203 254.297 136.367C254.143 136.531 253.956 136.658 253.737 136.748C253.523 136.832 253.282 136.875 253.013 136.875ZM253.013 136.337C253.232 136.337 253.421 136.285 253.581 136.181C253.745 136.076 253.869 135.924 253.954 135.725C254.043 135.526 254.088 135.28 254.088 134.987C254.088 134.549 253.991 134.215 253.797 133.986C253.603 133.758 253.342 133.643 253.013 133.643C252.799 133.643 252.61 133.695 252.446 133.8C252.287 133.899 252.163 134.049 252.073 134.248C251.983 134.447 251.939 134.693 251.939 134.987C251.939 135.424 252.036 135.76 252.23 135.994C252.429 136.223 252.69 136.337 253.013 136.337ZM258.029 136.808C257.915 136.808 257.828 136.778 257.768 136.718C257.708 136.658 257.678 136.571 257.678 136.457V133.524C257.678 133.409 257.708 133.322 257.768 133.263C257.828 133.203 257.915 133.173 258.029 133.173H259.492C259.785 133.173 260.024 133.21 260.208 133.285C260.397 133.36 260.537 133.467 260.626 133.606C260.716 133.745 260.761 133.919 260.761 134.128C260.761 134.357 260.681 134.551 260.522 134.71C260.363 134.87 260.154 134.964 259.895 134.994V134.897C260.203 134.907 260.445 134.997 260.619 135.166C260.793 135.33 260.88 135.541 260.88 135.8C260.88 136.109 260.766 136.355 260.537 136.539C260.308 136.718 259.979 136.808 259.552 136.808H258.029ZM258.32 136.36H259.514C259.753 136.36 259.935 136.31 260.059 136.211C260.188 136.106 260.253 135.959 260.253 135.77C260.253 135.576 260.188 135.429 260.059 135.33C259.935 135.23 259.753 135.181 259.514 135.181H258.32V136.36ZM258.32 134.733H259.455C259.669 134.733 259.833 134.683 259.947 134.584C260.067 134.484 260.126 134.347 260.126 134.173C260.126 133.994 260.067 133.857 259.947 133.763C259.833 133.668 259.669 133.621 259.455 133.621H258.32V134.733ZM262.132 136.845C262.028 136.845 261.946 136.813 261.886 136.748C261.826 136.683 261.796 136.594 261.796 136.479V133.501C261.796 133.382 261.826 133.292 261.886 133.233C261.946 133.168 262.028 133.136 262.132 133.136C262.242 133.136 262.326 133.168 262.386 133.233C262.446 133.292 262.475 133.382 262.475 133.501V136.479C262.475 136.594 262.446 136.683 262.386 136.748C262.331 136.813 262.247 136.845 262.132 136.845ZM262.132 132.33C261.998 132.33 261.891 132.295 261.811 132.225C261.737 132.15 261.699 132.053 261.699 131.934C261.699 131.805 261.737 131.708 261.811 131.643C261.891 131.573 261.998 131.538 262.132 131.538C262.276 131.538 262.383 131.573 262.453 131.643C262.528 131.708 262.565 131.805 262.565 131.934C262.565 132.053 262.528 132.15 262.453 132.225C262.383 132.295 262.276 132.33 262.132 132.33ZM263.558 137.83C263.468 137.83 263.396 137.803 263.342 137.748C263.287 137.693 263.259 137.616 263.259 137.517V136.599C263.259 136.375 263.371 136.263 263.595 136.263H263.968L263.558 136.405C263.697 136.23 263.807 136.041 263.886 135.837C263.966 135.628 264.023 135.395 264.058 135.136C264.098 134.872 264.118 134.574 264.118 134.24V133.561C264.118 133.437 264.15 133.342 264.215 133.277C264.284 133.208 264.381 133.173 264.506 133.173H266.364C266.489 133.173 266.583 133.208 266.648 133.277C266.717 133.342 266.752 133.437 266.752 133.561V136.576L266.439 136.263H266.999C267.108 136.263 267.19 136.293 267.245 136.352C267.305 136.407 267.334 136.489 267.334 136.599V137.517C267.334 137.726 267.237 137.83 267.043 137.83C266.944 137.83 266.869 137.803 266.819 137.748C266.77 137.693 266.745 137.616 266.745 137.517V136.808H263.849V137.517C263.849 137.726 263.752 137.83 263.558 137.83ZM264.297 136.263H266.11V133.703H264.715V134.367C264.715 134.725 264.677 135.074 264.603 135.412C264.533 135.745 264.431 136.029 264.297 136.263ZM268.451 136.86C268.342 136.86 268.257 136.83 268.198 136.77C268.138 136.711 268.108 136.624 268.108 136.509V133.561C268.108 133.437 268.14 133.342 268.205 133.277C268.275 133.208 268.372 133.173 268.496 133.173H270.952C271.076 133.173 271.171 133.208 271.235 133.277C271.305 133.342 271.34 133.437 271.34 133.561V136.509C271.34 136.624 271.31 136.711 271.25 136.77C271.19 136.83 271.106 136.86 270.996 136.86C270.887 136.86 270.802 136.83 270.743 136.77C270.688 136.711 270.661 136.624 270.661 136.509V133.718H268.787V136.509C268.787 136.624 268.76 136.711 268.705 136.77C268.65 136.83 268.566 136.86 268.451 136.86ZM274.048 136.875C273.69 136.875 273.379 136.798 273.115 136.643C272.851 136.489 272.647 136.27 272.503 135.987C272.359 135.703 272.287 135.37 272.287 134.987C272.287 134.698 272.326 134.439 272.406 134.21C272.491 133.977 272.61 133.777 272.764 133.613C272.918 133.449 273.103 133.325 273.317 133.24C273.535 133.151 273.779 133.106 274.048 133.106C274.406 133.106 274.717 133.183 274.981 133.337C275.245 133.491 275.449 133.71 275.593 133.994C275.737 134.273 275.809 134.603 275.809 134.987C275.809 135.275 275.767 135.536 275.682 135.77C275.603 136.004 275.486 136.203 275.332 136.367C275.177 136.531 274.991 136.658 274.772 136.748C274.558 136.832 274.317 136.875 274.048 136.875ZM274.048 136.337C274.267 136.337 274.456 136.285 274.615 136.181C274.779 136.076 274.904 135.924 274.988 135.725C275.078 135.526 275.123 135.28 275.123 134.987C275.123 134.549 275.026 134.215 274.832 133.986C274.638 133.758 274.376 133.643 274.048 133.643C273.834 133.643 273.645 133.695 273.481 133.8C273.322 133.899 273.197 134.049 273.108 134.248C273.018 134.447 272.973 134.693 272.973 134.987C272.973 135.424 273.07 135.76 273.264 135.994C273.463 136.223 273.725 136.337 274.048 136.337ZM277.118 136.808C277.003 136.808 276.916 136.778 276.856 136.718C276.797 136.658 276.767 136.571 276.767 136.457V133.524C276.767 133.409 276.797 133.322 276.856 133.263C276.916 133.203 277.003 133.173 277.118 133.173H278.58C278.874 133.173 279.113 133.21 279.297 133.285C279.486 133.36 279.625 133.467 279.715 133.606C279.804 133.745 279.849 133.919 279.849 134.128C279.849 134.357 279.77 134.551 279.61 134.71C279.451 134.87 279.242 134.964 278.983 134.994V134.897C279.292 134.907 279.533 134.997 279.707 135.166C279.882 135.33 279.969 135.541 279.969 135.8C279.969 136.109 279.854 136.355 279.625 136.539C279.396 136.718 279.068 136.808 278.64 136.808H277.118ZM277.409 136.36H278.603C278.842 136.36 279.023 136.31 279.148 136.211C279.277 136.106 279.342 135.959 279.342 135.77C279.342 135.576 279.277 135.429 279.148 135.33C279.023 135.23 278.842 135.181 278.603 135.181H277.409V136.36ZM277.409 134.733H278.543C278.757 134.733 278.921 134.683 279.036 134.584C279.155 134.484 279.215 134.347 279.215 134.173C279.215 133.994 279.155 133.857 279.036 133.763C278.921 133.668 278.757 133.621 278.543 133.621H277.409V134.733ZM281.221 136.845C281.116 136.845 281.034 136.813 280.974 136.748C280.915 136.683 280.885 136.594 280.885 136.479V133.501C280.885 133.382 280.915 133.292 280.974 133.233C281.034 133.168 281.116 133.136 281.221 133.136C281.33 133.136 281.415 133.168 281.474 133.233C281.534 133.292 281.564 133.382 281.564 133.501V136.479C281.564 136.594 281.534 136.683 281.474 136.748C281.42 136.813 281.335 136.845 281.221 136.845ZM281.221 132.33C281.086 132.33 280.979 132.295 280.9 132.225C280.825 132.15 280.788 132.053 280.788 131.934C280.788 131.805 280.825 131.708 280.9 131.643C280.979 131.573 281.086 131.538 281.221 131.538C281.365 131.538 281.472 131.573 281.542 131.643C281.616 131.708 281.653 131.805 281.653 131.934C281.653 132.053 281.616 132.15 281.542 132.225C281.472 132.295 281.365 132.33 281.221 132.33ZM282.646 137.83C282.557 137.83 282.485 137.803 282.43 137.748C282.375 137.693 282.348 137.616 282.348 137.517V136.599C282.348 136.375 282.46 136.263 282.684 136.263H283.057L282.646 136.405C282.786 136.23 282.895 136.041 282.975 135.837C283.054 135.628 283.112 135.395 283.147 135.136C283.186 134.872 283.206 134.574 283.206 134.24V133.561C283.206 133.437 283.239 133.342 283.303 133.277C283.373 133.208 283.47 133.173 283.594 133.173H285.453C285.577 133.173 285.672 133.208 285.736 133.277C285.806 133.342 285.841 133.437 285.841 133.561V136.576L285.527 136.263H286.087C286.197 136.263 286.279 136.293 286.333 136.352C286.393 136.407 286.423 136.489 286.423 136.599V137.517C286.423 137.726 286.326 137.83 286.132 137.83C286.032 137.83 285.958 137.803 285.908 137.748C285.858 137.693 285.833 137.616 285.833 137.517V136.808H282.938V137.517C282.938 137.726 282.841 137.83 282.646 137.83ZM283.385 136.263H285.199V133.703H283.803V134.367C283.803 134.725 283.766 135.074 283.691 135.412C283.622 135.745 283.52 136.029 283.385 136.263ZM288.876 136.875C288.483 136.875 288.144 136.8 287.861 136.651C287.582 136.497 287.366 136.28 287.212 136.002C287.057 135.718 286.98 135.385 286.98 135.001C286.98 134.623 287.055 134.292 287.204 134.009C287.358 133.725 287.567 133.504 287.831 133.345C288.1 133.185 288.406 133.106 288.749 133.106C288.993 133.106 289.212 133.148 289.406 133.233C289.605 133.312 289.774 133.429 289.913 133.583C290.053 133.738 290.157 133.927 290.227 134.151C290.301 134.37 290.339 134.618 290.339 134.897C290.339 134.977 290.314 135.039 290.264 135.084C290.219 135.123 290.152 135.143 290.063 135.143H287.51V134.71H289.891L289.764 134.815C289.764 134.556 289.724 134.337 289.645 134.158C289.57 133.974 289.458 133.835 289.309 133.74C289.164 133.646 288.983 133.598 288.764 133.598C288.525 133.598 288.321 133.656 288.152 133.77C287.983 133.879 287.853 134.036 287.764 134.24C287.674 134.439 287.629 134.671 287.629 134.934V134.979C287.629 135.427 287.736 135.765 287.95 135.994C288.164 136.223 288.473 136.337 288.876 136.337C289.035 136.337 289.197 136.318 289.361 136.278C289.53 136.238 289.692 136.166 289.846 136.061C289.921 136.016 289.988 135.997 290.048 136.002C290.112 136.002 290.165 136.021 290.204 136.061C290.244 136.096 290.269 136.141 290.279 136.196C290.289 136.245 290.281 136.3 290.257 136.36C290.232 136.42 290.184 136.472 290.115 136.517C289.951 136.631 289.754 136.721 289.525 136.785C289.301 136.845 289.085 136.875 288.876 136.875ZM291.577 136.86C291.512 136.86 291.455 136.847 291.405 136.823C291.361 136.798 291.326 136.758 291.301 136.703C291.276 136.648 291.264 136.579 291.264 136.494V133.449C291.264 133.345 291.291 133.265 291.346 133.21C291.4 133.151 291.478 133.121 291.577 133.121C291.672 133.121 291.746 133.151 291.801 133.21C291.856 133.265 291.883 133.345 291.883 133.449V136.143H291.689L293.794 133.337C293.833 133.282 293.883 133.233 293.943 133.188C294.003 133.143 294.082 133.121 294.182 133.121C294.251 133.121 294.309 133.133 294.353 133.158C294.398 133.183 294.431 133.223 294.45 133.277C294.475 133.327 294.488 133.394 294.488 133.479V136.531C294.488 136.631 294.46 136.711 294.406 136.77C294.356 136.83 294.284 136.86 294.189 136.86C294.085 136.86 294.005 136.83 293.95 136.77C293.901 136.711 293.876 136.631 293.876 136.531V133.83H294.07L291.965 136.643C291.925 136.698 291.876 136.748 291.816 136.793C291.756 136.837 291.677 136.86 291.577 136.86ZM292.876 132.71C292.602 132.71 292.353 132.643 292.129 132.509C291.905 132.369 291.741 132.163 291.637 131.889C291.607 131.815 291.602 131.752 291.622 131.703C291.647 131.648 291.689 131.611 291.749 131.591C291.808 131.571 291.861 131.573 291.905 131.598C291.955 131.623 291.997 131.673 292.032 131.747C292.117 131.927 292.229 132.063 292.368 132.158C292.512 132.247 292.682 132.292 292.876 132.292C293.075 132.292 293.244 132.247 293.383 132.158C293.522 132.063 293.634 131.927 293.719 131.747C293.759 131.673 293.801 131.623 293.846 131.598C293.891 131.573 293.943 131.571 294.003 131.591C294.062 131.611 294.102 131.648 294.122 131.703C294.147 131.752 294.142 131.815 294.107 131.889C293.988 132.163 293.821 132.369 293.607 132.509C293.393 132.643 293.149 132.71 292.876 132.71Z" fill="#333333"/>
<path d="M220.651 4.19775H204.791V92.8255H220.651V4.19775Z" fill="#D0E8C5"/>
<path d="M2.68124 10.1827V10.5981H0.07653V10.2346L1.38025 8.78332C1.5406 8.60475 1.6645 8.45351 1.75196 8.32961C1.84125 8.20388 1.9032 8.09182 1.93782 7.99343C1.97426 7.89321 1.99248 7.79117 1.99248 7.68731C1.99248 7.55612 1.96515 7.43768 1.91049 7.332C1.85765 7.22449 1.7793 7.13885 1.67543 7.07508C1.57157 7.01131 1.44585 6.97942 1.29826 6.97942C1.12151 6.97942 0.97392 7.01404 0.85548 7.08328C0.73887 7.1507 0.6514 7.24545 0.5931 7.36753C0.53479 7.48961 0.50564 7.62992 0.50564 7.78844H0C0 7.56432 0.0491899 7.35933 0.14759 7.17347C0.24598 6.98762 0.39175 6.84003 0.5849 6.7307C0.77804 6.61955 1.01583 6.56398 1.29826 6.56398C1.54971 6.56398 1.76472 6.60862 1.94329 6.6979C2.12185 6.78536 2.25851 6.90927 2.35326 7.06961C2.44983 7.22814 2.49812 7.41399 2.49812 7.62718C2.49812 7.7438 2.47808 7.86224 2.43799 7.98249C2.39973 8.10093 2.34597 8.21937 2.27673 8.33781C2.20931 8.45625 2.13005 8.57286 2.03895 8.68765C1.94966 8.80245 1.854 8.91542 1.75196 9.02657L0.68602 10.1827H2.68124ZM5.72054 8.29134V8.89811C5.72054 9.22427 5.69138 9.49941 5.63307 9.72353C5.57477 9.94765 5.49095 10.128 5.38162 10.2647C5.27229 10.4014 5.14019 10.5007 4.98531 10.5626C4.83225 10.6227 4.65915 10.6528 4.46601 10.6528C4.31295 10.6528 4.17174 10.6337 4.04237 10.5954C3.91299 10.5571 3.79638 10.4961 3.69252 10.4123C3.59048 10.3266 3.50302 10.2155 3.43013 10.0788C3.35725 9.94218 3.30167 9.77637 3.26341 9.5814C3.22515 9.38644 3.20601 9.15867 3.20601 8.89811V8.29134C3.20601 7.96518 3.23517 7.69187 3.29347 7.47139C3.3536 7.25091 3.43833 7.07417 3.54766 6.94115C3.65699 6.80632 3.78818 6.70975 3.94124 6.65144C4.09612 6.59313 4.26922 6.56398 4.46054 6.56398C4.61542 6.56398 4.75755 6.58311 4.88692 6.62137C5.01811 6.65782 5.13472 6.71703 5.23676 6.79903C5.3388 6.8792 5.42535 6.98671 5.49641 7.12154C5.5693 7.25456 5.62487 7.41764 5.66314 7.61078C5.7014 7.80393 5.72054 8.03078 5.72054 8.29134ZM5.21216 8.9801V8.20662C5.21216 8.02805 5.20123 7.87135 5.17937 7.73651C5.15932 7.59985 5.12926 7.48323 5.08917 7.38666C5.04908 7.29009 4.99807 7.21174 4.93611 7.15161C4.87598 7.09148 4.80583 7.04775 4.72566 7.02042C4.64731 6.99126 4.55894 6.97669 4.46054 6.97669C4.34028 6.97669 4.23369 6.99946 4.14076 7.04502C4.04783 7.08875 3.96948 7.1589 3.90571 7.25547C3.84375 7.35204 3.79638 7.47868 3.76358 7.63538C3.73078 7.79208 3.71438 7.98249 3.71438 8.20662V8.9801C3.71438 9.15867 3.72441 9.31628 3.74445 9.45294C3.76631 9.5896 3.7982 9.70804 3.84011 9.80826C3.88202 9.90665 3.93304 9.98774 3.99317 10.0515C4.0533 10.1153 4.12254 10.1627 4.20089 10.1936C4.28106 10.2228 4.36944 10.2374 4.46601 10.2374C4.58991 10.2374 4.69833 10.2137 4.79126 10.1663C4.88418 10.1189 4.96162 10.0451 5.02358 9.94492C5.08735 9.84288 5.13472 9.7126 5.1657 9.55407C5.19668 9.39372 5.21216 9.2024 5.21216 8.9801ZM8.86912 8.29134V8.89811C8.86912 9.22427 8.84002 9.49941 8.78172 9.72353C8.72342 9.94765 8.63952 10.128 8.53024 10.2647C8.42091 10.4014 8.28881 10.5007 8.13393 10.5626C7.98087 10.6227 7.80777 10.6528 7.61463 10.6528C7.46157 10.6528 7.32035 10.6337 7.19098 10.5954C7.06161 10.5571 6.945 10.4961 6.84114 10.4123C6.7391 10.3266 6.65164 10.2155 6.57875 10.0788C6.50587 9.94218 6.45029 9.77637 6.41203 9.5814C6.37376 9.38644 6.35463 9.15867 6.35463 8.89811V8.29134C6.35463 7.96518 6.38379 7.69187 6.44209 7.47139C6.50222 7.25091 6.58695 7.07417 6.69628 6.94115C6.80561 6.80632 6.9368 6.70975 7.08986 6.65144C7.24474 6.59313 7.41784 6.56398 7.60916 6.56398C7.76404 6.56398 7.90617 6.58311 8.03554 6.62137C8.16673 6.65782 8.28334 6.71703 8.38538 6.79903C8.48742 6.8792 8.57397 6.98671 8.64502 7.12154C8.71792 7.25456 8.77352 7.41764 8.81172 7.61078C8.85002 7.80393 8.86912 8.03078 8.86912 8.29134ZM8.36078 8.9801V8.20662C8.36078 8.02805 8.34985 7.87135 8.32799 7.73651C8.30794 7.59985 8.27788 7.48323 8.23779 7.38666C8.1977 7.29009 8.14668 7.21174 8.08473 7.15161C8.0246 7.09148 7.95445 7.04775 7.87428 7.02042C7.79593 6.99126 7.70755 6.97669 7.60916 6.97669C7.4889 6.97669 7.38231 6.99946 7.28938 7.04502C7.19645 7.08875 7.1181 7.1589 7.05433 7.25547C6.99237 7.35204 6.945 7.47868 6.9122 7.63538C6.8794 7.79208 6.863 7.98249 6.863 8.20662V8.9801C6.863 9.15867 6.87302 9.31628 6.89307 9.45294C6.91493 9.5896 6.94682 9.70804 6.98873 9.80826C7.03064 9.90665 7.08166 9.98774 7.14179 10.0515C7.20192 10.1153 7.27116 10.1627 7.34951 10.1936C7.42968 10.2228 7.51805 10.2374 7.61463 10.2374C7.73853 10.2374 7.84695 10.2137 7.93987 10.1663C8.0328 10.1189 8.11024 10.0451 8.17219 9.94492C8.23597 9.84288 8.28334 9.7126 8.31432 9.55407C8.3453 9.39372 8.36078 9.2024 8.36078 8.9801Z" fill="#333333"/>
<path d="M177.737 15.8599H161.877V92.8261H177.737V15.8599Z" fill="#D0E8C5"/>
<path d="M263.566 24.7222H247.706V92.8257H263.566V24.7222Z" fill="#D0E8C5"/>
<path d="M306.48 24.7222H290.62V92.8257H306.48V24.7222Z" fill="#D0E8C5"/>
<path d="M134.822 26.5884H118.962V92.826H134.822V26.5884Z" fill="#D0E8C5"/>
<path d="M49.4597 31.2529H33.1335V92.8259H49.4597V31.2529Z" fill="#D0E8C5"/>
<path d="M91.9072 44.7803H76.0475V92.8259H91.9072V44.7803Z" fill="#D0E8C5"/>
<path d="M196.395 46.1797H180.069V92.8259H196.395V46.1797Z" fill="#C6E7FF"/>
<path d="M1.73556 48.5777V52.5791H1.22993V49.2091L0.21045 49.5808V49.1244L1.6563 48.5777H1.73556ZM5.72054 50.2723V50.8791C5.72054 51.2052 5.69138 51.4804 5.63307 51.7045C5.57477 51.9286 5.49095 52.109 5.38162 52.2457C5.27229 52.3823 5.14019 52.4816 4.98531 52.5436C4.83225 52.6037 4.65915 52.6338 4.46601 52.6338C4.31295 52.6338 4.17174 52.6146 4.04237 52.5764C3.91299 52.5381 3.79638 52.4771 3.69252 52.3932C3.59048 52.3076 3.50302 52.1965 3.43013 52.0598C3.35725 51.9231 3.30167 51.7573 3.26341 51.5624C3.22515 51.3674 3.20601 51.1396 3.20601 50.8791V50.2723C3.20601 49.9461 3.23517 49.6728 3.29347 49.4523C3.3536 49.2319 3.43833 49.0551 3.54766 48.9221C3.65699 48.7873 3.78818 48.6907 3.94124 48.6324C4.09612 48.5741 4.26922 48.5449 4.46054 48.5449C4.61542 48.5449 4.75755 48.5641 4.88692 48.6023C5.01811 48.6388 5.13472 48.698 5.23676 48.78C5.3388 48.8602 5.42535 48.9677 5.49641 49.1025C5.5693 49.2355 5.62487 49.3986 5.66314 49.5917C5.7014 49.7849 5.72054 50.0117 5.72054 50.2723ZM5.21216 50.9611V50.1876C5.21216 50.009 5.20123 49.8523 5.17937 49.7175C5.15932 49.5808 5.12926 49.4642 5.08917 49.3676C5.04908 49.271 4.99807 49.1927 4.93611 49.1326C4.87598 49.0724 4.80583 49.0287 4.72566 49.0014C4.64731 48.9722 4.55894 48.9576 4.46054 48.9576C4.34028 48.9576 4.23369 48.9804 4.14076 49.026C4.04783 49.0697 3.96948 49.1399 3.90571 49.2364C3.84375 49.333 3.79638 49.4596 3.76358 49.6163C3.73078 49.773 3.71438 49.9635 3.71438 50.1876V50.9611C3.71438 51.1396 3.72441 51.2972 3.74445 51.4339C3.76631 51.5706 3.7982 51.689 3.84011 51.7892C3.88202 51.8876 3.93304 51.9687 3.99317 52.0325C4.0533 52.0962 4.12254 52.1436 4.20089 52.1746C4.28106 52.2037 4.36944 52.2183 4.46601 52.2183C4.58991 52.2183 4.69833 52.1946 4.79126 52.1473C4.88418 52.0999 4.96162 52.0261 5.02358 51.9259C5.08735 51.8238 5.13472 51.6936 5.1657 51.535C5.19668 51.3747 5.21216 51.1834 5.21216 50.9611ZM8.86912 50.2723V50.8791C8.86912 51.2052 8.84002 51.4804 8.78172 51.7045C8.72342 51.9286 8.63952 52.109 8.53024 52.2457C8.42091 52.3823 8.28881 52.4816 8.13393 52.5436C7.98087 52.6037 7.80777 52.6338 7.61463 52.6338C7.46157 52.6338 7.32035 52.6146 7.19098 52.5764C7.06161 52.5381 6.945 52.4771 6.84114 52.3932C6.7391 52.3076 6.65164 52.1965 6.57875 52.0598C6.50587 51.9231 6.45029 51.7573 6.41203 51.5624C6.37376 51.3674 6.35463 51.1396 6.35463 50.8791V50.2723C6.35463 49.9461 6.38379 49.6728 6.44209 49.4523C6.50222 49.2319 6.58695 49.0551 6.69628 48.9221C6.80561 48.7873 6.9368 48.6907 7.08986 48.6324C7.24474 48.5741 7.41784 48.5449 7.60916 48.5449C7.76404 48.5449 7.90617 48.5641 8.03554 48.6023C8.16673 48.6388 8.28334 48.698 8.38538 48.78C8.48742 48.8602 8.57397 48.9677 8.64502 49.1025C8.71792 49.2355 8.77352 49.3986 8.81172 49.5917C8.85002 49.7849 8.86912 50.0117 8.86912 50.2723ZM8.36078 50.9611V50.1876C8.36078 50.009 8.34985 49.8523 8.32799 49.7175C8.30794 49.5808 8.27788 49.4642 8.23779 49.3676C8.1977 49.271 8.14668 49.1927 8.08473 49.1326C8.0246 49.0724 7.95445 49.0287 7.87428 49.0014C7.79593 48.9722 7.70755 48.9576 7.60916 48.9576C7.4889 48.9576 7.38231 48.9804 7.28938 49.026C7.19645 49.0697 7.1181 49.1399 7.05433 49.2364C6.99237 49.333 6.945 49.4596 6.9122 49.6163C6.8794 49.773 6.863 49.9635 6.863 50.1876V50.9611C6.863 51.1396 6.87302 51.2972 6.89307 51.4339C6.91493 51.5706 6.94682 51.689 6.98873 51.7892C7.03064 51.8876 7.08166 51.9687 7.14179 52.0325C7.20192 52.0962 7.27116 52.1436 7.34951 52.1746C7.42968 52.2037 7.51805 52.2183 7.61463 52.2183C7.73853 52.2183 7.84695 52.1946 7.93987 52.1473C8.0328 52.0999 8.11024 52.0261 8.17219 51.9259C8.23597 51.8238 8.28334 51.6936 8.31432 51.535C8.3453 51.3747 8.36078 51.1834 8.36078 50.9611Z" fill="#333333"/>
<path d="M67.6514 51.7773H51.7917V92.826H67.6514V51.7773Z" fill="#C6E7FF"/>
<path d="M281.758 60.6396H265.898V92.8255H281.758V60.6396Z" fill="#C6E7FF"/>
<path d="M324.672 60.6396H308.812V92.8255H324.672V60.6396Z" fill="#C6E7FF"/>
<path d="M110.566 64.3721H94.7062V92.8263H110.566V64.3721Z" fill="#C6E7FF"/>
<path d="M238.843 76.0337H222.983V92.8263H238.843V76.0337Z" fill="#C6E7FF"/>
<path d="M153.48 83.4966H137.154V92.8258H153.48V83.4966Z" fill="#C6E7FF"/>
<path d="M7.58185 95.1446C7.13031 95.1446 6.787 94.9711 6.5519 94.624C6.3168 94.277 6.19925 93.7751 6.19925 93.1183C6.19925 92.678 6.2515 92.3085 6.35598 92.01C6.46047 91.7077 6.61534 91.4801 6.82058 91.3271C7.02956 91.1741 7.28331 91.0976 7.58185 91.0976C8.03711 91.0976 8.38043 91.2692 8.61182 91.6126C8.84692 91.9521 8.96442 92.4522 8.96442 93.1127C8.96442 93.553 8.91222 93.9244 8.80772 94.2266C8.70322 94.5289 8.54836 94.7584 8.34311 94.9151C8.13787 95.0681 7.88411 95.1446 7.58185 95.1446ZM7.58185 94.7472C7.89531 94.7472 8.12667 94.6147 8.27594 94.3498C8.42894 94.0811 8.50544 93.6687 8.50544 93.1127C8.50544 92.553 8.42894 92.1443 8.27594 91.8868C8.12667 91.6256 7.89531 91.495 7.58185 91.495C7.27212 91.495 7.04075 91.6256 6.88775 91.8868C6.73475 92.1481 6.65825 92.5567 6.65825 93.1127C6.65825 93.6687 6.73475 94.0811 6.88775 94.3498C7.04075 94.6147 7.27212 94.7472 7.58185 94.7472Z" fill="#333333"/>
<path d="M43.9699 107.345C43.4431 107.345 43.0368 107.143 42.7509 106.738C42.4651 106.334 42.3112 105.748 42.2893 104.982C42.2746 104.469 42.3233 104.038 42.4352 103.69C42.547 103.337 42.7201 103.072 42.9545 102.893C43.1932 102.715 43.4867 102.626 43.835 102.626C44.3661 102.626 44.7724 102.826 45.0537 103.226C45.3393 103.622 45.4931 104.206 45.5152 104.976C45.5298 105.489 45.4813 105.922 45.3694 106.275C45.2576 106.627 45.0846 106.895 44.8504 107.078C44.616 107.256 44.3225 107.345 43.9699 107.345ZM43.9566 106.882C44.3223 106.882 44.5878 106.727 44.7532 106.418C44.9227 106.105 44.9982 105.624 44.9797 104.976C44.961 104.323 44.8581 103.847 44.6711 103.546C44.4882 103.242 44.2139 103.089 43.8482 103.089C43.4869 103.089 43.2213 103.242 43.0515 103.546C42.8817 103.851 42.8061 104.327 42.8246 104.976C42.8431 105.624 42.9461 106.105 43.1336 106.418C43.3209 106.727 43.5953 106.882 43.9566 106.882ZM46.7672 107.287C46.6714 107.287 46.599 107.265 46.5498 107.221C46.5049 107.174 46.4814 107.11 46.4791 107.032C46.4778 106.984 46.4873 106.939 46.5079 106.895C46.5326 106.847 46.5661 106.799 46.6082 106.751L48.0263 105.185C48.2415 104.945 48.3941 104.726 48.4842 104.525C48.5785 104.321 48.6226 104.114 48.6166 103.905C48.6092 103.644 48.523 103.446 48.358 103.311C48.1973 103.172 47.9646 103.102 47.6598 103.102C47.4639 103.102 47.2798 103.133 47.1074 103.194C46.9349 103.255 46.77 103.348 46.6125 103.474C46.5572 103.518 46.5055 103.538 46.4575 103.533C46.4138 103.529 46.3741 103.511 46.3384 103.481C46.3027 103.451 46.2777 103.411 46.2632 103.363C46.2488 103.316 46.2474 103.268 46.2591 103.22C46.2752 103.172 46.3088 103.128 46.3599 103.089C46.5257 102.95 46.7272 102.839 46.9642 102.756C47.2012 102.669 47.4438 102.626 47.6919 102.626C48.001 102.626 48.2636 102.674 48.4797 102.769C48.6957 102.865 48.8609 103.007 48.9751 103.194C49.0891 103.377 49.15 103.601 49.1575 103.866C49.1628 104.049 49.1375 104.23 49.0816 104.408C49.03 104.582 48.9458 104.76 48.8292 104.943C48.7168 105.126 48.5677 105.315 48.3817 105.511L47.0327 106.98L47.0284 106.83H49.2292C49.3119 106.83 49.3734 106.849 49.4137 106.888C49.4583 106.923 49.4816 106.978 49.4837 107.052C49.4859 107.13 49.4659 107.189 49.4234 107.228C49.3854 107.267 49.325 107.287 49.2423 107.287H46.7672ZM50.5923 107.313C50.4834 107.313 50.3954 107.28 50.3282 107.215C50.261 107.145 50.2258 107.058 50.2228 106.954C50.2198 106.849 50.2501 106.764 50.3135 106.699C50.3768 106.63 50.4629 106.595 50.5717 106.595C50.6806 106.595 50.7665 106.63 50.8294 106.699C50.8966 106.764 50.9317 106.849 50.9346 106.954C50.9376 107.058 50.9075 107.145 50.8442 107.215C50.7851 107.28 50.7011 107.313 50.5923 107.313ZM53.2873 107.345C52.7605 107.345 52.3542 107.143 52.0683 106.738C51.7825 106.334 51.6286 105.748 51.6067 104.982C51.592 104.469 51.6407 104.038 51.7526 103.69C51.8644 103.337 52.0375 103.072 52.2719 102.893C52.5106 102.715 52.8041 102.626 53.1524 102.626C53.6835 102.626 54.0898 102.826 54.3711 103.226C54.6567 103.622 54.8105 104.206 54.8326 104.976C54.8472 105.489 54.7987 105.922 54.6868 106.275C54.575 106.627 54.402 106.895 54.1678 107.078C53.9334 107.256 53.6399 107.345 53.2873 107.345ZM53.274 106.882C53.6397 106.882 53.9052 106.727 54.0706 106.418C54.2401 106.105 54.3156 105.624 54.2971 104.976C54.2784 104.323 54.1755 103.847 53.9884 103.546C53.8056 103.242 53.5313 103.089 53.1656 103.089C52.8043 103.089 52.5387 103.242 52.3689 103.546C52.1991 103.851 52.1235 104.327 52.142 104.976C52.1605 105.624 52.2635 106.105 52.451 106.418C52.6383 106.727 52.9127 106.882 53.274 106.882ZM56.883 107.345C56.6871 107.345 56.4814 107.306 56.2658 107.228C56.0502 107.15 55.8598 107.036 55.6945 106.888C55.6456 106.854 55.6139 106.812 55.5995 106.764C55.5894 106.717 55.5903 106.671 55.6021 106.627C55.6138 106.58 55.6344 106.54 55.664 106.51C55.6979 106.475 55.7387 106.458 55.7866 106.458C55.8344 106.453 55.885 106.471 55.9383 106.51C56.09 106.636 56.245 106.727 56.4033 106.784C56.5616 106.841 56.7214 106.869 56.8824 106.869C57.1654 106.869 57.4029 106.799 57.5948 106.66C57.7911 106.521 57.9353 106.31 58.0273 106.027C58.1237 105.744 58.166 105.394 58.154 104.976L58.1367 104.369H58.1954C58.1763 104.612 58.1084 104.826 57.9917 105.008C57.8794 105.191 57.731 105.331 57.5465 105.426C57.362 105.522 57.1522 105.57 56.9172 105.57C56.6472 105.57 56.406 105.509 56.1936 105.387C55.9811 105.265 55.8129 105.093 55.689 104.871C55.5652 104.649 55.4992 104.399 55.4913 104.121C55.4829 103.829 55.5365 103.572 55.6521 103.35C55.7719 103.124 55.9388 102.948 56.1529 102.822C56.3712 102.691 56.624 102.626 56.9114 102.626C57.2727 102.626 57.5822 102.715 57.8398 102.893C58.1016 103.068 58.3027 103.322 58.4429 103.657C58.583 103.992 58.6599 104.397 58.6735 104.871C58.6849 105.272 58.6536 105.624 58.5796 105.929C58.5056 106.234 58.3911 106.492 58.2361 106.706C58.081 106.915 57.8896 107.073 57.662 107.182C57.4344 107.291 57.1747 107.345 56.883 107.345ZM57.0153 105.119C57.2112 105.119 57.3819 105.076 57.5275 104.989C57.673 104.902 57.785 104.782 57.8633 104.63C57.9416 104.473 57.9778 104.295 57.9721 104.095C57.9664 103.894 57.92 103.718 57.8329 103.566C57.7458 103.414 57.627 103.294 57.4765 103.207C57.326 103.12 57.1528 103.076 56.9569 103.076C56.7653 103.076 56.5968 103.12 56.4512 103.207C56.3101 103.294 56.1981 103.414 56.1154 103.566C56.037 103.718 56.0007 103.894 56.0064 104.095C56.0121 104.295 56.0586 104.473 56.1458 104.63C56.2372 104.782 56.356 104.902 56.5022 104.989C56.6527 105.076 56.8237 105.119 57.0153 105.119Z" fill="#333333"/>
<path d="M86.8839 107.345C86.3571 107.345 85.9508 107.143 85.665 106.738C85.3791 106.334 85.2253 105.748 85.2034 104.982C85.1887 104.469 85.2373 104.038 85.3493 103.69C85.4611 103.337 85.6342 103.072 85.8685 102.893C86.1072 102.715 86.4007 102.626 86.749 102.626C87.2802 102.626 87.6864 102.826 87.9678 103.226C88.2534 103.622 88.4072 104.206 88.4292 104.976C88.4439 105.489 88.3953 105.922 88.2835 106.275C88.1717 106.627 87.9987 106.895 87.7644 107.078C87.5301 107.256 87.2366 107.345 86.8839 107.345ZM86.8707 106.882C87.2364 106.882 87.5019 106.727 87.6672 106.418C87.8368 106.105 87.9123 105.624 87.8937 104.976C87.8751 104.323 87.7722 103.847 87.5851 103.546C87.4023 103.242 87.128 103.089 86.7623 103.089C86.4009 103.089 86.1354 103.242 85.9656 103.546C85.7958 103.851 85.7201 104.327 85.7387 104.976C85.7572 105.624 85.8602 106.105 86.0477 106.418C86.235 106.727 86.5093 106.882 86.8707 106.882ZM90.7474 107.345C90.4949 107.345 90.2392 107.308 89.9802 107.234C89.7256 107.16 89.5026 107.052 89.3113 106.908C89.2536 106.869 89.2153 106.825 89.1965 106.778C89.1776 106.725 89.1719 106.677 89.1794 106.634C89.1911 106.586 89.2139 106.547 89.2478 106.516C89.2817 106.482 89.3225 106.462 89.3702 106.458C89.4224 106.453 89.4795 106.471 89.5415 106.51C89.7367 106.636 89.9309 106.727 90.124 106.784C90.3172 106.841 90.5161 106.869 90.7207 106.869C90.9428 106.869 91.1291 106.836 91.2796 106.771C91.4301 106.706 91.5427 106.61 91.6175 106.484C91.6921 106.353 91.7267 106.194 91.7214 106.007C91.7137 105.737 91.6186 105.533 91.4361 105.394C91.2536 105.254 90.9926 105.185 90.653 105.185H90.1893C90.1066 105.185 90.0429 105.165 89.9983 105.126C89.9535 105.082 89.9301 105.024 89.9279 104.95C89.9259 104.88 89.9462 104.826 89.9886 104.787C90.0309 104.743 90.0934 104.721 90.1761 104.721H90.594C90.7943 104.721 90.9631 104.686 91.1004 104.617C91.2421 104.547 91.3503 104.449 91.4251 104.323C91.4997 104.193 91.5344 104.036 91.5292 103.853C91.5222 103.609 91.4386 103.424 91.2782 103.298C91.1178 103.168 90.8895 103.102 90.5935 103.102C90.3976 103.102 90.2133 103.131 90.0408 103.187C89.8683 103.244 89.6991 103.34 89.5331 103.474C89.482 103.514 89.4303 103.533 89.3781 103.533C89.3301 103.529 89.2883 103.514 89.2527 103.488C89.2213 103.457 89.1963 103.418 89.1775 103.37C89.1631 103.322 89.1639 103.274 89.1799 103.226C89.1958 103.174 89.2315 103.126 89.2868 103.083C89.4567 102.935 89.6581 102.822 89.891 102.743C90.1238 102.665 90.3644 102.626 90.6125 102.626C90.9086 102.626 91.1624 102.674 91.3742 102.769C91.5901 102.861 91.7572 102.996 91.8755 103.174C91.9937 103.348 92.0563 103.559 92.0634 103.807C92.0687 103.995 92.0367 104.166 91.9671 104.323C91.9018 104.475 91.8054 104.606 91.6779 104.715C91.5548 104.824 91.4025 104.902 91.221 104.95L91.2189 104.878C91.5382 104.93 91.7879 105.061 91.9681 105.27C92.1524 105.474 92.2491 105.733 92.258 106.046C92.2656 106.312 92.2091 106.543 92.0884 106.738C91.972 106.93 91.7999 107.08 91.5723 107.189C91.3446 107.293 91.0696 107.345 90.7474 107.345ZM93.5063 107.313C93.3975 107.313 93.3095 107.28 93.2423 107.215C93.175 107.145 93.1399 107.058 93.1369 106.954C93.1339 106.849 93.1641 106.764 93.2276 106.699C93.2909 106.63 93.377 106.595 93.4858 106.595C93.5946 106.595 93.6805 106.63 93.7435 106.699C93.8106 106.764 93.8457 106.849 93.8487 106.954C93.8517 107.058 93.8215 107.145 93.7582 107.215C93.6991 107.28 93.6152 107.313 93.5063 107.313ZM96.2013 107.345C95.6745 107.345 95.2682 107.143 94.9824 106.738C94.6965 106.334 94.5427 105.748 94.5208 104.982C94.5061 104.469 94.5547 104.038 94.6667 103.69C94.7785 103.337 94.9516 103.072 95.1859 102.893C95.4246 102.715 95.7181 102.626 96.0664 102.626C96.5976 102.626 97.0038 102.826 97.2852 103.226C97.5708 103.622 97.7246 104.206 97.7466 104.976C97.7613 105.489 97.7127 105.922 97.6009 106.275C97.4891 106.627 97.3161 106.895 97.0818 107.078C96.8475 107.256 96.554 107.345 96.2013 107.345ZM96.1881 106.882C96.5538 106.882 96.8193 106.727 96.9846 106.418C97.1542 106.105 97.2297 105.624 97.2111 104.976C97.1925 104.323 97.0896 103.847 96.9025 103.546C96.7197 103.242 96.4454 103.089 96.0797 103.089C95.7183 103.089 95.4527 103.242 95.283 103.546C95.1132 103.851 95.0375 104.327 95.0561 104.976C95.0746 105.624 95.1776 106.105 95.3651 106.418C95.5524 106.727 95.8267 106.882 96.1881 106.882ZM99.7968 107.345C99.6008 107.345 99.3958 107.306 99.1798 107.228C98.9638 107.15 98.7738 107.036 98.6088 106.888C98.5596 106.854 98.528 106.812 98.5136 106.764C98.5035 106.717 98.5043 106.671 98.5162 106.627C98.5279 106.58 98.5485 106.54 98.5781 106.51C98.6118 106.475 98.6528 106.458 98.7008 106.458C98.7488 106.453 98.7988 106.471 98.8528 106.51C99.0038 106.636 99.1588 106.727 99.3178 106.784C99.4758 106.841 99.6358 106.869 99.7968 106.869C100.08 106.869 100.317 106.799 100.509 106.66C100.705 106.521 100.85 106.31 100.942 106.027C101.038 105.744 101.08 105.394 101.068 104.976L101.051 104.369H101.11C101.091 104.612 101.023 104.826 100.906 105.008C100.794 105.191 100.645 105.331 100.461 105.426C100.276 105.522 100.067 105.57 99.8308 105.57C99.5608 105.57 99.3198 105.509 99.1078 105.387C98.8948 105.265 98.7268 105.093 98.6028 104.871C98.4792 104.649 98.4133 104.399 98.4053 104.121C98.397 103.829 98.4506 103.572 98.5662 103.35C98.6858 103.124 98.8528 102.948 99.0668 102.822C99.2848 102.691 99.5378 102.626 99.8258 102.626C100.187 102.626 100.496 102.715 100.754 102.893C101.016 103.068 101.217 103.322 101.357 103.657C101.497 103.992 101.574 104.397 101.588 104.871C101.599 105.272 101.568 105.624 101.494 105.929C101.42 106.234 101.305 106.492 101.15 106.706C100.995 106.915 100.804 107.073 100.576 107.182C100.349 107.291 100.089 107.345 99.7968 107.345ZM99.9298 105.119C100.125 105.119 100.296 105.076 100.442 104.989C100.587 104.902 100.699 104.782 100.778 104.63C100.856 104.473 100.892 104.295 100.886 104.095C100.881 103.894 100.834 103.718 100.747 103.566C100.66 103.414 100.541 103.294 100.391 103.207C100.24 103.12 100.067 103.076 99.8708 103.076C99.6798 103.076 99.5108 103.12 99.3658 103.207C99.2238 103.294 99.1118 103.414 99.0298 103.566C98.9508 103.718 98.9148 103.894 98.9208 104.095C98.9258 104.295 98.9728 104.473 99.0598 104.63C99.1508 104.782 99.2698 104.902 99.4158 104.989C99.5668 105.076 99.7378 105.119 99.9298 105.119Z" fill="#333333"/>
<path d="M129.799 107.345C129.272 107.345 128.866 107.143 128.58 106.738C128.294 106.334 128.14 105.748 128.118 104.982C128.103 104.469 128.152 104.038 128.264 103.69C128.376 103.337 128.549 103.072 128.783 102.893C129.022 102.715 129.315 102.626 129.664 102.626C130.195 102.626 130.601 102.826 130.883 103.226C131.168 103.622 131.322 104.206 131.344 104.976C131.359 105.489 131.31 105.922 131.198 106.275C131.086 106.627 130.913 106.895 130.679 107.078C130.445 107.256 130.151 107.345 129.799 107.345ZM129.785 106.882C130.151 106.882 130.417 106.727 130.582 106.418C130.752 106.105 130.827 105.624 130.808 104.976C130.79 104.323 130.687 103.847 130.5 103.546C130.317 103.242 130.043 103.089 129.677 103.089C129.316 103.089 129.05 103.242 128.88 103.546C128.711 103.851 128.635 104.327 128.653 104.976C128.672 105.624 128.775 106.105 128.962 106.418C129.15 106.727 129.424 106.882 129.785 106.882ZM134.485 107.332C134.402 107.332 134.336 107.308 134.287 107.261C134.237 107.213 134.212 107.145 134.209 107.058L134.187 106.301H132.313C132.226 106.301 132.156 106.281 132.103 106.242C132.053 106.199 132.028 106.138 132.025 106.059C132.024 106.012 132.034 105.964 132.054 105.916C132.074 105.864 132.112 105.798 132.166 105.72L134.075 102.822C134.112 102.761 134.155 102.715 134.202 102.685C134.249 102.654 134.305 102.639 134.37 102.639C134.44 102.639 134.499 102.661 134.548 102.704C134.602 102.748 134.63 102.817 134.633 102.913L134.716 105.844H135.193C135.276 105.844 135.34 105.864 135.384 105.903C135.429 105.942 135.452 105.999 135.454 106.073C135.456 106.147 135.436 106.203 135.394 106.242C135.351 106.281 135.289 106.301 135.206 106.301H134.729L134.751 107.058C134.754 107.145 134.732 107.213 134.685 107.261C134.639 107.308 134.572 107.332 134.485 107.332ZM134.174 105.844L134.102 103.311H134.259L132.507 105.988L132.503 105.844H134.174ZM136.421 107.313C136.312 107.313 136.224 107.28 136.157 107.215C136.09 107.145 136.055 107.058 136.052 106.954C136.049 106.849 136.079 106.764 136.142 106.699C136.206 106.63 136.292 106.595 136.401 106.595C136.509 106.595 136.595 106.63 136.658 106.699C136.725 106.764 136.76 106.849 136.763 106.954C136.766 107.058 136.736 107.145 136.673 107.215C136.614 107.28 136.53 107.313 136.421 107.313ZM139.116 107.345C138.589 107.345 138.183 107.143 137.897 106.738C137.611 106.334 137.457 105.748 137.436 104.982C137.421 104.469 137.469 104.038 137.581 103.69C137.693 103.337 137.866 103.072 138.101 102.893C138.339 102.715 138.633 102.626 138.981 102.626C139.512 102.626 139.919 102.826 140.2 103.226C140.486 103.622 140.639 104.206 140.661 104.976C140.676 105.489 140.627 105.922 140.516 106.275C140.404 106.627 140.231 106.895 139.997 107.078C139.762 107.256 139.469 107.345 139.116 107.345ZM139.103 106.882C139.469 106.882 139.734 106.727 139.899 106.418C140.069 106.105 140.144 105.624 140.126 104.976C140.107 104.323 140.004 103.847 139.817 103.546C139.634 103.242 139.36 103.089 138.994 103.089C138.633 103.089 138.367 103.242 138.198 103.546C138.028 103.851 137.952 104.327 137.971 104.976C137.989 105.624 138.092 106.105 138.28 106.418C138.467 106.727 138.741 106.882 139.103 106.882ZM142.712 107.345C142.516 107.345 142.31 107.306 142.095 107.228C141.879 107.15 141.689 107.036 141.523 106.888C141.474 106.854 141.443 106.812 141.428 106.764C141.418 106.717 141.419 106.671 141.431 106.627C141.443 106.58 141.463 106.54 141.493 106.51C141.527 106.475 141.568 106.458 141.615 106.458C141.663 106.453 141.714 106.471 141.767 106.51C141.919 106.636 142.074 106.727 142.232 106.784C142.39 106.841 142.55 106.869 142.711 106.869C142.994 106.869 143.232 106.799 143.424 106.66C143.62 106.521 143.764 106.31 143.856 106.027C143.953 105.744 143.995 105.394 143.983 104.976L143.965 104.369H144.024C144.005 104.612 143.937 104.826 143.821 105.008C143.708 105.191 143.56 105.331 143.375 105.426C143.191 105.522 142.981 105.57 142.746 105.57C142.476 105.57 142.235 105.509 142.022 105.387C141.81 105.265 141.642 105.093 141.518 104.871C141.394 104.649 141.328 104.399 141.32 104.121C141.312 103.829 141.365 103.572 141.481 103.35C141.601 103.124 141.768 102.948 141.982 102.822C142.2 102.691 142.453 102.626 142.74 102.626C143.102 102.626 143.411 102.715 143.669 102.893C143.93 103.068 144.131 103.322 144.272 103.657C144.412 103.992 144.489 104.397 144.502 104.871C144.514 105.272 144.482 105.624 144.408 105.929C144.334 106.234 144.22 106.492 144.065 106.706C143.91 106.915 143.718 107.073 143.491 107.182C143.263 107.291 143.004 107.345 142.712 107.345ZM142.844 105.119C143.04 105.119 143.211 105.076 143.356 104.989C143.502 104.902 143.614 104.782 143.692 104.63C143.77 104.473 143.807 104.295 143.801 104.095C143.795 103.894 143.749 103.718 143.662 103.566C143.575 103.414 143.456 103.294 143.305 103.207C143.155 103.12 142.982 103.076 142.786 103.076C142.594 103.076 142.426 103.12 142.28 103.207C142.139 103.294 142.027 103.414 141.944 103.566C141.866 103.718 141.83 103.894 141.835 104.095C141.841 104.295 141.887 104.473 141.975 104.63C142.066 104.782 142.185 104.902 142.331 104.989C142.482 105.076 142.653 105.119 142.844 105.119Z" fill="#333333"/>
<path d="M172.713 107.345C172.186 107.345 171.78 107.143 171.494 106.738C171.208 106.334 171.055 105.748 171.033 104.982C171.018 104.469 171.067 104.038 171.179 103.69C171.29 103.337 171.463 103.072 171.698 102.893C171.937 102.715 172.23 102.626 172.578 102.626C173.109 102.626 173.516 102.826 173.797 103.226C174.083 103.622 174.237 104.206 174.259 104.976C174.273 105.489 174.225 105.922 174.113 106.275C174.001 106.627 173.828 106.895 173.594 107.078C173.359 107.256 173.066 107.345 172.713 107.345ZM172.7 106.882C173.066 106.882 173.331 106.727 173.497 106.418C173.666 106.105 173.742 105.624 173.723 104.976C173.704 104.323 173.602 103.847 173.414 103.546C173.232 103.242 172.957 103.089 172.592 103.089C172.23 103.089 171.965 103.242 171.795 103.546C171.625 103.851 171.549 104.327 171.568 104.976C171.587 105.624 171.69 106.105 171.877 106.418C172.064 106.727 172.339 106.882 172.7 106.882ZM176.727 107.345C176.479 107.345 176.23 107.308 175.979 107.234C175.733 107.16 175.508 107.045 175.303 106.888C175.25 106.854 175.214 106.812 175.195 106.764C175.176 106.717 175.173 106.669 175.185 106.621C175.196 106.573 175.219 106.534 175.253 106.503C175.287 106.469 175.328 106.449 175.375 106.445C175.428 106.44 175.483 106.458 175.54 106.497C175.722 106.623 175.91 106.717 176.103 106.778C176.297 106.838 176.498 106.869 176.707 106.869C176.92 106.869 177.102 106.83 177.252 106.751C177.406 106.669 177.521 106.556 177.595 106.412C177.673 106.264 177.71 106.092 177.704 105.896C177.696 105.596 177.602 105.35 177.422 105.159C177.242 104.967 177 104.871 176.695 104.871C176.508 104.871 176.337 104.906 176.182 104.976C176.028 105.045 175.887 105.156 175.761 105.309C175.731 105.344 175.695 105.374 175.653 105.4C175.614 105.422 175.569 105.433 175.516 105.433C175.442 105.433 175.383 105.413 175.338 105.374C175.298 105.331 175.277 105.274 175.275 105.204L175.21 102.933C175.207 102.85 175.227 102.789 175.27 102.75C175.312 102.706 175.372 102.685 175.451 102.685H177.671C177.754 102.685 177.815 102.704 177.856 102.743C177.9 102.783 177.924 102.839 177.926 102.913C177.928 102.987 177.908 103.044 177.865 103.083C177.827 103.122 177.767 103.142 177.684 103.142H175.745L175.797 104.976H175.653C175.761 104.793 175.914 104.654 176.112 104.558C176.309 104.458 176.532 104.408 176.78 104.408C177.072 104.408 177.324 104.469 177.536 104.591C177.753 104.713 177.921 104.884 178.041 105.106C178.165 105.324 178.231 105.579 178.239 105.87C178.247 106.157 178.191 106.412 178.071 106.634C177.952 106.856 177.778 107.03 177.551 107.156C177.324 107.282 177.049 107.345 176.727 107.345ZM179.336 107.313C179.227 107.313 179.139 107.28 179.072 107.215C179.004 107.145 178.969 107.058 178.966 106.954C178.963 106.849 178.993 106.764 179.057 106.699C179.12 106.63 179.206 106.595 179.315 106.595C179.424 106.595 179.51 106.63 179.573 106.699C179.64 106.764 179.675 106.849 179.678 106.954C179.681 107.058 179.651 107.145 179.588 107.215C179.528 107.28 179.444 107.313 179.336 107.313ZM182.031 107.345C181.504 107.345 181.098 107.143 180.812 106.738C180.526 106.334 180.372 105.748 180.35 104.982C180.335 104.469 180.384 104.038 180.496 103.69C180.608 103.337 180.781 103.072 181.015 102.893C181.254 102.715 181.547 102.626 181.896 102.626C182.427 102.626 182.833 102.826 183.114 103.226C183.4 103.622 183.554 104.206 183.576 104.976C183.591 105.489 183.542 105.922 183.43 106.275C183.318 106.627 183.145 106.895 182.911 107.078C182.677 107.256 182.383 107.345 182.031 107.345ZM182.017 106.882C182.383 106.882 182.649 106.727 182.814 106.418C182.983 106.105 183.059 105.624 183.04 104.976C183.022 104.323 182.919 103.847 182.732 103.546C182.549 103.242 182.275 103.089 181.909 103.089C181.548 103.089 181.282 103.242 181.112 103.546C180.942 103.851 180.867 104.327 180.885 104.976C180.904 105.624 181.007 106.105 181.194 106.418C181.382 106.727 181.656 106.882 182.017 106.882ZM185.626 107.345C185.43 107.345 185.225 107.306 185.009 107.228C184.794 107.15 184.603 107.036 184.438 106.888C184.389 106.854 184.357 106.812 184.343 106.764C184.333 106.717 184.334 106.671 184.345 106.627C184.357 106.58 184.378 106.54 184.407 106.51C184.441 106.475 184.482 106.458 184.53 106.458C184.578 106.453 184.628 106.471 184.682 106.51C184.833 106.636 184.988 106.727 185.147 106.784C185.305 106.841 185.465 106.869 185.626 106.869C185.909 106.869 186.146 106.799 186.338 106.66C186.534 106.521 186.679 106.31 186.771 106.027C186.867 105.744 186.909 105.394 186.897 104.976L186.88 104.369H186.939C186.92 104.612 186.852 104.826 186.735 105.008C186.623 105.191 186.474 105.331 186.29 105.426C186.105 105.522 185.896 105.57 185.661 105.57C185.391 105.57 185.149 105.509 184.937 105.387C184.724 105.265 184.556 105.093 184.432 104.871C184.309 104.649 184.243 104.399 184.235 104.121C184.226 103.829 184.28 103.572 184.395 103.35C184.515 103.124 184.682 102.948 184.896 102.822C185.115 102.691 185.367 102.626 185.655 102.626C186.016 102.626 186.326 102.715 186.583 102.893C186.845 103.068 187.046 103.322 187.186 103.657C187.326 103.992 187.403 104.397 187.417 104.871C187.428 105.272 187.397 105.624 187.323 105.929C187.249 106.234 187.134 106.492 186.979 106.706C186.824 106.915 186.633 107.073 186.405 107.182C186.178 107.291 185.918 107.345 185.626 107.345ZM185.759 105.119C185.955 105.119 186.125 105.076 186.271 104.989C186.416 104.902 186.528 104.782 186.607 104.63C186.685 104.473 186.721 104.295 186.715 104.095C186.71 103.894 186.663 103.718 186.576 103.566C186.489 103.414 186.37 103.294 186.22 103.207C186.069 103.12 185.896 103.076 185.7 103.076C185.509 103.076 185.34 103.12 185.195 103.207C185.053 103.294 184.941 103.414 184.859 103.566C184.78 103.718 184.744 103.894 184.75 104.095C184.756 104.295 184.802 104.473 184.889 104.63C184.981 104.782 185.099 104.902 185.246 104.989C185.396 105.076 185.567 105.119 185.759 105.119Z" fill="#333333"/>
<path d="M215.627 107.345C215.101 107.345 214.694 107.143 214.408 106.738C214.122 106.334 213.969 105.748 213.947 104.982C213.932 104.469 213.981 104.038 214.093 103.69C214.204 103.337 214.378 103.072 214.612 102.893C214.851 102.715 215.144 102.626 215.492 102.626C216.024 102.626 216.43 102.826 216.711 103.226C216.997 103.622 217.151 104.206 217.173 104.976C217.187 105.489 217.139 105.922 217.027 106.275C216.915 106.627 216.742 106.895 216.508 107.078C216.273 107.256 215.98 107.345 215.627 107.345ZM215.614 106.882C215.98 106.882 216.245 106.727 216.411 106.418C216.58 106.105 216.656 105.624 216.637 104.976C216.618 104.323 216.516 103.847 216.328 103.546C216.146 103.242 215.871 103.089 215.506 103.089C215.144 103.089 214.879 103.242 214.709 103.546C214.539 103.851 214.464 104.327 214.482 104.976C214.501 105.624 214.604 106.105 214.791 106.418C214.978 106.727 215.253 106.882 215.614 106.882ZM219.7 107.345C219.338 107.345 219.027 107.258 218.765 107.084C218.507 106.906 218.308 106.649 218.168 106.314C218.028 105.979 217.951 105.574 217.938 105.1C217.926 104.7 217.957 104.347 218.032 104.042C218.106 103.738 218.22 103.481 218.375 103.272C218.53 103.059 218.721 102.898 218.949 102.789C219.177 102.68 219.436 102.626 219.728 102.626C219.928 102.626 220.134 102.665 220.345 102.743C220.561 102.822 220.751 102.933 220.916 103.076C220.965 103.111 220.995 103.155 221.005 103.207C221.02 103.255 221.021 103.303 221.009 103.35C220.997 103.394 220.975 103.431 220.941 103.461C220.911 103.492 220.872 103.509 220.824 103.514C220.777 103.514 220.726 103.494 220.673 103.455C220.521 103.329 220.366 103.239 220.208 103.187C220.049 103.131 219.89 103.102 219.729 103.102C219.446 103.102 219.206 103.172 219.01 103.311C218.818 103.451 218.674 103.662 218.577 103.944C218.485 104.223 218.445 104.573 218.457 104.995L218.474 105.603H218.416C218.435 105.354 218.5 105.141 218.613 104.963C218.73 104.78 218.88 104.641 219.065 104.545C219.249 104.449 219.459 104.401 219.694 104.401C219.964 104.401 220.205 104.462 220.418 104.584C220.63 104.706 220.798 104.878 220.922 105.1C221.046 105.317 221.112 105.568 221.12 105.851C221.128 106.138 221.074 106.395 220.959 106.621C220.844 106.847 220.677 107.026 220.458 107.156C220.24 107.282 219.987 107.345 219.7 107.345ZM219.654 106.888C219.846 106.888 220.014 106.847 220.16 106.764C220.305 106.677 220.417 106.558 220.496 106.405C220.574 106.249 220.61 106.07 220.605 105.87C220.599 105.67 220.552 105.494 220.465 105.341C220.378 105.189 220.259 105.069 220.109 104.982C219.958 104.895 219.787 104.852 219.596 104.852C219.404 104.852 219.236 104.895 219.09 104.982C218.945 105.069 218.833 105.189 218.754 105.341C218.676 105.494 218.64 105.67 218.645 105.87C218.651 106.07 218.698 106.249 218.785 106.405C218.872 106.558 218.991 106.677 219.141 106.764C219.292 106.847 219.462 106.888 219.654 106.888ZM222.25 107.313C222.141 107.313 222.053 107.28 221.986 107.215C221.918 107.145 221.883 107.058 221.88 106.954C221.877 106.849 221.907 106.764 221.971 106.699C222.034 106.63 222.12 106.595 222.229 106.595C222.338 106.595 222.424 106.63 222.487 106.699C222.554 106.764 222.589 106.849 222.592 106.954C222.595 107.058 222.565 107.145 222.502 107.215C222.442 107.28 222.359 107.313 222.25 107.313ZM224.945 107.345C224.418 107.345 224.012 107.143 223.726 106.738C223.44 106.334 223.286 105.748 223.264 104.982C223.249 104.469 223.298 104.038 223.41 103.69C223.522 103.337 223.695 103.072 223.929 102.893C224.168 102.715 224.461 102.626 224.81 102.626C225.341 102.626 225.747 102.826 226.029 103.226C226.314 103.622 226.468 104.206 226.49 104.976C226.505 105.489 226.456 105.922 226.344 106.275C226.232 106.627 226.059 106.895 225.825 107.078C225.591 107.256 225.297 107.345 224.945 107.345ZM224.931 106.882C225.297 106.882 225.563 106.727 225.728 106.418C225.898 106.105 225.973 105.624 225.954 104.976C225.936 104.323 225.833 103.847 225.646 103.546C225.463 103.242 225.189 103.089 224.823 103.089C224.462 103.089 224.196 103.242 224.026 103.546C223.857 103.851 223.781 104.327 223.799 104.976C223.818 105.624 223.921 106.105 224.108 106.418C224.296 106.727 224.57 106.882 224.931 106.882ZM228.54 107.345C228.345 107.345 228.139 107.306 227.923 107.228C227.708 107.15 227.517 107.036 227.352 106.888C227.303 106.854 227.271 106.812 227.257 106.764C227.247 106.717 227.248 106.671 227.26 106.627C227.271 106.58 227.292 106.54 227.321 106.51C227.355 106.475 227.396 106.458 227.444 106.458C227.492 106.453 227.542 106.471 227.596 106.51C227.747 106.636 227.902 106.727 228.061 106.784C228.219 106.841 228.379 106.869 228.54 106.869C228.823 106.869 229.06 106.799 229.252 106.66C229.449 106.521 229.593 106.31 229.685 106.027C229.781 105.744 229.823 105.394 229.811 104.976L229.794 104.369H229.853C229.834 104.612 229.766 104.826 229.649 105.008C229.537 105.191 229.388 105.331 229.204 105.426C229.019 105.522 228.81 105.57 228.575 105.57C228.305 105.57 228.063 105.509 227.851 105.387C227.639 105.265 227.47 105.093 227.346 104.871C227.223 104.649 227.157 104.399 227.149 104.121C227.14 103.829 227.194 103.572 227.31 103.35C227.429 103.124 227.596 102.948 227.81 102.822C228.029 102.691 228.281 102.626 228.569 102.626C228.93 102.626 229.24 102.715 229.497 102.893C229.759 103.068 229.96 103.322 230.1 103.657C230.24 103.992 230.317 104.397 230.331 104.871C230.342 105.272 230.311 105.624 230.237 105.929C230.163 106.234 230.049 106.492 229.894 106.706C229.738 106.915 229.547 107.073 229.319 107.182C229.092 107.291 228.832 107.345 228.54 107.345ZM228.673 105.119C228.869 105.119 229.039 105.076 229.185 104.989C229.33 104.902 229.442 104.782 229.521 104.63C229.599 104.473 229.635 104.295 229.63 104.095C229.624 103.894 229.577 103.718 229.49 103.566C229.403 103.414 229.284 103.294 229.134 103.207C228.983 103.12 228.81 103.076 228.614 103.076C228.423 103.076 228.254 103.12 228.109 103.207C227.967 103.294 227.856 103.414 227.773 103.566C227.694 103.718 227.658 103.894 227.664 104.095C227.67 104.295 227.716 104.473 227.803 104.63C227.895 104.782 228.013 104.902 228.16 104.989C228.31 105.076 228.481 105.119 228.673 105.119Z" fill="#333333"/>
<path d="M258.542 107.345C258.015 107.345 257.609 107.143 257.323 106.738C257.037 106.334 256.883 105.748 256.861 104.982C256.847 104.469 256.895 104.038 257.007 103.69C257.119 103.337 257.292 103.072 257.526 102.893C257.765 102.715 258.059 102.626 258.407 102.626C258.938 102.626 259.344 102.826 259.626 103.226C259.911 103.622 260.065 104.206 260.087 104.976C260.102 105.489 260.053 105.922 259.941 106.275C259.83 106.627 259.657 106.895 259.422 107.078C259.188 107.256 258.894 107.345 258.542 107.345ZM258.529 106.882C258.894 106.882 259.16 106.727 259.325 106.418C259.495 106.105 259.57 105.624 259.552 104.976C259.533 104.323 259.43 103.847 259.243 103.546C259.06 103.242 258.786 103.089 258.42 103.089C258.059 103.089 257.793 103.242 257.623 103.546C257.454 103.851 257.378 104.327 257.397 104.976C257.415 105.624 257.518 106.105 257.706 106.418C257.893 106.727 258.167 106.882 258.529 106.882ZM261.595 107.332C261.534 107.332 261.482 107.317 261.437 107.287C261.393 107.256 261.363 107.215 261.349 107.163C261.338 107.106 261.35 107.045 261.383 106.98L263.363 102.913L263.369 103.148H261.018C260.94 103.148 260.879 103.128 260.834 103.089C260.789 103.046 260.766 102.987 260.764 102.913C260.761 102.839 260.782 102.783 260.824 102.743C260.866 102.704 260.927 102.685 261.005 102.685H263.598C263.676 102.685 263.74 102.704 263.789 102.743C263.838 102.783 263.863 102.839 263.866 102.913C263.867 102.974 263.86 103.028 263.844 103.076C263.832 103.12 263.814 103.17 263.79 103.226L261.89 107.15C261.862 107.211 261.824 107.256 261.777 107.287C261.73 107.317 261.669 107.332 261.595 107.332ZM265.164 107.313C265.055 107.313 264.967 107.28 264.9 107.215C264.833 107.145 264.798 107.058 264.795 106.954C264.792 106.849 264.822 106.764 264.885 106.699C264.949 106.63 265.035 106.595 265.144 106.595C265.253 106.595 265.338 106.63 265.401 106.699C265.469 106.764 265.504 106.849 265.507 106.954C265.51 107.058 265.479 107.145 265.416 107.215C265.357 107.28 265.273 107.313 265.164 107.313ZM267.859 107.345C267.332 107.345 266.926 107.143 266.64 106.738C266.354 106.334 266.201 105.748 266.179 104.982C266.164 104.469 266.213 104.038 266.325 103.69C266.436 103.337 266.609 103.072 266.844 102.893C267.083 102.715 267.376 102.626 267.724 102.626C268.255 102.626 268.662 102.826 268.943 103.226C269.229 103.622 269.383 104.206 269.405 104.976C269.419 105.489 269.371 105.922 269.259 106.275C269.147 106.627 268.974 106.895 268.74 107.078C268.505 107.256 268.212 107.345 267.859 107.345ZM267.846 106.882C268.212 106.882 268.477 106.727 268.643 106.418C268.812 106.105 268.888 105.624 268.869 104.976C268.85 104.323 268.748 103.847 268.56 103.546C268.378 103.242 268.103 103.089 267.738 103.089C267.376 103.089 267.111 103.242 266.941 103.546C266.771 103.851 266.695 104.327 266.714 104.976C266.733 105.624 266.836 106.105 267.023 106.418C267.21 106.727 267.485 106.882 267.846 106.882ZM271.455 107.345C271.259 107.345 271.053 107.306 270.838 107.228C270.622 107.15 270.432 107.036 270.266 106.888C270.218 106.854 270.186 106.812 270.171 106.764C270.161 106.717 270.162 106.671 270.174 106.627C270.186 106.58 270.206 106.54 270.236 106.51C270.27 106.475 270.311 106.458 270.359 106.458C270.406 106.453 270.457 106.471 270.51 106.51C270.662 106.636 270.817 106.727 270.975 106.784C271.134 106.841 271.293 106.869 271.454 106.869C271.737 106.869 271.975 106.799 272.167 106.66C272.363 106.521 272.507 106.31 272.599 106.027C272.696 105.744 272.738 105.394 272.726 104.976L272.709 104.369H272.767C272.748 104.612 272.68 104.826 272.564 105.008C272.451 105.191 272.303 105.331 272.118 105.426C271.934 105.522 271.724 105.57 271.489 105.57C271.219 105.57 270.978 105.509 270.766 105.387C270.553 105.265 270.385 105.093 270.261 104.871C270.137 104.649 270.071 104.399 270.063 104.121C270.055 103.829 270.109 103.572 270.224 103.35C270.344 103.124 270.511 102.948 270.725 102.822C270.943 102.691 271.196 102.626 271.483 102.626C271.845 102.626 272.154 102.715 272.412 102.893C272.674 103.068 272.875 103.322 273.015 103.657C273.155 103.992 273.232 104.397 273.245 104.871C273.257 105.272 273.226 105.624 273.152 105.929C273.078 106.234 272.963 106.492 272.808 106.706C272.653 106.915 272.462 107.073 272.234 107.182C272.006 107.291 271.747 107.345 271.455 107.345ZM271.587 105.119C271.783 105.119 271.954 105.076 272.099 104.989C272.245 104.902 272.357 104.782 272.435 104.63C272.514 104.473 272.55 104.295 272.544 104.095C272.538 103.894 272.492 103.718 272.405 103.566C272.318 103.414 272.199 103.294 272.049 103.207C271.898 103.12 271.725 103.076 271.529 103.076C271.337 103.076 271.169 103.12 271.023 103.207C270.882 103.294 270.77 103.414 270.687 103.566C270.609 103.718 270.573 103.894 270.578 104.095C270.584 104.295 270.631 104.473 270.718 104.63C270.809 104.782 270.928 104.902 271.074 104.989C271.225 105.076 271.396 105.119 271.587 105.119Z" fill="#333333"/>
<path d="M300.99 107.345C300.463 107.345 300.057 107.143 299.771 106.738C299.485 106.334 299.331 105.748 299.31 104.982C299.295 104.469 299.343 104.038 299.455 103.69C299.567 103.337 299.74 103.072 299.975 102.893C300.213 102.715 300.507 102.626 300.855 102.626C301.386 102.626 301.793 102.826 302.074 103.226C302.36 103.622 302.513 104.206 302.535 104.976C302.55 105.489 302.501 105.922 302.39 106.275C302.278 106.627 302.105 106.895 301.871 107.078C301.636 107.256 301.343 107.345 300.99 107.345ZM300.977 106.882C301.343 106.882 301.608 106.727 301.773 106.418C301.943 106.105 302.018 105.624 302 104.976C301.981 104.323 301.878 103.847 301.691 103.546C301.508 103.242 301.234 103.089 300.868 103.089C300.507 103.089 300.242 103.242 300.072 103.546C299.902 103.851 299.826 104.327 299.845 104.976C299.863 105.624 299.966 106.105 300.154 106.418C300.341 106.727 300.615 106.882 300.977 106.882ZM304.906 107.345C304.562 107.345 304.264 107.295 304.013 107.195C303.767 107.095 303.575 106.949 303.439 106.758C303.308 106.566 303.238 106.336 303.23 106.066C303.224 105.853 303.262 105.663 303.344 105.498C303.427 105.328 303.545 105.191 303.698 105.087C303.852 104.982 304.031 104.917 304.235 104.891L304.238 104.989C303.953 104.928 303.723 104.795 303.547 104.591C303.376 104.382 303.286 104.136 303.278 103.853C303.27 103.592 303.325 103.372 303.442 103.194C303.563 103.011 303.737 102.872 303.965 102.776C304.193 102.676 304.462 102.626 304.771 102.626C305.084 102.626 305.356 102.676 305.585 102.776C305.818 102.872 306.001 103.011 306.132 103.194C306.264 103.372 306.333 103.592 306.341 103.853C306.346 104.04 306.312 104.214 306.238 104.375C306.169 104.532 306.066 104.663 305.929 104.767C305.793 104.871 305.632 104.943 305.446 104.982L305.443 104.891C305.753 104.935 306.005 105.063 306.198 105.276C306.396 105.485 306.499 105.748 306.508 106.066C306.516 106.336 306.457 106.566 306.332 106.758C306.211 106.949 306.028 107.095 305.783 107.195C305.542 107.295 305.25 107.345 304.906 107.345ZM304.893 106.902C305.263 106.902 305.54 106.83 305.723 106.686C305.91 106.543 306 106.325 305.992 106.033C305.983 105.746 305.881 105.533 305.686 105.394C305.495 105.25 305.214 105.178 304.844 105.178C304.478 105.178 304.202 105.25 304.014 105.394C303.827 105.533 303.737 105.746 303.745 106.033C303.753 106.325 303.855 106.543 304.051 106.686C304.247 106.83 304.527 106.902 304.893 106.902ZM304.831 104.734C305.045 104.734 305.224 104.702 305.37 104.636C305.521 104.567 305.636 104.469 305.715 104.343C305.794 104.216 305.831 104.068 305.826 103.899C305.819 103.638 305.721 103.435 305.534 103.292C305.352 103.144 305.101 103.07 304.784 103.07C304.466 103.07 304.22 103.144 304.045 103.292C303.871 103.435 303.788 103.638 303.795 103.899C303.803 104.16 303.898 104.364 304.08 104.512C304.263 104.66 304.513 104.734 304.831 104.734ZM307.612 107.313C307.504 107.313 307.416 107.28 307.348 107.215C307.281 107.145 307.246 107.058 307.243 106.954C307.24 106.849 307.27 106.764 307.334 106.699C307.397 106.63 307.483 106.595 307.592 106.595C307.701 106.595 307.787 106.63 307.85 106.699C307.917 106.764 307.952 106.849 307.955 106.954C307.958 107.058 307.928 107.145 307.864 107.215C307.805 107.28 307.721 107.313 307.612 107.313ZM310.307 107.345C309.781 107.345 309.374 107.143 309.089 106.738C308.803 106.334 308.649 105.748 308.627 104.982C308.612 104.469 308.661 104.038 308.773 103.69C308.885 103.337 309.058 103.072 309.292 102.893C309.531 102.715 309.824 102.626 310.173 102.626C310.704 102.626 311.11 102.826 311.391 103.226C311.677 103.622 311.831 104.206 311.853 104.976C311.867 105.489 311.819 105.922 311.707 106.275C311.595 106.627 311.422 106.895 311.188 107.078C310.954 107.256 310.66 107.345 310.307 107.345ZM310.294 106.882C310.66 106.882 310.925 106.727 311.091 106.418C311.26 106.105 311.336 105.624 311.317 104.976C311.299 104.323 311.196 103.847 311.009 103.546C310.826 103.242 310.552 103.089 310.186 103.089C309.824 103.089 309.559 103.242 309.389 103.546C309.219 103.851 309.144 104.327 309.162 104.976C309.181 105.624 309.284 106.105 309.471 106.418C309.659 106.727 309.933 106.882 310.294 106.882ZM313.903 107.345C313.707 107.345 313.502 107.306 313.286 107.228C313.07 107.15 312.88 107.036 312.715 106.888C312.666 106.854 312.634 106.812 312.62 106.764C312.61 106.717 312.611 106.671 312.622 106.627C312.634 106.58 312.655 106.54 312.684 106.51C312.718 106.475 312.759 106.458 312.807 106.458C312.855 106.453 312.905 106.471 312.959 106.51C313.11 106.636 313.265 106.727 313.424 106.784C313.582 106.841 313.742 106.869 313.903 106.869C314.186 106.869 314.423 106.799 314.615 106.66C314.811 106.521 314.956 106.31 315.048 106.027C315.144 105.744 315.186 105.394 315.174 104.976L315.157 104.369H315.216C315.197 104.612 315.129 104.826 315.012 105.008C314.9 105.191 314.751 105.331 314.567 105.426C314.382 105.522 314.172 105.57 313.937 105.57C313.667 105.57 313.426 105.509 313.214 105.387C313.001 105.265 312.833 105.093 312.709 104.871C312.585 104.649 312.519 104.399 312.511 104.121C312.503 103.829 312.557 103.572 312.672 103.35C312.792 103.124 312.959 102.948 313.173 102.822C313.391 102.691 313.644 102.626 313.932 102.626C314.293 102.626 314.602 102.715 314.86 102.893C315.122 103.068 315.323 103.322 315.463 103.657C315.603 103.992 315.68 104.397 315.694 104.871C315.705 105.272 315.674 105.624 315.6 105.929C315.526 106.234 315.411 106.492 315.256 106.706C315.101 106.915 314.91 107.073 314.682 107.182C314.455 107.291 314.195 107.345 313.903 107.345ZM314.036 105.119C314.231 105.119 314.402 105.076 314.548 104.989C314.693 104.902 314.805 104.782 314.884 104.63C314.962 104.473 314.998 104.295 314.992 104.095C314.987 103.894 314.94 103.718 314.853 103.566C314.766 103.414 314.647 103.294 314.497 103.207C314.346 103.12 314.173 103.076 313.977 103.076C313.786 103.076 313.617 103.12 313.471 103.207C313.33 103.294 313.218 103.414 313.136 103.566C313.057 103.718 313.021 103.894 313.027 104.095C313.032 104.295 313.079 104.473 313.166 104.63C313.257 104.782 313.376 104.902 313.522 104.989C313.673 105.076 313.844 105.119 314.036 105.119Z" fill="#333333"/>
</svg>
