<svg width="21" height="21" viewBox="0 0 21 21" fill="none" xmlns="http://www.w3.org/2000/svg">
<path d="M10.5272 19.1395C15.6713 19.1395 19.8414 14.9694 19.8414 9.82526C19.8414 4.68113 15.6713 0.510986 10.5272 0.510986C5.38303 0.510986 1.21289 4.68113 1.21289 9.82526C1.21289 14.9694 5.38303 19.1395 10.5272 19.1395Z" fill="#FFDD67"/>
<path opacity="0.8" d="M19.1787 7.74874C19.4687 6.66623 18.4954 5.46492 17.0048 5.06552C15.5141 4.66613 14.0706 5.2199 13.7805 6.3024C13.4905 7.38491 14.4638 8.58622 15.9545 8.98562C17.4451 9.38501 18.8887 8.83124 19.1787 7.74874Z" fill="#FF717F"/>
<path opacity="0.8" d="M5.13806 10.8825C6.40228 9.99743 6.90611 8.53571 6.26339 7.61764C5.62067 6.69957 4.07479 6.67281 2.81057 7.55787C1.54634 8.44292 1.04251 9.90464 1.68523 10.8227C2.32795 11.7408 3.87383 11.7675 5.13806 10.8825Z" fill="#FF717F"/>
<path d="M8.76443 5.89984C7.9328 4.46944 7.00137 3.87066 6.16974 4.03699C5.33811 4.17005 4.63954 5.06821 4.37342 6.69821C4.34015 6.86454 4.67281 7.09739 4.80587 6.8978C5.23831 6.2325 5.83709 5.89984 6.50239 5.80005C7.1677 5.66699 7.833 5.80005 8.46504 6.26576C8.63137 6.36556 8.86423 6.03291 8.76443 5.89984ZM15.2512 4.73556C14.4195 3.33842 13.4881 2.70638 12.6565 2.87271C11.8248 3.00577 11.1263 3.93719 10.8601 5.53393C10.8269 5.70025 11.1595 5.93311 11.2926 5.73352C11.725 5.06821 12.3238 4.73556 12.9891 4.63576C13.6544 4.5027 14.3197 4.63576 14.9518 5.10148C15.0848 5.20127 15.3177 4.90189 15.2512 4.73556ZM14.1534 8.66086C12.0577 10.7566 9.39647 11.2223 6.70199 9.95821C6.36933 9.79188 6.16974 10.1911 6.43586 10.4904C7.36729 11.5549 9.03055 12.3533 10.8934 12.0207C12.7563 11.688 14.0536 10.3574 14.5526 9.02678C14.7189 8.72739 14.4195 8.428 14.1534 8.66086Z" fill="#664E27"/>
<path d="M8.93103 15.4137C8.93103 15.4137 9.5298 15.2141 9.29694 14.4157C9.06409 13.5841 7.00164 14.4157 5.97042 14.0166C5.97042 14.0166 6.80205 13.7504 6.53593 13.0519C6.26981 12.4198 4.00777 12.187 1.779 13.9168C-0.449775 15.6466 0.980631 19.6384 3.74165 20.1374C5.67103 20.47 8.59837 20.4368 8.96429 19.6051C9.26368 18.9398 8.33225 18.707 8.33225 18.707C8.33225 18.707 9.49654 18.707 9.49654 17.8088C9.49654 17.2766 9.06409 17.2766 9.06409 17.2766C9.06409 17.2766 10.0288 17.1435 10.0288 16.2453C10.062 15.4802 8.93103 15.4137 8.93103 15.4137Z" fill="white"/>
<path d="M9.32969 15.4469C10.0615 14.9479 9.42949 13.7504 8.53133 13.8834C7.76623 14.0165 6.43562 14.0165 6.43562 14.0165C6.43562 14.0165 6.86806 13.8502 6.76827 13.2847C6.66847 12.7191 5.87011 11.8875 2.67664 13.1849C1.47909 13.6838 0.71399 14.6818 0.580929 15.9126C0.447868 17.2432 1.04664 18.8067 2.01134 19.5053C3.07582 20.3036 5.57072 20.7693 7.96582 20.3036C9.56255 20.0042 9.39622 18.973 8.73092 18.8067C9.82867 18.6071 9.92847 17.6757 9.39622 17.4095C10.627 17.0104 10.2944 15.4802 9.32969 15.4469ZM8.4648 17.1434C7.83276 17.21 6.13623 17.343 6.13623 17.343C6.13623 17.343 7.30051 17.5759 8.53133 17.3763C9.62908 17.21 9.56255 18.3077 8.03235 18.5073C7.30051 18.6071 6.13623 18.6404 6.13623 18.6404C6.13623 18.6404 7.20072 18.8067 7.76623 18.7402C9.2299 18.5406 9.06357 19.6383 7.69969 19.8379C5.27133 20.1706 3.30868 19.8379 2.34399 19.1393C0.980113 18.1414 0.181746 14.8149 2.84297 13.584C4.04052 13.0185 6.00317 12.5195 6.30255 13.1849C6.70174 14.1495 4.90541 14.2493 4.90541 14.2493C4.90541 14.2493 6.36908 14.4489 8.4648 14.2161C9.0303 14.1495 9.46275 14.8481 8.76418 15.2473C8.16541 15.6132 6.13623 15.7463 6.13623 15.7463C6.13623 15.7463 7.23398 15.7795 8.76418 15.6465C9.995 15.5467 10.0948 16.9438 8.4648 17.1434Z" fill="#CCCFD4"/>
<path d="M12.1239 15.4137C12.1239 15.4137 11.5251 15.2141 11.7579 14.4157C11.9908 13.5841 14.0532 14.4157 15.0845 14.0166C15.0845 14.0166 14.2528 13.7504 14.519 13.0519C14.7851 12.4198 17.0471 12.187 19.2759 13.9168C21.5047 15.6466 20.041 19.6384 17.3132 20.1041C15.3839 20.4368 12.4565 20.4035 12.0906 19.5719C11.7912 18.9066 12.7226 18.6737 12.7226 18.6737C12.7226 18.6737 11.5584 18.6737 11.5584 17.7755C11.5584 17.2433 11.9908 17.2433 11.9908 17.2433C11.9908 17.2433 11.0261 17.1102 11.0261 16.2121C10.9928 15.4802 12.1239 15.4137 12.1239 15.4137Z" fill="white"/>
<path d="M11.6586 17.3764C11.1596 17.6425 11.2594 18.574 12.3239 18.7736C11.6586 18.9399 11.4923 19.9711 13.089 20.2705C15.5174 20.7362 17.979 20.3038 19.0435 19.4721C19.9749 18.7735 20.6069 17.2101 20.4739 15.8795C20.3408 14.6487 19.5757 13.6507 18.3782 13.1517C15.1514 11.8544 14.3863 12.6527 14.2865 13.2515C14.1867 13.817 14.6192 13.9834 14.6192 13.9834C14.6192 13.9834 13.2886 13.9834 12.5235 13.8503C11.6253 13.684 10.9933 14.9148 11.7251 15.4138C10.7604 15.4803 10.4278 17.0105 11.6586 17.3764ZM12.2906 15.6466C13.8208 15.7797 14.9186 15.7464 14.9186 15.7464C14.9186 15.7464 12.8894 15.6133 12.2906 15.2474C11.5921 14.8482 12.0245 14.1497 12.59 14.2162C14.719 14.4823 16.1494 14.2495 16.1494 14.2495C16.1494 14.2495 14.3531 14.1164 14.7523 13.185C15.0516 12.5197 17.0143 13.0187 18.2118 13.5842C20.8731 14.8482 20.0414 18.1415 18.7108 19.1395C17.7794 19.838 15.7835 20.204 13.3551 19.838C11.958 19.6384 11.7916 18.5407 13.2886 18.7403C13.8541 18.8068 14.9186 18.6405 14.9186 18.6405C14.9186 18.6405 13.7543 18.6072 13.0225 18.5074C11.4923 18.3078 11.4257 17.2101 12.5235 17.3764C13.721 17.5427 14.9186 17.3431 14.9186 17.3431C14.9186 17.3431 13.2221 17.2433 12.59 17.1436C10.96 16.944 11.0598 15.5468 12.2906 15.6466Z" fill="#CCCFD4"/>
</svg>
